<svg width="269" height="238" viewBox="0 0 269 238" fill="none" xmlns="http://www.w3.org/2000/svg">
<rect width="269" height="238" fill="white"/>
<path d="M23.728 39V29.352H20.448V27.8H28.944V29.352H25.648V39H23.728ZM30.6261 42.52L32.5941 38.104H32.1141L28.8981 30.968H30.9781L33.3941 36.424L35.6661 30.968H37.6981L32.6581 42.52H30.6261ZM39.0876 42.52V30.968H40.7996L41.0076 32.136C41.1783 31.8907 41.381 31.6667 41.6156 31.464C41.861 31.2507 42.1543 31.0853 42.4956 30.968C42.8476 30.84 43.2476 30.776 43.6956 30.776C44.453 30.776 45.1196 30.9627 45.6956 31.336C46.2823 31.6987 46.741 32.2 47.0716 32.84C47.4023 33.4693 47.5676 34.1893 47.5676 35C47.5676 35.8 47.397 36.52 47.0556 37.16C46.725 37.7893 46.2663 38.2853 45.6796 38.648C45.1036 39.0107 44.4423 39.192 43.6956 39.192C43.0876 39.192 42.5543 39.08 42.0956 38.856C41.6476 38.6213 41.285 38.2907 41.0076 37.864V42.52H39.0876ZM43.2956 37.528C43.7436 37.528 44.1436 37.4213 44.4956 37.208C44.8476 36.9947 45.1196 36.696 45.3116 36.312C45.5143 35.928 45.6156 35.4853 45.6156 34.984C45.6156 34.4827 45.5143 34.0453 45.3116 33.672C45.1196 33.288 44.8476 32.9893 44.4956 32.776C44.1436 32.552 43.7436 32.44 43.2956 32.44C42.837 32.44 42.4316 32.552 42.0796 32.776C41.7383 32.9893 41.4663 33.288 41.2636 33.672C41.0716 34.0453 40.9756 34.4827 40.9756 34.984C40.9756 35.4853 41.0716 35.928 41.2636 36.312C41.4663 36.696 41.7383 36.9947 42.0796 37.208C42.4316 37.4213 42.837 37.528 43.2956 37.528ZM53.191 39.192C52.4337 39.192 51.7457 39.016 51.127 38.664C50.519 38.312 50.039 37.8213 49.687 37.192C49.335 36.552 49.159 35.816 49.159 34.984C49.159 34.152 49.335 33.4213 49.687 32.792C50.0497 32.152 50.535 31.656 51.143 31.304C51.7617 30.952 52.455 30.776 53.223 30.776C53.991 30.776 54.679 30.952 55.287 31.304C55.895 31.656 56.375 32.1467 56.727 32.776C57.079 33.4053 57.255 34.1413 57.255 34.984C57.255 35.816 57.079 36.552 56.727 37.192C56.375 37.8213 55.8897 38.312 55.271 38.664C54.663 39.016 53.9697 39.192 53.191 39.192ZM53.207 37.544C53.591 37.544 53.9377 37.448 54.247 37.256C54.567 37.064 54.823 36.7813 55.015 36.408C55.207 36.024 55.303 35.5493 55.303 34.984C55.303 34.4187 55.207 33.9493 55.015 33.576C54.8337 33.192 54.583 32.904 54.263 32.712C53.9537 32.52 53.607 32.424 53.223 32.424C52.8497 32.424 52.503 32.52 52.183 32.712C51.863 32.904 51.607 33.192 51.415 33.576C51.223 33.9493 51.127 34.4187 51.127 34.984C51.127 35.5387 51.223 36.008 51.415 36.392C51.607 36.776 51.8577 37.064 52.167 37.256C52.487 37.448 52.8337 37.544 53.207 37.544ZM62.0418 42.712C61.2951 42.712 60.6338 42.616 60.0578 42.424C59.4924 42.2427 59.0498 41.96 58.7298 41.576C58.4204 41.2027 58.2658 40.7333 58.2658 40.168C58.2658 39.8373 58.3458 39.512 58.5058 39.192C58.6764 38.8827 58.9271 38.5947 59.2578 38.328C59.5991 38.0507 60.0311 37.816 60.5538 37.624L61.4018 38.536C60.8898 38.7173 60.5324 38.936 60.3298 39.192C60.1271 39.448 60.0258 39.7093 60.0258 39.976C60.0258 40.2533 60.1111 40.4827 60.2818 40.664C60.4631 40.856 60.7031 41 61.0018 41.096C61.3111 41.192 61.6578 41.24 62.0418 41.24C62.4151 41.24 62.7351 41.1867 63.0018 41.08C63.2791 40.984 63.4924 40.8453 63.6418 40.664C63.8018 40.4827 63.8818 40.264 63.8818 40.008C63.8818 39.6987 63.7698 39.4427 63.5458 39.24C63.3218 39.0373 62.8844 38.9147 62.2338 38.872C61.6578 38.8293 61.1564 38.7707 60.7298 38.696C60.3138 38.6107 59.9511 38.5147 59.6418 38.408C59.3431 38.3013 59.0871 38.184 58.8738 38.056C58.6604 37.9173 58.4844 37.7787 58.3458 37.64V37.272L60.0258 35.512L61.4498 35.976L59.5618 37.816L60.0578 36.904C60.1644 36.9787 60.2711 37.048 60.3778 37.112C60.4951 37.176 60.6391 37.2347 60.8098 37.288C60.9911 37.3307 61.2258 37.3733 61.5138 37.416C61.8018 37.448 62.1751 37.4853 62.6338 37.528C63.3484 37.592 63.9298 37.7253 64.3778 37.928C64.8258 38.12 65.1511 38.3867 65.3538 38.728C65.5671 39.0693 65.6737 39.48 65.6737 39.96C65.6737 40.4293 65.5404 40.872 65.2738 41.288C65.0178 41.704 64.6231 42.0453 64.0898 42.312C63.5564 42.5787 62.8738 42.712 62.0418 42.712ZM62.0418 36.584C61.3698 36.584 60.7938 36.456 60.3138 36.2C59.8338 35.9333 59.4658 35.5813 59.2098 35.144C58.9538 34.7067 58.8258 34.2213 58.8258 33.688C58.8258 33.144 58.9538 32.6533 59.2098 32.216C59.4658 31.7787 59.8338 31.432 60.3138 31.176C60.7938 30.9093 61.3698 30.776 62.0418 30.776C62.7244 30.776 63.3058 30.9093 63.7858 31.176C64.2658 31.432 64.6338 31.7787 64.8898 32.216C65.1458 32.6533 65.2738 33.144 65.2738 33.688C65.2738 34.2213 65.1458 34.7067 64.8898 35.144C64.6338 35.5813 64.2658 35.9333 63.7858 36.2C63.3058 36.456 62.7244 36.584 62.0418 36.584ZM62.0418 35.096C62.5004 35.096 62.8684 34.9787 63.1458 34.744C63.4338 34.4987 63.5778 34.1467 63.5778 33.688C63.5778 33.2293 63.4338 32.8827 63.1458 32.648C62.8684 32.4027 62.5004 32.28 62.0418 32.28C61.5938 32.28 61.2258 32.4027 60.9378 32.648C60.6498 32.8827 60.5058 33.2293 60.5058 33.688C60.5058 34.1467 60.6444 34.4987 60.9218 34.744C61.2098 34.9787 61.5831 35.096 62.0418 35.096ZM63.3698 32.376L63.0018 30.968H66.3138V32.168L63.3698 32.376ZM68.0095 39V30.968H69.7215L69.8975 32.472C70.0895 32.12 70.3295 31.8213 70.6175 31.576C70.9055 31.32 71.2415 31.1227 71.6255 30.984C72.0095 30.8453 72.4308 30.776 72.8895 30.776V32.792H72.2655C71.9348 32.792 71.6255 32.8347 71.3375 32.92C71.0495 32.9947 70.7988 33.1227 70.5855 33.304C70.3828 33.4853 70.2228 33.7307 70.1055 34.04C69.9882 34.3387 69.9295 34.7173 69.9295 35.176V39H68.0095ZM77.0413 39.192C76.3799 39.192 75.8306 39.0853 75.3932 38.872C74.9559 38.648 74.6306 38.3493 74.4173 37.976C74.2039 37.6027 74.0973 37.192 74.0973 36.744C74.0973 36.2427 74.2253 35.8053 74.4813 35.432C74.7479 35.0587 75.1373 34.7707 75.6493 34.568C76.1613 34.3547 76.7906 34.248 77.5373 34.248H79.5693C79.5693 33.8213 79.5106 33.4693 79.3933 33.192C79.2759 32.9147 79.0946 32.7067 78.8493 32.568C78.6039 32.4187 78.2893 32.344 77.9053 32.344C77.4679 32.344 77.0893 32.4453 76.7693 32.648C76.4599 32.8507 76.2679 33.1547 76.1933 33.56H74.3053C74.3693 32.984 74.5613 32.488 74.8813 32.072C75.2119 31.656 75.6386 31.336 76.1613 31.112C76.6946 30.888 77.2759 30.776 77.9053 30.776C78.6626 30.776 79.3079 30.9093 79.8413 31.176C80.3746 31.432 80.7799 31.8 81.0573 32.28C81.3453 32.76 81.4893 33.3413 81.4893 34.024V39H79.8573L79.6653 37.704C79.5586 37.9173 79.4199 38.1147 79.2493 38.296C79.0893 38.4773 78.9026 38.6373 78.6893 38.776C78.4759 38.904 78.2306 39.0053 77.9533 39.08C77.6866 39.1547 77.3826 39.192 77.0413 39.192ZM77.4733 37.672C77.7826 37.672 78.0546 37.6187 78.2893 37.512C78.5346 37.3947 78.7426 37.2347 78.9133 37.032C79.0946 36.8293 79.2333 36.6 79.3293 36.344C79.4253 36.0773 79.4893 35.8 79.5213 35.512V35.48H77.7453C77.3613 35.48 77.0466 35.528 76.8013 35.624C76.5666 35.72 76.3959 35.8533 76.2893 36.024C76.1826 36.1947 76.1293 36.3867 76.1293 36.6C76.1293 36.824 76.1826 37.0213 76.2893 37.192C76.3959 37.352 76.5506 37.4747 76.7533 37.56C76.9559 37.6347 77.1959 37.672 77.4733 37.672ZM83.5251 42.52V30.968H85.2371L85.4451 32.136C85.6158 31.8907 85.8185 31.6667 86.0531 31.464C86.2985 31.2507 86.5918 31.0853 86.9331 30.968C87.2851 30.84 87.6851 30.776 88.1331 30.776C88.8905 30.776 89.5571 30.9627 90.1331 31.336C90.7198 31.6987 91.1785 32.2 91.5091 32.84C91.8398 33.4693 92.0051 34.1893 92.0051 35C92.0051 35.8 91.8345 36.52 91.4931 37.16C91.1625 37.7893 90.7038 38.2853 90.1171 38.648C89.5411 39.0107 88.8798 39.192 88.1331 39.192C87.5251 39.192 86.9918 39.08 86.5331 38.856C86.0851 38.6213 85.7225 38.2907 85.4451 37.864V42.52H83.5251ZM87.7331 37.528C88.1811 37.528 88.5811 37.4213 88.9331 37.208C89.2851 36.9947 89.5571 36.696 89.7491 36.312C89.9518 35.928 90.0531 35.4853 90.0531 34.984C90.0531 34.4827 89.9518 34.0453 89.7491 33.672C89.5571 33.288 89.2851 32.9893 88.9331 32.776C88.5811 32.552 88.1811 32.44 87.7331 32.44C87.2745 32.44 86.8691 32.552 86.5171 32.776C86.1758 32.9893 85.9038 33.288 85.7011 33.672C85.5091 34.0453 85.4131 34.4827 85.4131 34.984C85.4131 35.4853 85.5091 35.928 85.7011 36.312C85.9038 36.696 86.1758 36.9947 86.5171 37.208C86.8691 37.4213 87.2745 37.528 87.7331 37.528ZM93.8845 39V27.48H95.8045V32.216C96.0712 31.768 96.4285 31.416 96.8765 31.16C97.3352 30.904 97.8578 30.776 98.4445 30.776C99.0952 30.776 99.6498 30.9147 100.109 31.192C100.567 31.4587 100.919 31.8587 101.165 32.392C101.41 32.9147 101.533 33.5707 101.533 34.36V39H99.6285V34.536C99.6285 33.8427 99.4792 33.3147 99.1805 32.952C98.8925 32.5787 98.4498 32.392 97.8525 32.392C97.4685 32.392 97.1165 32.488 96.7965 32.68C96.4872 32.8613 96.2418 33.128 96.0605 33.48C95.8898 33.832 95.8045 34.2587 95.8045 34.76V39H93.8845ZM104.251 42.52L106.219 38.104H105.739L102.523 30.968H104.603L107.019 36.424L109.291 30.968H111.323L106.283 42.52H104.251Z" fill="#051A2F"/>
<path opacity="0.6" d="M23.346 63V54.166H20.42V53.2H27.448V54.166H24.522V63H23.346ZM28.9004 66.08L30.6224 62.216H30.2164L27.4444 55.944H28.7184L31.0144 61.334L33.4224 55.944H34.6404L30.1324 66.08H28.9004ZM35.9097 66.08V55.944H36.9737L37.0717 57.092C37.221 56.868 37.4124 56.658 37.6457 56.462C37.879 56.2567 38.159 56.0933 38.4857 55.972C38.8124 55.8413 39.1857 55.776 39.6057 55.776C40.2964 55.776 40.8937 55.9393 41.3977 56.266C41.911 56.5927 42.3077 57.036 42.5877 57.596C42.877 58.1467 43.0217 58.7767 43.0217 59.486C43.0217 60.1953 42.877 60.83 42.5877 61.39C42.3077 61.9407 41.911 62.3747 41.3977 62.692C40.8844 63.0093 40.2824 63.168 39.5917 63.168C39.0224 63.168 38.5184 63.0513 38.0797 62.818C37.6504 62.5847 37.319 62.258 37.0857 61.838V66.08H35.9097ZM39.4657 62.146C39.923 62.146 40.329 62.034 40.6837 61.81C41.0384 61.586 41.3137 61.278 41.5097 60.886C41.715 60.4847 41.8177 60.0133 41.8177 59.472C41.8177 58.94 41.715 58.4733 41.5097 58.072C41.3137 57.6707 41.0384 57.358 40.6837 57.134C40.329 56.91 39.923 56.798 39.4657 56.798C38.999 56.798 38.5884 56.91 38.2337 57.134C37.879 57.358 37.6037 57.6707 37.4077 58.072C37.2117 58.4733 37.1137 58.94 37.1137 59.472C37.1137 60.0133 37.2117 60.4847 37.4077 60.886C37.6037 61.278 37.879 61.586 38.2337 61.81C38.5884 62.034 38.999 62.146 39.4657 62.146ZM47.8234 63.168C47.17 63.168 46.582 63.0187 46.0594 62.72C45.5367 62.412 45.126 61.9827 44.8274 61.432C44.5287 60.872 44.3794 60.2233 44.3794 59.486C44.3794 58.73 44.5287 58.0767 44.8274 57.526C45.1354 56.966 45.5507 56.5367 46.0734 56.238C46.6054 55.93 47.198 55.776 47.8514 55.776C48.5234 55.776 49.116 55.93 49.6294 56.238C50.152 56.5367 50.5627 56.966 50.8614 57.526C51.1694 58.0767 51.3234 58.7253 51.3234 59.472C51.3234 60.2187 51.1694 60.872 50.8614 61.432C50.5534 61.9827 50.138 62.412 49.6154 62.72C49.0927 63.0187 48.4954 63.168 47.8234 63.168ZM47.8374 62.16C48.2387 62.16 48.612 62.062 48.9574 61.866C49.3027 61.6607 49.5827 61.3573 49.7974 60.956C50.012 60.5547 50.1194 60.06 50.1194 59.472C50.1194 58.8747 50.012 58.38 49.7974 57.988C49.592 57.5867 49.3167 57.288 48.9714 57.092C48.6354 56.8867 48.262 56.784 47.8514 56.784C47.4594 56.784 47.086 56.8867 46.7314 57.092C46.386 57.288 46.106 57.5867 45.8914 57.988C45.686 58.38 45.5834 58.8747 45.5834 59.472C45.5834 60.06 45.686 60.5547 45.8914 60.956C46.106 61.3573 46.3814 61.6607 46.7174 61.866C47.0627 62.062 47.436 62.16 47.8374 62.16ZM55.4574 66.248C54.8227 66.248 54.2581 66.164 53.7634 65.996C53.2781 65.8373 52.9001 65.59 52.6294 65.254C52.3587 64.918 52.2234 64.5027 52.2234 64.008C52.2234 63.7933 52.2654 63.5647 52.3494 63.322C52.4427 63.0793 52.5967 62.8413 52.8114 62.608C53.0354 62.3747 53.3481 62.1647 53.7494 61.978L54.5614 62.454C54.0667 62.6593 53.7447 62.8927 53.5954 63.154C53.4461 63.4247 53.3714 63.672 53.3714 63.896C53.3714 64.204 53.4601 64.4607 53.6374 64.666C53.8147 64.8713 54.0621 65.0253 54.3794 65.128C54.6967 65.2307 55.0561 65.282 55.4574 65.282C55.8587 65.282 56.2041 65.226 56.4934 65.114C56.7827 65.002 57.0067 64.8433 57.1654 64.638C57.3241 64.4327 57.4034 64.19 57.4034 63.91C57.4034 63.5833 57.2821 63.308 57.0394 63.084C56.7967 62.8693 56.3347 62.7433 55.6534 62.706C55.1027 62.6687 54.6407 62.6173 54.2674 62.552C53.8941 62.4867 53.5861 62.412 53.3434 62.328C53.1007 62.2347 52.8954 62.132 52.7274 62.02C52.5687 61.908 52.4241 61.7913 52.2934 61.67V61.348L53.6514 60.004L54.6734 60.368L53.2734 61.628L53.4554 61.138C53.5581 61.2127 53.6561 61.2827 53.7494 61.348C53.8427 61.4133 53.9687 61.4693 54.1274 61.516C54.2861 61.5627 54.5054 61.6047 54.7854 61.642C55.0747 61.6793 55.4527 61.7167 55.9194 61.754C56.5634 61.8007 57.0767 61.9127 57.4594 62.09C57.8514 62.2673 58.1314 62.5053 58.2994 62.804C58.4767 63.1027 58.5654 63.4573 58.5654 63.868C58.5654 64.2693 58.4534 64.6473 58.2294 65.002C58.0147 65.366 57.6787 65.6647 57.2214 65.898C56.7641 66.1313 56.1761 66.248 55.4574 66.248ZM55.4434 60.788C54.8554 60.788 54.3514 60.676 53.9314 60.452C53.5207 60.228 53.2081 59.9293 52.9934 59.556C52.7787 59.1733 52.6714 58.7487 52.6714 58.282C52.6714 57.8153 52.7787 57.3953 52.9934 57.022C53.2174 56.6487 53.5347 56.35 53.9454 56.126C54.3561 55.8927 54.8554 55.776 55.4434 55.776C56.0314 55.776 56.5307 55.8927 56.9414 56.126C57.3521 56.35 57.6647 56.6487 57.8794 57.022C58.0941 57.3953 58.2014 57.8153 58.2014 58.282C58.2014 58.7487 58.0941 59.1733 57.8794 59.556C57.6647 59.9293 57.3521 60.228 56.9414 60.452C56.5307 60.676 56.0314 60.788 55.4434 60.788ZM55.4434 59.822C55.9474 59.822 56.3441 59.6913 56.6334 59.43C56.9227 59.1687 57.0674 58.786 57.0674 58.282C57.0674 57.7873 56.9227 57.4093 56.6334 57.148C56.3441 56.8867 55.9474 56.756 55.4434 56.756C54.9487 56.756 54.5474 56.8867 54.2394 57.148C53.9407 57.4093 53.7914 57.7873 53.7914 58.282C53.7914 58.786 53.9407 59.1687 54.2394 59.43C54.5381 59.6913 54.9394 59.822 55.4434 59.822ZM56.5914 56.938L56.2414 55.944H59.1254V56.826L56.5914 56.938ZM60.478 63V55.944H61.542L61.626 57.288C61.7847 56.9707 61.9854 56.7 62.228 56.476C62.48 56.252 62.7787 56.0793 63.124 55.958C63.4787 55.8367 63.88 55.776 64.328 55.776V57.008H63.894C63.5954 57.008 63.3107 57.05 63.04 57.134C62.7694 57.2087 62.5267 57.3347 62.312 57.512C62.1067 57.6893 61.9434 57.932 61.822 58.24C61.71 58.5387 61.654 58.912 61.654 59.36V63H60.478ZM67.9557 63.168C67.3864 63.168 66.9104 63.07 66.5277 62.874C66.145 62.6687 65.8604 62.4027 65.6737 62.076C65.487 61.74 65.3937 61.376 65.3937 60.984C65.3937 60.508 65.515 60.1067 65.7577 59.78C66.0097 59.444 66.3597 59.192 66.8077 59.024C67.265 58.8467 67.8017 58.758 68.4177 58.758H70.2797C70.2797 58.3193 70.2097 57.9553 70.0697 57.666C69.939 57.3673 69.743 57.1433 69.4817 56.994C69.2297 56.8447 68.9124 56.77 68.5297 56.77C68.0817 56.77 67.6944 56.882 67.3677 57.106C67.041 57.33 66.8404 57.6613 66.7657 58.1H65.5617C65.6177 57.596 65.7857 57.176 66.0657 56.84C66.355 56.4947 66.719 56.2333 67.1577 56.056C67.5964 55.8693 68.0537 55.776 68.5297 55.776C69.183 55.776 69.7244 55.8973 70.1537 56.14C70.5924 56.3733 70.919 56.7047 71.1337 57.134C71.3484 57.554 71.4557 58.0533 71.4557 58.632V63H70.4057L70.3357 61.754C70.2424 61.95 70.121 62.1367 69.9717 62.314C69.8317 62.482 69.6637 62.6313 69.4677 62.762C69.2717 62.8833 69.0477 62.9813 68.7957 63.056C68.553 63.1307 68.273 63.168 67.9557 63.168ZM68.1377 62.174C68.4644 62.174 68.7584 62.1087 69.0197 61.978C69.2904 61.838 69.519 61.6513 69.7057 61.418C69.8924 61.1753 70.0324 60.9093 70.1257 60.62C70.2284 60.3307 70.2797 60.0273 70.2797 59.71V59.668H68.5157C68.0584 59.668 67.6897 59.724 67.4097 59.836C67.1297 59.9387 66.929 60.088 66.8077 60.284C66.6864 60.4707 66.6257 60.6853 66.6257 60.928C66.6257 61.18 66.6817 61.3993 66.7937 61.586C66.915 61.7727 67.0877 61.9173 67.3117 62.02C67.545 62.1227 67.8204 62.174 68.1377 62.174ZM73.2749 66.08V55.944H74.3389L74.4369 57.092C74.5863 56.868 74.7776 56.658 75.0109 56.462C75.2443 56.2567 75.5243 56.0933 75.8509 55.972C76.1776 55.8413 76.5509 55.776 76.9709 55.776C77.6616 55.776 78.2589 55.9393 78.7629 56.266C79.2763 56.5927 79.6729 57.036 79.9529 57.596C80.2423 58.1467 80.3869 58.7767 80.3869 59.486C80.3869 60.1953 80.2423 60.83 79.9529 61.39C79.6729 61.9407 79.2763 62.3747 78.7629 62.692C78.2496 63.0093 77.6476 63.168 76.9569 63.168C76.3876 63.168 75.8836 63.0513 75.4449 62.818C75.0156 62.5847 74.6843 62.258 74.4509 61.838V66.08H73.2749ZM76.8309 62.146C77.2883 62.146 77.6943 62.034 78.0489 61.81C78.4036 61.586 78.6789 61.278 78.8749 60.886C79.0803 60.4847 79.1829 60.0133 79.1829 59.472C79.1829 58.94 79.0803 58.4733 78.8749 58.072C78.6789 57.6707 78.4036 57.358 78.0489 57.134C77.6943 56.91 77.2883 56.798 76.8309 56.798C76.3643 56.798 75.9536 56.91 75.5989 57.134C75.2443 57.358 74.9689 57.6707 74.7729 58.072C74.5769 58.4733 74.4789 58.94 74.4789 59.472C74.4789 60.0133 74.5769 60.4847 74.7729 60.886C74.9689 61.278 75.2443 61.586 75.5989 61.81C75.9536 62.034 76.3643 62.146 76.8309 62.146ZM82.0386 63V52.92H83.2146V57.134C83.4479 56.714 83.7746 56.3827 84.1946 56.14C84.6239 55.8973 85.0906 55.776 85.5946 55.776C86.1359 55.776 86.6073 55.888 87.0086 56.112C87.4099 56.3267 87.7179 56.658 87.9326 57.106C88.1473 57.554 88.2546 58.1187 88.2546 58.8V63H87.0926V58.926C87.0926 58.2167 86.9433 57.6847 86.6446 57.33C86.3459 56.966 85.9119 56.784 85.3426 56.784C84.9413 56.784 84.5773 56.882 84.2506 57.078C83.9333 57.274 83.6813 57.554 83.4946 57.918C83.3079 58.282 83.2146 58.73 83.2146 59.262V63H82.0386ZM90.6562 66.08L92.3783 62.216H91.9723L89.2003 55.944H90.4743L92.7703 61.334L95.1783 55.944H96.3963L91.8883 66.08H90.6562ZM103.75 63V54.166H100.824V53.2H107.852V54.166H104.926V63H103.75ZM109.232 63V52.92H110.408V57.134C110.641 56.714 110.968 56.3827 111.388 56.14C111.817 55.8973 112.284 55.776 112.788 55.776C113.329 55.776 113.801 55.888 114.202 56.112C114.603 56.3267 114.911 56.658 115.126 57.106C115.341 57.554 115.448 58.1187 115.448 58.8V63H114.286V58.926C114.286 58.2167 114.137 57.6847 113.838 57.33C113.539 56.966 113.105 56.784 112.536 56.784C112.135 56.784 111.771 56.882 111.444 57.078C111.127 57.274 110.875 57.554 110.688 57.918C110.501 58.282 110.408 58.73 110.408 59.262V63H109.232ZM119.581 63.168C119.011 63.168 118.535 63.07 118.153 62.874C117.77 62.6687 117.485 62.4027 117.299 62.076C117.112 61.74 117.019 61.376 117.019 60.984C117.019 60.508 117.14 60.1067 117.383 59.78C117.635 59.444 117.985 59.192 118.433 59.024C118.89 58.8467 119.427 58.758 120.043 58.758H121.905C121.905 58.3193 121.835 57.9553 121.695 57.666C121.564 57.3673 121.368 57.1433 121.107 56.994C120.855 56.8447 120.537 56.77 120.155 56.77C119.707 56.77 119.319 56.882 118.993 57.106C118.666 57.33 118.465 57.6613 118.391 58.1H117.187C117.243 57.596 117.411 57.176 117.691 56.84C117.98 56.4947 118.344 56.2333 118.783 56.056C119.221 55.8693 119.679 55.776 120.155 55.776C120.808 55.776 121.349 55.8973 121.779 56.14C122.217 56.3733 122.544 56.7047 122.759 57.134C122.973 57.554 123.081 58.0533 123.081 58.632V63H122.031L121.961 61.754C121.867 61.95 121.746 62.1367 121.597 62.314C121.457 62.482 121.289 62.6313 121.093 62.762C120.897 62.8833 120.673 62.9813 120.421 63.056C120.178 63.1307 119.898 63.168 119.581 63.168ZM119.763 62.174C120.089 62.174 120.383 62.1087 120.645 61.978C120.915 61.838 121.144 61.6513 121.331 61.418C121.517 61.1753 121.657 60.9093 121.751 60.62C121.853 60.3307 121.905 60.0273 121.905 59.71V59.668H120.141C119.683 59.668 119.315 59.724 119.035 59.836C118.755 59.9387 118.554 60.088 118.433 60.284C118.311 60.4707 118.251 60.6853 118.251 60.928C118.251 61.18 118.307 61.3993 118.419 61.586C118.54 61.7727 118.713 61.9173 118.937 62.02C119.17 62.1227 119.445 62.174 119.763 62.174ZM127.481 63C127.061 63 126.697 62.9347 126.389 62.804C126.081 62.6733 125.843 62.454 125.675 62.146C125.516 61.8287 125.437 61.404 125.437 60.872V56.938H124.205V55.944H125.437L125.591 54.236H126.613V55.944H128.657V56.938H126.613V60.872C126.613 61.3107 126.701 61.6093 126.879 61.768C127.056 61.9173 127.369 61.992 127.817 61.992H128.573V63H127.481ZM133.35 63L136.962 53.2H138.208L141.806 63H140.56L137.578 54.67L134.582 63H133.35ZM135.002 60.48L135.338 59.528H139.776L140.112 60.48H135.002ZM143.207 63V55.944H144.271L144.341 56.952C144.565 56.588 144.863 56.3033 145.237 56.098C145.619 55.8833 146.035 55.776 146.483 55.776C146.847 55.776 147.173 55.8273 147.463 55.93C147.761 56.0233 148.023 56.1727 148.247 56.378C148.471 56.574 148.653 56.826 148.793 57.134C149.035 56.7047 149.367 56.3733 149.787 56.14C150.216 55.8973 150.673 55.776 151.159 55.776C151.7 55.776 152.171 55.888 152.573 56.112C152.983 56.3267 153.296 56.658 153.511 57.106C153.735 57.5447 153.847 58.1047 153.847 58.786V63H152.685V58.912C152.685 58.2027 152.54 57.6707 152.251 57.316C151.961 56.9613 151.555 56.784 151.033 56.784C150.669 56.784 150.342 56.882 150.053 57.078C149.763 57.2647 149.535 57.54 149.367 57.904C149.199 58.268 149.115 58.716 149.115 59.248V63H147.939V58.912C147.939 58.2027 147.794 57.6707 147.505 57.316C147.215 56.9613 146.805 56.784 146.273 56.784C145.918 56.784 145.596 56.882 145.307 57.078C145.027 57.2647 144.803 57.54 144.635 57.904C144.467 58.268 144.383 58.716 144.383 59.248V63H143.207ZM155.675 66.08V55.944H156.739L156.837 57.092C156.987 56.868 157.178 56.658 157.411 56.462C157.645 56.2567 157.925 56.0933 158.251 55.972C158.578 55.8413 158.951 55.776 159.371 55.776C160.062 55.776 160.659 55.9393 161.163 56.266C161.677 56.5927 162.073 57.036 162.353 57.596C162.643 58.1467 162.787 58.7767 162.787 59.486C162.787 60.1953 162.643 60.83 162.353 61.39C162.073 61.9407 161.677 62.3747 161.163 62.692C160.65 63.0093 160.048 63.168 159.357 63.168C158.788 63.168 158.284 63.0513 157.845 62.818C157.416 62.5847 157.085 62.258 156.851 61.838V66.08H155.675ZM159.231 62.146C159.689 62.146 160.095 62.034 160.449 61.81C160.804 61.586 161.079 61.278 161.275 60.886C161.481 60.4847 161.583 60.0133 161.583 59.472C161.583 58.94 161.481 58.4733 161.275 58.072C161.079 57.6707 160.804 57.358 160.449 57.134C160.095 56.91 159.689 56.798 159.231 56.798C158.765 56.798 158.354 56.91 157.999 57.134C157.645 57.358 157.369 57.6707 157.173 58.072C156.977 58.4733 156.879 58.94 156.879 59.472C156.879 60.0133 156.977 60.4847 157.173 60.886C157.369 61.278 157.645 61.586 157.999 61.81C158.354 62.034 158.765 62.146 159.231 62.146ZM164.439 63V52.92H165.615V63H164.439ZM167.668 63V55.944H168.844V63H167.668ZM168.256 54.446C168.023 54.446 167.827 54.3713 167.668 54.222C167.519 54.0633 167.444 53.8673 167.444 53.634C167.444 53.4007 167.519 53.214 167.668 53.074C167.827 52.9247 168.023 52.85 168.256 52.85C168.48 52.85 168.672 52.9247 168.83 53.074C168.989 53.214 169.068 53.4007 169.068 53.634C169.068 53.8673 168.989 54.0633 168.83 54.222C168.672 54.3713 168.48 54.446 168.256 54.446ZM171.311 63V56.938H170.233V55.944H171.311V54.852C171.311 54.404 171.386 54.04 171.535 53.76C171.685 53.4707 171.904 53.2607 172.193 53.13C172.492 52.99 172.856 52.92 173.285 52.92H173.985V53.928H173.467C173.122 53.928 172.87 53.998 172.711 54.138C172.562 54.278 172.487 54.5253 172.487 54.88V55.944H176.715V63H175.539V56.938H172.487V63H171.311ZM176.141 54.6C175.917 54.6 175.726 54.5253 175.567 54.376C175.409 54.2173 175.329 54.0213 175.329 53.788C175.329 53.5547 175.409 53.368 175.567 53.228C175.726 53.0787 175.917 53.004 176.141 53.004C176.375 53.004 176.566 53.0787 176.715 53.228C176.874 53.368 176.953 53.5547 176.953 53.788C176.953 54.0213 176.874 54.2173 176.715 54.376C176.566 54.5253 176.375 54.6 176.141 54.6ZM181.902 63.168C181.239 63.168 180.651 63.014 180.138 62.706C179.634 62.398 179.237 61.9687 178.948 61.418C178.659 60.858 178.514 60.2093 178.514 59.472C178.514 58.7253 178.654 58.0767 178.934 57.526C179.223 56.9753 179.625 56.546 180.138 56.238C180.661 55.93 181.258 55.776 181.93 55.776C182.621 55.776 183.204 55.93 183.68 56.238C184.165 56.546 184.534 56.952 184.786 57.456C185.047 57.9507 185.178 58.4967 185.178 59.094C185.178 59.1873 185.178 59.2853 185.178 59.388C185.178 59.4907 185.173 59.6073 185.164 59.738H179.396V58.828H184.03C184.002 58.184 183.787 57.68 183.386 57.316C182.994 56.952 182.499 56.77 181.902 56.77C181.501 56.77 181.127 56.8633 180.782 57.05C180.446 57.2273 180.175 57.4933 179.97 57.848C179.765 58.1933 179.662 58.6273 179.662 59.15V59.542C179.662 60.1207 179.765 60.606 179.97 60.998C180.185 61.39 180.46 61.684 180.796 61.88C181.141 62.076 181.51 62.174 181.902 62.174C182.397 62.174 182.803 62.0667 183.12 61.852C183.447 61.628 183.68 61.3293 183.82 60.956H184.982C184.87 61.376 184.674 61.754 184.394 62.09C184.114 62.426 183.764 62.692 183.344 62.888C182.933 63.0747 182.453 63.168 181.902 63.168ZM189.425 63.168C188.837 63.168 188.324 63.07 187.885 62.874C187.456 62.678 187.11 62.4073 186.849 62.062C186.597 61.7073 186.443 61.292 186.387 60.816H187.591C187.638 61.0587 187.736 61.2827 187.885 61.488C188.034 61.6933 188.235 61.8613 188.487 61.992C188.748 62.1133 189.066 62.174 189.439 62.174C189.766 62.174 190.036 62.1273 190.251 62.034C190.466 61.9313 190.624 61.796 190.727 61.628C190.839 61.46 190.895 61.278 190.895 61.082C190.895 60.7927 190.825 60.5733 190.685 60.424C190.554 60.2747 190.358 60.158 190.097 60.074C189.836 59.9807 189.518 59.9013 189.145 59.836C188.837 59.78 188.534 59.7053 188.235 59.612C187.936 59.5187 187.67 59.3973 187.437 59.248C187.204 59.0893 187.017 58.898 186.877 58.674C186.746 58.45 186.681 58.1747 186.681 57.848C186.681 57.4467 186.784 57.092 186.989 56.784C187.194 56.4667 187.488 56.2193 187.871 56.042C188.263 55.8647 188.716 55.776 189.229 55.776C189.985 55.776 190.596 55.958 191.063 56.322C191.53 56.686 191.805 57.2133 191.889 57.904H190.727C190.68 57.5493 190.526 57.274 190.265 57.078C190.013 56.8727 189.663 56.77 189.215 56.77C188.776 56.77 188.44 56.8587 188.207 57.036C187.983 57.2133 187.871 57.4467 187.871 57.736C187.871 57.9227 187.932 58.0907 188.053 58.24C188.184 58.38 188.37 58.5013 188.613 58.604C188.865 58.7067 189.173 58.7907 189.537 58.856C190.004 58.94 190.428 59.052 190.811 59.192C191.194 59.332 191.502 59.542 191.735 59.822C191.978 60.0927 192.099 60.48 192.099 60.984C192.099 61.4227 191.987 61.8053 191.763 62.132C191.548 62.4587 191.24 62.7153 190.839 62.902C190.438 63.0793 189.966 63.168 189.425 63.168Z" fill="#051A2F"/>
<path d="M21.0586 158L26.7031 99.5625H46.5254L52.0703 158H41.0137L40.1836 148.57H33.1445L32.4141 158H21.0586ZM33.9746 139.24H39.2871L36.7305 109.523H36.1992L33.9746 139.24ZM62.5215 158.531C59.7546 158.531 57.6406 157.889 56.1797 156.605C54.7409 155.322 53.7559 153.562 53.2246 151.326C52.6934 149.09 52.4277 146.556 52.4277 143.723C52.4277 140.69 52.7266 138.211 53.3242 136.285C53.9219 134.337 54.9401 132.743 56.3789 131.504C57.8398 130.264 59.8431 129.213 62.3887 128.35L69.7598 125.826V120.713C69.7598 118.035 68.8854 116.695 67.1367 116.695C65.543 116.695 64.7461 117.78 64.7461 119.949V122.938H53.1914C53.1693 122.76 53.1582 122.539 53.1582 122.273C53.1582 121.986 53.1582 121.665 53.1582 121.311C53.1582 116.352 54.3203 112.844 56.6445 110.785C58.9909 108.704 62.6986 107.664 67.7676 107.664C70.4238 107.664 72.8034 108.14 74.9062 109.092C77.0091 110.021 78.6693 111.405 79.8867 113.242C81.1263 115.079 81.7461 117.348 81.7461 120.049V158H69.9258V152.09C69.3503 154.171 68.3984 155.764 67.0703 156.871C65.7422 157.978 64.2259 158.531 62.5215 158.531ZM67.2031 149.301C68.1771 149.301 68.8411 148.891 69.1953 148.072C69.5495 147.253 69.7266 146.368 69.7266 145.416V131.537C68.0885 132.201 66.8158 133.042 65.9082 134.061C65.0007 135.057 64.5469 136.529 64.5469 138.477V144.885C64.5469 147.829 65.4323 149.301 67.2031 149.301Z" fill="#051A2F"/>
<path opacity="0.6" d="M20.31 187L22.89 180H23.78L26.35 187H25.45L23.33 181.05L21.19 187H20.31ZM21.49 185.2L21.73 184.52H24.9L25.14 185.2H21.49ZM27.4204 187V180H29.8804C30.3737 180 30.7804 180.08 31.1004 180.24C31.4271 180.393 31.6704 180.607 31.8304 180.88C31.9904 181.147 32.0704 181.447 32.0704 181.78C32.0704 182.14 31.9904 182.44 31.8304 182.68C31.6771 182.92 31.4737 183.103 31.2204 183.23C30.9737 183.357 30.7104 183.433 30.4304 183.46L30.5704 183.36C30.8704 183.367 31.1471 183.447 31.4004 183.6C31.6537 183.753 31.8537 183.96 32.0004 184.22C32.1537 184.48 32.2304 184.77 32.2304 185.09C32.2304 185.443 32.1437 185.767 31.9704 186.06C31.7971 186.347 31.5404 186.577 31.2004 186.75C30.8671 186.917 30.4537 187 29.9604 187H27.4204ZM28.2604 186.3H29.8704C30.3437 186.3 30.7104 186.19 30.9704 185.97C31.2371 185.743 31.3704 185.43 31.3704 185.03C31.3704 184.637 31.2337 184.323 30.9604 184.09C30.6937 183.85 30.3237 183.73 29.8504 183.73H28.2604V186.3ZM28.2604 183.06H29.8204C30.2737 183.06 30.6171 182.953 30.8504 182.74C31.0904 182.527 31.2104 182.237 31.2104 181.87C31.2104 181.517 31.0904 181.233 30.8504 181.02C30.6171 180.807 30.2637 180.7 29.7904 180.7H28.2604V183.06ZM36.4348 187.12C35.7748 187.12 35.2015 186.97 34.7148 186.67C34.2348 186.363 33.8615 185.94 33.5948 185.4C33.3348 184.853 33.2048 184.22 33.2048 183.5C33.2048 182.78 33.3348 182.15 33.5948 181.61C33.8615 181.063 34.2348 180.64 34.7148 180.34C35.2015 180.033 35.7748 179.88 36.4348 179.88C37.2282 179.88 37.8715 180.07 38.3648 180.45C38.8582 180.83 39.1748 181.367 39.3148 182.06H38.4048C38.2915 181.627 38.0715 181.28 37.7448 181.02C37.4248 180.753 36.9882 180.62 36.4348 180.62C35.9548 180.62 35.5348 180.737 35.1748 180.97C34.8215 181.197 34.5482 181.527 34.3548 181.96C34.1615 182.387 34.0648 182.9 34.0648 183.5C34.0648 184.1 34.1615 184.617 34.3548 185.05C34.5482 185.477 34.8215 185.807 35.1748 186.04C35.5348 186.267 35.9548 186.38 36.4348 186.38C36.9882 186.38 37.4248 186.253 37.7448 186C38.0715 185.74 38.2915 185.397 38.4048 184.97H39.3148C39.1748 185.643 38.8582 186.17 38.3648 186.55C37.8715 186.93 37.2282 187.12 36.4348 187.12ZM40.5747 187V180H42.3747C43.188 180 43.858 180.143 44.3847 180.43C44.918 180.71 45.3114 181.113 45.5647 181.64C45.8247 182.16 45.9547 182.787 45.9547 183.52C45.9547 184.24 45.8247 184.86 45.5647 185.38C45.3114 185.9 44.918 186.3 44.3847 186.58C43.858 186.86 43.188 187 42.3747 187H40.5747ZM41.4147 186.3H42.3547C43.028 186.3 43.5647 186.19 43.9647 185.97C44.3647 185.743 44.6514 185.423 44.8247 185.01C44.998 184.59 45.0847 184.093 45.0847 183.52C45.0847 182.933 44.998 182.43 44.8247 182.01C44.6514 181.59 44.3647 181.267 43.9647 181.04C43.5647 180.813 43.028 180.7 42.3547 180.7H41.4147V186.3ZM47.2153 187V180H51.5453V180.69H48.0553V183.13H51.2453V183.81H48.0553V186.31H51.5453V187H47.2153ZM52.9087 187V180H57.1687V180.69H53.7487V183.15H56.6587V183.83H53.7487V187H52.9087ZM61.2993 187.12C60.646 187.12 60.0726 186.97 59.5793 186.67C59.086 186.363 58.7026 185.94 58.4293 185.4C58.156 184.86 58.0193 184.23 58.0193 183.51C58.0193 182.797 58.156 182.167 58.4293 181.62C58.7093 181.073 59.1026 180.647 59.6093 180.34C60.1226 180.033 60.726 179.88 61.4193 179.88C62.206 179.88 62.8626 180.07 63.3893 180.45C63.916 180.823 64.2526 181.347 64.3993 182.02H63.4293C63.336 181.6 63.116 181.267 62.7693 181.02C62.4226 180.773 61.9726 180.65 61.4193 180.65C60.906 180.65 60.456 180.767 60.0693 181C59.6893 181.227 59.396 181.553 59.1893 181.98C58.9826 182.407 58.8793 182.917 58.8793 183.51C58.8793 184.103 58.9826 184.617 59.1893 185.05C59.396 185.477 59.6826 185.803 60.0493 186.03C60.4226 186.257 60.8493 186.37 61.3293 186.37C62.076 186.37 62.6393 186.15 63.0193 185.71C63.3993 185.27 63.616 184.673 63.6693 183.92H61.6493V183.26H64.5293V187H63.7593L63.6893 185.85C63.5226 186.123 63.3293 186.357 63.1093 186.55C62.896 186.737 62.6426 186.88 62.3493 186.98C62.056 187.073 61.706 187.12 61.2993 187.12ZM70.3865 187V180H71.2265V187H70.3865ZM65.9165 187V180H66.7565V187H65.9165ZM66.5965 183.78V183.09H70.5965V183.78H66.5965ZM72.7622 187V180H73.6022V187H72.7622ZM76.725 187.12C76.305 187.12 75.9417 187.04 75.635 186.88C75.335 186.72 75.1017 186.49 74.935 186.19C74.775 185.89 74.695 185.533 74.695 185.12H75.545C75.545 185.353 75.5817 185.567 75.655 185.76C75.735 185.947 75.8583 186.097 76.025 186.21C76.1983 186.317 76.4283 186.37 76.715 186.37C76.995 186.37 77.215 186.317 77.375 186.21C77.5417 186.103 77.6583 185.96 77.725 185.78C77.7983 185.593 77.835 185.383 77.835 185.15V180H78.675V185.15C78.675 185.777 78.5017 186.263 78.155 186.61C77.815 186.95 77.3383 187.12 76.725 187.12ZM80.2134 187V180H81.0534V183.17L83.9734 180H85.0334L82.4334 182.79L85.0734 187H84.0534L81.8334 183.44L81.0534 184.27V187H80.2134ZM86.1118 187V180H86.9518V186.33H90.2118V187H86.1118ZM91.4243 187V180H92.4043L94.7843 184.93L97.1443 180H98.1343V187H97.2943V181.51L95.0943 186.08H94.4643L92.2643 181.55V187H91.4243ZM99.6763 187V180H100.516L104.246 185.62V180H105.086V187H104.246L100.516 181.38V187H99.6763ZM109.589 187.12C108.949 187.12 108.386 186.97 107.899 186.67C107.413 186.363 107.033 185.94 106.759 185.4C106.486 184.853 106.349 184.22 106.349 183.5C106.349 182.787 106.486 182.16 106.759 181.62C107.033 181.073 107.413 180.647 107.899 180.34C108.386 180.033 108.949 179.88 109.589 179.88C110.243 179.88 110.813 180.033 111.299 180.34C111.786 180.647 112.163 181.073 112.429 181.62C112.696 182.16 112.829 182.787 112.829 183.5C112.829 184.22 112.696 184.853 112.429 185.4C112.163 185.94 111.786 186.363 111.299 186.67C110.813 186.97 110.243 187.12 109.589 187.12ZM109.589 186.38C110.069 186.38 110.486 186.267 110.839 186.04C111.199 185.807 111.476 185.477 111.669 185.05C111.869 184.617 111.969 184.1 111.969 183.5C111.969 182.9 111.869 182.387 111.669 181.96C111.476 181.527 111.199 181.197 110.839 180.97C110.486 180.743 110.069 180.63 109.589 180.63C109.116 180.63 108.699 180.743 108.339 180.97C107.986 181.197 107.709 181.527 107.509 181.96C107.309 182.387 107.209 182.9 107.209 183.5C107.209 184.1 107.309 184.617 107.509 185.05C107.709 185.477 107.986 185.807 108.339 186.04C108.699 186.267 109.116 186.38 109.589 186.38ZM20.77 198V191H23.02C23.58 191 24.04 191.093 24.4 191.28C24.76 191.467 25.0267 191.72 25.2 192.04C25.3733 192.353 25.46 192.71 25.46 193.11C25.46 193.503 25.3733 193.86 25.2 194.18C25.0267 194.5 24.76 194.753 24.4 194.94C24.0467 195.127 23.5867 195.22 23.02 195.22H21.61V198H20.77ZM21.61 194.51H23.01C23.5967 194.51 24.0067 194.383 24.24 194.13C24.48 193.87 24.6 193.53 24.6 193.11C24.6 192.67 24.48 192.327 24.24 192.08C24.0067 191.827 23.5967 191.7 23.01 191.7H21.61V194.51ZM31.4198 198.95L29.0698 195.27H30.0398L32.3898 198.95H31.4198ZM29.5698 198.12C28.9298 198.12 28.3665 197.97 27.8798 197.67C27.3932 197.363 27.0132 196.94 26.7398 196.4C26.4665 195.853 26.3298 195.22 26.3298 194.5C26.3298 193.787 26.4665 193.16 26.7398 192.62C27.0132 192.073 27.3932 191.647 27.8798 191.34C28.3665 191.033 28.9298 190.88 29.5698 190.88C30.2232 190.88 30.7932 191.033 31.2798 191.34C31.7665 191.647 32.1432 192.073 32.4098 192.62C32.6765 193.16 32.8098 193.787 32.8098 194.5C32.8098 195.22 32.6765 195.853 32.4098 196.4C32.1432 196.94 31.7665 197.363 31.2798 197.67C30.7932 197.97 30.2232 198.12 29.5698 198.12ZM29.5698 197.38C30.0498 197.38 30.4665 197.267 30.8198 197.04C31.1798 196.807 31.4565 196.477 31.6498 196.05C31.8498 195.617 31.9498 195.1 31.9498 194.5C31.9498 193.9 31.8498 193.387 31.6498 192.96C31.4565 192.527 31.1798 192.197 30.8198 191.97C30.4665 191.743 30.0498 191.63 29.5698 191.63C29.0965 191.63 28.6798 191.743 28.3198 191.97C27.9665 192.197 27.6898 192.527 27.4898 192.96C27.2898 193.387 27.1898 193.9 27.1898 194.5C27.1898 195.1 27.2898 195.617 27.4898 196.05C27.6898 196.477 27.9665 196.807 28.3198 197.04C28.6798 197.267 29.0965 197.38 29.5698 197.38ZM34.0708 198V191H36.3308C36.8774 191 37.3241 191.093 37.6708 191.28C38.0174 191.46 38.2741 191.703 38.4408 192.01C38.6074 192.317 38.6908 192.663 38.6908 193.05C38.6908 193.423 38.6041 193.767 38.4308 194.08C38.2641 194.393 38.0041 194.643 37.6508 194.83C37.2974 195.017 36.8441 195.11 36.2908 195.11H34.9108V198H34.0708ZM37.7708 198L36.2308 194.87H37.1708L38.7608 198H37.7708ZM34.9108 194.45H36.2708C36.8041 194.45 37.1941 194.32 37.4408 194.06C37.6941 193.8 37.8208 193.467 37.8208 193.06C37.8208 192.647 37.6974 192.32 37.4508 192.08C37.2108 191.833 36.8141 191.71 36.2608 191.71H34.9108V194.45ZM42.2873 198.12C41.774 198.12 41.3273 198.027 40.9473 197.84C40.5673 197.653 40.274 197.393 40.0673 197.06C39.8607 196.727 39.7573 196.34 39.7573 195.9H40.6373C40.6373 196.173 40.7007 196.427 40.8273 196.66C40.954 196.887 41.1373 197.07 41.3773 197.21C41.624 197.343 41.9273 197.41 42.2873 197.41C42.6007 197.41 42.8673 197.36 43.0873 197.26C43.314 197.153 43.484 197.01 43.5973 196.83C43.7173 196.65 43.7773 196.447 43.7773 196.22C43.7773 195.967 43.7207 195.757 43.6073 195.59C43.5007 195.417 43.3507 195.277 43.1573 195.17C42.964 195.057 42.7407 194.957 42.4873 194.87C42.234 194.783 41.9607 194.693 41.6673 194.6C41.0807 194.413 40.654 194.18 40.3873 193.9C40.1273 193.613 39.9973 193.247 39.9973 192.8C39.9973 192.42 40.084 192.087 40.2573 191.8C40.4373 191.513 40.6907 191.29 41.0173 191.13C41.3507 190.963 41.744 190.88 42.1973 190.88C42.644 190.88 43.0307 190.963 43.3573 191.13C43.6907 191.297 43.9507 191.527 44.1373 191.82C44.324 192.107 44.4173 192.44 44.4173 192.82H43.5373C43.5373 192.627 43.4873 192.437 43.3873 192.25C43.2873 192.063 43.134 191.91 42.9273 191.79C42.7273 191.663 42.474 191.6 42.1673 191.6C41.914 191.593 41.6873 191.637 41.4873 191.73C41.294 191.817 41.1407 191.943 41.0273 192.11C40.9207 192.277 40.8673 192.48 40.8673 192.72C40.8673 192.947 40.914 193.13 41.0073 193.27C41.1073 193.41 41.2473 193.53 41.4273 193.63C41.614 193.723 41.8307 193.81 42.0773 193.89C42.324 193.97 42.5973 194.06 42.8973 194.16C43.2373 194.273 43.5373 194.413 43.7973 194.58C44.064 194.74 44.2707 194.947 44.4173 195.2C44.5707 195.453 44.6473 195.777 44.6473 196.17C44.6473 196.503 44.5573 196.82 44.3773 197.12C44.204 197.413 43.944 197.653 43.5973 197.84C43.2507 198.027 42.814 198.12 42.2873 198.12ZM47.3707 198V191.69H45.2807V191H50.3007V191.69H48.2107V198H47.3707ZM53.8752 198.12C53.3952 198.12 52.9586 198.023 52.5652 197.83C52.1786 197.637 51.8686 197.343 51.6352 196.95C51.4019 196.55 51.2852 196.04 51.2852 195.42V191H52.1252V195.43C52.1252 195.883 52.1986 196.253 52.3452 196.54C52.4986 196.827 52.7086 197.037 52.9752 197.17C53.2419 197.303 53.5486 197.37 53.8952 197.37C54.2486 197.37 54.5552 197.303 54.8152 197.17C55.0752 197.037 55.2786 196.827 55.4252 196.54C55.5719 196.253 55.6452 195.883 55.6452 195.43V191H56.4852V195.42C56.4852 196.04 56.3686 196.55 56.1352 196.95C55.9019 197.343 55.5886 197.637 55.1952 197.83C54.8019 198.023 54.3619 198.12 53.8752 198.12ZM60.0182 198L57.3882 191H58.2982L60.5082 197.11L62.7382 191H63.6282L60.9982 198H60.0182ZM66.0574 198L64.1374 191H65.0374L66.5474 197L68.2574 191H69.1974L70.8674 197.02L72.3974 191H73.2974L71.3374 198H70.3774L68.7074 192.21L66.9974 198H66.0574ZM73.9447 198L76.0847 194.47L73.9447 191H74.8947L76.6147 193.79L78.2547 191H79.1947L77.0547 194.5L79.2047 198H78.2547L76.5247 195.18L74.8947 198H73.9447ZM82.0798 198V195.34L79.7998 191H80.7498L82.4998 194.54L84.2498 191H85.1898L82.9198 195.34V198H82.0798ZM85.8704 198V197.34L89.4904 191.73H85.9204V191H90.4704V191.66L86.8404 197.27H90.5104V198H85.8704Z" fill="#051A2F"/>
<path opacity="0.6" d="M21.8 217V210.94L20.36 211.4V210.74L22.08 210H22.65V217H21.8ZM24.068 217V216.41C24.5613 216.037 25.028 215.66 25.468 215.28C25.908 214.9 26.298 214.523 26.638 214.15C26.978 213.77 27.2446 213.4 27.438 213.04C27.6313 212.68 27.728 212.333 27.728 212C27.728 211.753 27.6813 211.527 27.588 211.32C27.5013 211.107 27.358 210.933 27.158 210.8C26.9646 210.667 26.7013 210.6 26.368 210.6C26.048 210.6 25.7813 210.67 25.568 210.81C25.3546 210.943 25.1946 211.123 25.088 211.35C24.9813 211.57 24.928 211.813 24.928 212.08H24.118C24.1246 211.62 24.2246 211.227 24.418 210.9C24.6113 210.567 24.878 210.313 25.218 210.14C25.558 209.967 25.9446 209.88 26.378 209.88C26.8046 209.88 27.1813 209.96 27.508 210.12C27.8346 210.273 28.0913 210.507 28.278 210.82C28.4713 211.127 28.568 211.51 28.568 211.97C28.568 212.297 28.498 212.623 28.358 212.95C28.2246 213.277 28.0413 213.597 27.808 213.91C27.5746 214.217 27.3146 214.513 27.028 214.8C26.748 215.087 26.458 215.357 26.158 215.61C25.858 215.863 25.5746 216.093 25.308 216.3H28.808V217H24.068ZM32.2766 217.12C31.83 217.12 31.4233 217.04 31.0566 216.88C30.6966 216.713 30.41 216.467 30.1966 216.14C29.9833 215.813 29.87 215.407 29.8566 214.92H30.7066C30.7133 215.187 30.7766 215.433 30.8966 215.66C31.0233 215.88 31.2033 216.057 31.4366 216.19C31.67 216.323 31.95 216.39 32.2766 216.39C32.6033 216.39 32.8766 216.327 33.0966 216.2C33.3166 216.073 33.4833 215.907 33.5966 215.7C33.71 215.487 33.7666 215.25 33.7666 214.99C33.7666 214.677 33.6866 214.423 33.5266 214.23C33.3733 214.03 33.1633 213.883 32.8966 213.79C32.6366 213.69 32.35 213.64 32.0366 213.64H31.5166V212.93H32.0366C32.51 212.93 32.88 212.823 33.1466 212.61C33.42 212.39 33.5566 212.087 33.5566 211.7C33.5566 211.387 33.45 211.127 33.2366 210.92C33.0233 210.713 32.7033 210.61 32.2766 210.61C31.8566 210.61 31.5266 210.723 31.2866 210.95C31.0466 211.177 30.91 211.467 30.8766 211.82H30.0266C30.0466 211.44 30.15 211.103 30.3366 210.81C30.53 210.517 30.79 210.29 31.1166 210.13C31.45 209.963 31.8366 209.88 32.2766 209.88C32.7433 209.88 33.1333 209.96 33.4466 210.12C33.7666 210.28 34.0066 210.493 34.1666 210.76C34.3266 211.027 34.4066 211.323 34.4066 211.65C34.4066 211.89 34.36 212.12 34.2666 212.34C34.18 212.56 34.0466 212.75 33.8666 212.91C33.6866 213.07 33.4566 213.183 33.1766 213.25C33.45 213.303 33.6933 213.407 33.9066 213.56C34.1266 213.713 34.3 213.91 34.4266 214.15C34.5533 214.39 34.6166 214.67 34.6166 214.99C34.6166 215.37 34.5266 215.723 34.3466 216.05C34.1733 216.37 33.9133 216.63 33.5666 216.83C33.22 217.023 32.79 217.12 32.2766 217.12ZM39.2432 217V215.5H35.6932V214.85L39.0932 210H40.0732V214.76H41.1132V215.5H40.0732V217H39.2432ZM36.6232 214.76H39.2832V210.93L36.6232 214.76ZM44.5058 217.12C44.0391 217.12 43.6324 217.037 43.2858 216.87C42.9458 216.703 42.6758 216.48 42.4758 216.2C42.2824 215.913 42.1624 215.587 42.1158 215.22H42.9358C43.0091 215.567 43.1791 215.85 43.4458 216.07C43.7191 216.29 44.0758 216.4 44.5158 216.4C44.8424 216.4 45.1191 216.327 45.3458 216.18C45.5791 216.027 45.7591 215.82 45.8858 215.56C46.0124 215.293 46.0758 214.997 46.0758 214.67C46.0758 214.343 46.0124 214.057 45.8858 213.81C45.7658 213.557 45.5924 213.36 45.3658 213.22C45.1391 213.073 44.8724 213 44.5658 213C44.1991 213 43.8858 213.073 43.6258 213.22C43.3724 213.367 43.1758 213.547 43.0358 213.76H42.2058L42.7358 210H46.4958V210.73H43.3858L43.0258 212.92C43.1924 212.733 43.4124 212.583 43.6858 212.47C43.9658 212.35 44.2891 212.29 44.6558 212.29C44.9958 212.29 45.3024 212.35 45.5758 212.47C45.8491 212.59 46.0824 212.76 46.2758 212.98C46.4758 213.193 46.6258 213.443 46.7258 213.73C46.8324 214.017 46.8858 214.327 46.8858 214.66C46.8858 214.993 46.8291 215.31 46.7158 215.61C46.6091 215.903 46.4524 216.163 46.2458 216.39C46.0458 216.617 45.7991 216.797 45.5058 216.93C45.2124 217.057 44.8791 217.12 44.5058 217.12ZM50.7402 217.12C50.2402 217.12 49.8169 217.027 49.4702 216.84C49.1302 216.653 48.8569 216.403 48.6502 216.09C48.4502 215.77 48.3036 215.41 48.2102 215.01C48.1169 214.61 48.0702 214.2 48.0702 213.78C48.0702 213.007 48.1736 212.33 48.3802 211.75C48.5936 211.163 48.9002 210.707 49.3002 210.38C49.7002 210.047 50.1836 209.88 50.7502 209.88C51.1902 209.88 51.5669 209.963 51.8802 210.13C52.2002 210.297 52.4536 210.52 52.6402 210.8C52.8269 211.073 52.9402 211.38 52.9802 211.72H52.2002C52.1336 211.367 51.9702 211.093 51.7102 210.9C51.4569 210.707 51.1336 210.61 50.7402 210.61C50.3869 210.61 50.0702 210.72 49.7902 210.94C49.5169 211.16 49.3002 211.493 49.1402 211.94C48.9802 212.38 48.8902 212.943 48.8702 213.63C48.8702 213.643 48.8702 213.657 48.8702 213.67C48.8702 213.683 48.8702 213.697 48.8702 213.71C48.9636 213.497 49.1036 213.3 49.2902 213.12C49.4769 212.94 49.7036 212.797 49.9702 212.69C50.2369 212.577 50.5302 212.52 50.8502 212.52C51.2436 212.52 51.6069 212.613 51.9402 212.8C52.2802 212.987 52.5536 213.25 52.7602 213.59C52.9669 213.923 53.0702 214.317 53.0702 214.77C53.0702 215.163 52.9736 215.54 52.7802 215.9C52.5936 216.26 52.3269 216.553 51.9802 216.78C51.6336 217.007 51.2202 217.12 50.7402 217.12ZM50.6802 216.38C50.9736 216.38 51.2336 216.313 51.4602 216.18C51.6936 216.047 51.8769 215.863 52.0102 215.63C52.1502 215.39 52.2202 215.117 52.2202 214.81C52.2202 214.497 52.1502 214.223 52.0102 213.99C51.8769 213.757 51.6936 213.577 51.4602 213.45C51.2336 213.317 50.9736 213.25 50.6802 213.25C50.3802 213.25 50.1102 213.32 49.8702 213.46C49.6302 213.593 49.4402 213.78 49.3002 214.02C49.1602 214.253 49.0902 214.52 49.0902 214.82C49.0902 215.127 49.1602 215.4 49.3002 215.64C49.4402 215.873 49.6302 216.057 49.8702 216.19C50.1102 216.317 50.3802 216.38 50.6802 216.38ZM55.0268 217L57.5968 210.72H53.7568V210H58.4568V210.63L55.9168 217H55.0268ZM61.7016 217.12C61.2616 217.12 60.8616 217.037 60.5016 216.87C60.1483 216.697 59.8683 216.46 59.6616 216.16C59.455 215.853 59.3516 215.5 59.3516 215.1C59.3516 214.813 59.405 214.547 59.5116 214.3C59.625 214.053 59.7783 213.84 59.9716 213.66C60.165 213.473 60.3916 213.343 60.6516 213.27C60.2983 213.137 60.0216 212.93 59.8216 212.65C59.6216 212.37 59.5216 212.067 59.5216 211.74C59.5216 211.393 59.6083 211.08 59.7816 210.8C59.9616 210.52 60.215 210.297 60.5416 210.13C60.8683 209.963 61.255 209.88 61.7016 209.88C62.155 209.88 62.5416 209.963 62.8616 210.13C63.1883 210.297 63.4383 210.52 63.6116 210.8C63.785 211.08 63.8716 211.393 63.8716 211.74C63.8716 212.067 63.7716 212.37 63.5716 212.65C63.3783 212.93 63.105 213.137 62.7516 213.27C63.0116 213.343 63.2383 213.473 63.4316 213.66C63.625 213.84 63.775 214.053 63.8816 214.3C63.995 214.547 64.0516 214.813 64.0516 215.1C64.0516 215.5 63.9483 215.853 63.7416 216.16C63.535 216.46 63.2516 216.697 62.8916 216.87C62.5383 217.037 62.1416 217.12 61.7016 217.12ZM61.7016 216.38C62.2016 216.38 62.5783 216.26 62.8316 216.02C63.085 215.773 63.2116 215.45 63.2116 215.05C63.2116 214.597 63.0716 214.253 62.7916 214.02C62.5183 213.787 62.155 213.67 61.7016 213.67C61.2483 213.67 60.8816 213.787 60.6016 214.02C60.3283 214.253 60.1916 214.597 60.1916 215.05C60.1916 215.45 60.315 215.773 60.5616 216.02C60.815 216.26 61.195 216.38 61.7016 216.38ZM61.7016 212.97C62.1016 212.97 62.4216 212.86 62.6616 212.64C62.9016 212.42 63.0216 212.137 63.0216 211.79C63.0216 211.397 62.9016 211.1 62.6616 210.9C62.4283 210.7 62.1083 210.6 61.7016 210.6C61.295 210.6 60.9716 210.7 60.7316 210.9C60.4983 211.1 60.3816 211.397 60.3816 211.79C60.3816 212.137 60.5016 212.42 60.7416 212.64C60.9816 212.86 61.3016 212.97 61.7016 212.97ZM67.4038 217.12C66.9705 217.12 66.5938 217.037 66.2738 216.87C65.9605 216.703 65.7105 216.48 65.5238 216.2C65.3438 215.92 65.2305 215.613 65.1838 215.28H65.9638C66.0372 215.633 66.2005 215.907 66.4538 216.1C66.7072 216.293 67.0272 216.39 67.4138 216.39C67.7672 216.39 68.0772 216.287 68.3438 216.08C68.6105 215.867 68.8238 215.55 68.9838 215.13C69.1505 214.703 69.2472 214.167 69.2738 213.52C69.2805 213.48 69.2838 213.443 69.2838 213.41C69.2838 213.37 69.2838 213.33 69.2838 213.29C69.1905 213.503 69.0505 213.7 68.8638 213.88C68.6772 214.06 68.4505 214.207 68.1838 214.32C67.9238 214.427 67.6305 214.48 67.3038 214.48C66.9172 214.48 66.5538 214.387 66.2138 214.2C65.8738 214.013 65.6005 213.753 65.3938 213.42C65.1872 213.08 65.0838 212.683 65.0838 212.23C65.0838 211.837 65.1772 211.46 65.3638 211.1C65.5572 210.74 65.8272 210.447 66.1738 210.22C66.5272 209.993 66.9405 209.88 67.4138 209.88C67.9138 209.88 68.3338 209.973 68.6738 210.16C69.0205 210.347 69.2938 210.6 69.4938 210.92C69.7005 211.233 69.8505 211.59 69.9438 211.99C70.0372 212.39 70.0838 212.8 70.0838 213.22C70.0838 213.987 69.9772 214.663 69.7638 215.25C69.5572 215.837 69.2538 216.297 68.8538 216.63C68.4605 216.957 67.9772 217.12 67.4038 217.12ZM67.4738 213.75C67.7738 213.75 68.0438 213.683 68.2838 213.55C68.5305 213.41 68.7238 213.223 68.8638 212.99C69.0038 212.75 69.0738 212.48 69.0738 212.18C69.0738 211.867 69.0038 211.593 68.8638 211.36C68.7238 211.127 68.5305 210.947 68.2838 210.82C68.0438 210.687 67.7738 210.62 67.4738 210.62C67.1872 210.62 66.9272 210.687 66.6938 210.82C66.4605 210.953 66.2738 211.137 66.1338 211.37C66.0005 211.603 65.9338 211.877 65.9338 212.19C65.9338 212.503 66.0005 212.777 66.1338 213.01C66.2738 213.243 66.4605 213.427 66.6938 213.56C66.9272 213.687 67.1872 213.75 67.4738 213.75ZM73.9541 217.12C73.3741 217.12 72.8741 216.97 72.4541 216.67C72.0407 216.363 71.7207 215.94 71.4941 215.4C71.2674 214.853 71.1541 214.22 71.1541 213.5C71.1541 212.78 71.2674 212.15 71.4941 211.61C71.7207 211.063 72.0407 210.64 72.4541 210.34C72.8741 210.033 73.3741 209.88 73.9541 209.88C74.5341 209.88 75.0307 210.033 75.4441 210.34C75.8574 210.64 76.1741 211.063 76.3941 211.61C76.6207 212.15 76.7341 212.78 76.7341 213.5C76.7341 214.22 76.6207 214.853 76.3941 215.4C76.1741 215.94 75.8574 216.363 75.4441 216.67C75.0307 216.97 74.5341 217.12 73.9541 217.12ZM73.9541 216.38C74.3207 216.38 74.6474 216.267 74.9341 216.04C75.2207 215.807 75.4474 215.477 75.6141 215.05C75.7874 214.617 75.8741 214.1 75.8741 213.5C75.8741 212.893 75.7874 212.377 75.6141 211.95C75.4474 211.523 75.2207 211.197 74.9341 210.97C74.6474 210.743 74.3207 210.63 73.9541 210.63C73.5807 210.63 73.2474 210.743 72.9541 210.97C72.6607 211.197 72.4307 211.523 72.2641 211.95C72.0974 212.377 72.0141 212.893 72.0141 213.5C72.0141 214.1 72.0974 214.617 72.2641 215.05C72.4307 215.477 72.6607 215.807 72.9541 216.04C73.2474 216.267 73.5807 216.38 73.9541 216.38Z" fill="#051A2F"/>
<path opacity="0.6" d="M156.77 135V128H159.02C159.58 128 160.04 128.093 160.4 128.28C160.76 128.467 161.027 128.717 161.2 129.03C161.373 129.343 161.46 129.7 161.46 130.1C161.46 130.493 161.373 130.85 161.2 131.17C161.027 131.483 160.76 131.733 160.4 131.92C160.047 132.107 159.587 132.2 159.02 132.2H157.61V135H156.77ZM157.61 131.49H159.01C159.59 131.49 160 131.363 160.24 131.11C160.48 130.857 160.6 130.52 160.6 130.1C160.6 129.66 160.48 129.317 160.24 129.07C160 128.823 159.59 128.7 159.01 128.7H157.61V131.49ZM162.54 135V129.78H163.3L163.36 130.74C163.48 130.507 163.633 130.31 163.82 130.15C164.013 129.99 164.243 129.87 164.51 129.79C164.783 129.703 165.09 129.66 165.43 129.66V130.54H164.95C164.75 130.54 164.557 130.57 164.37 130.63C164.183 130.683 164.013 130.77 163.86 130.89C163.713 131.01 163.597 131.177 163.51 131.39C163.423 131.597 163.38 131.857 163.38 132.17V135H162.54ZM166.478 135V129.78H167.318V135H166.478ZM166.898 128.77C166.731 128.77 166.591 128.717 166.478 128.61C166.371 128.497 166.318 128.357 166.318 128.19C166.318 128.023 166.371 127.89 166.478 127.79C166.591 127.683 166.731 127.63 166.898 127.63C167.058 127.63 167.194 127.683 167.308 127.79C167.421 127.89 167.478 128.023 167.478 128.19C167.478 128.357 167.421 128.497 167.308 128.61C167.194 128.717 167.058 128.77 166.898 128.77ZM168.81 135V129.78H169.57L169.61 130.5C169.77 130.24 169.986 130.037 170.26 129.89C170.533 129.737 170.82 129.66 171.12 129.66C171.38 129.66 171.61 129.697 171.81 129.77C172.016 129.837 172.196 129.943 172.35 130.09C172.503 130.23 172.63 130.41 172.73 130.63C172.903 130.317 173.136 130.077 173.43 129.91C173.73 129.743 174.046 129.66 174.38 129.66C174.766 129.66 175.096 129.737 175.37 129.89C175.65 130.043 175.866 130.273 176.02 130.58C176.173 130.887 176.25 131.27 176.25 131.73V135H175.42V131.82C175.42 131.34 175.316 130.98 175.11 130.74C174.903 130.5 174.62 130.38 174.26 130.38C174.02 130.38 173.8 130.447 173.6 130.58C173.4 130.707 173.24 130.897 173.12 131.15C173.006 131.397 172.95 131.7 172.95 132.06V135H172.11V131.82C172.11 131.34 172.006 130.98 171.8 130.74C171.593 130.5 171.313 130.38 170.96 130.38C170.72 130.38 170.5 130.447 170.3 130.58C170.106 130.707 169.95 130.897 169.83 131.15C169.71 131.397 169.65 131.7 169.65 132.06V135H168.81ZM179.258 135.12C178.858 135.12 178.522 135.047 178.248 134.9C177.982 134.747 177.782 134.547 177.648 134.3C177.515 134.053 177.448 133.787 177.448 133.5C177.448 133.16 177.535 132.87 177.708 132.63C177.888 132.383 178.138 132.197 178.458 132.07C178.778 131.943 179.155 131.88 179.588 131.88H180.898C180.898 131.547 180.855 131.27 180.768 131.05C180.688 130.823 180.558 130.653 180.378 130.54C180.198 130.427 179.962 130.37 179.668 130.37C179.362 130.37 179.098 130.447 178.878 130.6C178.665 130.753 178.532 130.98 178.478 131.28H177.618C177.658 130.927 177.775 130.633 177.968 130.4C178.168 130.16 178.418 129.977 178.718 129.85C179.018 129.723 179.335 129.66 179.668 129.66C180.142 129.66 180.532 129.747 180.838 129.92C181.145 130.087 181.372 130.323 181.518 130.63C181.665 130.93 181.738 131.287 181.738 131.7V135H180.988L180.938 134.1C180.872 134.24 180.785 134.373 180.678 134.5C180.578 134.62 180.458 134.727 180.318 134.82C180.178 134.913 180.018 134.987 179.838 135.04C179.665 135.093 179.472 135.12 179.258 135.12ZM179.378 134.41C179.598 134.41 179.802 134.36 179.988 134.26C180.182 134.16 180.345 134.027 180.478 133.86C180.612 133.687 180.715 133.497 180.788 133.29C180.862 133.077 180.898 132.853 180.898 132.62V132.53H179.658C179.338 132.53 179.078 132.57 178.878 132.65C178.685 132.73 178.545 132.843 178.458 132.99C178.372 133.13 178.328 133.287 178.328 133.46C178.328 133.653 178.368 133.82 178.448 133.96C178.528 134.1 178.648 134.21 178.808 134.29C178.968 134.37 179.158 134.41 179.378 134.41ZM183.116 135V129.78H183.876L183.936 130.74C184.056 130.507 184.21 130.31 184.396 130.15C184.59 129.99 184.82 129.87 185.086 129.79C185.36 129.703 185.666 129.66 186.006 129.66V130.54H185.526C185.326 130.54 185.133 130.57 184.946 130.63C184.76 130.683 184.59 130.77 184.436 130.89C184.29 131.01 184.173 131.177 184.086 131.39C184 131.597 183.956 131.857 183.956 132.17V135H183.116ZM187.554 137.2L188.754 134.44H188.464L186.494 129.78H187.404L189.034 133.79L190.734 129.78H191.604L188.424 137.2H187.554ZM195.536 135V129.18C195.536 128.86 195.589 128.6 195.696 128.4C195.803 128.193 195.959 128.043 196.166 127.95C196.379 127.85 196.639 127.8 196.946 127.8H197.676V128.52H197.086C196.833 128.52 196.649 128.573 196.536 128.68C196.429 128.78 196.376 128.957 196.376 129.21V135H195.536ZM194.726 130.49V129.78H197.746V130.49H194.726ZM200.855 135.12C200.368 135.12 199.938 135.01 199.565 134.79C199.191 134.563 198.901 134.247 198.695 133.84C198.488 133.427 198.385 132.943 198.385 132.39C198.385 131.837 198.488 131.357 198.695 130.95C198.908 130.543 199.201 130.227 199.575 130C199.955 129.773 200.388 129.66 200.875 129.66C201.361 129.66 201.788 129.773 202.155 130C202.528 130.227 202.818 130.543 203.025 130.95C203.238 131.357 203.345 131.837 203.345 132.39C203.345 132.943 203.238 133.427 203.025 133.84C202.811 134.247 202.518 134.563 202.145 134.79C201.771 135.01 201.341 135.12 200.855 135.12ZM200.855 134.4C201.155 134.4 201.428 134.327 201.675 134.18C201.921 134.027 202.118 133.8 202.265 133.5C202.411 133.2 202.485 132.83 202.485 132.39C202.485 131.943 202.411 131.573 202.265 131.28C202.125 130.98 201.931 130.757 201.685 130.61C201.445 130.457 201.175 130.38 200.875 130.38C200.575 130.38 200.301 130.457 200.055 130.61C199.808 130.757 199.611 130.98 199.465 131.28C199.318 131.573 199.245 131.943 199.245 132.39C199.245 132.83 199.315 133.2 199.455 133.5C199.601 133.8 199.795 134.027 200.035 134.18C200.281 134.327 200.555 134.4 200.855 134.4ZM204.552 135V129.78H205.312L205.352 130.62C205.505 130.32 205.725 130.087 206.012 129.92C206.305 129.747 206.642 129.66 207.022 129.66C207.415 129.66 207.755 129.737 208.042 129.89C208.328 130.037 208.552 130.263 208.712 130.57C208.872 130.87 208.952 131.253 208.952 131.72V135H208.112V131.81C208.112 131.337 207.995 130.98 207.762 130.74C207.535 130.5 207.225 130.38 206.832 130.38C206.572 130.38 206.332 130.443 206.112 130.57C205.892 130.697 205.715 130.883 205.582 131.13C205.455 131.37 205.392 131.667 205.392 132.02V135H204.552ZM212.353 135C212.053 135 211.793 134.953 211.573 134.86C211.353 134.767 211.183 134.61 211.063 134.39C210.95 134.163 210.893 133.86 210.893 133.48V130.49H209.973V129.78H210.893L211.003 128.49H211.733V129.78H213.213V130.49H211.733V133.48C211.733 133.793 211.797 134.007 211.923 134.12C212.05 134.227 212.273 134.28 212.593 134.28H213.183V135H212.353Z" fill="#051A2F"/>
<path d="M156.293 160L157.953 142.812H163.783L165.414 160H162.162L161.918 157.227H159.848L159.633 160H156.293ZM160.092 154.482H161.654L160.902 145.742H160.746L160.092 154.482ZM166.41 160V145.352H169.906V147.217C170.036 146.657 170.277 146.182 170.629 145.791C170.987 145.394 171.482 145.195 172.113 145.195C173.129 145.195 173.865 145.508 174.32 146.133C174.783 146.758 175.014 147.614 175.014 148.701V160H171.566V149.062C171.566 148.776 171.508 148.512 171.391 148.271C171.273 148.024 171.072 147.9 170.785 147.9C170.518 147.9 170.32 147.995 170.189 148.184C170.066 148.366 169.988 148.597 169.955 148.877C169.923 149.15 169.906 149.424 169.906 149.697V160H166.41ZM179.398 160.156C178.454 160.156 177.816 159.958 177.484 159.561C177.159 159.157 176.996 158.542 176.996 157.715V148.584H176.01V145.918H176.996V142.812H180.395V145.918H181.381V148.584H180.395V156.895C180.395 157.135 180.434 157.305 180.512 157.402C180.59 157.5 180.74 157.549 180.961 157.549C181.117 157.549 181.257 157.536 181.381 157.51V159.893C181.303 159.919 181.059 159.967 180.648 160.039C180.238 160.117 179.822 160.156 179.398 160.156ZM186.762 160.156C183.845 160.156 182.387 158.643 182.387 155.615V149.736C182.387 148.356 182.774 147.256 183.549 146.436C184.324 145.609 185.395 145.195 186.762 145.195C188.135 145.195 189.21 145.609 189.984 146.436C190.759 147.256 191.146 148.356 191.146 149.736V155.615C191.146 158.643 189.685 160.156 186.762 160.156ZM186.762 157.461C187.055 157.461 187.263 157.357 187.387 157.148C187.517 156.934 187.582 156.663 187.582 156.338V149.18C187.582 148.327 187.309 147.9 186.762 147.9C186.215 147.9 185.941 148.327 185.941 149.18V156.338C185.941 156.663 186.003 156.934 186.127 157.148C186.257 157.357 186.469 157.461 186.762 157.461ZM192.445 160V145.352H195.941V147.217C196.072 146.657 196.312 146.182 196.664 145.791C197.022 145.394 197.517 145.195 198.148 145.195C199.164 145.195 199.9 145.508 200.355 146.133C200.818 146.758 201.049 147.614 201.049 148.701V160H197.602V149.062C197.602 148.776 197.543 148.512 197.426 148.271C197.309 148.024 197.107 147.9 196.82 147.9C196.553 147.9 196.355 147.995 196.225 148.184C196.101 148.366 196.023 148.597 195.99 148.877C195.958 149.15 195.941 149.424 195.941 149.697V160H192.445Z" fill="#051A2F"/>
<path opacity="0.6" d="M159 191.12C158.487 191.12 158.04 191.027 157.66 190.84C157.28 190.653 156.987 190.393 156.78 190.06C156.573 189.727 156.47 189.34 156.47 188.9H157.35C157.35 189.173 157.413 189.427 157.54 189.66C157.667 189.887 157.85 190.07 158.09 190.21C158.337 190.343 158.64 190.41 159 190.41C159.313 190.41 159.58 190.36 159.8 190.26C160.027 190.153 160.197 190.01 160.31 189.83C160.43 189.65 160.49 189.447 160.49 189.22C160.49 188.96 160.433 188.747 160.32 188.58C160.213 188.407 160.063 188.267 159.87 188.16C159.677 188.053 159.45 187.957 159.19 187.87C158.937 187.783 158.663 187.693 158.37 187.6C157.79 187.413 157.367 187.18 157.1 186.9C156.84 186.613 156.71 186.247 156.71 185.8C156.71 185.42 156.797 185.087 156.97 184.8C157.15 184.513 157.403 184.29 157.73 184.13C158.063 183.963 158.457 183.88 158.91 183.88C159.357 183.88 159.743 183.963 160.07 184.13C160.403 184.297 160.663 184.527 160.85 184.82C161.037 185.107 161.13 185.44 161.13 185.82H160.25C160.25 185.627 160.2 185.437 160.1 185.25C160 185.063 159.847 184.91 159.64 184.79C159.44 184.663 159.187 184.6 158.88 184.6C158.627 184.593 158.4 184.637 158.2 184.73C158.007 184.817 157.853 184.943 157.74 185.11C157.633 185.277 157.58 185.48 157.58 185.72C157.58 185.947 157.627 186.13 157.72 186.27C157.82 186.41 157.96 186.53 158.14 186.63C158.327 186.723 158.543 186.81 158.79 186.89C159.037 186.97 159.31 187.06 159.61 187.16C159.95 187.273 160.25 187.413 160.51 187.58C160.777 187.74 160.983 187.947 161.13 188.2C161.283 188.453 161.36 188.777 161.36 189.17C161.36 189.503 161.27 189.82 161.09 190.12C160.917 190.413 160.657 190.653 160.31 190.84C159.963 191.027 159.527 191.12 159 191.12ZM164.74 191.12C164.273 191.12 163.86 191.007 163.5 190.78C163.14 190.553 162.856 190.237 162.65 189.83C162.45 189.417 162.35 188.937 162.35 188.39C162.35 187.843 162.45 187.367 162.65 186.96C162.856 186.547 163.14 186.227 163.5 186C163.866 185.773 164.286 185.66 164.76 185.66C165.266 185.66 165.69 185.773 166.03 186C166.37 186.227 166.626 186.53 166.8 186.91C166.98 187.283 167.07 187.693 167.07 188.14C167.07 188.207 167.07 188.273 167.07 188.34C167.07 188.407 167.066 188.487 167.06 188.58H162.98V187.93H166.25C166.236 187.43 166.086 187.047 165.8 186.78C165.52 186.507 165.166 186.37 164.74 186.37C164.46 186.37 164.2 186.44 163.96 186.58C163.726 186.713 163.536 186.913 163.39 187.18C163.243 187.44 163.17 187.767 163.17 188.16V188.44C163.17 188.873 163.243 189.237 163.39 189.53C163.536 189.823 163.726 190.043 163.96 190.19C164.2 190.337 164.46 190.41 164.74 190.41C165.113 190.41 165.406 190.337 165.62 190.19C165.84 190.043 166 189.837 166.1 189.57H166.93C166.85 189.863 166.71 190.13 166.51 190.37C166.316 190.603 166.07 190.787 165.77 190.92C165.476 191.053 165.133 191.12 164.74 191.12ZM170.494 191.12C170.014 191.12 169.587 191.007 169.214 190.78C168.84 190.553 168.547 190.237 168.334 189.83C168.12 189.417 168.014 188.937 168.014 188.39C168.014 187.843 168.12 187.367 168.334 186.96C168.547 186.553 168.84 186.237 169.214 186.01C169.587 185.777 170.014 185.66 170.494 185.66C171.094 185.66 171.594 185.82 171.994 186.14C172.4 186.46 172.657 186.887 172.764 187.42H171.904C171.837 187.093 171.67 186.84 171.404 186.66C171.144 186.473 170.837 186.38 170.484 186.38C170.177 186.38 169.9 186.457 169.654 186.61C169.414 186.763 169.224 186.99 169.084 187.29C168.944 187.583 168.874 187.95 168.874 188.39C168.874 188.723 168.914 189.017 168.994 189.27C169.074 189.523 169.184 189.733 169.324 189.9C169.47 190.067 169.64 190.193 169.834 190.28C170.034 190.367 170.25 190.41 170.484 190.41C170.724 190.41 170.94 190.37 171.134 190.29C171.334 190.203 171.5 190.083 171.634 189.93C171.767 189.77 171.857 189.58 171.904 189.36H172.764C172.657 189.887 172.4 190.313 171.994 190.64C171.587 190.96 171.087 191.12 170.494 191.12ZM176.245 191.12C175.759 191.12 175.329 191.01 174.955 190.79C174.582 190.563 174.292 190.247 174.085 189.84C173.879 189.427 173.775 188.943 173.775 188.39C173.775 187.837 173.879 187.357 174.085 186.95C174.299 186.543 174.592 186.227 174.965 186C175.345 185.773 175.779 185.66 176.265 185.66C176.752 185.66 177.179 185.773 177.545 186C177.919 186.227 178.209 186.543 178.415 186.95C178.629 187.357 178.735 187.837 178.735 188.39C178.735 188.943 178.629 189.427 178.415 189.84C178.202 190.247 177.909 190.563 177.535 190.79C177.162 191.01 176.732 191.12 176.245 191.12ZM176.245 190.4C176.545 190.4 176.819 190.327 177.065 190.18C177.312 190.027 177.509 189.8 177.655 189.5C177.802 189.2 177.875 188.83 177.875 188.39C177.875 187.943 177.802 187.573 177.655 187.28C177.515 186.98 177.322 186.757 177.075 186.61C176.835 186.457 176.565 186.38 176.265 186.38C175.965 186.38 175.692 186.457 175.445 186.61C175.199 186.757 175.002 186.98 174.855 187.28C174.709 187.573 174.635 187.943 174.635 188.39C174.635 188.83 174.705 189.2 174.845 189.5C174.992 189.8 175.185 190.027 175.425 190.18C175.672 190.327 175.945 190.4 176.245 190.4ZM179.942 191V185.78H180.702L180.742 186.62C180.896 186.32 181.116 186.087 181.402 185.92C181.696 185.747 182.032 185.66 182.412 185.66C182.806 185.66 183.146 185.737 183.432 185.89C183.719 186.037 183.942 186.263 184.102 186.57C184.262 186.87 184.342 187.253 184.342 187.72V191H183.502V187.81C183.502 187.337 183.386 186.98 183.152 186.74C182.926 186.5 182.616 186.38 182.222 186.38C181.962 186.38 181.722 186.443 181.502 186.57C181.282 186.697 181.106 186.883 180.972 187.13C180.846 187.37 180.782 187.667 180.782 188.02V191H179.942ZM187.894 191.12C187.421 191.12 187.004 191.003 186.644 190.77C186.284 190.53 186.004 190.203 185.804 189.79C185.604 189.377 185.504 188.907 185.504 188.38C185.504 187.853 185.604 187.387 185.804 186.98C186.004 186.573 186.284 186.253 186.644 186.02C187.004 185.78 187.424 185.66 187.904 185.66C188.317 185.66 188.674 185.743 188.974 185.91C189.274 186.077 189.507 186.31 189.674 186.61V183.8H190.514V191H189.754L189.684 190.16C189.584 190.327 189.451 190.483 189.284 190.63C189.124 190.777 188.927 190.897 188.694 190.99C188.467 191.077 188.201 191.12 187.894 191.12ZM188.004 190.39C188.337 190.39 188.627 190.31 188.874 190.15C189.121 189.983 189.311 189.75 189.444 189.45C189.577 189.15 189.644 188.797 189.644 188.39C189.644 187.983 189.577 187.63 189.444 187.33C189.311 187.03 189.121 186.8 188.874 186.64C188.627 186.473 188.337 186.39 188.004 186.39C187.684 186.39 187.401 186.473 187.154 186.64C186.907 186.8 186.714 187.03 186.574 187.33C186.434 187.63 186.364 187.983 186.364 188.39C186.364 188.797 186.434 189.15 186.574 189.45C186.714 189.75 186.907 189.983 187.154 190.15C187.401 190.31 187.684 190.39 188.004 190.39ZM193.575 191.12C193.175 191.12 192.838 191.047 192.565 190.9C192.298 190.747 192.098 190.547 191.965 190.3C191.831 190.053 191.765 189.787 191.765 189.5C191.765 189.16 191.851 188.87 192.025 188.63C192.205 188.383 192.455 188.197 192.775 188.07C193.095 187.943 193.471 187.88 193.905 187.88H195.215C195.215 187.547 195.171 187.27 195.085 187.05C195.005 186.823 194.875 186.653 194.695 186.54C194.515 186.427 194.278 186.37 193.985 186.37C193.678 186.37 193.415 186.447 193.195 186.6C192.981 186.753 192.848 186.98 192.795 187.28H191.935C191.975 186.927 192.091 186.633 192.285 186.4C192.485 186.16 192.735 185.977 193.035 185.85C193.335 185.723 193.651 185.66 193.985 185.66C194.458 185.66 194.848 185.747 195.155 185.92C195.461 186.087 195.688 186.323 195.835 186.63C195.981 186.93 196.055 187.287 196.055 187.7V191H195.305L195.255 190.1C195.188 190.24 195.101 190.373 194.995 190.5C194.895 190.62 194.775 190.727 194.635 190.82C194.495 190.913 194.335 190.987 194.155 191.04C193.981 191.093 193.788 191.12 193.575 191.12ZM193.695 190.41C193.915 190.41 194.118 190.36 194.305 190.26C194.498 190.16 194.661 190.027 194.795 189.86C194.928 189.687 195.031 189.497 195.105 189.29C195.178 189.077 195.215 188.853 195.215 188.62V188.53H193.975C193.655 188.53 193.395 188.57 193.195 188.65C193.001 188.73 192.861 188.843 192.775 188.99C192.688 189.13 192.645 189.287 192.645 189.46C192.645 189.653 192.685 189.82 192.765 189.96C192.845 190.1 192.965 190.21 193.125 190.29C193.285 190.37 193.475 190.41 193.695 190.41ZM197.433 191V185.78H198.193L198.253 186.74C198.373 186.507 198.526 186.31 198.713 186.15C198.906 185.99 199.136 185.87 199.403 185.79C199.676 185.703 199.983 185.66 200.323 185.66V186.54H199.843C199.643 186.54 199.449 186.57 199.263 186.63C199.076 186.683 198.906 186.77 198.753 186.89C198.606 187.01 198.489 187.177 198.403 187.39C198.316 187.597 198.273 187.857 198.273 188.17V191H197.433ZM201.87 193.2L203.07 190.44H202.78L200.81 185.78H201.72L203.35 189.79L205.05 185.78H205.92L202.74 193.2H201.87ZM209.852 191V185.18C209.852 184.86 209.906 184.6 210.012 184.4C210.119 184.193 210.276 184.043 210.482 183.95C210.696 183.85 210.956 183.8 211.262 183.8H211.992V184.52H211.402C211.149 184.52 210.966 184.573 210.852 184.68C210.746 184.78 210.692 184.957 210.692 185.21V191H209.852ZM209.042 186.49V185.78H212.062V186.49H209.042ZM215.171 191.12C214.685 191.12 214.255 191.01 213.881 190.79C213.508 190.563 213.218 190.247 213.011 189.84C212.805 189.427 212.701 188.943 212.701 188.39C212.701 187.837 212.805 187.357 213.011 186.95C213.225 186.543 213.518 186.227 213.891 186C214.271 185.773 214.705 185.66 215.191 185.66C215.678 185.66 216.105 185.773 216.471 186C216.845 186.227 217.135 186.543 217.341 186.95C217.555 187.357 217.661 187.837 217.661 188.39C217.661 188.943 217.555 189.427 217.341 189.84C217.128 190.247 216.835 190.563 216.461 190.79C216.088 191.01 215.658 191.12 215.171 191.12ZM215.171 190.4C215.471 190.4 215.745 190.327 215.991 190.18C216.238 190.027 216.435 189.8 216.581 189.5C216.728 189.2 216.801 188.83 216.801 188.39C216.801 187.943 216.728 187.573 216.581 187.28C216.441 186.98 216.248 186.757 216.001 186.61C215.761 186.457 215.491 186.38 215.191 186.38C214.891 186.38 214.618 186.457 214.371 186.61C214.125 186.757 213.928 186.98 213.781 187.28C213.635 187.573 213.561 187.943 213.561 188.39C213.561 188.83 213.631 189.2 213.771 189.5C213.918 189.8 214.111 190.027 214.351 190.18C214.598 190.327 214.871 190.4 215.171 190.4ZM218.868 191V185.78H219.628L219.668 186.62C219.822 186.32 220.042 186.087 220.328 185.92C220.622 185.747 220.958 185.66 221.338 185.66C221.732 185.66 222.072 185.737 222.358 185.89C222.645 186.037 222.868 186.263 223.028 186.57C223.188 186.87 223.268 187.253 223.268 187.72V191H222.428V187.81C222.428 187.337 222.312 186.98 222.078 186.74C221.852 186.5 221.542 186.38 221.148 186.38C220.888 186.38 220.648 186.443 220.428 186.57C220.208 186.697 220.032 186.883 219.898 187.13C219.772 187.37 219.708 187.667 219.708 188.02V191H218.868ZM226.67 191C226.37 191 226.11 190.953 225.89 190.86C225.67 190.767 225.5 190.61 225.38 190.39C225.266 190.163 225.21 189.86 225.21 189.48V186.49H224.29V185.78H225.21L225.32 184.49H226.05V185.78H227.53V186.49H226.05V189.48C226.05 189.793 226.113 190.007 226.24 190.12C226.366 190.227 226.59 190.28 226.91 190.28H227.5V191H226.67Z" fill="#051A2F"/>
<path d="M157.38 214V200H162.06C163.687 200 165.027 200.293 166.08 200.88C167.147 201.453 167.933 202.267 168.44 203.32C168.96 204.36 169.22 205.587 169.22 207C169.22 208.413 168.96 209.647 168.44 210.7C167.933 211.74 167.153 212.553 166.1 213.14C165.047 213.713 163.7 214 162.06 214H157.38ZM160.08 211.68H161.92C163.067 211.68 163.967 211.493 164.62 211.12C165.287 210.747 165.76 210.213 166.04 209.52C166.32 208.813 166.46 207.973 166.46 207C166.46 206.013 166.32 205.173 166.04 204.48C165.76 203.773 165.287 203.233 164.62 202.86C163.967 202.487 163.067 202.3 161.92 202.3H160.08V211.68ZM170.521 214V200H173.741L178.021 208.74L182.261 200H185.481V214H182.781V204.6L179.081 212.04H176.941L173.221 204.6V214H170.521ZM195.763 214.24C194.749 214.24 193.843 214.067 193.043 213.72C192.256 213.373 191.629 212.867 191.163 212.2C190.709 211.533 190.476 210.727 190.463 209.78H193.323C193.336 210.193 193.443 210.567 193.643 210.9C193.843 211.233 194.116 211.5 194.463 211.7C194.823 211.887 195.249 211.98 195.743 211.98C196.169 211.98 196.536 211.913 196.843 211.78C197.163 211.633 197.409 211.433 197.583 211.18C197.756 210.927 197.843 210.627 197.843 210.28C197.843 209.88 197.743 209.547 197.543 209.28C197.356 209.013 197.089 208.787 196.743 208.6C196.409 208.413 196.016 208.247 195.563 208.1C195.123 207.94 194.656 207.773 194.163 207.6C193.056 207.24 192.209 206.76 191.623 206.16C191.049 205.56 190.763 204.767 190.763 203.78C190.763 202.94 190.963 202.22 191.363 201.62C191.776 201.02 192.343 200.56 193.063 200.24C193.783 199.92 194.603 199.76 195.523 199.76C196.469 199.76 197.296 199.927 198.003 200.26C198.723 200.58 199.289 201.047 199.703 201.66C200.129 202.273 200.349 202.993 200.363 203.82H197.483C197.469 203.513 197.376 203.227 197.203 202.96C197.043 202.68 196.816 202.46 196.523 202.3C196.229 202.127 195.883 202.04 195.483 202.04C195.136 202.027 194.816 202.08 194.523 202.2C194.243 202.32 194.016 202.5 193.843 202.74C193.683 202.967 193.603 203.253 193.603 203.6C193.603 203.933 193.683 204.213 193.843 204.44C194.016 204.667 194.249 204.867 194.543 205.04C194.836 205.2 195.183 205.353 195.583 205.5C195.983 205.633 196.416 205.773 196.883 205.92C197.576 206.16 198.216 206.447 198.803 206.78C199.389 207.1 199.856 207.52 200.203 208.04C200.549 208.56 200.723 209.247 200.723 210.1C200.723 210.833 200.529 211.513 200.143 212.14C199.756 212.767 199.196 213.273 198.463 213.66C197.743 214.047 196.843 214.24 195.763 214.24ZM205.353 214.24C204.513 214.24 203.819 214.107 203.273 213.84C202.726 213.56 202.319 213.193 202.053 212.74C201.799 212.273 201.673 211.76 201.673 211.2C201.673 210.587 201.826 210.047 202.133 209.58C202.453 209.113 202.926 208.747 203.553 208.48C204.193 208.213 204.993 208.08 205.953 208.08H208.453C208.453 207.587 208.386 207.18 208.253 206.86C208.119 206.527 207.913 206.28 207.633 206.12C207.353 205.96 206.979 205.88 206.513 205.88C206.006 205.88 205.573 205.993 205.213 206.22C204.866 206.433 204.653 206.767 204.573 207.22H201.953C202.019 206.5 202.253 205.88 202.653 205.36C203.066 204.827 203.606 204.413 204.273 204.12C204.953 203.827 205.706 203.68 206.533 203.68C207.479 203.68 208.299 203.84 208.993 204.16C209.686 204.48 210.219 204.94 210.593 205.54C210.966 206.14 211.153 206.88 211.153 207.76V214H208.873L208.573 212.46C208.426 212.727 208.253 212.967 208.053 213.18C207.853 213.393 207.619 213.58 207.353 213.74C207.086 213.9 206.786 214.02 206.453 214.1C206.119 214.193 205.753 214.24 205.353 214.24ZM205.993 212.16C206.339 212.16 206.646 212.1 206.913 211.98C207.193 211.847 207.433 211.673 207.633 211.46C207.833 211.233 207.986 210.98 208.093 210.7C208.213 210.407 208.293 210.093 208.333 209.76V209.74H206.273C205.859 209.74 205.519 209.793 205.253 209.9C204.999 209.993 204.813 210.133 204.693 210.32C204.573 210.507 204.513 210.72 204.513 210.96C204.513 211.227 204.573 211.447 204.693 211.62C204.813 211.793 204.986 211.927 205.213 212.02C205.439 212.113 205.699 212.16 205.993 212.16ZM212.672 214V203.92H215.052L215.252 205.56C215.558 205 215.992 204.547 216.552 204.2C217.125 203.853 217.805 203.68 218.592 203.68C219.432 203.68 220.138 203.853 220.712 204.2C221.285 204.547 221.718 205.053 222.012 205.72C222.318 206.387 222.472 207.207 222.472 208.18V214H219.792V208.44C219.792 207.64 219.618 207.027 219.272 206.6C218.938 206.173 218.418 205.96 217.712 205.96C217.258 205.96 216.852 206.067 216.492 206.28C216.145 206.493 215.872 206.8 215.672 207.2C215.472 207.587 215.372 208.06 215.372 208.62V214H212.672ZM228.135 214.24C227.215 214.24 226.415 214.093 225.735 213.8C225.055 213.507 224.522 213.1 224.135 212.58C223.749 212.06 223.529 211.473 223.475 210.82H226.155C226.222 211.073 226.335 211.307 226.495 211.52C226.655 211.72 226.869 211.88 227.135 212C227.402 212.12 227.722 212.18 228.095 212.18C228.455 212.18 228.749 212.133 228.975 212.04C229.202 211.933 229.369 211.793 229.475 211.62C229.595 211.447 229.655 211.267 229.655 211.08C229.655 210.8 229.575 210.587 229.415 210.44C229.255 210.28 229.022 210.153 228.715 210.06C228.409 209.967 228.035 209.873 227.595 209.78C227.115 209.687 226.642 209.573 226.175 209.44C225.722 209.293 225.315 209.113 224.955 208.9C224.595 208.687 224.309 208.413 224.095 208.08C223.882 207.747 223.775 207.333 223.775 206.84C223.775 206.24 223.935 205.707 224.255 205.24C224.575 204.76 225.042 204.38 225.655 204.1C226.269 203.82 227.009 203.68 227.875 203.68C229.089 203.68 230.049 203.953 230.755 204.5C231.462 205.047 231.882 205.8 232.015 206.76H229.475C229.395 206.453 229.215 206.213 228.935 206.04C228.669 205.853 228.309 205.76 227.855 205.76C227.375 205.76 227.009 205.847 226.755 206.02C226.502 206.193 226.375 206.42 226.375 206.7C226.375 206.887 226.455 207.053 226.615 207.2C226.789 207.347 227.029 207.473 227.335 207.58C227.642 207.673 228.015 207.767 228.455 207.86C229.229 208.02 229.909 208.207 230.495 208.42C231.082 208.62 231.542 208.913 231.875 209.3C232.209 209.673 232.375 210.22 232.375 210.94C232.375 211.58 232.202 212.153 231.855 212.66C231.509 213.153 231.015 213.54 230.375 213.82C229.749 214.1 229.002 214.24 228.135 214.24Z" fill="#051A2F"/>
</svg>
