<svg width="42" height="40" viewBox="0 0 42 40" fill="none" xmlns="http://www.w3.org/2000/svg">
<path d="M27.0508 2.33301L27.0156 3.86719L26.8975 9.03516L31.2451 6.4082L32.5576 5.61523L33.3213 6.94531L38.2188 15.4736L38.9961 16.8262L37.6133 17.5498L33.0605 19.9297L37.6396 22.4424L38.9746 23.1748L38.2227 24.499L33.3252 33.1133L32.5537 34.4697L31.2285 33.6455L26.8447 30.918L27.0156 36.0088L27.0674 37.5596H14.1709L14.2227 36.0098L14.3945 30.7998L9.99707 33.4814L8.68848 34.2793L7.91895 32.9531L3.02148 24.5107L2.25488 23.1885L3.59082 22.4463L8.12109 19.9297L3.61719 17.5459L2.25781 16.8262L3.01172 15.4854L7.90918 6.77637L8.68359 5.39941L10.0186 6.24316L14.3311 8.9707L14.2217 3.86523L14.1885 2.33301H27.0508Z" fill="#FF8F27" stroke="#051A2F" stroke-width="3"/>
</svg>
