<svg width="39" height="38" viewBox="0 0 39 38" fill="none" xmlns="http://www.w3.org/2000/svg">
<path d="M19.0352 2.3418C20.6749 2.3418 22.1356 3.23337 22.8965 4.68066L26.0664 10.6836L26.0684 10.6875L26.1045 10.7422C26.1312 10.7738 26.1628 10.7969 26.1982 10.8115L26.2549 10.8271L26.2617 10.8281L32.8975 12.0088H32.8984C34.4224 12.2766 35.6353 13.2888 36.1992 14.6924L36.3037 14.9785L36.3896 15.2793C36.7575 16.7532 36.3536 18.2826 35.2939 19.3896L35.293 19.3906L30.6074 24.2783L30.6035 24.2822C30.5456 24.3424 30.5145 24.426 30.5283 24.5283L31.4697 31.2598V31.2627L31.501 31.5664C31.6067 33.0767 30.9487 34.5111 29.7129 35.4219L29.708 35.4258C28.3797 36.3963 26.6857 36.538 25.2158 35.8223L25.21 35.8193L19.1504 32.835H19.1494C19.0771 32.7994 18.9948 32.7961 18.9092 32.8379L12.8555 35.8193L12.8525 35.8213C12.2445 36.1193 11.5866 36.2724 10.9229 36.2725C10.0131 36.2725 9.11965 35.98 8.36035 35.4287L8.35449 35.4238L8.34863 35.4199C7.03853 34.4483 6.3782 32.8815 6.60059 31.2627L6.60156 31.2598L7.54297 24.5283C7.55682 24.426 7.5248 24.3424 7.4668 24.2822L7.46387 24.2783L2.77734 19.3906V19.3896C1.64691 18.2087 1.26189 16.5474 1.76465 14.9854L1.86816 14.6973C2.39155 13.3806 3.49065 12.413 4.86621 12.0723L5.16504 12.0088L11.8037 10.8281L11.8135 10.8271L11.8721 10.8105C11.9274 10.7881 11.9716 10.7473 12.0029 10.6875L12.0039 10.6846L15.168 4.68164L15.1699 4.67871L15.3213 4.41504C16.1166 3.12878 17.4889 2.34187 19.0352 2.3418Z" fill="#C8DDF1" stroke="#051A2F" stroke-width="3"/>
</svg>
