<svg width="41" height="39" viewBox="0 0 41 39" fill="none" xmlns="http://www.w3.org/2000/svg">
<path d="M26.8506 2.31641L26.8164 3.85059L26.7012 8.86816L30.9209 6.31836L32.2334 5.52441L32.9971 6.85449L37.8008 15.2197L38.5781 16.5732L37.1953 17.2959L32.7764 19.6055L37.2217 22.0449L38.5566 22.7773L37.8047 24.1016L33.001 32.5498L32.2295 33.9072L30.9043 33.082L26.6494 30.4346L26.8154 35.376L26.8682 36.9258H14.1582L14.21 35.376L14.377 30.3193L10.1094 32.9219L8.80078 33.7197L8.03125 32.3936L3.22754 24.1123L2.46094 22.79L3.79688 22.0488L8.19434 19.6055L3.82324 17.292L2.46387 16.5723L3.21777 15.2314L8.02148 6.68848L8.7959 5.3125L10.1309 6.15625L14.3164 8.80273L14.21 3.84863L14.1768 2.31641H26.8506Z" fill="#C8DDF1" stroke="#051A2F" stroke-width="3"/>
</svg>
