<svg width="38" height="37" viewBox="0 0 38 37" fill="none" xmlns="http://www.w3.org/2000/svg">
<path d="M18.9873 1.55664C20.627 1.55664 22.0877 2.44822 22.8486 3.89551L26.0186 9.89844L26.0205 9.90234L26.0566 9.95703C26.0834 9.98868 26.115 10.0117 26.1504 10.0264L26.207 10.042L26.2139 10.043L32.8496 11.2236H32.8506C34.3746 11.4914 35.5874 12.5036 36.1514 13.9072L36.2559 14.1934L36.3418 14.4941C36.7097 15.968 36.3058 17.4974 35.2461 18.6045L35.2451 18.6055L30.5596 23.4932L30.5557 23.4971C30.4977 23.5572 30.4666 23.6409 30.4805 23.7432L31.4219 30.4746V30.4775L31.4531 30.7812C31.5589 32.2915 30.9009 33.7259 29.665 34.6367L29.6602 34.6406C28.3318 35.6111 26.6378 35.7528 25.168 35.0371L25.1621 35.0342L19.1025 32.0498H19.1016C19.0292 32.0142 18.947 32.011 18.8613 32.0527L12.8076 35.0342L12.8047 35.0361C12.1967 35.3342 11.5388 35.4872 10.875 35.4873C9.96527 35.4873 9.0718 35.1949 8.3125 34.6436L8.30664 34.6387L8.30078 34.6348C6.99067 33.6631 6.33034 32.0963 6.55273 30.4775L6.55371 30.4746L7.49512 23.7432C7.50897 23.6408 7.47695 23.5572 7.41895 23.4971L7.41602 23.4932L2.72949 18.6055V18.6045C1.59906 17.4236 1.21404 15.7622 1.7168 14.2002L1.82031 13.9121C2.34369 12.5955 3.4428 11.6278 4.81836 11.2871L5.11719 11.2236L11.7559 10.043L11.7656 10.042L11.8242 10.0254C11.8796 10.0029 11.9238 9.96213 11.9551 9.90234L11.9561 9.89941L15.1201 3.89648L15.1221 3.89355L15.2734 3.62988C16.0688 2.34362 17.441 1.55671 18.9873 1.55664Z" fill="#E9FA49" stroke="#051A2F" stroke-width="3"/>
</svg>
