<svg width="39" height="40" viewBox="0 0 39 40" fill="none" xmlns="http://www.w3.org/2000/svg">
<path d="M19.9268 2.31152C21.677 2.31152 23.3539 3.01213 24.5879 4.25586C25.8215 5.49916 26.5117 7.18328 26.5117 8.93652V13.2998H30.8291C32.5794 13.2998 34.2562 14.0004 35.4902 15.2441C36.7238 16.4875 37.4141 18.1716 37.4141 19.9248C37.414 21.6781 36.7238 23.3622 35.4902 24.6055C34.2562 25.8492 32.5794 26.5498 30.8291 26.5498H26.5117V30.9131C26.5117 32.6663 25.8215 34.3505 24.5879 35.5938C23.3539 36.8375 21.677 37.5381 19.9268 37.5381C18.1767 37.538 16.5005 36.8372 15.2666 35.5938C14.033 34.3505 13.3419 32.6663 13.3418 30.9131V26.5498H9.02441C7.27429 26.5498 5.59823 25.849 4.36426 24.6055C3.13065 23.3622 2.43947 21.6781 2.43945 19.9248C2.43945 18.1715 3.13063 16.4875 4.36426 15.2441C5.59824 14.0006 7.27426 13.2998 9.02441 13.2998H13.3418V8.93652C13.3418 7.18325 14.033 5.49917 15.2666 4.25586C16.5006 3.01231 18.1766 2.31158 19.9268 2.31152Z" fill="#C8DDF1" stroke="#051A2F" stroke-width="3"/>
</svg>
