<svg width="300" height="269" viewBox="0 0 300 269" fill="none" xmlns="http://www.w3.org/2000/svg">
<rect width="300" height="269" fill="white"/>
<path d="M103.4 49V35H108.02C109.647 35 110.993 35.2867 112.06 35.86C113.127 36.4333 113.913 37.2467 114.42 38.3C114.94 39.34 115.2 40.58 115.2 42.02C115.2 43.4333 114.94 44.6667 114.42 45.72C113.913 46.76 113.127 47.5667 112.06 48.14C111.007 48.7133 109.66 49 108.02 49H103.4ZM105.8 46.96H107.9C109.113 46.96 110.073 46.7667 110.78 46.38C111.487 45.98 111.987 45.4133 112.28 44.68C112.587 43.9333 112.74 43.0467 112.74 42.02C112.74 40.98 112.587 40.0933 112.28 39.36C111.987 38.6133 111.487 38.04 110.78 37.64C110.073 37.2267 109.113 37.02 107.9 37.02H105.8V46.96ZM117.561 49V39.02H119.961V49H117.561ZM118.761 37.38C118.321 37.38 117.954 37.2467 117.661 36.98C117.381 36.7 117.241 36.36 117.241 35.96C117.241 35.5467 117.381 35.2133 117.661 34.96C117.954 34.6933 118.321 34.56 118.761 34.56C119.201 34.56 119.561 34.6933 119.841 34.96C120.134 35.2133 120.281 35.5467 120.281 35.96C120.281 36.36 120.134 36.7 119.841 36.98C119.561 37.2467 119.201 37.38 118.761 37.38ZM126.735 49.24C125.868 49.24 125.102 49.1 124.435 48.82C123.768 48.5267 123.242 48.1267 122.855 47.62C122.468 47.1 122.235 46.5133 122.155 45.86H124.575C124.642 46.1267 124.762 46.38 124.935 46.62C125.122 46.8467 125.362 47.0267 125.655 47.16C125.962 47.2933 126.315 47.36 126.715 47.36C127.102 47.36 127.422 47.3067 127.675 47.2C127.928 47.08 128.115 46.9333 128.235 46.76C128.355 46.5733 128.415 46.3733 128.415 46.16C128.415 45.84 128.328 45.6 128.155 45.44C127.982 45.28 127.728 45.1533 127.395 45.06C127.075 44.9533 126.688 44.8467 126.235 44.74C125.795 44.6467 125.348 44.5333 124.895 44.4C124.455 44.2667 124.055 44.0933 123.695 43.88C123.348 43.6667 123.062 43.4 122.835 43.08C122.622 42.7467 122.515 42.3467 122.515 41.88C122.515 41.2933 122.668 40.7667 122.975 40.3C123.295 39.82 123.748 39.4467 124.335 39.18C124.935 38.9133 125.642 38.78 126.455 38.78C127.615 38.78 128.542 39.0533 129.235 39.6C129.942 40.1333 130.355 40.88 130.475 41.84H128.195C128.128 41.4667 127.942 41.18 127.635 40.98C127.342 40.7667 126.948 40.66 126.455 40.66C125.935 40.66 125.542 40.76 125.275 40.96C125.008 41.16 124.875 41.4133 124.875 41.72C124.875 41.92 124.962 42.1 125.135 42.26C125.308 42.42 125.555 42.56 125.875 42.68C126.195 42.7867 126.575 42.8867 127.015 42.98C127.735 43.1267 128.375 43.3 128.935 43.5C129.508 43.7 129.968 43.9933 130.315 44.38C130.662 44.7533 130.835 45.3 130.835 46.02C130.848 46.6467 130.682 47.2067 130.335 47.7C130.002 48.18 129.528 48.56 128.915 48.84C128.302 49.1067 127.575 49.24 126.735 49.24ZM137.925 49.24C136.925 49.24 136.038 49.02 135.265 48.58C134.491 48.1267 133.885 47.5133 133.445 46.74C133.005 45.9533 132.785 45.0467 132.785 44.02C132.785 42.98 133.005 42.0733 133.445 41.3C133.885 40.5133 134.491 39.9 135.265 39.46C136.038 39.0067 136.925 38.78 137.925 38.78C139.191 38.78 140.251 39.1067 141.105 39.76C141.958 40.4133 142.498 41.3067 142.725 42.44H140.205C140.085 41.9333 139.811 41.54 139.385 41.26C138.971 40.98 138.478 40.84 137.905 40.84C137.411 40.84 136.965 40.9667 136.565 41.22C136.165 41.46 135.845 41.82 135.605 42.3C135.365 42.7667 135.245 43.3333 135.245 44C135.245 44.5067 135.311 44.96 135.445 45.36C135.578 45.7467 135.765 46.08 136.005 46.36C136.258 46.64 136.545 46.8533 136.865 47C137.198 47.1333 137.545 47.2 137.905 47.2C138.291 47.2 138.638 47.14 138.945 47.02C139.265 46.8867 139.531 46.7 139.745 46.46C139.971 46.2067 140.125 45.9133 140.205 45.58H142.725C142.498 46.6867 141.951 47.5733 141.085 48.24C140.231 48.9067 139.178 49.24 137.925 49.24ZM149.719 49.24C148.773 49.24 147.913 49.02 147.139 48.58C146.379 48.14 145.779 47.5267 145.339 46.74C144.899 45.9533 144.679 45.0467 144.679 44.02C144.679 42.98 144.899 42.0667 145.339 41.28C145.793 40.4933 146.399 39.88 147.159 39.44C147.933 39 148.793 38.78 149.739 38.78C150.699 38.78 151.559 39 152.319 39.44C153.093 39.88 153.699 40.4933 154.139 41.28C154.579 42.0533 154.799 42.9667 154.799 44.02C154.799 45.0467 154.573 45.9533 154.119 46.74C153.679 47.5267 153.073 48.14 152.299 48.58C151.539 49.02 150.679 49.24 149.719 49.24ZM149.719 47.18C150.199 47.18 150.633 47.06 151.019 46.82C151.419 46.58 151.739 46.2267 151.979 45.76C152.233 45.2933 152.359 44.7067 152.359 44C152.359 43.3067 152.239 42.7267 151.999 42.26C151.759 41.7933 151.439 41.44 151.039 41.2C150.653 40.96 150.219 40.84 149.739 40.84C149.286 40.84 148.859 40.96 148.459 41.2C148.059 41.44 147.739 41.7933 147.499 42.26C147.259 42.7267 147.139 43.3133 147.139 44.02C147.139 44.7 147.259 45.28 147.499 45.76C147.739 46.2267 148.053 46.58 148.439 46.82C148.839 47.06 149.266 47.18 149.719 47.18ZM159.341 49L155.641 39.02H158.181L160.801 46.72L163.421 39.02H165.921L162.221 49H159.341ZM171.849 49.24C170.862 49.24 169.982 49.0267 169.209 48.6C168.449 48.16 167.849 47.5533 167.409 46.78C166.982 46.0067 166.769 45.1067 166.769 44.08C166.769 43.0267 166.982 42.1067 167.409 41.32C167.836 40.52 168.429 39.9 169.189 39.46C169.962 39.0067 170.856 38.78 171.869 38.78C172.856 38.78 173.716 39 174.449 39.44C175.182 39.8667 175.749 40.4467 176.149 41.18C176.562 41.9 176.769 42.72 176.769 43.64C176.769 43.7733 176.769 43.92 176.769 44.08C176.769 44.24 176.756 44.4067 176.729 44.58H168.509V43.04H174.349C174.309 42.3333 174.056 41.7733 173.589 41.36C173.136 40.9467 172.562 40.74 171.869 40.74C171.376 40.74 170.916 40.8533 170.489 41.08C170.076 41.2933 169.742 41.62 169.489 42.06C169.249 42.5 169.129 43.0533 169.129 43.72V44.3C169.129 44.9267 169.249 45.46 169.489 45.9C169.729 46.34 170.056 46.68 170.469 46.92C170.882 47.1467 171.342 47.26 171.849 47.26C172.396 47.26 172.849 47.14 173.209 46.9C173.582 46.66 173.862 46.3333 174.049 45.92H176.489C176.302 46.5467 175.996 47.1133 175.569 47.62C175.142 48.1133 174.616 48.5067 173.989 48.8C173.362 49.0933 172.649 49.24 171.849 49.24ZM178.945 49V39.02H181.105L181.325 40.9C181.552 40.46 181.838 40.0867 182.185 39.78C182.545 39.46 182.958 39.2133 183.425 39.04C183.905 38.8667 184.438 38.78 185.025 38.78V41.3H184.285C183.872 41.3 183.485 41.3533 183.125 41.46C182.765 41.5533 182.452 41.7133 182.185 41.94C181.918 42.1667 181.712 42.4733 181.565 42.86C181.418 43.2467 181.345 43.7267 181.345 44.3V49H178.945ZM188.017 53.4L190.477 47.88H189.897L185.877 39.02H188.477L191.497 45.78L194.337 39.02H196.877L190.557 53.4H188.017Z" fill="#051A2F"/>
<path opacity="0.6" d="M92.55 75V65.2H95.434C96.582 65.2 97.5247 65.4007 98.262 65.802C99.0087 66.194 99.5593 66.7587 99.914 67.496C100.278 68.224 100.46 69.1013 100.46 70.128C100.46 71.136 100.278 72.004 99.914 72.732C99.5593 73.46 99.0087 74.02 98.262 74.412C97.5247 74.804 96.582 75 95.434 75H92.55ZM93.726 74.02H95.406C96.358 74.02 97.114 73.866 97.674 73.558C98.234 73.2407 98.6353 72.7927 98.878 72.214C99.1207 71.626 99.242 70.9307 99.242 70.128C99.242 69.3067 99.1207 68.602 98.878 68.014C98.6353 67.426 98.234 66.9733 97.674 66.656C97.114 66.3387 96.358 66.18 95.406 66.18H93.726V74.02ZM104.681 75.168C104.139 75.168 103.663 75.0607 103.253 74.846C102.851 74.6313 102.539 74.3 102.315 73.852C102.1 73.404 101.993 72.844 101.993 72.172V67.944H103.169V72.046C103.169 72.746 103.323 73.2733 103.631 73.628C103.939 73.9827 104.373 74.16 104.933 74.16C105.325 74.16 105.679 74.0667 105.997 73.88C106.314 73.684 106.561 73.4087 106.739 73.054C106.925 72.69 107.019 72.2467 107.019 71.724V67.944H108.195V75H107.131L107.061 73.768C106.846 74.2067 106.529 74.552 106.109 74.804C105.689 75.0467 105.213 75.168 104.681 75.168ZM110.144 75V67.944H111.208L111.292 69.288C111.451 68.9707 111.651 68.7 111.894 68.476C112.146 68.252 112.445 68.0793 112.79 67.958C113.145 67.8367 113.546 67.776 113.994 67.776V69.008H113.56C113.261 69.008 112.977 69.05 112.706 69.134C112.435 69.2087 112.193 69.3347 111.978 69.512C111.773 69.6893 111.609 69.932 111.488 70.24C111.376 70.5387 111.32 70.912 111.32 71.36V75H110.144ZM117.622 75.168C117.052 75.168 116.576 75.07 116.194 74.874C115.811 74.6687 115.526 74.4027 115.34 74.076C115.153 73.74 115.06 73.376 115.06 72.984C115.06 72.508 115.181 72.1067 115.424 71.78C115.676 71.444 116.026 71.192 116.474 71.024C116.931 70.8467 117.468 70.758 118.084 70.758H119.946C119.946 70.3193 119.876 69.9553 119.736 69.666C119.605 69.3673 119.409 69.1433 119.148 68.994C118.896 68.8447 118.578 68.77 118.196 68.77C117.748 68.77 117.36 68.882 117.034 69.106C116.707 69.33 116.506 69.6613 116.432 70.1H115.228C115.284 69.596 115.452 69.176 115.732 68.84C116.021 68.4947 116.385 68.2333 116.824 68.056C117.262 67.8693 117.72 67.776 118.196 67.776C118.849 67.776 119.39 67.8973 119.82 68.14C120.258 68.3733 120.585 68.7047 120.8 69.134C121.014 69.554 121.122 70.0533 121.122 70.632V75H120.072L120.002 73.754C119.908 73.95 119.787 74.1367 119.638 74.314C119.498 74.482 119.33 74.6313 119.134 74.762C118.938 74.8833 118.714 74.9813 118.462 75.056C118.219 75.1307 117.939 75.168 117.622 75.168ZM117.804 74.174C118.13 74.174 118.424 74.1087 118.686 73.978C118.956 73.838 119.185 73.6513 119.372 73.418C119.558 73.1753 119.698 72.9093 119.792 72.62C119.894 72.3307 119.946 72.0273 119.946 71.71V71.668H118.182C117.724 71.668 117.356 71.724 117.076 71.836C116.796 71.9387 116.595 72.088 116.474 72.284C116.352 72.4707 116.292 72.6853 116.292 72.928C116.292 73.18 116.348 73.3993 116.46 73.586C116.581 73.7727 116.754 73.9173 116.978 74.02C117.211 74.1227 117.486 74.174 117.804 74.174ZM125.522 75C125.102 75 124.738 74.9347 124.43 74.804C124.122 74.6733 123.884 74.454 123.716 74.146C123.557 73.8287 123.478 73.404 123.478 72.872V68.938H122.246V67.944H123.478L123.632 66.236H124.654V67.944H126.698V68.938H124.654V72.872C124.654 73.3107 124.742 73.6093 124.92 73.768C125.097 73.9173 125.41 73.992 125.858 73.992H126.614V75H125.522ZM128.344 75V67.944H129.52V75H128.344ZM128.932 66.446C128.699 66.446 128.503 66.3713 128.344 66.222C128.195 66.0633 128.12 65.8673 128.12 65.634C128.12 65.4007 128.195 65.214 128.344 65.074C128.503 64.9247 128.699 64.85 128.932 64.85C129.156 64.85 129.347 64.9247 129.506 65.074C129.665 65.214 129.744 65.4007 129.744 65.634C129.744 65.8673 129.665 66.0633 129.506 66.222C129.347 66.3713 129.156 66.446 128.932 66.446ZM134.745 75.168C134.092 75.168 133.504 75.0187 132.981 74.72C132.459 74.412 132.048 73.9827 131.749 73.432C131.451 72.872 131.301 72.2233 131.301 71.486C131.301 70.73 131.451 70.0767 131.749 69.526C132.057 68.966 132.473 68.5367 132.995 68.238C133.527 67.93 134.12 67.776 134.773 67.776C135.445 67.776 136.038 67.93 136.551 68.238C137.074 68.5367 137.485 68.966 137.783 69.526C138.091 70.0767 138.245 70.7253 138.245 71.472C138.245 72.2187 138.091 72.872 137.783 73.432C137.475 73.9827 137.06 74.412 136.537 74.72C136.015 75.0187 135.417 75.168 134.745 75.168ZM134.759 74.16C135.161 74.16 135.534 74.062 135.879 73.866C136.225 73.6607 136.505 73.3573 136.719 72.956C136.934 72.5547 137.041 72.06 137.041 71.472C137.041 70.8747 136.934 70.38 136.719 69.988C136.514 69.5867 136.239 69.288 135.893 69.092C135.557 68.8867 135.184 68.784 134.773 68.784C134.381 68.784 134.008 68.8867 133.653 69.092C133.308 69.288 133.028 69.5867 132.813 69.988C132.608 70.38 132.505 70.8747 132.505 71.472C132.505 72.06 132.608 72.5547 132.813 72.956C133.028 73.3573 133.303 73.6607 133.639 73.866C133.985 74.062 134.358 74.16 134.759 74.16ZM139.894 75V67.944H140.958L141.014 69.176C141.238 68.7373 141.555 68.3967 141.966 68.154C142.386 67.902 142.862 67.776 143.394 67.776C143.945 67.776 144.421 67.888 144.822 68.112C145.223 68.3267 145.536 68.658 145.76 69.106C145.984 69.5447 146.096 70.1047 146.096 70.786V75H144.92V70.912C144.92 70.2027 144.761 69.6707 144.444 69.316C144.136 68.9613 143.697 68.784 143.128 68.784C142.736 68.784 142.386 68.882 142.078 69.078C141.77 69.2647 141.523 69.54 141.336 69.904C141.159 70.2587 141.07 70.702 141.07 71.234V75H139.894ZM148.353 75.07C148.12 75.07 147.924 74.9953 147.765 74.846C147.616 74.6873 147.541 74.496 147.541 74.272C147.541 74.048 147.616 73.8613 147.765 73.712C147.924 73.5533 148.12 73.474 148.353 73.474C148.586 73.474 148.778 73.5533 148.927 73.712C149.076 73.8613 149.151 74.048 149.151 74.272C149.151 74.496 149.076 74.6873 148.927 74.846C148.778 74.9953 148.586 75.07 148.353 75.07ZM148.353 69.372C148.12 69.372 147.924 69.2973 147.765 69.148C147.616 68.9893 147.541 68.798 147.541 68.574C147.541 68.35 147.616 68.1633 147.765 68.014C147.924 67.8553 148.12 67.776 148.353 67.776C148.586 67.776 148.778 67.8553 148.927 68.014C149.076 68.1633 149.151 68.35 149.151 68.574C149.151 68.798 149.076 68.9893 148.927 69.148C148.778 69.2973 148.586 69.372 148.353 69.372ZM154.398 75V74.174C155.061 73.6513 155.691 73.124 156.288 72.592C156.895 72.06 157.431 71.5327 157.898 71.01C158.365 70.478 158.729 69.96 158.99 69.456C159.261 68.952 159.396 68.4667 159.396 68C159.396 67.6547 159.335 67.3373 159.214 67.048C159.093 66.7493 158.897 66.5067 158.626 66.32C158.365 66.1333 158.01 66.04 157.562 66.04C157.123 66.04 156.759 66.138 156.47 66.334C156.181 66.5207 155.961 66.7727 155.812 67.09C155.672 67.398 155.602 67.7387 155.602 68.112H154.468C154.477 67.468 154.613 66.9173 154.874 66.46C155.145 65.9933 155.513 65.6387 155.98 65.396C156.447 65.1533 156.979 65.032 157.576 65.032C158.164 65.032 158.682 65.144 159.13 65.368C159.578 65.5827 159.928 65.9047 160.18 66.334C160.441 66.7633 160.572 67.3047 160.572 67.958C160.572 68.4153 160.474 68.8727 160.278 69.33C160.091 69.7873 159.839 70.2353 159.522 70.674C159.205 71.1033 158.85 71.5187 158.458 71.92C158.075 72.3213 157.679 72.6993 157.268 73.054C156.867 73.4087 156.489 73.7307 156.134 74.02H160.908V75H154.398ZM168.353 75L165.665 65.2H166.925L169.039 73.6L171.433 65.2H172.749L175.087 73.628L177.229 65.2H178.489L175.745 75H174.401L172.063 66.894L169.669 75H168.353ZM182.199 75.168C181.536 75.168 180.948 75.014 180.435 74.706C179.931 74.398 179.534 73.9687 179.245 73.418C178.956 72.858 178.811 72.2093 178.811 71.472C178.811 70.7253 178.951 70.0767 179.231 69.526C179.52 68.9753 179.922 68.546 180.435 68.238C180.958 67.93 181.555 67.776 182.227 67.776C182.918 67.776 183.501 67.93 183.977 68.238C184.462 68.546 184.831 68.952 185.083 69.456C185.344 69.9507 185.475 70.4967 185.475 71.094C185.475 71.1873 185.475 71.2853 185.475 71.388C185.475 71.4907 185.47 71.6073 185.461 71.738H179.693V70.828H184.327C184.299 70.184 184.084 69.68 183.683 69.316C183.291 68.952 182.796 68.77 182.199 68.77C181.798 68.77 181.424 68.8633 181.079 69.05C180.743 69.2273 180.472 69.4933 180.267 69.848C180.062 70.1933 179.959 70.6273 179.959 71.15V71.542C179.959 72.1207 180.062 72.606 180.267 72.998C180.482 73.39 180.757 73.684 181.093 73.88C181.438 74.076 181.807 74.174 182.199 74.174C182.694 74.174 183.1 74.0667 183.417 73.852C183.744 73.628 183.977 73.3293 184.117 72.956H185.279C185.167 73.376 184.971 73.754 184.691 74.09C184.411 74.426 184.061 74.692 183.641 74.888C183.23 75.0747 182.75 75.168 182.199 75.168ZM190.156 75.168C189.493 75.168 188.905 75.014 188.392 74.706C187.888 74.398 187.491 73.9687 187.202 73.418C186.913 72.858 186.768 72.2093 186.768 71.472C186.768 70.7253 186.908 70.0767 187.188 69.526C187.477 68.9753 187.879 68.546 188.392 68.238C188.915 67.93 189.512 67.776 190.184 67.776C190.875 67.776 191.458 67.93 191.934 68.238C192.419 68.546 192.788 68.952 193.04 69.456C193.301 69.9507 193.432 70.4967 193.432 71.094C193.432 71.1873 193.432 71.2853 193.432 71.388C193.432 71.4907 193.427 71.6073 193.418 71.738H187.65V70.828H192.284C192.256 70.184 192.041 69.68 191.64 69.316C191.248 68.952 190.753 68.77 190.156 68.77C189.755 68.77 189.381 68.8633 189.036 69.05C188.7 69.2273 188.429 69.4933 188.224 69.848C188.019 70.1933 187.916 70.6273 187.916 71.15V71.542C187.916 72.1207 188.019 72.606 188.224 72.998C188.439 73.39 188.714 73.684 189.05 73.88C189.395 74.076 189.764 74.174 190.156 74.174C190.651 74.174 191.057 74.0667 191.374 73.852C191.701 73.628 191.934 73.3293 192.074 72.956H193.236C193.124 73.376 192.928 73.754 192.648 74.09C192.368 74.426 192.018 74.692 191.598 74.888C191.187 75.0747 190.707 75.168 190.156 75.168ZM199.359 75L195.999 71.136L199.065 67.944H200.507L196.993 71.556L197.007 70.716L200.857 75H199.359ZM195.019 75V64.92H196.195V75H195.019ZM204.324 75.168C203.736 75.168 203.222 75.07 202.784 74.874C202.354 74.678 202.009 74.4073 201.748 74.062C201.496 73.7073 201.342 73.292 201.286 72.816H202.49C202.536 73.0587 202.634 73.2827 202.784 73.488C202.933 73.6933 203.134 73.8613 203.386 73.992C203.647 74.1133 203.964 74.174 204.338 74.174C204.664 74.174 204.935 74.1273 205.15 74.034C205.364 73.9313 205.523 73.796 205.626 73.628C205.738 73.46 205.794 73.278 205.794 73.082C205.794 72.7927 205.724 72.5733 205.584 72.424C205.453 72.2747 205.257 72.158 204.996 72.074C204.734 71.9807 204.417 71.9013 204.044 71.836C203.736 71.78 203.432 71.7053 203.134 71.612C202.835 71.5187 202.569 71.3973 202.336 71.248C202.102 71.0893 201.916 70.898 201.776 70.674C201.645 70.45 201.58 70.1747 201.58 69.848C201.58 69.4467 201.682 69.092 201.888 68.784C202.093 68.4667 202.387 68.2193 202.77 68.042C203.162 67.8647 203.614 67.776 204.128 67.776C204.884 67.776 205.495 67.958 205.962 68.322C206.428 68.686 206.704 69.2133 206.788 69.904H205.626C205.579 69.5493 205.425 69.274 205.164 69.078C204.912 68.8727 204.562 68.77 204.114 68.77C203.675 68.77 203.339 68.8587 203.106 69.036C202.882 69.2133 202.77 69.4467 202.77 69.736C202.77 69.9227 202.83 70.0907 202.952 70.24C203.082 70.38 203.269 70.5013 203.512 70.604C203.764 70.7067 204.072 70.7907 204.436 70.856C204.902 70.94 205.327 71.052 205.71 71.192C206.092 71.332 206.4 71.542 206.634 71.822C206.876 72.0927 206.998 72.48 206.998 72.984C206.998 73.4227 206.886 73.8053 206.662 74.132C206.447 74.4587 206.139 74.7153 205.738 74.902C205.336 75.0793 204.865 75.168 204.324 75.168Z" fill="#051A2F"/>
<rect x="60" y="117" width="180" height="42" rx="21" fill="#C8DDF1"/>
<path d="M82.72 145.24C81.7067 145.24 80.7867 145.04 79.96 144.64C79.1467 144.24 78.4933 143.627 78 142.8C77.52 141.973 77.28 140.933 77.28 139.68V131H79.68V139.7C79.68 140.46 79.8067 141.087 80.06 141.58C80.3133 142.073 80.6667 142.447 81.12 142.7C81.5867 142.94 82.1333 143.06 82.76 143.06C83.4 143.06 83.9467 142.94 84.4 142.7C84.8667 142.447 85.22 142.073 85.46 141.58C85.7133 141.087 85.84 140.46 85.84 139.7V131H88.24V139.68C88.24 140.933 87.9933 141.973 87.5 142.8C87.0067 143.627 86.34 144.24 85.5 144.64C84.66 145.04 83.7333 145.24 82.72 145.24ZM94.8756 145.24C94.009 145.24 93.2423 145.1 92.5756 144.82C91.909 144.527 91.3823 144.127 90.9956 143.62C90.609 143.1 90.3756 142.513 90.2956 141.86H92.7156C92.7823 142.127 92.9023 142.38 93.0756 142.62C93.2623 142.847 93.5023 143.027 93.7956 143.16C94.1023 143.293 94.4556 143.36 94.8556 143.36C95.2423 143.36 95.5623 143.307 95.8156 143.2C96.069 143.08 96.2556 142.933 96.3756 142.76C96.4956 142.573 96.5556 142.373 96.5556 142.16C96.5556 141.84 96.469 141.6 96.2956 141.44C96.1223 141.28 95.869 141.153 95.5356 141.06C95.2156 140.953 94.829 140.847 94.3756 140.74C93.9356 140.647 93.489 140.533 93.0356 140.4C92.5956 140.267 92.1956 140.093 91.8356 139.88C91.489 139.667 91.2023 139.4 90.9756 139.08C90.7623 138.747 90.6556 138.347 90.6556 137.88C90.6556 137.293 90.809 136.767 91.1156 136.3C91.4356 135.82 91.889 135.447 92.4756 135.18C93.0756 134.913 93.7823 134.78 94.5956 134.78C95.7556 134.78 96.6823 135.053 97.3756 135.6C98.0823 136.133 98.4956 136.88 98.6156 137.84H96.3356C96.269 137.467 96.0823 137.18 95.7756 136.98C95.4823 136.767 95.089 136.66 94.5956 136.66C94.0756 136.66 93.6823 136.76 93.4156 136.96C93.149 137.16 93.0156 137.413 93.0156 137.72C93.0156 137.92 93.1023 138.1 93.2756 138.26C93.449 138.42 93.6956 138.56 94.0156 138.68C94.3356 138.787 94.7156 138.887 95.1556 138.98C95.8756 139.127 96.5156 139.3 97.0756 139.5C97.649 139.7 98.109 139.993 98.4556 140.38C98.8023 140.753 98.9756 141.3 98.9756 142.02C98.989 142.647 98.8223 143.207 98.4756 143.7C98.1423 144.18 97.669 144.56 97.0556 144.84C96.4423 145.107 95.7156 145.24 94.8756 145.24ZM106.005 145.24C105.019 145.24 104.139 145.027 103.365 144.6C102.605 144.16 102.005 143.553 101.565 142.78C101.139 142.007 100.925 141.107 100.925 140.08C100.925 139.027 101.139 138.107 101.565 137.32C101.992 136.52 102.585 135.9 103.345 135.46C104.119 135.007 105.012 134.78 106.025 134.78C107.012 134.78 107.872 135 108.605 135.44C109.339 135.867 109.905 136.447 110.305 137.18C110.719 137.9 110.925 138.72 110.925 139.64C110.925 139.773 110.925 139.92 110.925 140.08C110.925 140.24 110.912 140.407 110.885 140.58H102.665V139.04H108.505C108.465 138.333 108.212 137.773 107.745 137.36C107.292 136.947 106.719 136.74 106.025 136.74C105.532 136.74 105.072 136.853 104.645 137.08C104.232 137.293 103.899 137.62 103.645 138.06C103.405 138.5 103.285 139.053 103.285 139.72V140.3C103.285 140.927 103.405 141.46 103.645 141.9C103.885 142.34 104.212 142.68 104.625 142.92C105.039 143.147 105.499 143.26 106.005 143.26C106.552 143.26 107.005 143.14 107.365 142.9C107.739 142.66 108.019 142.333 108.205 141.92H110.645C110.459 142.547 110.152 143.113 109.725 143.62C109.299 144.113 108.772 144.507 108.145 144.8C107.519 145.093 106.805 145.24 106.005 145.24ZM113.101 145V135.02H115.261L115.481 136.9C115.708 136.46 115.995 136.087 116.341 135.78C116.701 135.46 117.115 135.213 117.581 135.04C118.061 134.867 118.595 134.78 119.181 134.78V137.3H118.441C118.028 137.3 117.641 137.353 117.281 137.46C116.921 137.553 116.608 137.713 116.341 137.94C116.075 138.167 115.868 138.473 115.721 138.86C115.575 139.247 115.501 139.727 115.501 140.3V145H113.101ZM125.916 145V131H128.316V145H125.916ZM131.011 145V135.02H133.151L133.311 136.7C133.631 136.113 134.078 135.647 134.651 135.3C135.238 134.953 135.918 134.78 136.691 134.78C137.518 134.78 138.218 134.953 138.791 135.3C139.365 135.633 139.805 136.133 140.111 136.8C140.418 137.467 140.571 138.287 140.571 139.26V145H138.171V139.5C138.171 138.633 137.985 137.967 137.611 137.5C137.251 137.033 136.698 136.8 135.951 136.8C135.471 136.8 135.038 136.92 134.651 137.16C134.265 137.4 133.958 137.74 133.731 138.18C133.518 138.607 133.411 139.14 133.411 139.78V145H131.011ZM147.403 145C146.723 145 146.129 144.893 145.623 144.68C145.129 144.467 144.743 144.113 144.463 143.62C144.196 143.127 144.063 142.46 144.063 141.62V137.02H142.343V135.02H144.063L144.323 132.4H146.443V135.02H149.183V137.02H146.463V141.62C146.463 142.127 146.569 142.48 146.783 142.68C146.996 142.867 147.363 142.96 147.883 142.96H149.103V145H147.403ZM155.869 145.24C154.882 145.24 154.002 145.027 153.229 144.6C152.469 144.16 151.869 143.553 151.429 142.78C151.002 142.007 150.789 141.107 150.789 140.08C150.789 139.027 151.002 138.107 151.429 137.32C151.855 136.52 152.449 135.9 153.209 135.46C153.982 135.007 154.875 134.78 155.889 134.78C156.875 134.78 157.735 135 158.469 135.44C159.202 135.867 159.769 136.447 160.169 137.18C160.582 137.9 160.789 138.72 160.789 139.64C160.789 139.773 160.789 139.92 160.789 140.08C160.789 140.24 160.775 140.407 160.749 140.58H152.529V139.04H158.369C158.329 138.333 158.075 137.773 157.609 137.36C157.155 136.947 156.582 136.74 155.889 136.74C155.395 136.74 154.935 136.853 154.509 137.08C154.095 137.293 153.762 137.62 153.509 138.06C153.269 138.5 153.149 139.053 153.149 139.72V140.3C153.149 140.927 153.269 141.46 153.509 141.9C153.749 142.34 154.075 142.68 154.489 142.92C154.902 143.147 155.362 143.26 155.869 143.26C156.415 143.26 156.869 143.14 157.229 142.9C157.602 142.66 157.882 142.333 158.069 141.92H160.509C160.322 142.547 160.015 143.113 159.589 143.62C159.162 144.113 158.635 144.507 158.009 144.8C157.382 145.093 156.669 145.24 155.869 145.24ZM162.965 145V135.02H165.125L165.345 136.9C165.571 136.46 165.858 136.087 166.205 135.78C166.565 135.46 166.978 135.213 167.445 135.04C167.925 134.867 168.458 134.78 169.045 134.78V137.3H168.305C167.891 137.3 167.505 137.353 167.145 137.46C166.785 137.553 166.471 137.713 166.205 137.94C165.938 138.167 165.731 138.473 165.585 138.86C165.438 139.247 165.365 139.727 165.365 140.3V145H162.965ZM173.556 145L169.856 135.02H172.396L175.016 142.72L177.636 135.02H180.136L176.436 145H173.556ZM181.932 145V135.02H184.332V145H181.932ZM183.132 133.38C182.692 133.38 182.326 133.247 182.032 132.98C181.752 132.7 181.612 132.36 181.612 131.96C181.612 131.547 181.752 131.213 182.032 130.96C182.326 130.693 182.692 130.56 183.132 130.56C183.572 130.56 183.932 130.693 184.212 130.96C184.506 131.213 184.652 131.547 184.652 131.96C184.652 132.36 184.506 132.7 184.212 132.98C183.932 133.247 183.572 133.38 183.132 133.38ZM191.806 145.24C190.819 145.24 189.939 145.027 189.166 144.6C188.406 144.16 187.806 143.553 187.366 142.78C186.939 142.007 186.726 141.107 186.726 140.08C186.726 139.027 186.939 138.107 187.366 137.32C187.793 136.52 188.386 135.9 189.146 135.46C189.919 135.007 190.813 134.78 191.826 134.78C192.813 134.78 193.673 135 194.406 135.44C195.139 135.867 195.706 136.447 196.106 137.18C196.519 137.9 196.726 138.72 196.726 139.64C196.726 139.773 196.726 139.92 196.726 140.08C196.726 140.24 196.713 140.407 196.686 140.58H188.466V139.04H194.306C194.266 138.333 194.013 137.773 193.546 137.36C193.093 136.947 192.519 136.74 191.826 136.74C191.333 136.74 190.873 136.853 190.446 137.08C190.033 137.293 189.699 137.62 189.446 138.06C189.206 138.5 189.086 139.053 189.086 139.72V140.3C189.086 140.927 189.206 141.46 189.446 141.9C189.686 142.34 190.013 142.68 190.426 142.92C190.839 143.147 191.299 143.26 191.806 143.26C192.353 143.26 192.806 143.14 193.166 142.9C193.539 142.66 193.819 142.333 194.006 141.92H196.446C196.259 142.547 195.953 143.113 195.526 143.62C195.099 144.113 194.573 144.507 193.946 144.8C193.319 145.093 192.606 145.24 191.806 145.24ZM200.491 145L197.551 135.02H199.931L202.011 143.36H201.471L203.831 135.02H206.491L208.851 143.36H208.311L210.391 135.02H212.771L209.851 145H207.371L204.871 136.36H205.451L202.971 145H200.491ZM218.489 145.24C217.622 145.24 216.856 145.1 216.189 144.82C215.522 144.527 214.996 144.127 214.609 143.62C214.222 143.1 213.989 142.513 213.909 141.86H216.329C216.396 142.127 216.516 142.38 216.689 142.62C216.876 142.847 217.116 143.027 217.409 143.16C217.716 143.293 218.069 143.36 218.469 143.36C218.856 143.36 219.176 143.307 219.429 143.2C219.682 143.08 219.869 142.933 219.989 142.76C220.109 142.573 220.169 142.373 220.169 142.16C220.169 141.84 220.082 141.6 219.909 141.44C219.736 141.28 219.482 141.153 219.149 141.06C218.829 140.953 218.442 140.847 217.989 140.74C217.549 140.647 217.102 140.533 216.649 140.4C216.209 140.267 215.809 140.093 215.449 139.88C215.102 139.667 214.816 139.4 214.589 139.08C214.376 138.747 214.269 138.347 214.269 137.88C214.269 137.293 214.422 136.767 214.729 136.3C215.049 135.82 215.502 135.447 216.089 135.18C216.689 134.913 217.396 134.78 218.209 134.78C219.369 134.78 220.296 135.053 220.989 135.6C221.696 136.133 222.109 136.88 222.229 137.84H219.949C219.882 137.467 219.696 137.18 219.389 136.98C219.096 136.767 218.702 136.66 218.209 136.66C217.689 136.66 217.296 136.76 217.029 136.96C216.762 137.16 216.629 137.413 216.629 137.72C216.629 137.92 216.716 138.1 216.889 138.26C217.062 138.42 217.309 138.56 217.629 138.68C217.949 138.787 218.329 138.887 218.769 138.98C219.489 139.127 220.129 139.3 220.689 139.5C221.262 139.7 221.722 139.993 222.069 140.38C222.416 140.753 222.589 141.3 222.589 142.02C222.602 142.647 222.436 143.207 222.089 143.7C221.756 144.18 221.282 144.56 220.669 144.84C220.056 145.107 219.329 145.24 218.489 145.24Z" fill="#051A2F"/>
<rect x="39" y="159" width="93" height="42" rx="21" fill="#051A2F"/>
<path d="M59.66 187V174.94H55.54V173H66.18V174.94H62.06V187H59.66ZM69.7586 187.24C68.9319 187.24 68.2453 187.107 67.6986 186.84C67.1519 186.56 66.7453 186.193 66.4786 185.74C66.2119 185.273 66.0786 184.76 66.0786 184.2C66.0786 183.573 66.2386 183.027 66.5586 182.56C66.8919 182.093 67.3786 181.733 68.0186 181.48C68.6586 181.213 69.4453 181.08 70.3786 181.08H72.9186C72.9186 180.56 72.8386 180.127 72.6786 179.78C72.5319 179.433 72.3053 179.173 71.9986 179C71.6919 178.827 71.2986 178.74 70.8186 178.74C70.2719 178.74 69.7986 178.873 69.3986 179.14C69.0119 179.393 68.7719 179.767 68.6786 180.26H66.3186C66.3986 179.54 66.6386 178.92 67.0386 178.4C67.4519 177.88 67.9919 177.48 68.6586 177.2C69.3253 176.92 70.0519 176.78 70.8386 176.78C71.7719 176.78 72.5719 176.947 73.2386 177.28C73.9186 177.6 74.4319 178.06 74.7786 178.66C75.1386 179.26 75.3186 179.987 75.3186 180.84V187H73.2786L73.0386 185.4C72.9053 185.653 72.7319 185.893 72.5186 186.12C72.3186 186.347 72.0853 186.547 71.8186 186.72C71.5519 186.88 71.2453 187.007 70.8986 187.1C70.5653 187.193 70.1853 187.24 69.7586 187.24ZM70.2986 185.34C70.6853 185.34 71.0319 185.273 71.3386 185.14C71.6453 184.993 71.9053 184.793 72.1186 184.54C72.3319 184.287 72.4986 184 72.6186 183.68C72.7519 183.36 72.8319 183.02 72.8586 182.66V182.64H70.6386C70.1586 182.64 69.7653 182.7 69.4586 182.82C69.1653 182.94 68.9453 183.107 68.7986 183.32C68.6653 183.52 68.5986 183.753 68.5986 184.02C68.5986 184.3 68.6653 184.54 68.7986 184.74C68.9319 184.94 69.1253 185.093 69.3786 185.2C69.6453 185.293 69.9519 185.34 70.2986 185.34ZM77.8239 187V177.02H79.9839L80.2039 178.9C80.4306 178.46 80.7172 178.087 81.0639 177.78C81.4239 177.46 81.8372 177.213 82.3039 177.04C82.7839 176.867 83.3172 176.78 83.9039 176.78V179.3H83.1639C82.7506 179.3 82.3639 179.353 82.0039 179.46C81.6439 179.553 81.3306 179.713 81.0639 179.94C80.7972 180.167 80.5906 180.473 80.4439 180.86C80.2972 181.247 80.2239 181.727 80.2239 182.3V187H77.8239ZM89.6611 191.64C88.7278 191.64 87.9078 191.52 87.2011 191.28C86.4944 191.053 85.9411 190.7 85.5411 190.22C85.1544 189.753 84.9611 189.167 84.9611 188.46C84.9611 188.047 85.0611 187.647 85.2611 187.26C85.4744 186.873 85.7878 186.513 86.2011 186.18C86.6278 185.833 87.1678 185.533 87.8211 185.28L88.8611 186.44C88.2344 186.667 87.7944 186.94 87.5411 187.26C87.2878 187.58 87.1611 187.9 87.1611 188.22C87.1611 188.567 87.2678 188.853 87.4811 189.08C87.7078 189.32 88.0078 189.5 88.3811 189.62C88.7678 189.74 89.1944 189.8 89.6611 189.8C90.1278 189.8 90.5278 189.733 90.8611 189.6C91.2078 189.48 91.4744 189.307 91.6611 189.08C91.8611 188.853 91.9611 188.58 91.9611 188.26C91.9611 187.873 91.8211 187.553 91.5411 187.3C91.2611 187.06 90.7144 186.913 89.9011 186.86C89.1944 186.807 88.5744 186.733 88.0411 186.64C87.5211 186.533 87.0678 186.413 86.6811 186.28C86.3078 186.147 85.9878 186 85.7211 185.84C85.4544 185.667 85.2344 185.493 85.0611 185.32V184.86L87.1411 182.64L88.9211 183.24L86.5811 185.54L87.2011 184.4C87.3344 184.493 87.4678 184.58 87.6011 184.66C87.7478 184.727 87.9278 184.793 88.1411 184.86C88.3678 184.913 88.6544 184.967 89.0011 185.02C89.3611 185.073 89.8278 185.127 90.4011 185.18C91.2811 185.247 92.0011 185.407 92.5611 185.66C93.1211 185.913 93.5278 186.253 93.7811 186.68C94.0478 187.107 94.1811 187.613 94.1811 188.2C94.1811 188.787 94.0211 189.34 93.7011 189.86C93.3811 190.38 92.8878 190.807 92.2211 191.14C91.5544 191.473 90.7011 191.64 89.6611 191.64ZM89.6811 184C88.8411 184 88.1144 183.84 87.5011 183.52C86.9011 183.187 86.4411 182.753 86.1211 182.22C85.8011 181.673 85.6411 181.06 85.6411 180.38C85.6411 179.713 85.8011 179.113 86.1211 178.58C86.4544 178.033 86.9211 177.6 87.5211 177.28C88.1211 176.947 88.8411 176.78 89.6811 176.78C90.5211 176.78 91.2411 176.947 91.8411 177.28C92.4411 177.6 92.9011 178.033 93.2211 178.58C93.5411 179.113 93.7011 179.713 93.7011 180.38C93.7011 181.06 93.5411 181.673 93.2211 182.22C92.9011 182.753 92.4411 183.187 91.8411 183.52C91.2411 183.84 90.5211 184 89.6811 184ZM89.6811 182.14C90.2411 182.14 90.6944 181.993 91.0411 181.7C91.4011 181.393 91.5811 180.96 91.5811 180.4C91.5811 179.84 91.4011 179.413 91.0411 179.12C90.6944 178.813 90.2411 178.66 89.6811 178.66C89.1078 178.66 88.6411 178.813 88.2811 179.12C87.9344 179.413 87.7611 179.84 87.7611 180.4C87.7611 180.96 87.9344 181.393 88.2811 181.7C88.6411 181.993 89.1078 182.14 89.6811 182.14ZM91.3011 178.78L90.8411 177.02H95.0011V178.52L91.3011 178.78ZM101.47 187.24C100.483 187.24 99.6035 187.027 98.8302 186.6C98.0702 186.16 97.4702 185.553 97.0302 184.78C96.6035 184.007 96.3902 183.107 96.3902 182.08C96.3902 181.027 96.6035 180.107 97.0302 179.32C97.4568 178.52 98.0502 177.9 98.8102 177.46C99.5835 177.007 100.477 176.78 101.49 176.78C102.477 176.78 103.337 177 104.07 177.44C104.803 177.867 105.37 178.447 105.77 179.18C106.183 179.9 106.39 180.72 106.39 181.64C106.39 181.773 106.39 181.92 106.39 182.08C106.39 182.24 106.377 182.407 106.35 182.58H98.1302V181.04H103.97C103.93 180.333 103.677 179.773 103.21 179.36C102.757 178.947 102.183 178.74 101.49 178.74C100.997 178.74 100.537 178.853 100.11 179.08C99.6968 179.293 99.3635 179.62 99.1102 180.06C98.8702 180.5 98.7502 181.053 98.7502 181.72V182.3C98.7502 182.927 98.8702 183.46 99.1102 183.9C99.3502 184.34 99.6768 184.68 100.09 184.92C100.503 185.147 100.963 185.26 101.47 185.26C102.017 185.26 102.47 185.14 102.83 184.9C103.203 184.66 103.483 184.333 103.67 183.92H106.11C105.923 184.547 105.617 185.113 105.19 185.62C104.763 186.113 104.237 186.507 103.61 186.8C102.983 187.093 102.27 187.24 101.47 187.24ZM112.731 187C112.051 187 111.457 186.893 110.951 186.68C110.457 186.467 110.071 186.113 109.791 185.62C109.524 185.127 109.391 184.46 109.391 183.62V179.02H107.671V177.02H109.391L109.651 174.4H111.771V177.02H114.511V179.02H111.791V183.62C111.791 184.127 111.897 184.48 112.111 184.68C112.324 184.867 112.691 184.96 113.211 184.96H114.431V187H112.731Z" fill="white"/>
<rect x="132" y="159" width="135" height="42" rx="21" fill="#9D89FC"/>
<path d="M149.4 187V173H158.34V174.94H151.8V179.04H157.14V180.94H151.8V187H149.4ZM160.297 187V172.6H162.697V187H160.297ZM170.055 187.24C169.108 187.24 168.248 187.02 167.475 186.58C166.715 186.14 166.115 185.527 165.675 184.74C165.235 183.953 165.015 183.047 165.015 182.02C165.015 180.98 165.235 180.067 165.675 179.28C166.128 178.493 166.735 177.88 167.495 177.44C168.268 177 169.128 176.78 170.075 176.78C171.035 176.78 171.895 177 172.655 177.44C173.428 177.88 174.035 178.493 174.475 179.28C174.915 180.053 175.135 180.967 175.135 182.02C175.135 183.047 174.908 183.953 174.455 184.74C174.015 185.527 173.408 186.14 172.635 186.58C171.875 187.02 171.015 187.24 170.055 187.24ZM170.055 185.18C170.535 185.18 170.968 185.06 171.355 184.82C171.755 184.58 172.075 184.227 172.315 183.76C172.568 183.293 172.695 182.707 172.695 182C172.695 181.307 172.575 180.727 172.335 180.26C172.095 179.793 171.775 179.44 171.375 179.2C170.988 178.96 170.555 178.84 170.075 178.84C169.622 178.84 169.195 178.96 168.795 179.2C168.395 179.44 168.075 179.793 167.835 180.26C167.595 180.727 167.475 181.313 167.475 182.02C167.475 182.7 167.595 183.28 167.835 183.76C168.075 184.227 168.388 184.58 168.775 184.82C169.175 185.06 169.602 185.18 170.055 185.18ZM179.054 187L176.114 177.02H178.494L180.574 185.36H180.034L182.394 177.02H185.054L187.414 185.36H186.874L188.954 177.02H191.334L188.414 187H185.934L183.434 178.36H184.014L181.534 187H179.054ZM204.234 187.24C202.848 187.24 201.648 186.94 200.634 186.34C199.621 185.727 198.841 184.88 198.294 183.8C197.761 182.707 197.494 181.447 197.494 180.02C197.494 178.58 197.761 177.32 198.294 176.24C198.841 175.147 199.621 174.293 200.634 173.68C201.648 173.067 202.848 172.76 204.234 172.76C205.914 172.76 207.281 173.173 208.334 174C209.388 174.813 210.054 175.967 210.334 177.46H207.694C207.508 176.673 207.121 176.053 206.534 175.6C205.961 175.147 205.188 174.92 204.214 174.92C203.334 174.92 202.574 175.127 201.934 175.54C201.294 175.94 200.801 176.527 200.454 177.3C200.108 178.06 199.934 178.967 199.934 180.02C199.934 181.073 200.108 181.98 200.454 182.74C200.801 183.487 201.294 184.067 201.934 184.48C202.574 184.88 203.334 185.08 204.214 185.08C205.188 185.08 205.961 184.873 206.534 184.46C207.121 184.033 207.501 183.447 207.674 182.7H210.334C210.054 184.113 209.388 185.227 208.334 186.04C207.281 186.84 205.914 187.24 204.234 187.24ZM212.562 187V172.6H214.962V178.58C215.296 178.02 215.749 177.58 216.322 177.26C216.896 176.94 217.549 176.78 218.282 176.78C219.096 176.78 219.789 176.953 220.362 177.3C220.936 177.633 221.369 178.133 221.662 178.8C221.969 179.467 222.122 180.293 222.122 181.28V187H219.742V181.52C219.742 180.64 219.562 179.967 219.202 179.5C218.856 179.033 218.302 178.8 217.542 178.8C217.062 178.8 216.622 178.92 216.222 179.16C215.836 179.4 215.529 179.74 215.302 180.18C215.076 180.62 214.962 181.16 214.962 181.8V187H212.562ZM227.993 187.24C227.166 187.24 226.48 187.107 225.933 186.84C225.386 186.56 224.98 186.193 224.713 185.74C224.446 185.273 224.313 184.76 224.313 184.2C224.313 183.573 224.473 183.027 224.793 182.56C225.126 182.093 225.613 181.733 226.253 181.48C226.893 181.213 227.68 181.08 228.613 181.08H231.153C231.153 180.56 231.073 180.127 230.913 179.78C230.766 179.433 230.54 179.173 230.233 179C229.926 178.827 229.533 178.74 229.053 178.74C228.506 178.74 228.033 178.873 227.633 179.14C227.246 179.393 227.006 179.767 226.913 180.26H224.553C224.633 179.54 224.873 178.92 225.273 178.4C225.686 177.88 226.226 177.48 226.893 177.2C227.56 176.92 228.286 176.78 229.073 176.78C230.006 176.78 230.806 176.947 231.473 177.28C232.153 177.6 232.666 178.06 233.013 178.66C233.373 179.26 233.553 179.987 233.553 180.84V187H231.513L231.273 185.4C231.14 185.653 230.966 185.893 230.753 186.12C230.553 186.347 230.32 186.547 230.053 186.72C229.786 186.88 229.48 187.007 229.133 187.1C228.8 187.193 228.42 187.24 227.993 187.24ZM228.533 185.34C228.92 185.34 229.266 185.273 229.573 185.14C229.88 184.993 230.14 184.793 230.353 184.54C230.566 184.287 230.733 184 230.853 183.68C230.986 183.36 231.066 183.02 231.093 182.66V182.64H228.873C228.393 182.64 228 182.7 227.693 182.82C227.4 182.94 227.18 183.107 227.033 183.32C226.9 183.52 226.833 183.753 226.833 184.02C226.833 184.3 226.9 184.54 227.033 184.74C227.166 184.94 227.36 185.093 227.613 185.2C227.88 185.293 228.186 185.34 228.533 185.34ZM236.058 187V177.02H238.218L238.438 178.9C238.665 178.46 238.952 178.087 239.298 177.78C239.658 177.46 240.072 177.213 240.538 177.04C241.018 176.867 241.552 176.78 242.138 176.78V179.3H241.398C240.985 179.3 240.598 179.353 240.238 179.46C239.878 179.553 239.565 179.713 239.298 179.94C239.032 180.167 238.825 180.473 238.678 180.86C238.532 181.247 238.458 181.727 238.458 182.3V187H236.058ZM248.27 187C247.59 187 246.997 186.893 246.49 186.68C245.997 186.467 245.61 186.113 245.33 185.62C245.063 185.127 244.93 184.46 244.93 183.62V179.02H243.21V177.02H244.93L245.19 174.4H247.31V177.02H250.05V179.02H247.33V183.62C247.33 184.127 247.437 184.48 247.65 184.68C247.863 184.867 248.23 184.96 248.75 184.96H249.97V187H248.27Z" fill="white"/>
<rect x="79.5" y="201" width="141" height="42" rx="21" fill="#FF4F3F"/>
<path d="M96.9 229V215H101.96C103.08 215 104.007 215.187 104.74 215.56C105.473 215.933 106.013 216.447 106.36 217.1C106.72 217.74 106.9 218.467 106.9 219.28C106.9 220.04 106.727 220.747 106.38 221.4C106.033 222.04 105.493 222.56 104.76 222.96C104.04 223.347 103.107 223.54 101.96 223.54H99.3V229H96.9ZM99.3 221.58H101.82C102.753 221.58 103.427 221.373 103.84 220.96C104.253 220.533 104.46 219.973 104.46 219.28C104.46 218.547 104.253 217.98 103.84 217.58C103.427 217.167 102.753 216.96 101.82 216.96H99.3V221.58ZM108.871 229V219.02H111.031L111.251 220.9C111.477 220.46 111.764 220.087 112.111 219.78C112.471 219.46 112.884 219.213 113.351 219.04C113.831 218.867 114.364 218.78 114.951 218.78V221.3H114.211C113.797 221.3 113.411 221.353 113.051 221.46C112.691 221.553 112.377 221.713 112.111 221.94C111.844 222.167 111.637 222.473 111.491 222.86C111.344 223.247 111.271 223.727 111.271 224.3V229H108.871ZM121.248 229.24C120.261 229.24 119.381 229.027 118.608 228.6C117.848 228.16 117.248 227.553 116.808 226.78C116.381 226.007 116.168 225.107 116.168 224.08C116.168 223.027 116.381 222.107 116.808 221.32C117.234 220.52 117.828 219.9 118.588 219.46C119.361 219.007 120.254 218.78 121.268 218.78C122.254 218.78 123.114 219 123.848 219.44C124.581 219.867 125.148 220.447 125.548 221.18C125.961 221.9 126.168 222.72 126.168 223.64C126.168 223.773 126.168 223.92 126.168 224.08C126.168 224.24 126.154 224.407 126.128 224.58H117.908V223.04H123.748C123.708 222.333 123.454 221.773 122.988 221.36C122.534 220.947 121.961 220.74 121.268 220.74C120.774 220.74 120.314 220.853 119.888 221.08C119.474 221.293 119.141 221.62 118.888 222.06C118.648 222.5 118.528 223.053 118.528 223.72V224.3C118.528 224.927 118.648 225.46 118.888 225.9C119.128 226.34 119.454 226.68 119.868 226.92C120.281 227.147 120.741 227.26 121.248 227.26C121.794 227.26 122.248 227.14 122.608 226.9C122.981 226.66 123.261 226.333 123.448 225.92H125.888C125.701 226.547 125.394 227.113 124.968 227.62C124.541 228.113 124.014 228.507 123.388 228.8C122.761 229.093 122.048 229.24 121.248 229.24ZM128.343 229V214.6H130.743V229H128.343ZM133.522 229V219.02H135.922V229H133.522ZM134.722 217.38C134.282 217.38 133.915 217.247 133.622 216.98C133.342 216.7 133.202 216.36 133.202 215.96C133.202 215.547 133.342 215.213 133.622 214.96C133.915 214.693 134.282 214.56 134.722 214.56C135.162 214.56 135.522 214.693 135.802 214.96C136.095 215.213 136.242 215.547 136.242 215.96C136.242 216.36 136.095 216.7 135.802 216.98C135.522 217.247 135.162 217.38 134.722 217.38ZM138.656 229V219.02H140.796L140.976 220.38C141.296 219.887 141.723 219.5 142.256 219.22C142.789 218.927 143.396 218.78 144.076 218.78C144.583 218.78 145.043 218.847 145.456 218.98C145.869 219.113 146.229 219.313 146.536 219.58C146.856 219.847 147.116 220.18 147.316 220.58C147.689 220.02 148.176 219.58 148.776 219.26C149.389 218.94 150.049 218.78 150.756 218.78C151.596 218.78 152.309 218.953 152.896 219.3C153.496 219.633 153.949 220.133 154.256 220.8C154.563 221.467 154.716 222.293 154.716 223.28V229H152.336V223.5C152.336 222.633 152.163 221.967 151.816 221.5C151.469 221.033 150.956 220.8 150.276 220.8C149.809 220.8 149.396 220.92 149.036 221.16C148.676 221.4 148.396 221.74 148.196 222.18C147.996 222.62 147.896 223.153 147.896 223.78V229H145.496V223.5C145.496 222.633 145.323 221.967 144.976 221.5C144.629 221.033 144.103 220.8 143.396 220.8C142.956 220.8 142.556 220.92 142.196 221.16C141.849 221.4 141.569 221.74 141.356 222.18C141.156 222.62 141.056 223.153 141.056 223.78V229H138.656ZM157.331 229V219.02H159.731V229H157.331ZM158.531 217.38C158.091 217.38 157.724 217.247 157.431 216.98C157.151 216.7 157.011 216.36 157.011 215.96C157.011 215.547 157.151 215.213 157.431 214.96C157.724 214.693 158.091 214.56 158.531 214.56C158.971 214.56 159.331 214.693 159.611 214.96C159.904 215.213 160.051 215.547 160.051 215.96C160.051 216.36 159.904 216.7 159.611 216.98C159.331 217.247 158.971 217.38 158.531 217.38ZM162.465 229V219.02H164.605L164.765 220.7C165.085 220.113 165.531 219.647 166.105 219.3C166.691 218.953 167.371 218.78 168.145 218.78C168.971 218.78 169.671 218.953 170.245 219.3C170.818 219.633 171.258 220.133 171.565 220.8C171.871 221.467 172.025 222.287 172.025 223.26V229H169.625V223.5C169.625 222.633 169.438 221.967 169.065 221.5C168.705 221.033 168.151 220.8 167.405 220.8C166.925 220.8 166.491 220.92 166.105 221.16C165.718 221.4 165.411 221.74 165.185 222.18C164.971 222.607 164.865 223.14 164.865 223.78V229H162.465ZM177.876 229.24C177.049 229.24 176.362 229.107 175.816 228.84C175.269 228.56 174.862 228.193 174.596 227.74C174.329 227.273 174.196 226.76 174.196 226.2C174.196 225.573 174.356 225.027 174.676 224.56C175.009 224.093 175.496 223.733 176.136 223.48C176.776 223.213 177.562 223.08 178.496 223.08H181.036C181.036 222.56 180.956 222.127 180.796 221.78C180.649 221.433 180.422 221.173 180.116 221C179.809 220.827 179.416 220.74 178.936 220.74C178.389 220.74 177.916 220.873 177.516 221.14C177.129 221.393 176.889 221.767 176.796 222.26H174.436C174.516 221.54 174.756 220.92 175.156 220.4C175.569 219.88 176.109 219.48 176.776 219.2C177.442 218.92 178.169 218.78 178.956 218.78C179.889 218.78 180.689 218.947 181.356 219.28C182.036 219.6 182.549 220.06 182.896 220.66C183.256 221.26 183.436 221.987 183.436 222.84V229H181.396L181.156 227.4C181.022 227.653 180.849 227.893 180.636 228.12C180.436 228.347 180.202 228.547 179.936 228.72C179.669 228.88 179.362 229.007 179.016 229.1C178.682 229.193 178.302 229.24 177.876 229.24ZM178.416 227.34C178.802 227.34 179.149 227.273 179.456 227.14C179.762 226.993 180.022 226.793 180.236 226.54C180.449 226.287 180.616 226 180.736 225.68C180.869 225.36 180.949 225.02 180.976 224.66V224.64H178.756C178.276 224.64 177.882 224.7 177.576 224.82C177.282 224.94 177.062 225.107 176.916 225.32C176.782 225.52 176.716 225.753 176.716 226.02C176.716 226.3 176.782 226.54 176.916 226.74C177.049 226.94 177.242 227.093 177.496 227.2C177.762 227.293 178.069 227.34 178.416 227.34ZM185.941 229V219.02H188.101L188.321 220.9C188.548 220.46 188.834 220.087 189.181 219.78C189.541 219.46 189.954 219.213 190.421 219.04C190.901 218.867 191.434 218.78 192.021 218.78V221.3H191.281C190.868 221.3 190.481 221.353 190.121 221.46C189.761 221.553 189.448 221.713 189.181 221.94C188.914 222.167 188.708 222.473 188.561 222.86C188.414 223.247 188.341 223.727 188.341 224.3V229H185.941ZM195.013 233.4L197.473 227.88H196.893L192.873 219.02H195.473L198.493 225.78L201.333 219.02H203.873L197.553 233.4H195.013Z" fill="white"/>
</svg>
