<svg width="310" height="269" viewBox="0 0 310 269" fill="none" xmlns="http://www.w3.org/2000/svg">
<g clip-path="url(#clip0_10729_360)">
<rect width="310" height="269" fill="white"/>
<path d="M30.112 43.192C29.0027 43.192 28.0427 42.952 27.232 42.472C26.432 41.9813 25.8133 41.304 25.376 40.44C24.9493 39.5653 24.736 38.5573 24.736 37.416C24.736 36.264 24.9493 35.256 25.376 34.392C25.8133 33.5173 26.432 32.8347 27.232 32.344C28.0427 31.8533 29.0027 31.608 30.112 31.608C31.456 31.608 32.5493 31.9387 33.392 32.6C34.2347 33.2507 34.7627 34.1733 34.976 35.368H32.88C32.7307 34.7387 32.4213 34.2427 31.952 33.88C31.4933 33.5173 30.8747 33.336 30.096 33.336C29.392 33.336 28.784 33.5013 28.272 33.832C27.7707 34.152 27.3813 34.6213 27.104 35.24C26.8267 35.848 26.688 36.5733 26.688 37.416C26.688 38.2587 26.8267 38.984 27.104 39.592C27.3813 40.1893 27.7707 40.6533 28.272 40.984C28.784 41.304 29.392 41.464 30.096 41.464C30.8747 41.464 31.4933 41.2987 31.952 40.968C32.4213 40.6267 32.7307 40.1573 32.88 39.56H34.976C34.7627 40.6907 34.2347 41.5813 33.392 42.232C32.5493 42.872 31.456 43.192 30.112 43.192ZM39.4788 43.192C38.8174 43.192 38.2681 43.0853 37.8307 42.872C37.3934 42.648 37.0681 42.3493 36.8548 41.976C36.6414 41.6027 36.5348 41.192 36.5348 40.744C36.5348 40.2427 36.6628 39.8053 36.9188 39.432C37.1854 39.0587 37.5748 38.7707 38.0868 38.568C38.5988 38.3547 39.2281 38.248 39.9748 38.248H42.0068C42.0068 37.8213 41.9481 37.4693 41.8308 37.192C41.7134 36.9147 41.5321 36.7067 41.2868 36.568C41.0414 36.4187 40.7268 36.344 40.3428 36.344C39.9054 36.344 39.5268 36.4453 39.2068 36.648C38.8974 36.8507 38.7054 37.1547 38.6308 37.56H36.7428C36.8068 36.984 36.9988 36.488 37.3188 36.072C37.6494 35.656 38.0761 35.336 38.5988 35.112C39.1321 34.888 39.7134 34.776 40.3428 34.776C41.1001 34.776 41.7454 34.9093 42.2788 35.176C42.8121 35.432 43.2174 35.8 43.4948 36.28C43.7828 36.76 43.9268 37.3413 43.9268 38.024V43H42.2948L42.1028 41.704C41.9961 41.9173 41.8574 42.1147 41.6868 42.296C41.5268 42.4773 41.3401 42.6373 41.1268 42.776C40.9134 42.904 40.6681 43.0053 40.3908 43.08C40.1241 43.1547 39.8201 43.192 39.4788 43.192ZM39.9108 41.672C40.2201 41.672 40.4921 41.6187 40.7268 41.512C40.9721 41.3947 41.1801 41.2347 41.3508 41.032C41.5321 40.8293 41.6708 40.6 41.7668 40.344C41.8628 40.0773 41.9268 39.8 41.9588 39.512V39.48H40.1828C39.7988 39.48 39.4841 39.528 39.2388 39.624C39.0041 39.72 38.8334 39.8533 38.7268 40.024C38.6201 40.1947 38.5668 40.3867 38.5668 40.6C38.5668 40.824 38.6201 41.0213 38.7268 41.192C38.8334 41.352 38.9881 41.4747 39.1908 41.56C39.3934 41.6347 39.6334 41.672 39.9108 41.672ZM45.9626 43V34.968H47.6586L47.8026 36.056C48.0586 35.6613 48.4 35.352 48.8266 35.128C49.2533 34.8933 49.7386 34.776 50.2826 34.776C50.688 34.776 51.0506 34.8293 51.3706 34.936C51.7013 35.0427 51.9893 35.2027 52.2346 35.416C52.4906 35.6293 52.6986 35.896 52.8586 36.216C53.1573 35.7573 53.5466 35.4053 54.0266 35.16C54.5173 34.904 55.04 34.776 55.5946 34.776C56.2773 34.776 56.8533 34.9147 57.3226 35.192C57.792 35.4587 58.1493 35.8587 58.3946 36.392C58.64 36.9147 58.7626 37.5653 58.7626 38.344V43H56.8586V38.52C56.8586 37.8373 56.72 37.3147 56.4426 36.952C56.1653 36.5787 55.7546 36.392 55.2106 36.392C54.8373 36.392 54.5066 36.488 54.2186 36.68C53.9413 36.8613 53.7226 37.128 53.5626 37.48C53.4026 37.8213 53.3226 38.2427 53.3226 38.744V43H51.4026V38.52C51.4026 37.8373 51.264 37.3147 50.9866 36.952C50.7093 36.5787 50.2933 36.392 49.7386 36.392C49.3866 36.392 49.0666 36.488 48.7786 36.68C48.5013 36.8613 48.2826 37.128 48.1226 37.48C47.9626 37.8213 47.8826 38.2427 47.8826 38.744V43H45.9626ZM60.7908 46.52V34.968H62.5028L62.7108 36.136C62.8814 35.8907 63.0841 35.6667 63.3188 35.464C63.5641 35.2507 63.8574 35.0853 64.1988 34.968C64.5508 34.84 64.9508 34.776 65.3988 34.776C66.1561 34.776 66.8228 34.9627 67.3988 35.336C67.9854 35.6987 68.4441 36.2 68.7748 36.84C69.1054 37.4693 69.2708 38.1893 69.2708 39C69.2708 39.8 69.1001 40.52 68.7587 41.16C68.4281 41.7893 67.9694 42.2853 67.3828 42.648C66.8068 43.0107 66.1454 43.192 65.3988 43.192C64.7908 43.192 64.2574 43.08 63.7988 42.856C63.3508 42.6213 62.9881 42.2907 62.7108 41.864V46.52H60.7908ZM64.9988 41.528C65.4468 41.528 65.8468 41.4213 66.1988 41.208C66.5508 40.9947 66.8228 40.696 67.0148 40.312C67.2174 39.928 67.3188 39.4853 67.3188 38.984C67.3188 38.4827 67.2174 38.0453 67.0148 37.672C66.8228 37.288 66.5508 36.9893 66.1988 36.776C65.8468 36.552 65.4468 36.44 64.9988 36.44C64.5401 36.44 64.1348 36.552 63.7828 36.776C63.4414 36.9893 63.1694 37.288 62.9668 37.672C62.7748 38.0453 62.6788 38.4827 62.6788 38.984C62.6788 39.4853 62.7748 39.928 62.9668 40.312C63.1694 40.696 63.4414 40.9947 63.7828 41.208C64.1348 41.4213 64.5401 41.528 64.9988 41.528ZM73.8381 43.192C73.1768 43.192 72.6275 43.0853 72.1901 42.872C71.7528 42.648 71.4275 42.3493 71.2141 41.976C71.0008 41.6027 70.8941 41.192 70.8941 40.744C70.8941 40.2427 71.0221 39.8053 71.2781 39.432C71.5448 39.0587 71.9341 38.7707 72.4461 38.568C72.9581 38.3547 73.5875 38.248 74.3341 38.248H76.3661C76.3661 37.8213 76.3075 37.4693 76.1901 37.192C76.0728 36.9147 75.8915 36.7067 75.6461 36.568C75.4008 36.4187 75.0861 36.344 74.7021 36.344C74.2648 36.344 73.8861 36.4453 73.5661 36.648C73.2568 36.8507 73.0648 37.1547 72.9901 37.56H71.1021C71.1661 36.984 71.3581 36.488 71.6781 36.072C72.0088 35.656 72.4355 35.336 72.9581 35.112C73.4915 34.888 74.0728 34.776 74.7021 34.776C75.4595 34.776 76.1048 34.9093 76.6381 35.176C77.1715 35.432 77.5768 35.8 77.8541 36.28C78.1421 36.76 78.2861 37.3413 78.2861 38.024V43H76.6541L76.4621 41.704C76.3555 41.9173 76.2168 42.1147 76.0461 42.296C75.8861 42.4773 75.6995 42.6373 75.4861 42.776C75.2728 42.904 75.0275 43.0053 74.7501 43.08C74.4835 43.1547 74.1795 43.192 73.8381 43.192ZM74.2701 41.672C74.5795 41.672 74.8515 41.6187 75.0861 41.512C75.3315 41.3947 75.5395 41.2347 75.7101 41.032C75.8915 40.8293 76.0301 40.6 76.1261 40.344C76.2221 40.0773 76.2861 39.8 76.3181 39.512V39.48H74.5421C74.1581 39.48 73.8435 39.528 73.5981 39.624C73.3635 39.72 73.1928 39.8533 73.0861 40.024C72.9795 40.1947 72.9261 40.3867 72.9261 40.6C72.9261 40.824 72.9795 41.0213 73.0861 41.192C73.1928 41.352 73.3475 41.4747 73.5501 41.56C73.7528 41.6347 73.9928 41.672 74.2701 41.672ZM80.402 43V34.968H82.322V43H80.402ZM81.362 33.672C81.01 33.672 80.7167 33.5653 80.482 33.352C80.258 33.128 80.146 32.856 80.146 32.536C80.146 32.2053 80.258 31.9387 80.482 31.736C80.7167 31.5227 81.01 31.416 81.362 31.416C81.714 31.416 82.002 31.5227 82.226 31.736C82.4607 31.9387 82.578 32.2053 82.578 32.536C82.578 32.856 82.4607 33.128 82.226 33.352C82.002 33.5653 81.714 33.672 81.362 33.672ZM87.9011 46.712C87.1545 46.712 86.4931 46.616 85.9171 46.424C85.3518 46.2427 84.9091 45.96 84.5891 45.576C84.2798 45.2027 84.1251 44.7333 84.1251 44.168C84.1251 43.8373 84.2051 43.512 84.3651 43.192C84.5358 42.8827 84.7865 42.5947 85.1171 42.328C85.4585 42.0507 85.8905 41.816 86.4131 41.624L87.2611 42.536C86.7491 42.7173 86.3918 42.936 86.1891 43.192C85.9865 43.448 85.8851 43.7093 85.8851 43.976C85.8851 44.2533 85.9705 44.4827 86.1411 44.664C86.3225 44.856 86.5625 45 86.8611 45.096C87.1705 45.192 87.5171 45.24 87.9011 45.24C88.2745 45.24 88.5945 45.1867 88.8611 45.08C89.1385 44.984 89.3518 44.8453 89.5011 44.664C89.6611 44.4827 89.7411 44.264 89.7411 44.008C89.7411 43.6987 89.6291 43.4427 89.4051 43.24C89.1811 43.0373 88.7438 42.9147 88.0931 42.872C87.5171 42.8293 87.0158 42.7707 86.5891 42.696C86.1731 42.6107 85.8105 42.5147 85.5011 42.408C85.2025 42.3013 84.9465 42.184 84.7331 42.056C84.5198 41.9173 84.3438 41.7787 84.2051 41.64V41.272L85.8851 39.512L87.3091 39.976L85.4211 41.816L85.9171 40.904C86.0238 40.9787 86.1305 41.048 86.2371 41.112C86.3545 41.176 86.4985 41.2347 86.6691 41.288C86.8505 41.3307 87.0851 41.3733 87.3731 41.416C87.6611 41.448 88.0345 41.4853 88.4931 41.528C89.2078 41.592 89.7891 41.7253 90.2371 41.928C90.6851 42.12 91.0105 42.3867 91.2131 42.728C91.4265 43.0693 91.5331 43.48 91.5331 43.96C91.5331 44.4293 91.3998 44.872 91.1331 45.288C90.8771 45.704 90.4825 46.0453 89.9491 46.312C89.4158 46.5787 88.7331 46.712 87.9011 46.712ZM87.9011 40.584C87.2291 40.584 86.6531 40.456 86.1731 40.2C85.6931 39.9333 85.3251 39.5813 85.0691 39.144C84.8131 38.7067 84.6851 38.2213 84.6851 37.688C84.6851 37.144 84.8131 36.6533 85.0691 36.216C85.3251 35.7787 85.6931 35.432 86.1731 35.176C86.6531 34.9093 87.2291 34.776 87.9011 34.776C88.5838 34.776 89.1651 34.9093 89.6451 35.176C90.1251 35.432 90.4931 35.7787 90.7491 36.216C91.0051 36.6533 91.1331 37.144 91.1331 37.688C91.1331 38.2213 91.0051 38.7067 90.7491 39.144C90.4931 39.5813 90.1251 39.9333 89.6451 40.2C89.1651 40.456 88.5838 40.584 87.9011 40.584ZM87.9011 39.096C88.3598 39.096 88.7278 38.9787 89.0051 38.744C89.2931 38.4987 89.4371 38.1467 89.4371 37.688C89.4371 37.2293 89.2931 36.8827 89.0051 36.648C88.7278 36.4027 88.3598 36.28 87.9011 36.28C87.4531 36.28 87.0851 36.4027 86.7971 36.648C86.5091 36.8827 86.3651 37.2293 86.3651 37.688C86.3651 38.1467 86.5038 38.4987 86.7811 38.744C87.0691 38.9787 87.4425 39.096 87.9011 39.096ZM89.2291 36.376L88.8611 34.968H92.1731V36.168L89.2291 36.376ZM93.8689 43V34.968H95.5649L95.7089 36.312C95.9542 35.8427 96.3062 35.4693 96.7649 35.192C97.2235 34.9147 97.7675 34.776 98.3969 34.776C99.0475 34.776 99.6022 34.9093 100.061 35.176C100.52 35.4427 100.872 35.8427 101.117 36.376C101.373 36.8987 101.501 37.5493 101.501 38.328V43H99.5809V38.52C99.5809 37.8373 99.4315 37.3147 99.1329 36.952C98.8449 36.5787 98.4022 36.392 97.8049 36.392C97.4209 36.392 97.0742 36.488 96.7649 36.68C96.4662 36.8613 96.2262 37.128 96.0449 37.48C95.8742 37.8213 95.7889 38.2427 95.7889 38.744V43H93.8689ZM107.464 43V31.8H111.48C112.376 31.8 113.112 31.9547 113.688 32.264C114.274 32.5627 114.706 32.968 114.984 33.48C115.272 33.9813 115.416 34.552 115.416 35.192C115.416 35.7893 115.272 36.344 114.984 36.856C114.706 37.368 114.274 37.7787 113.688 38.088C113.112 38.3973 112.365 38.552 111.448 38.552H109.384V43H107.464ZM113.304 43L110.952 38.056H113.048L115.512 43H113.304ZM109.384 37.128H111.368C112.082 37.128 112.605 36.9573 112.936 36.616C113.277 36.264 113.448 35.8053 113.448 35.24C113.448 34.6853 113.282 34.2427 112.952 33.912C112.621 33.5707 112.088 33.4 111.352 33.4H109.384V37.128ZM120.614 43.192C119.824 43.192 119.12 43.0213 118.502 42.68C117.894 42.328 117.414 41.8427 117.062 41.224C116.72 40.5947 116.55 39.864 116.55 39.032C116.55 38.1893 116.72 37.4533 117.062 36.824C117.403 36.184 117.878 35.6827 118.486 35.32C119.104 34.9573 119.819 34.776 120.63 34.776C121.419 34.776 122.107 34.952 122.694 35.304C123.28 35.6453 123.734 36.1147 124.054 36.712C124.374 37.2987 124.534 37.9547 124.534 38.68C124.534 38.7867 124.534 38.904 124.534 39.032C124.534 39.16 124.528 39.2987 124.518 39.448H117.942V38.216H122.614C122.582 37.6293 122.379 37.1707 122.006 36.84C121.632 36.5093 121.168 36.344 120.614 36.344C120.219 36.344 119.856 36.4347 119.526 36.616C119.195 36.7973 118.928 37.064 118.726 37.416C118.534 37.768 118.438 38.216 118.438 38.76V39.224C118.438 39.7253 118.534 40.1573 118.726 40.52C118.918 40.872 119.174 41.144 119.494 41.336C119.824 41.5173 120.192 41.608 120.598 41.608C121.046 41.608 121.414 41.512 121.702 41.32C122 41.128 122.224 40.872 122.374 40.552H124.31C124.16 41.0533 123.915 41.5013 123.574 41.896C123.232 42.2907 122.811 42.6053 122.31 42.84C121.808 43.0747 121.243 43.192 120.614 43.192ZM129.522 43.192C128.818 43.192 128.2 43.08 127.666 42.856C127.133 42.6213 126.712 42.3013 126.402 41.896C126.104 41.48 125.928 41.0053 125.874 40.472H127.794C127.848 40.696 127.944 40.904 128.082 41.096C128.232 41.2773 128.424 41.4213 128.658 41.528C128.893 41.6347 129.176 41.688 129.506 41.688C129.816 41.688 130.072 41.6453 130.274 41.56C130.477 41.464 130.626 41.3413 130.722 41.192C130.829 41.0427 130.882 40.8827 130.882 40.712C130.882 40.456 130.813 40.264 130.674 40.136C130.536 39.9973 130.333 39.8907 130.066 39.816C129.81 39.7307 129.496 39.6507 129.122 39.576C128.76 39.5013 128.397 39.4107 128.034 39.304C127.682 39.1867 127.362 39.0427 127.074 38.872C126.797 38.7013 126.573 38.488 126.402 38.232C126.232 37.9653 126.146 37.6347 126.146 37.24C126.146 36.7707 126.269 36.3493 126.514 35.976C126.77 35.6027 127.133 35.3093 127.602 35.096C128.082 34.8827 128.653 34.776 129.314 34.776C130.242 34.776 130.984 34.9947 131.538 35.432C132.104 35.8587 132.434 36.456 132.53 37.224H130.706C130.653 36.9253 130.504 36.696 130.258 36.536C130.024 36.3653 129.704 36.28 129.298 36.28C128.882 36.28 128.562 36.36 128.338 36.52C128.125 36.68 128.018 36.8827 128.018 37.128C128.018 37.2987 128.082 37.448 128.21 37.576C128.349 37.704 128.546 37.816 128.802 37.912C129.069 37.9973 129.384 38.0773 129.746 38.152C130.333 38.28 130.856 38.424 131.314 38.584C131.773 38.744 132.136 38.9787 132.402 39.288C132.68 39.5867 132.818 40.024 132.818 40.6C132.818 41.1013 132.685 41.5493 132.418 41.944C132.152 42.3387 131.773 42.648 131.282 42.872C130.792 43.0853 130.205 43.192 129.522 43.192ZM137.642 43.192C137.002 43.192 136.447 43.0587 135.978 42.792C135.519 42.5253 135.167 42.1307 134.922 41.608C134.676 41.0747 134.554 40.4187 134.554 39.64V34.968H136.458V39.448C136.458 40.1413 136.607 40.6693 136.906 41.032C137.204 41.3947 137.647 41.576 138.234 41.576C138.618 41.576 138.964 41.4853 139.274 41.304C139.583 41.112 139.823 40.8453 139.994 40.504C140.164 40.152 140.25 39.7253 140.25 39.224V34.968H142.17V43H140.474L140.346 41.656C140.1 42.1253 139.743 42.4987 139.274 42.776C138.815 43.0533 138.271 43.192 137.642 43.192ZM144.306 43V31.48H146.226V43H144.306ZM151.857 43C151.313 43 150.838 42.9147 150.433 42.744C150.038 42.5733 149.729 42.2907 149.505 41.896C149.292 41.5013 149.185 40.968 149.185 40.296V36.568H147.793V34.968H149.185L149.409 32.84H151.105V34.968H153.297V36.568H151.105V40.296C151.105 40.7013 151.19 40.984 151.361 41.144C151.532 41.2933 151.83 41.368 152.257 41.368H153.233V43H151.857ZM158.288 43.192C157.584 43.192 156.965 43.08 156.432 42.856C155.899 42.6213 155.477 42.3013 155.168 41.896C154.869 41.48 154.693 41.0053 154.64 40.472H156.56C156.613 40.696 156.709 40.904 156.848 41.096C156.997 41.2773 157.189 41.4213 157.424 41.528C157.659 41.6347 157.941 41.688 158.272 41.688C158.581 41.688 158.837 41.6453 159.04 41.56C159.243 41.464 159.392 41.3413 159.488 41.192C159.595 41.0427 159.648 40.8827 159.648 40.712C159.648 40.456 159.579 40.264 159.44 40.136C159.301 39.9973 159.099 39.8907 158.832 39.816C158.576 39.7307 158.261 39.6507 157.888 39.576C157.525 39.5013 157.163 39.4107 156.8 39.304C156.448 39.1867 156.128 39.0427 155.84 38.872C155.563 38.7013 155.339 38.488 155.168 38.232C154.997 37.9653 154.912 37.6347 154.912 37.24C154.912 36.7707 155.035 36.3493 155.28 35.976C155.536 35.6027 155.899 35.3093 156.368 35.096C156.848 34.8827 157.419 34.776 158.08 34.776C159.008 34.776 159.749 34.9947 160.304 35.432C160.869 35.8587 161.2 36.456 161.296 37.224H159.472C159.419 36.9253 159.269 36.696 159.024 36.536C158.789 36.3653 158.469 36.28 158.064 36.28C157.648 36.28 157.328 36.36 157.104 36.52C156.891 36.68 156.784 36.8827 156.784 37.128C156.784 37.2987 156.848 37.448 156.976 37.576C157.115 37.704 157.312 37.816 157.568 37.912C157.835 37.9973 158.149 38.0773 158.512 38.152C159.099 38.28 159.621 38.424 160.08 38.584C160.539 38.744 160.901 38.9787 161.168 39.288C161.445 39.5867 161.584 40.024 161.584 40.6C161.584 41.1013 161.451 41.5493 161.184 41.944C160.917 42.3387 160.539 42.648 160.048 42.872C159.557 43.0853 158.971 43.192 158.288 43.192Z" fill="#051A2F"/>
<path opacity="0.6" d="M25.092 67V59.944H26.268V67H25.092ZM25.68 58.446C25.4467 58.446 25.2507 58.3713 25.092 58.222C24.9427 58.0633 24.868 57.8673 24.868 57.634C24.868 57.4007 24.9427 57.214 25.092 57.074C25.2507 56.9247 25.4467 56.85 25.68 56.85C25.904 56.85 26.0953 56.9247 26.254 57.074C26.4127 57.214 26.492 57.4007 26.492 57.634C26.492 57.8673 26.4127 58.0633 26.254 58.222C26.0953 58.3713 25.904 58.446 25.68 58.446ZM28.3433 67V59.944H29.4073L29.4633 61.176C29.6873 60.7373 30.0046 60.3967 30.4153 60.154C30.8353 59.902 31.3113 59.776 31.8433 59.776C32.3939 59.776 32.8699 59.888 33.2713 60.112C33.6726 60.3267 33.9853 60.658 34.2093 61.106C34.4333 61.5447 34.5453 62.1047 34.5453 62.786V67H33.3693V62.912C33.3693 62.2027 33.2106 61.6707 32.8933 61.316C32.5853 60.9613 32.1466 60.784 31.5773 60.784C31.1853 60.784 30.8353 60.882 30.5273 61.078C30.2193 61.2647 29.9719 61.54 29.7853 61.904C29.6079 62.2587 29.5193 62.702 29.5193 63.234V67H28.3433ZM39.4903 67.168C38.809 67.168 38.2117 67.0093 37.6983 66.692C37.185 66.3653 36.7883 65.922 36.5083 65.362C36.2283 64.802 36.0883 64.1673 36.0883 63.458C36.0883 62.7487 36.2283 62.1187 36.5083 61.568C36.7883 61.008 37.185 60.5693 37.6983 60.252C38.221 59.9347 38.823 59.776 39.5043 59.776C40.083 59.776 40.587 59.8927 41.0163 60.126C41.455 60.3593 41.791 60.686 42.0243 61.106V56.92H43.2003V67H42.1363L42.0383 65.838C41.889 66.0713 41.6977 66.2907 41.4643 66.496C41.231 66.692 40.951 66.8553 40.6243 66.986C40.2977 67.1073 39.9197 67.168 39.4903 67.168ZM39.6303 66.146C40.097 66.146 40.5077 66.034 40.8623 65.81C41.217 65.586 41.4923 65.278 41.6883 64.886C41.8843 64.4847 41.9823 64.0133 41.9823 63.472C41.9823 62.94 41.8843 62.4733 41.6883 62.072C41.4923 61.6707 41.217 61.358 40.8623 61.134C40.5077 60.91 40.097 60.798 39.6303 60.798C39.173 60.798 38.767 60.91 38.4123 61.134C38.0577 61.358 37.7823 61.6707 37.5863 62.072C37.3903 62.4733 37.2923 62.94 37.2923 63.472C37.2923 64.0133 37.3903 64.4847 37.5863 64.886C37.7823 65.278 38.0577 65.586 38.4123 65.81C38.767 66.034 39.173 66.146 39.6303 66.146ZM47.7217 67.168C47.1804 67.168 46.7044 67.0607 46.2937 66.846C45.8924 66.6313 45.5797 66.3 45.3557 65.852C45.141 65.404 45.0337 64.844 45.0337 64.172V59.944H46.2097V64.046C46.2097 64.746 46.3637 65.2733 46.6717 65.628C46.9797 65.9827 47.4137 66.16 47.9737 66.16C48.3657 66.16 48.7204 66.0667 49.0377 65.88C49.355 65.684 49.6024 65.4087 49.7797 65.054C49.9664 64.69 50.0597 64.2467 50.0597 63.724V59.944H51.2357V67H50.1717L50.1017 65.768C49.887 66.2067 49.5697 66.552 49.1497 66.804C48.7297 67.0467 48.2537 67.168 47.7217 67.168ZM55.8451 67.168C55.2571 67.168 54.7437 67.07 54.3051 66.874C53.8757 66.678 53.5304 66.4073 53.2691 66.062C53.0171 65.7073 52.8631 65.292 52.8071 64.816H54.0111C54.0577 65.0587 54.1557 65.2827 54.3051 65.488C54.4544 65.6933 54.6551 65.8613 54.9071 65.992C55.1684 66.1133 55.4857 66.174 55.8591 66.174C56.1857 66.174 56.4564 66.1273 56.6711 66.034C56.8857 65.9313 57.0444 65.796 57.1471 65.628C57.2591 65.46 57.3151 65.278 57.3151 65.082C57.3151 64.7927 57.2451 64.5733 57.1051 64.424C56.9744 64.2747 56.7784 64.158 56.5171 64.074C56.2557 63.9807 55.9384 63.9013 55.5651 63.836C55.2571 63.78 54.9537 63.7053 54.6551 63.612C54.3564 63.5187 54.0904 63.3973 53.8571 63.248C53.6237 63.0893 53.4371 62.898 53.2971 62.674C53.1664 62.45 53.1011 62.1747 53.1011 61.848C53.1011 61.4467 53.2037 61.092 53.4091 60.784C53.6144 60.4667 53.9084 60.2193 54.2911 60.042C54.6831 59.8647 55.1357 59.776 55.6491 59.776C56.4051 59.776 57.0164 59.958 57.4831 60.322C57.9497 60.686 58.2251 61.2133 58.3091 61.904H57.1471C57.1004 61.5493 56.9464 61.274 56.6851 61.078C56.4331 60.8727 56.0831 60.77 55.6351 60.77C55.1964 60.77 54.8604 60.8587 54.6271 61.036C54.4031 61.2133 54.2911 61.4467 54.2911 61.736C54.2911 61.9227 54.3517 62.0907 54.4731 62.24C54.6037 62.38 54.7904 62.5013 55.0331 62.604C55.2851 62.7067 55.5931 62.7907 55.9571 62.856C56.4237 62.94 56.8484 63.052 57.2311 63.192C57.6137 63.332 57.9217 63.542 58.1551 63.822C58.3977 64.0927 58.5191 64.48 58.5191 64.984C58.5191 65.4227 58.4071 65.8053 58.1831 66.132C57.9684 66.4587 57.6604 66.7153 57.2591 66.902C56.8577 67.0793 56.3864 67.168 55.8451 67.168ZM62.67 67C62.25 67 61.886 66.9347 61.578 66.804C61.27 66.6733 61.032 66.454 60.864 66.146C60.7053 65.8287 60.626 65.404 60.626 64.872V60.938H59.394V59.944H60.626L60.78 58.236H61.802V59.944H63.846V60.938H61.802V64.872C61.802 65.3107 61.8906 65.6093 62.068 65.768C62.2453 65.9173 62.558 65.992 63.006 65.992H63.762V67H62.67ZM65.3804 67V59.944H66.4444L66.5284 61.288C66.6871 60.9707 66.8877 60.7 67.1304 60.476C67.3824 60.252 67.6811 60.0793 68.0264 59.958C68.3811 59.8367 68.7824 59.776 69.2304 59.776V61.008H68.7964C68.4977 61.008 68.2131 61.05 67.9424 61.134C67.6717 61.2087 67.4291 61.3347 67.2144 61.512C67.0091 61.6893 66.8457 61.932 66.7244 62.24C66.6124 62.5387 66.5564 62.912 66.5564 63.36V67H65.3804ZM71.332 70.08L73.054 66.216H72.648L69.876 59.944H71.15L73.446 65.334L75.854 59.944H77.072L72.564 70.08H71.332ZM82.0601 67V59.944H83.1241L83.2081 61.288C83.3667 60.9707 83.5674 60.7 83.8101 60.476C84.0621 60.252 84.3607 60.0793 84.7061 59.958C85.0607 59.8367 85.4621 59.776 85.9101 59.776V61.008H85.4761C85.1774 61.008 84.8927 61.05 84.6221 61.134C84.3514 61.2087 84.1087 61.3347 83.8941 61.512C83.6887 61.6893 83.5254 61.932 83.4041 62.24C83.2921 62.5387 83.2361 62.912 83.2361 63.36V67H82.0601ZM90.076 67.168C89.4133 67.168 88.8253 67.014 88.312 66.706C87.808 66.398 87.4113 65.9687 87.122 65.418C86.8326 64.858 86.688 64.2093 86.688 63.472C86.688 62.7253 86.828 62.0767 87.108 61.526C87.3973 60.9753 87.7986 60.546 88.312 60.238C88.8346 59.93 89.432 59.776 90.104 59.776C90.7946 59.776 91.378 59.93 91.854 60.238C92.3393 60.546 92.708 60.952 92.96 61.456C93.2213 61.9507 93.352 62.4967 93.352 63.094C93.352 63.1873 93.352 63.2853 93.352 63.388C93.352 63.4907 93.3473 63.6073 93.338 63.738H87.57V62.828H92.204C92.176 62.184 91.9613 61.68 91.56 61.316C91.168 60.952 90.6733 60.77 90.076 60.77C89.6746 60.77 89.3013 60.8633 88.956 61.05C88.62 61.2273 88.3493 61.4933 88.144 61.848C87.9386 62.1933 87.836 62.6273 87.836 63.15V63.542C87.836 64.1207 87.9386 64.606 88.144 64.998C88.3586 65.39 88.634 65.684 88.97 65.88C89.3153 66.076 89.684 66.174 90.076 66.174C90.5706 66.174 90.9766 66.0667 91.294 65.852C91.6206 65.628 91.854 65.3293 91.994 64.956H93.156C93.044 65.376 92.848 65.754 92.568 66.09C92.288 66.426 91.938 66.692 91.518 66.888C91.1073 67.0747 90.6266 67.168 90.076 67.168ZM94.939 70.08V59.944H96.003L96.101 61.092C96.2503 60.868 96.4417 60.658 96.675 60.462C96.9083 60.2567 97.1883 60.0933 97.515 59.972C97.8417 59.8413 98.215 59.776 98.635 59.776C99.3257 59.776 99.923 59.9393 100.427 60.266C100.94 60.5927 101.337 61.036 101.617 61.596C101.906 62.1467 102.051 62.7767 102.051 63.486C102.051 64.1953 101.906 64.83 101.617 65.39C101.337 65.9407 100.94 66.3747 100.427 66.692C99.9137 67.0093 99.3117 67.168 98.621 67.168C98.0517 67.168 97.5477 67.0513 97.109 66.818C96.6797 66.5847 96.3483 66.258 96.115 65.838V70.08H94.939ZM98.495 66.146C98.9523 66.146 99.3583 66.034 99.713 65.81C100.068 65.586 100.343 65.278 100.539 64.886C100.744 64.4847 100.847 64.0133 100.847 63.472C100.847 62.94 100.744 62.4733 100.539 62.072C100.343 61.6707 100.068 61.358 99.713 61.134C99.3583 60.91 98.9523 60.798 98.495 60.798C98.0283 60.798 97.6177 60.91 97.263 61.134C96.9083 61.358 96.633 61.6707 96.437 62.072C96.241 62.4733 96.143 62.94 96.143 63.472C96.143 64.0133 96.241 64.4847 96.437 64.886C96.633 65.278 96.9083 65.586 97.263 65.81C97.6177 66.034 98.0283 66.146 98.495 66.146ZM106.853 67.168C106.199 67.168 105.611 67.0187 105.089 66.72C104.566 66.412 104.155 65.9827 103.857 65.432C103.558 64.872 103.409 64.2233 103.409 63.486C103.409 62.73 103.558 62.0767 103.857 61.526C104.165 60.966 104.58 60.5367 105.103 60.238C105.635 59.93 106.227 59.776 106.881 59.776C107.553 59.776 108.145 59.93 108.659 60.238C109.181 60.5367 109.592 60.966 109.891 61.526C110.199 62.0767 110.353 62.7253 110.353 63.472C110.353 64.2187 110.199 64.872 109.891 65.432C109.583 65.9827 109.167 66.412 108.645 66.72C108.122 67.0187 107.525 67.168 106.853 67.168ZM106.867 66.16C107.268 66.16 107.641 66.062 107.987 65.866C108.332 65.6607 108.612 65.3573 108.827 64.956C109.041 64.5547 109.149 64.06 109.149 63.472C109.149 62.8747 109.041 62.38 108.827 61.988C108.621 61.5867 108.346 61.288 108.001 61.092C107.665 60.8867 107.291 60.784 106.881 60.784C106.489 60.784 106.115 60.8867 105.761 61.092C105.415 61.288 105.135 61.5867 104.921 61.988C104.715 62.38 104.613 62.8747 104.613 63.472C104.613 64.06 104.715 64.5547 104.921 64.956C105.135 65.3573 105.411 65.6607 105.747 65.866C106.092 66.062 106.465 66.16 106.867 66.16ZM112.001 67V59.944H113.065L113.149 61.288C113.308 60.9707 113.509 60.7 113.751 60.476C114.003 60.252 114.302 60.0793 114.647 59.958C115.002 59.8367 115.403 59.776 115.851 59.776V61.008H115.417C115.119 61.008 114.834 61.05 114.563 61.134C114.293 61.2087 114.05 61.3347 113.835 61.512C113.63 61.6893 113.467 61.932 113.345 62.24C113.233 62.5387 113.177 62.912 113.177 63.36V67H112.001ZM119.955 67C119.535 67 119.171 66.9347 118.863 66.804C118.555 66.6733 118.317 66.454 118.149 66.146C117.99 65.8287 117.911 65.404 117.911 64.872V60.938H116.679V59.944H117.911L118.065 58.236H119.087V59.944H121.131V60.938H119.087V64.872C119.087 65.3107 119.176 65.6093 119.353 65.768C119.53 65.9173 119.843 65.992 120.291 65.992H121.047V67H119.955ZM125.326 67.168C124.738 67.168 124.224 67.07 123.786 66.874C123.356 66.678 123.011 66.4073 122.75 66.062C122.498 65.7073 122.344 65.292 122.288 64.816H123.492C123.538 65.0587 123.636 65.2827 123.786 65.488C123.935 65.6933 124.136 65.8613 124.388 65.992C124.649 66.1133 124.966 66.174 125.34 66.174C125.666 66.174 125.937 66.1273 126.152 66.034C126.366 65.9313 126.525 65.796 126.628 65.628C126.74 65.46 126.796 65.278 126.796 65.082C126.796 64.7927 126.726 64.5733 126.586 64.424C126.455 64.2747 126.259 64.158 125.998 64.074C125.736 63.9807 125.419 63.9013 125.046 63.836C124.738 63.78 124.434 63.7053 124.136 63.612C123.837 63.5187 123.571 63.3973 123.338 63.248C123.104 63.0893 122.918 62.898 122.778 62.674C122.647 62.45 122.582 62.1747 122.582 61.848C122.582 61.4467 122.684 61.092 122.89 60.784C123.095 60.4667 123.389 60.2193 123.772 60.042C124.164 59.8647 124.616 59.776 125.13 59.776C125.886 59.776 126.497 59.958 126.964 60.322C127.43 60.686 127.706 61.2133 127.79 61.904H126.628C126.581 61.5493 126.427 61.274 126.166 61.078C125.914 60.8727 125.564 60.77 125.116 60.77C124.677 60.77 124.341 60.8587 124.108 61.036C123.884 61.2133 123.772 61.4467 123.772 61.736C123.772 61.9227 123.832 62.0907 123.954 62.24C124.084 62.38 124.271 62.5013 124.514 62.604C124.766 62.7067 125.074 62.7907 125.438 62.856C125.904 62.94 126.329 63.052 126.712 63.192C127.094 63.332 127.402 63.542 127.636 63.822C127.878 64.0927 128 64.48 128 64.984C128 65.4227 127.888 65.8053 127.664 66.132C127.449 66.4587 127.141 66.7153 126.74 66.902C126.338 67.0793 125.867 67.168 125.326 67.168ZM135.708 67.168C135.138 67.168 134.662 67.07 134.28 66.874C133.897 66.6687 133.612 66.4027 133.426 66.076C133.239 65.74 133.146 65.376 133.146 64.984C133.146 64.508 133.267 64.1067 133.51 63.78C133.762 63.444 134.112 63.192 134.56 63.024C135.017 62.8467 135.554 62.758 136.17 62.758H138.032C138.032 62.3193 137.962 61.9553 137.822 61.666C137.691 61.3673 137.495 61.1433 137.234 60.994C136.982 60.8447 136.664 60.77 136.282 60.77C135.834 60.77 135.446 60.882 135.12 61.106C134.793 61.33 134.592 61.6613 134.518 62.1H133.314C133.37 61.596 133.538 61.176 133.818 60.84C134.107 60.4947 134.471 60.2333 134.91 60.056C135.348 59.8693 135.806 59.776 136.282 59.776C136.935 59.776 137.476 59.8973 137.906 60.14C138.344 60.3733 138.671 60.7047 138.886 61.134C139.1 61.554 139.208 62.0533 139.208 62.632V67H138.158L138.088 65.754C137.994 65.95 137.873 66.1367 137.724 66.314C137.584 66.482 137.416 66.6313 137.22 66.762C137.024 66.8833 136.8 66.9813 136.548 67.056C136.305 67.1307 136.025 67.168 135.708 67.168ZM135.89 66.174C136.216 66.174 136.51 66.1087 136.772 65.978C137.042 65.838 137.271 65.6513 137.458 65.418C137.644 65.1753 137.784 64.9093 137.878 64.62C137.98 64.3307 138.032 64.0273 138.032 63.71V63.668H136.268C135.81 63.668 135.442 63.724 135.162 63.836C134.882 63.9387 134.681 64.088 134.56 64.284C134.438 64.4707 134.378 64.6853 134.378 64.928C134.378 65.18 134.434 65.3993 134.546 65.586C134.667 65.7727 134.84 65.9173 135.064 66.02C135.297 66.1227 135.572 66.174 135.89 66.174ZM141.027 67V59.944H142.091L142.147 61.176C142.371 60.7373 142.688 60.3967 143.099 60.154C143.519 59.902 143.995 59.776 144.527 59.776C145.078 59.776 145.554 59.888 145.955 60.112C146.356 60.3267 146.669 60.658 146.893 61.106C147.117 61.5447 147.229 62.1047 147.229 62.786V67H146.053V62.912C146.053 62.2027 145.894 61.6707 145.577 61.316C145.269 60.9613 144.83 60.784 144.261 60.784C143.869 60.784 143.519 60.882 143.211 61.078C142.903 61.2647 142.656 61.54 142.469 61.904C142.292 62.2587 142.203 62.702 142.203 63.234V67H141.027ZM152.174 67.168C151.493 67.168 150.895 67.0093 150.382 66.692C149.869 66.3653 149.472 65.922 149.192 65.362C148.912 64.802 148.772 64.1673 148.772 63.458C148.772 62.7487 148.912 62.1187 149.192 61.568C149.472 61.008 149.869 60.5693 150.382 60.252C150.905 59.9347 151.507 59.776 152.188 59.776C152.767 59.776 153.271 59.8927 153.7 60.126C154.139 60.3593 154.475 60.686 154.708 61.106V56.92H155.884V67H154.82L154.722 65.838C154.573 66.0713 154.381 66.2907 154.148 66.496C153.915 66.692 153.635 66.8553 153.308 66.986C152.981 67.1073 152.603 67.168 152.174 67.168ZM152.314 66.146C152.781 66.146 153.191 66.034 153.546 65.81C153.901 65.586 154.176 65.278 154.372 64.886C154.568 64.4847 154.666 64.0133 154.666 63.472C154.666 62.94 154.568 62.4733 154.372 62.072C154.176 61.6707 153.901 61.358 153.546 61.134C153.191 60.91 152.781 60.798 152.314 60.798C151.857 60.798 151.451 60.91 151.096 61.134C150.741 61.358 150.466 61.6707 150.27 62.072C150.074 62.4733 149.976 62.94 149.976 63.472C149.976 64.0133 150.074 64.4847 150.27 64.886C150.466 65.278 150.741 65.586 151.096 65.81C151.451 66.034 151.857 66.146 152.314 66.146ZM164.334 67C163.914 67 163.55 66.9347 163.242 66.804C162.934 66.6733 162.696 66.454 162.528 66.146C162.369 65.8287 162.29 65.404 162.29 64.872V60.938H161.058V59.944H162.29L162.444 58.236H163.466V59.944H165.51V60.938H163.466V64.872C163.466 65.3107 163.555 65.6093 163.732 65.768C163.909 65.9173 164.222 65.992 164.67 65.992H165.426V67H164.334ZM167.044 67V59.944H168.108L168.192 61.288C168.351 60.9707 168.552 60.7 168.794 60.476C169.046 60.252 169.345 60.0793 169.69 59.958C170.045 59.8367 170.446 59.776 170.894 59.776V61.008H170.46C170.162 61.008 169.877 61.05 169.606 61.134C169.336 61.2087 169.093 61.3347 168.878 61.512C168.673 61.6893 168.51 61.932 168.388 62.24C168.276 62.5387 168.22 62.912 168.22 63.36V67H167.044ZM175.06 67.168C174.398 67.168 173.81 67.014 173.296 66.706C172.792 66.398 172.396 65.9687 172.106 65.418C171.817 64.858 171.672 64.2093 171.672 63.472C171.672 62.7253 171.812 62.0767 172.092 61.526C172.382 60.9753 172.783 60.546 173.296 60.238C173.819 59.93 174.416 59.776 175.088 59.776C175.779 59.776 176.362 59.93 176.838 60.238C177.324 60.546 177.692 60.952 177.944 61.456C178.206 61.9507 178.336 62.4967 178.336 63.094C178.336 63.1873 178.336 63.2853 178.336 63.388C178.336 63.4907 178.332 63.6073 178.322 63.738H172.554V62.828H177.188C177.16 62.184 176.946 61.68 176.544 61.316C176.152 60.952 175.658 60.77 175.06 60.77C174.659 60.77 174.286 60.8633 173.94 61.05C173.604 61.2273 173.334 61.4933 173.128 61.848C172.923 62.1933 172.82 62.6273 172.82 63.15V63.542C172.82 64.1207 172.923 64.606 173.128 64.998C173.343 65.39 173.618 65.684 173.954 65.88C174.3 66.076 174.668 66.174 175.06 66.174C175.555 66.174 175.961 66.0667 176.278 65.852C176.605 65.628 176.838 65.3293 176.978 64.956H178.14C178.028 65.376 177.832 65.754 177.552 66.09C177.272 66.426 176.922 66.692 176.502 66.888C176.092 67.0747 175.611 67.168 175.06 67.168ZM179.923 67V59.944H180.987L181.043 61.176C181.267 60.7373 181.585 60.3967 181.995 60.154C182.415 59.902 182.891 59.776 183.423 59.776C183.974 59.776 184.45 59.888 184.851 60.112C185.253 60.3267 185.565 60.658 185.789 61.106C186.013 61.5447 186.125 62.1047 186.125 62.786V67H184.949V62.912C184.949 62.2027 184.791 61.6707 184.473 61.316C184.165 60.9613 183.727 60.784 183.157 60.784C182.765 60.784 182.415 60.882 182.107 61.078C181.799 61.2647 181.552 61.54 181.365 61.904C181.188 62.2587 181.099 62.702 181.099 63.234V67H179.923ZM191.07 67.168C190.389 67.168 189.792 67.0093 189.278 66.692C188.765 66.3653 188.368 65.922 188.088 65.362C187.808 64.802 187.668 64.1673 187.668 63.458C187.668 62.7487 187.808 62.1187 188.088 61.568C188.368 61.008 188.765 60.5693 189.278 60.252C189.801 59.9347 190.403 59.776 191.084 59.776C191.663 59.776 192.167 59.8927 192.596 60.126C193.035 60.3593 193.371 60.686 193.604 61.106V56.92H194.78V67H193.716L193.618 65.838C193.469 66.0713 193.278 66.2907 193.044 66.496C192.811 66.692 192.531 66.8553 192.204 66.986C191.878 67.1073 191.5 67.168 191.07 67.168ZM191.21 66.146C191.677 66.146 192.088 66.034 192.442 65.81C192.797 65.586 193.072 65.278 193.268 64.886C193.464 64.4847 193.562 64.0133 193.562 63.472C193.562 62.94 193.464 62.4733 193.268 62.072C193.072 61.6707 192.797 61.358 192.442 61.134C192.088 60.91 191.677 60.798 191.21 60.798C190.753 60.798 190.347 60.91 189.992 61.134C189.638 61.358 189.362 61.6707 189.166 62.072C188.97 62.4733 188.872 62.94 188.872 63.472C188.872 64.0133 188.97 64.4847 189.166 64.886C189.362 65.278 189.638 65.586 189.992 65.81C190.347 66.034 190.753 66.146 191.21 66.146ZM199.4 67.168C198.812 67.168 198.298 67.07 197.86 66.874C197.43 66.678 197.085 66.4073 196.824 66.062C196.572 65.7073 196.418 65.292 196.362 64.816H197.566C197.612 65.0587 197.71 65.2827 197.86 65.488C198.009 65.6933 198.21 65.8613 198.462 65.992C198.723 66.1133 199.04 66.174 199.414 66.174C199.74 66.174 200.011 66.1273 200.226 66.034C200.44 65.9313 200.599 65.796 200.702 65.628C200.814 65.46 200.87 65.278 200.87 65.082C200.87 64.7927 200.8 64.5733 200.66 64.424C200.529 64.2747 200.333 64.158 200.072 64.074C199.81 63.9807 199.493 63.9013 199.12 63.836C198.812 63.78 198.508 63.7053 198.21 63.612C197.911 63.5187 197.645 63.3973 197.412 63.248C197.178 63.0893 196.992 62.898 196.852 62.674C196.721 62.45 196.656 62.1747 196.656 61.848C196.656 61.4467 196.758 61.092 196.964 60.784C197.169 60.4667 197.463 60.2193 197.846 60.042C198.238 59.8647 198.69 59.776 199.204 59.776C199.96 59.776 200.571 59.958 201.038 60.322C201.504 60.686 201.78 61.2133 201.864 61.904H200.702C200.655 61.5493 200.501 61.274 200.24 61.078C199.988 60.8727 199.638 60.77 199.19 60.77C198.751 60.77 198.415 60.8587 198.182 61.036C197.958 61.2133 197.846 61.4467 197.846 61.736C197.846 61.9227 197.906 62.0907 198.028 62.24C198.158 62.38 198.345 62.5013 198.588 62.604C198.84 62.7067 199.148 62.7907 199.512 62.856C199.978 62.94 200.403 63.052 200.786 63.192C201.168 63.332 201.476 63.542 201.71 63.822C201.952 64.0927 202.074 64.48 202.074 64.984C202.074 65.4227 201.962 65.8053 201.738 66.132C201.523 66.4587 201.215 66.7153 200.814 66.902C200.412 67.0793 199.941 67.168 199.4 67.168ZM214.528 68.33L211.238 63.178H212.596L215.886 68.33H214.528ZM211.924 67.168C210.981 67.168 210.151 66.958 209.432 66.538C208.723 66.1087 208.167 65.516 207.766 64.76C207.374 63.9947 207.178 63.108 207.178 62.1C207.178 61.1013 207.374 60.224 207.766 59.468C208.167 58.7027 208.723 58.1053 209.432 57.676C210.151 57.2467 210.981 57.032 211.924 57.032C212.885 57.032 213.721 57.2467 214.43 57.676C215.139 58.1053 215.69 58.7027 216.082 59.468C216.483 60.224 216.684 61.1013 216.684 62.1C216.684 63.108 216.483 63.9947 216.082 64.76C215.69 65.516 215.139 66.1087 214.43 66.538C213.721 66.958 212.885 67.168 211.924 67.168ZM211.924 66.132C212.633 66.132 213.254 65.9733 213.786 65.656C214.327 65.3293 214.743 64.8673 215.032 64.27C215.331 63.6633 215.48 62.94 215.48 62.1C215.48 61.26 215.331 60.5413 215.032 59.944C214.743 59.3373 214.327 58.8753 213.786 58.558C213.254 58.2407 212.633 58.082 211.924 58.082C211.224 58.082 210.603 58.2407 210.062 58.558C209.53 58.8753 209.115 59.3373 208.816 59.944C208.527 60.5413 208.382 61.26 208.382 62.1C208.382 62.94 208.527 63.6633 208.816 64.27C209.115 64.8673 209.53 65.3293 210.062 65.656C210.603 65.9733 211.224 66.132 211.924 66.132ZM221.45 67.168C220.824 67.168 220.255 67.056 219.742 66.832C219.238 66.5987 218.836 66.2533 218.538 65.796C218.239 65.3387 218.08 64.7693 218.062 64.088H219.252C219.261 64.4613 219.35 64.8067 219.518 65.124C219.695 65.432 219.947 65.6793 220.274 65.866C220.6 66.0527 220.992 66.146 221.45 66.146C221.907 66.146 222.29 66.0573 222.598 65.88C222.906 65.7027 223.139 65.4693 223.298 65.18C223.456 64.8813 223.536 64.55 223.536 64.186C223.536 63.7287 223.424 63.36 223.2 63.08C222.985 62.7907 222.691 62.5807 222.318 62.45C221.954 62.31 221.552 62.24 221.114 62.24H220.386V61.246H221.114C221.758 61.246 222.262 61.0967 222.626 60.798C222.99 60.4993 223.172 60.0887 223.172 59.566C223.172 59.1367 223.027 58.7773 222.738 58.488C222.458 58.1987 222.028 58.054 221.45 58.054C220.899 58.054 220.46 58.2127 220.134 58.53C219.807 58.8473 219.62 59.2533 219.574 59.748H218.384C218.412 59.216 218.556 58.7447 218.818 58.334C219.079 57.9233 219.434 57.606 219.882 57.382C220.33 57.1487 220.857 57.032 221.464 57.032C222.098 57.032 222.63 57.144 223.06 57.368C223.489 57.592 223.811 57.8907 224.026 58.264C224.25 58.6373 224.362 59.048 224.362 59.496C224.362 59.832 224.301 60.1493 224.18 60.448C224.058 60.7373 223.876 60.994 223.634 61.218C223.391 61.442 223.083 61.6007 222.71 61.694C223.092 61.7687 223.433 61.9133 223.732 62.128C224.04 62.3427 224.282 62.6227 224.46 62.968C224.637 63.3133 224.726 63.7193 224.726 64.186C224.726 64.718 224.6 65.2127 224.348 65.67C224.105 66.118 223.741 66.482 223.256 66.762C222.77 67.0327 222.168 67.168 221.45 67.168Z" fill="#051A2F"/>
<path opacity="0.6" d="M27.346 135V126.166H24.42V125.2H31.448V126.166H28.522V135H27.346ZM32.0347 135V127.944H33.0987L33.1827 129.288C33.3414 128.971 33.542 128.7 33.7847 128.476C34.0367 128.252 34.3354 128.079 34.6807 127.958C35.0354 127.837 35.4367 127.776 35.8847 127.776V129.008H35.4507C35.152 129.008 34.8674 129.05 34.5967 129.134C34.326 129.209 34.0834 129.335 33.8687 129.512C33.6634 129.689 33.5 129.932 33.3787 130.24C33.2667 130.539 33.2107 130.912 33.2107 131.36V135H32.0347ZM39.5123 135.168C38.943 135.168 38.467 135.07 38.0843 134.874C37.7017 134.669 37.417 134.403 37.2303 134.076C37.0437 133.74 36.9503 133.376 36.9503 132.984C36.9503 132.508 37.0717 132.107 37.3143 131.78C37.5663 131.444 37.9163 131.192 38.3643 131.024C38.8217 130.847 39.3583 130.758 39.9743 130.758H41.8363C41.8363 130.319 41.7663 129.955 41.6263 129.666C41.4957 129.367 41.2997 129.143 41.0383 128.994C40.7863 128.845 40.469 128.77 40.0863 128.77C39.6383 128.77 39.251 128.882 38.9243 129.106C38.5977 129.33 38.397 129.661 38.3223 130.1H37.1183C37.1743 129.596 37.3423 129.176 37.6223 128.84C37.9117 128.495 38.2757 128.233 38.7143 128.056C39.153 127.869 39.6103 127.776 40.0863 127.776C40.7397 127.776 41.281 127.897 41.7103 128.14C42.149 128.373 42.4757 128.705 42.6903 129.134C42.905 129.554 43.0123 130.053 43.0123 130.632V135H41.9623L41.8923 133.754C41.799 133.95 41.6777 134.137 41.5283 134.314C41.3883 134.482 41.2203 134.631 41.0243 134.762C40.8283 134.883 40.6043 134.981 40.3523 135.056C40.1097 135.131 39.8297 135.168 39.5123 135.168ZM39.6943 134.174C40.021 134.174 40.315 134.109 40.5763 133.978C40.847 133.838 41.0757 133.651 41.2623 133.418C41.449 133.175 41.589 132.909 41.6823 132.62C41.785 132.331 41.8363 132.027 41.8363 131.71V131.668H40.0723C39.615 131.668 39.2463 131.724 38.9663 131.836C38.6863 131.939 38.4857 132.088 38.3643 132.284C38.243 132.471 38.1823 132.685 38.1823 132.928C38.1823 133.18 38.2383 133.399 38.3503 133.586C38.4717 133.773 38.6443 133.917 38.8683 134.02C39.1017 134.123 39.377 134.174 39.6943 134.174ZM45.2236 135V126.852C45.2236 126.404 45.2982 126.04 45.4476 125.76C45.5969 125.471 45.8162 125.261 46.1056 125.13C46.4042 124.99 46.7682 124.92 47.1976 124.92H47.9956V125.928H47.3796C47.0342 125.928 46.7822 125.998 46.6236 126.138C46.4742 126.278 46.3996 126.525 46.3996 126.88V135H45.2236ZM44.1456 128.938V127.944H48.1776V128.938H44.1456ZM49.9814 135V128.938H48.9034V127.944H49.9814V126.852C49.9814 126.404 50.056 126.04 50.2054 125.76C50.3547 125.471 50.574 125.261 50.8634 125.13C51.162 124.99 51.526 124.92 51.9554 124.92H52.6554V125.928H52.1374C51.792 125.928 51.54 125.998 51.3814 126.138C51.232 126.278 51.1574 126.525 51.1574 126.88V127.944H55.3854V135H54.2094V128.938H51.1574V135H49.9814ZM54.8114 126.6C54.5874 126.6 54.396 126.525 54.2374 126.376C54.0787 126.217 53.9994 126.021 53.9994 125.788C53.9994 125.555 54.0787 125.368 54.2374 125.228C54.396 125.079 54.5874 125.004 54.8114 125.004C55.0447 125.004 55.236 125.079 55.3854 125.228C55.544 125.368 55.6234 125.555 55.6234 125.788C55.6234 126.021 55.544 126.217 55.3854 126.376C55.236 126.525 55.0447 126.6 54.8114 126.6ZM60.656 135.168C59.9934 135.168 59.396 135.014 58.864 134.706C58.3414 134.398 57.9307 133.969 57.632 133.418C57.3334 132.858 57.184 132.214 57.184 131.486C57.184 130.739 57.3334 130.091 57.632 129.54C57.9307 128.989 58.3414 128.56 58.864 128.252C59.396 127.935 59.9934 127.776 60.656 127.776C61.496 127.776 62.196 127.995 62.756 128.434C63.316 128.863 63.6707 129.442 63.82 130.17H62.616C62.5227 129.731 62.294 129.391 61.93 129.148C61.566 128.905 61.1367 128.784 60.642 128.784C60.2407 128.784 59.8674 128.887 59.522 129.092C59.1767 129.288 58.9014 129.587 58.696 129.988C58.4907 130.389 58.388 130.884 58.388 131.472C58.388 131.911 58.4487 132.303 58.57 132.648C58.6914 132.984 58.8547 133.264 59.06 133.488C59.2654 133.712 59.5034 133.885 59.774 134.006C60.054 134.118 60.3434 134.174 60.642 134.174C60.978 134.174 61.2814 134.123 61.552 134.02C61.8227 133.908 62.0514 133.745 62.238 133.53C62.4247 133.315 62.5507 133.063 62.616 132.774H63.82C63.6707 133.483 63.3114 134.062 62.742 134.51C62.182 134.949 61.4867 135.168 60.656 135.168ZM69.2785 135V125.2H70.4545V135H69.2785ZM72.4898 135V127.944H73.5538L73.6098 129.176C73.8338 128.737 74.1511 128.397 74.5618 128.154C74.9818 127.902 75.4578 127.776 75.9898 127.776C76.5404 127.776 77.0164 127.888 77.4178 128.112C77.8191 128.327 78.1318 128.658 78.3558 129.106C78.5798 129.545 78.6918 130.105 78.6918 130.786V135H77.5158V130.912C77.5158 130.203 77.3571 129.671 77.0398 129.316C76.7318 128.961 76.2931 128.784 75.7238 128.784C75.3318 128.784 74.9818 128.882 74.6738 129.078C74.3658 129.265 74.1184 129.54 73.9318 129.904C73.7544 130.259 73.6658 130.702 73.6658 131.234V135H72.4898ZM83.7068 135.168C83.0442 135.168 82.4468 135.014 81.9148 134.706C81.3922 134.398 80.9815 133.969 80.6828 133.418C80.3842 132.858 80.2348 132.214 80.2348 131.486C80.2348 130.739 80.3842 130.091 80.6828 129.54C80.9815 128.989 81.3922 128.56 81.9148 128.252C82.4468 127.935 83.0442 127.776 83.7068 127.776C84.5468 127.776 85.2468 127.995 85.8068 128.434C86.3668 128.863 86.7215 129.442 86.8708 130.17H85.6668C85.5735 129.731 85.3448 129.391 84.9808 129.148C84.6168 128.905 84.1875 128.784 83.6928 128.784C83.2915 128.784 82.9182 128.887 82.5728 129.092C82.2275 129.288 81.9522 129.587 81.7468 129.988C81.5415 130.389 81.4388 130.884 81.4388 131.472C81.4388 131.911 81.4995 132.303 81.6208 132.648C81.7422 132.984 81.9055 133.264 82.1108 133.488C82.3162 133.712 82.5542 133.885 82.8248 134.006C83.1048 134.118 83.3942 134.174 83.6928 134.174C84.0288 134.174 84.3322 134.123 84.6028 134.02C84.8735 133.908 85.1022 133.745 85.2888 133.53C85.4755 133.315 85.6015 133.063 85.6668 132.774H86.8708C86.7215 133.483 86.3622 134.062 85.7928 134.51C85.2328 134.949 84.5375 135.168 83.7068 135.168ZM88.5405 135V127.944H89.6045L89.6885 129.288C89.8472 128.971 90.0479 128.7 90.2905 128.476C90.5425 128.252 90.8412 128.079 91.1865 127.958C91.5412 127.837 91.9425 127.776 92.3905 127.776V129.008H91.9565C91.6579 129.008 91.3732 129.05 91.1025 129.134C90.8319 129.209 90.5892 129.335 90.3745 129.512C90.1692 129.689 90.0059 129.932 89.8845 130.24C89.7725 130.539 89.7165 130.912 89.7165 131.36V135H88.5405ZM96.5564 135.168C95.8938 135.168 95.3058 135.014 94.7924 134.706C94.2884 134.398 93.8918 133.969 93.6024 133.418C93.3131 132.858 93.1684 132.209 93.1684 131.472C93.1684 130.725 93.3084 130.077 93.5884 129.526C93.8778 128.975 94.2791 128.546 94.7924 128.238C95.3151 127.93 95.9124 127.776 96.5844 127.776C97.2751 127.776 97.8584 127.93 98.3344 128.238C98.8198 128.546 99.1884 128.952 99.4404 129.456C99.7018 129.951 99.8324 130.497 99.8324 131.094C99.8324 131.187 99.8324 131.285 99.8324 131.388C99.8324 131.491 99.8278 131.607 99.8184 131.738H94.0504V130.828H98.6844C98.6564 130.184 98.4418 129.68 98.0404 129.316C97.6484 128.952 97.1538 128.77 96.5564 128.77C96.1551 128.77 95.7818 128.863 95.4364 129.05C95.1004 129.227 94.8298 129.493 94.6244 129.848C94.4191 130.193 94.3164 130.627 94.3164 131.15V131.542C94.3164 132.121 94.4191 132.606 94.6244 132.998C94.8391 133.39 95.1144 133.684 95.4504 133.88C95.7958 134.076 96.1644 134.174 96.5564 134.174C97.0511 134.174 97.4571 134.067 97.7744 133.852C98.1011 133.628 98.3344 133.329 98.4744 132.956H99.6364C99.5244 133.376 99.3284 133.754 99.0484 134.09C98.7684 134.426 98.4184 134.692 97.9984 134.888C97.5878 135.075 97.1071 135.168 96.5564 135.168ZM103.715 135.168C103.146 135.168 102.67 135.07 102.287 134.874C101.905 134.669 101.62 134.403 101.433 134.076C101.247 133.74 101.153 133.376 101.153 132.984C101.153 132.508 101.275 132.107 101.517 131.78C101.769 131.444 102.119 131.192 102.567 131.024C103.025 130.847 103.561 130.758 104.177 130.758H106.039C106.039 130.319 105.969 129.955 105.829 129.666C105.699 129.367 105.503 129.143 105.241 128.994C104.989 128.845 104.672 128.77 104.289 128.77C103.841 128.77 103.454 128.882 103.127 129.106C102.801 129.33 102.6 129.661 102.525 130.1H101.321C101.377 129.596 101.545 129.176 101.825 128.84C102.115 128.495 102.479 128.233 102.917 128.056C103.356 127.869 103.813 127.776 104.289 127.776C104.943 127.776 105.484 127.897 105.913 128.14C106.352 128.373 106.679 128.705 106.893 129.134C107.108 129.554 107.215 130.053 107.215 130.632V135H106.165L106.095 133.754C106.002 133.95 105.881 134.137 105.731 134.314C105.591 134.482 105.423 134.631 105.227 134.762C105.031 134.883 104.807 134.981 104.555 135.056C104.313 135.131 104.033 135.168 103.715 135.168ZM103.897 134.174C104.224 134.174 104.518 134.109 104.779 133.978C105.05 133.838 105.279 133.651 105.465 133.418C105.652 133.175 105.792 132.909 105.885 132.62C105.988 132.331 106.039 132.027 106.039 131.71V131.668H104.275C103.818 131.668 103.449 131.724 103.169 131.836C102.889 131.939 102.689 132.088 102.567 132.284C102.446 132.471 102.385 132.685 102.385 132.928C102.385 133.18 102.441 133.399 102.553 133.586C102.675 133.773 102.847 133.917 103.071 134.02C103.305 134.123 103.58 134.174 103.897 134.174ZM111.695 135.168C111.107 135.168 110.593 135.07 110.155 134.874C109.725 134.678 109.38 134.407 109.119 134.062C108.867 133.707 108.713 133.292 108.657 132.816H109.861C109.907 133.059 110.005 133.283 110.155 133.488C110.304 133.693 110.505 133.861 110.757 133.992C111.018 134.113 111.335 134.174 111.709 134.174C112.035 134.174 112.306 134.127 112.521 134.034C112.735 133.931 112.894 133.796 112.997 133.628C113.109 133.46 113.165 133.278 113.165 133.082C113.165 132.793 113.095 132.573 112.955 132.424C112.824 132.275 112.628 132.158 112.367 132.074C112.105 131.981 111.788 131.901 111.415 131.836C111.107 131.78 110.803 131.705 110.505 131.612C110.206 131.519 109.94 131.397 109.707 131.248C109.473 131.089 109.287 130.898 109.147 130.674C109.016 130.45 108.951 130.175 108.951 129.848C108.951 129.447 109.053 129.092 109.259 128.784C109.464 128.467 109.758 128.219 110.141 128.042C110.533 127.865 110.985 127.776 111.499 127.776C112.255 127.776 112.866 127.958 113.333 128.322C113.799 128.686 114.075 129.213 114.159 129.904H112.997C112.95 129.549 112.796 129.274 112.535 129.078C112.283 128.873 111.933 128.77 111.485 128.77C111.046 128.77 110.71 128.859 110.477 129.036C110.253 129.213 110.141 129.447 110.141 129.736C110.141 129.923 110.201 130.091 110.323 130.24C110.453 130.38 110.64 130.501 110.883 130.604C111.135 130.707 111.443 130.791 111.807 130.856C112.273 130.94 112.698 131.052 113.081 131.192C113.463 131.332 113.771 131.542 114.005 131.822C114.247 132.093 114.369 132.48 114.369 132.984C114.369 133.423 114.257 133.805 114.033 134.132C113.818 134.459 113.51 134.715 113.109 134.902C112.707 135.079 112.236 135.168 111.695 135.168ZM119.156 135.168C118.493 135.168 117.905 135.014 117.392 134.706C116.888 134.398 116.491 133.969 116.202 133.418C115.913 132.858 115.768 132.209 115.768 131.472C115.768 130.725 115.908 130.077 116.188 129.526C116.477 128.975 116.879 128.546 117.392 128.238C117.915 127.93 118.512 127.776 119.184 127.776C119.875 127.776 120.458 127.93 120.934 128.238C121.419 128.546 121.788 128.952 122.04 129.456C122.301 129.951 122.432 130.497 122.432 131.094C122.432 131.187 122.432 131.285 122.432 131.388C122.432 131.491 122.427 131.607 122.418 131.738H116.65V130.828H121.284C121.256 130.184 121.041 129.68 120.64 129.316C120.248 128.952 119.753 128.77 119.156 128.77C118.755 128.77 118.381 128.863 118.036 129.05C117.7 129.227 117.429 129.493 117.224 129.848C117.019 130.193 116.916 130.627 116.916 131.15V131.542C116.916 132.121 117.019 132.606 117.224 132.998C117.439 133.39 117.714 133.684 118.05 133.88C118.395 134.076 118.764 134.174 119.156 134.174C119.651 134.174 120.057 134.067 120.374 133.852C120.701 133.628 120.934 133.329 121.074 132.956H122.236C122.124 133.376 121.928 133.754 121.648 134.09C121.368 134.426 121.018 134.692 120.598 134.888C120.187 135.075 119.707 135.168 119.156 135.168Z" fill="#051A2F"/>
<path d="M33.92 174.384C32.4267 174.384 31.072 174.117 29.856 173.584C28.6613 173.029 27.7013 172.261 26.976 171.28C26.272 170.299 25.92 169.147 25.92 167.824C25.92 166.48 26.2933 165.275 27.04 164.208C27.808 163.141 28.8213 162.416 30.08 162.032C28.9493 161.584 28.0747 160.933 27.456 160.08C26.8373 159.205 26.528 158.245 26.528 157.2C26.528 156.112 26.816 155.12 27.392 154.224C27.968 153.307 28.8 152.581 29.888 152.048C30.9973 151.493 32.3413 151.216 33.92 151.216C35.4987 151.216 36.832 151.493 37.92 152.048C39.0293 152.581 39.872 153.307 40.448 154.224C41.024 155.12 41.312 156.112 41.312 157.2C41.312 158.224 40.992 159.184 40.352 160.08C39.7333 160.955 38.8587 161.605 37.728 162.032C38.9867 162.437 39.9893 163.173 40.736 164.24C41.504 165.285 41.888 166.48 41.888 167.824C41.888 169.147 41.536 170.299 40.832 171.28C40.128 172.261 39.168 173.029 37.952 173.584C36.7573 174.117 35.4133 174.384 33.92 174.384ZM33.92 160.944C35.1573 160.944 36.128 160.624 36.832 159.984C37.5573 159.344 37.92 158.523 37.92 157.52C37.92 156.389 37.568 155.525 36.864 154.928C36.16 154.331 35.1787 154.032 33.92 154.032C32.6613 154.032 31.68 154.331 30.976 154.928C30.272 155.525 29.92 156.389 29.92 157.52C29.92 158.523 30.272 159.344 30.976 159.984C31.68 160.624 32.6613 160.944 33.92 160.944ZM33.92 171.504C35.456 171.504 36.608 171.141 37.376 170.416C38.144 169.669 38.528 168.72 38.528 167.568C38.528 166.288 38.112 165.307 37.28 164.624C36.4693 163.92 35.3493 163.568 33.92 163.568C32.4907 163.568 31.36 163.92 30.528 164.624C29.696 165.307 29.28 166.288 29.28 167.568C29.28 168.72 29.664 169.669 30.432 170.416C31.2213 171.141 32.384 171.504 33.92 171.504ZM53.9238 174.384C52.3451 174.384 50.9798 174.107 49.8278 173.552C48.6758 172.976 47.7584 172.197 47.0758 171.216C46.4144 170.213 46.0091 169.083 45.8598 167.824H49.1878C49.4011 168.891 49.9344 169.776 50.7878 170.48C51.6411 171.163 52.6971 171.504 53.9558 171.504C54.8944 171.504 55.7051 171.28 56.3878 170.832C57.0704 170.363 57.6038 169.744 57.9878 168.976C58.3718 168.208 58.5638 167.344 58.5638 166.384C58.5638 164.869 58.1371 163.664 57.2838 162.768C56.4304 161.851 55.3531 161.392 54.0518 161.392C52.9424 161.392 51.9931 161.659 51.2038 162.192C50.4144 162.704 49.8384 163.355 49.4758 164.144H46.2438L48.1638 151.6H60.2598V154.576H50.7238L49.5718 160.56C50.0624 160.005 50.7344 159.547 51.5878 159.184C52.4624 158.8 53.4438 158.608 54.5318 158.608C56.0464 158.608 57.3478 158.96 58.4358 159.664C59.5238 160.347 60.3558 161.275 60.9318 162.448C61.5291 163.621 61.8278 164.923 61.8278 166.352C61.8278 167.845 61.5078 169.2 60.8678 170.416C60.2278 171.632 59.3104 172.603 58.1158 173.328C56.9424 174.032 55.5451 174.384 53.9238 174.384ZM70.1545 162.288C69.1518 162.288 68.2452 162.064 67.4345 161.616C66.6452 161.168 66.0158 160.539 65.5465 159.728C65.0772 158.896 64.8425 157.904 64.8425 156.752C64.8425 155.621 65.0772 154.651 65.5465 153.84C66.0158 153.008 66.6558 152.368 67.4665 151.92C68.2772 151.472 69.1838 151.248 70.1865 151.248C71.1678 151.248 72.0532 151.472 72.8425 151.92C73.6532 152.368 74.2932 153.008 74.7625 153.84C75.2318 154.651 75.4665 155.621 75.4665 156.752C75.4665 157.904 75.2318 158.896 74.7625 159.728C74.2932 160.539 73.6532 161.168 72.8425 161.616C72.0532 162.064 71.1572 162.288 70.1545 162.288ZM68.5545 174L81.3865 151.6H84.7145L71.9145 174H68.5545ZM70.1545 159.856C70.8372 159.856 71.4238 159.6 71.9145 159.088C72.4265 158.555 72.6825 157.776 72.6825 156.752C72.6825 155.728 72.4372 154.96 71.9465 154.448C71.4558 153.915 70.8585 153.648 70.1545 153.648C69.4718 153.648 68.8745 153.915 68.3625 154.448C67.8505 154.96 67.5945 155.728 67.5945 156.752C67.5945 157.776 67.8398 158.555 68.3305 159.088C68.8425 159.6 69.4505 159.856 70.1545 159.856ZM83.3065 174.384C82.3038 174.384 81.3972 174.16 80.5865 173.712C79.7972 173.264 79.1678 172.635 78.6985 171.824C78.2292 170.992 77.9945 170 77.9945 168.848C77.9945 167.717 78.2292 166.736 78.6985 165.904C79.1678 165.072 79.8078 164.432 80.6185 163.984C81.4292 163.536 82.3358 163.312 83.3385 163.312C84.3198 163.312 85.2052 163.536 85.9945 163.984C86.8052 164.432 87.4452 165.072 87.9145 165.904C88.3838 166.736 88.6185 167.717 88.6185 168.848C88.6185 170 88.3838 170.992 87.9145 171.824C87.4452 172.635 86.8052 173.264 85.9945 173.712C85.2052 174.16 84.3092 174.384 83.3065 174.384ZM83.3065 171.92C83.9892 171.92 84.5758 171.664 85.0665 171.152C85.5785 170.64 85.8345 169.872 85.8345 168.848C85.8345 167.824 85.5892 167.056 85.0985 166.544C84.6078 166.011 84.0105 165.744 83.3065 165.744C82.6238 165.744 82.0265 166.011 81.5145 166.544C81.0025 167.056 80.7465 167.824 80.7465 168.848C80.7465 169.872 80.9918 170.64 81.4825 171.152C81.9945 171.664 82.6025 171.92 83.3065 171.92Z" fill="#051A2F"/>
<g clip-path="url(#clip1_10729_360)">
<rect x="25" y="194" width="4" height="40" fill="#E9FA49"/>
<rect x="33" y="194" width="4" height="40" fill="#E9FA49"/>
<rect x="41" y="194" width="4" height="40" fill="#E9FA49"/>
<rect x="49" y="194" width="4" height="40" fill="#E9FA49"/>
<rect x="57" y="194" width="4" height="40" fill="#E9FA49"/>
<rect x="65" y="194" width="4" height="40" fill="#E9FA49"/>
<rect x="73" y="194" width="4" height="40" fill="#E9FA49"/>
<rect x="81" y="194" width="4" height="40" fill="#E9FA49"/>
<rect x="89" y="194" width="4" height="40" fill="#E9FA49"/>
<rect x="97" y="194" width="4" height="40" fill="#E9FA49"/>
<rect x="105" y="194" width="4" height="40" fill="#E9FA49"/>
<rect x="113" y="194" width="4" height="40" fill="#E9FA49"/>
<rect x="121" y="194" width="4" height="40" fill="#E9FA49"/>
<rect x="129" y="194" width="4" height="40" fill="#E9FA49"/>
<rect x="137" y="194" width="4" height="40" fill="#E9FA49"/>
<rect x="145" y="194" width="4" height="40" fill="#E9FA49"/>
<rect x="153" y="194" width="4" height="40" fill="#E9FA49"/>
<rect x="161" y="194" width="4" height="40" fill="#E9FA49"/>
<rect x="169" y="194" width="4" height="40" fill="#E9FA49"/>
<rect x="177" y="194" width="4" height="40" fill="#E9FA49"/>
<rect x="185" y="194" width="4" height="40" fill="#E9FA49"/>
<rect x="193" y="194" width="4" height="40" fill="#E9FA49"/>
<rect x="201" y="194" width="4" height="40" fill="#E9FA49"/>
<rect x="209" y="194" width="4" height="40" fill="#E9FA49"/>
<rect x="217" y="194" width="4" height="40" fill="#E9FA49"/>
<rect x="225" y="194" width="4" height="40" fill="#E9FA49"/>
<rect x="233" y="194" width="4" height="40" fill="#E9FA49"/>
<rect x="241" y="194" width="4" height="40" fill="#E9FA49"/>
<rect x="249" y="194" width="4" height="40" fill="#E9FA49"/>
<rect x="257" y="194" width="4" height="40" fill="#E9FA49"/>
<rect x="265" y="194" width="4" height="40" fill="#E9FA49"/>
<rect x="273" y="194" width="4" height="40" fill="#E9FA49"/>
<rect x="281" y="194" width="4" height="40" fill="#E9FA49"/>
</g>
<path d="M207.6 163L205.512 157.4H206.376L208.072 162.168L209.784 157.4H210.632L208.552 163H207.6ZM211.421 163V158.792H212.221V163H211.421ZM211.821 158.088C211.666 158.088 211.538 158.04 211.437 157.944C211.341 157.848 211.293 157.725 211.293 157.576C211.293 157.432 211.341 157.315 211.437 157.224C211.538 157.128 211.666 157.08 211.821 157.08C211.97 157.08 212.095 157.128 212.197 157.224C212.298 157.315 212.349 157.432 212.349 157.576C212.349 157.725 212.298 157.848 212.197 157.944C212.095 158.04 211.97 158.088 211.821 158.088ZM214.948 163.096C214.553 163.096 214.228 163.037 213.972 162.92C213.721 162.803 213.532 162.643 213.404 162.44C213.276 162.232 213.199 161.992 213.172 161.72H213.98C214.001 161.853 214.047 161.976 214.116 162.088C214.185 162.195 214.289 162.283 214.428 162.352C214.567 162.416 214.74 162.448 214.948 162.448C215.113 162.448 215.255 162.424 215.372 162.376C215.495 162.323 215.585 162.251 215.644 162.16C215.708 162.064 215.74 161.955 215.74 161.832C215.74 161.672 215.703 161.547 215.628 161.456C215.559 161.365 215.452 161.296 215.308 161.248C215.169 161.2 214.996 161.165 214.788 161.144C214.553 161.107 214.343 161.059 214.156 161C213.969 160.941 213.812 160.864 213.684 160.768C213.556 160.672 213.457 160.552 213.388 160.408C213.324 160.264 213.292 160.091 213.292 159.888C213.292 159.659 213.353 159.453 213.476 159.272C213.604 159.091 213.785 158.949 214.02 158.848C214.255 158.747 214.535 158.696 214.86 158.696C215.329 158.696 215.697 158.803 215.964 159.016C216.236 159.224 216.399 159.52 216.452 159.904H215.676C215.649 159.728 215.564 159.592 215.42 159.496C215.276 159.395 215.087 159.344 214.852 159.344C214.601 159.344 214.409 159.392 214.276 159.488C214.148 159.579 214.084 159.699 214.084 159.848C214.084 159.96 214.113 160.061 214.172 160.152C214.231 160.237 214.329 160.312 214.468 160.376C214.607 160.435 214.796 160.48 215.036 160.512C215.372 160.555 215.652 160.619 215.876 160.704C216.105 160.789 216.276 160.917 216.388 161.088C216.505 161.253 216.561 161.483 216.556 161.776C216.556 162.059 216.487 162.299 216.348 162.496C216.215 162.688 216.028 162.837 215.788 162.944C215.548 163.045 215.268 163.096 214.948 163.096ZM219.065 163.096C218.755 163.096 218.483 163.037 218.249 162.92C218.019 162.797 217.841 162.616 217.713 162.376C217.59 162.136 217.529 161.835 217.529 161.472V158.792H218.329V161.376C218.329 161.728 218.414 161.989 218.585 162.16C218.755 162.331 218.99 162.416 219.289 162.416C219.486 162.416 219.662 162.373 219.817 162.288C219.977 162.197 220.105 162.064 220.201 161.888C220.302 161.712 220.353 161.496 220.353 161.24V158.792H221.153V163H220.433L220.385 162.344C220.273 162.584 220.102 162.771 219.873 162.904C219.643 163.032 219.374 163.096 219.065 163.096ZM223.599 163.096C223.274 163.096 223.004 163.037 222.791 162.92C222.578 162.803 222.418 162.645 222.311 162.448C222.204 162.245 222.151 162.029 222.151 161.8C222.151 161.533 222.22 161.304 222.359 161.112C222.498 160.915 222.692 160.765 222.943 160.664C223.199 160.557 223.503 160.504 223.855 160.504H224.879C224.879 160.248 224.85 160.037 224.791 159.872C224.738 159.701 224.644 159.573 224.511 159.488C224.378 159.403 224.196 159.36 223.967 159.36C223.743 159.36 223.554 159.413 223.399 159.52C223.244 159.627 223.146 159.787 223.103 160H222.303C222.335 159.723 222.428 159.488 222.583 159.296C222.738 159.099 222.935 158.949 223.175 158.848C223.42 158.747 223.684 158.696 223.967 158.696C224.351 158.696 224.668 158.763 224.919 158.896C225.175 159.029 225.364 159.219 225.487 159.464C225.615 159.704 225.679 159.992 225.679 160.328V163H224.983L224.919 162.312C224.866 162.419 224.796 162.52 224.711 162.616C224.631 162.712 224.535 162.797 224.423 162.872C224.316 162.941 224.194 162.995 224.055 163.032C223.916 163.075 223.764 163.096 223.599 163.096ZM223.743 162.448C223.903 162.448 224.05 162.413 224.183 162.344C224.322 162.269 224.442 162.171 224.543 162.048C224.644 161.925 224.722 161.787 224.775 161.632C224.834 161.472 224.866 161.307 224.871 161.136V161.072H223.935C223.711 161.072 223.53 161.101 223.391 161.16C223.252 161.213 223.151 161.293 223.087 161.4C223.023 161.501 222.991 161.619 222.991 161.752C222.991 161.891 223.02 162.013 223.079 162.12C223.138 162.221 223.223 162.301 223.335 162.36C223.452 162.419 223.588 162.448 223.743 162.448ZM226.794 163V157.24H227.594V163H226.794ZM230.802 163V158.792H231.522L231.586 159.552C231.688 159.36 231.816 159.203 231.97 159.08C232.125 158.952 232.312 158.856 232.53 158.792C232.749 158.728 232.994 158.696 233.266 158.696V159.536H232.794C232.64 159.536 232.49 159.557 232.346 159.6C232.208 159.637 232.082 159.701 231.97 159.792C231.858 159.883 231.768 160.005 231.698 160.16C231.634 160.315 231.602 160.512 231.602 160.752V163H230.802ZM235.704 163.096C235.325 163.096 234.989 163.005 234.696 162.824C234.402 162.643 234.173 162.389 234.008 162.064C233.842 161.733 233.76 161.347 233.76 160.904C233.76 160.467 233.84 160.083 234 159.752C234.165 159.416 234.394 159.157 234.688 158.976C234.986 158.789 235.33 158.696 235.72 158.696C236.125 158.696 236.466 158.787 236.744 158.968C237.026 159.149 237.24 159.395 237.384 159.704C237.528 160.008 237.6 160.347 237.6 160.72C237.6 160.773 237.6 160.829 237.6 160.888C237.6 160.947 237.594 161.011 237.584 161.08H234.344V160.52H236.808C236.797 160.147 236.688 159.861 236.48 159.664C236.272 159.461 236.016 159.36 235.712 159.36C235.498 159.36 235.304 159.413 235.128 159.52C234.952 159.621 234.81 159.773 234.704 159.976C234.597 160.179 234.544 160.435 234.544 160.744V160.968C234.544 161.288 234.594 161.557 234.696 161.776C234.802 161.989 234.941 162.152 235.112 162.264C235.288 162.376 235.485 162.432 235.704 162.432C235.976 162.432 236.189 162.381 236.344 162.28C236.498 162.179 236.613 162.035 236.688 161.848H237.488C237.418 162.083 237.301 162.296 237.136 162.488C236.976 162.675 236.776 162.824 236.536 162.936C236.296 163.043 236.018 163.096 235.704 163.096ZM238.529 164.76V158.792H239.249L239.329 159.416C239.409 159.283 239.513 159.163 239.641 159.056C239.769 158.949 239.921 158.864 240.097 158.8C240.273 158.731 240.478 158.696 240.713 158.696C241.091 158.696 241.422 158.792 241.705 158.984C241.993 159.176 242.214 159.437 242.369 159.768C242.529 160.099 242.609 160.477 242.609 160.904C242.609 161.325 242.526 161.701 242.361 162.032C242.201 162.363 241.977 162.624 241.689 162.816C241.406 163.003 241.081 163.096 240.713 163.096C240.393 163.096 240.115 163.035 239.881 162.912C239.646 162.784 239.462 162.608 239.329 162.384V164.76H238.529ZM240.569 162.4C240.803 162.4 241.011 162.341 241.193 162.224C241.374 162.101 241.518 161.928 241.625 161.704C241.737 161.475 241.793 161.205 241.793 160.896C241.793 160.587 241.737 160.32 241.625 160.096C241.518 159.872 241.374 159.699 241.193 159.576C241.011 159.453 240.803 159.392 240.569 159.392C240.318 159.392 240.099 159.453 239.913 159.576C239.731 159.699 239.59 159.872 239.489 160.096C239.387 160.32 239.337 160.587 239.337 160.896C239.337 161.205 239.387 161.472 239.489 161.696C239.59 161.92 239.731 162.093 239.913 162.216C240.099 162.339 240.318 162.4 240.569 162.4ZM243.583 163V158.792H244.303L244.367 159.552C244.469 159.36 244.597 159.203 244.751 159.08C244.906 158.952 245.093 158.856 245.311 158.792C245.53 158.728 245.775 158.696 246.047 158.696V159.536H245.575C245.421 159.536 245.271 159.557 245.127 159.6C244.989 159.637 244.863 159.701 244.751 159.792C244.639 159.883 244.549 160.005 244.479 160.16C244.415 160.315 244.383 160.512 244.383 160.752V163H243.583ZM248.485 163.096C248.106 163.096 247.77 163.005 247.477 162.824C247.183 162.643 246.954 162.389 246.789 162.064C246.623 161.733 246.541 161.347 246.541 160.904C246.541 160.467 246.621 160.083 246.781 159.752C246.946 159.416 247.175 159.157 247.469 158.976C247.767 158.789 248.111 158.696 248.501 158.696C248.906 158.696 249.247 158.787 249.525 158.968C249.807 159.149 250.021 159.395 250.165 159.704C250.309 160.008 250.381 160.347 250.381 160.72C250.381 160.773 250.381 160.829 250.381 160.888C250.381 160.947 250.375 161.011 250.365 161.08H247.125V160.52H249.589C249.578 160.147 249.469 159.861 249.261 159.664C249.053 159.461 248.797 159.36 248.493 159.36C248.279 159.36 248.085 159.413 247.909 159.52C247.733 159.621 247.591 159.773 247.485 159.976C247.378 160.179 247.325 160.435 247.325 160.744V160.968C247.325 161.288 247.375 161.557 247.477 161.776C247.583 161.989 247.722 162.152 247.893 162.264C248.069 162.376 248.266 162.432 248.485 162.432C248.757 162.432 248.97 162.381 249.125 162.28C249.279 162.179 249.394 162.035 249.469 161.848H250.269C250.199 162.083 250.082 162.296 249.917 162.488C249.757 162.675 249.557 162.824 249.317 162.936C249.077 163.043 248.799 163.096 248.485 163.096ZM252.87 163.096C252.475 163.096 252.15 163.037 251.894 162.92C251.643 162.803 251.454 162.643 251.326 162.44C251.198 162.232 251.121 161.992 251.094 161.72H251.902C251.923 161.853 251.969 161.976 252.038 162.088C252.107 162.195 252.211 162.283 252.35 162.352C252.489 162.416 252.662 162.448 252.87 162.448C253.035 162.448 253.177 162.424 253.294 162.376C253.417 162.323 253.507 162.251 253.566 162.16C253.63 162.064 253.662 161.955 253.662 161.832C253.662 161.672 253.625 161.547 253.55 161.456C253.481 161.365 253.374 161.296 253.23 161.248C253.091 161.2 252.918 161.165 252.71 161.144C252.475 161.107 252.265 161.059 252.078 161C251.891 160.941 251.734 160.864 251.606 160.768C251.478 160.672 251.379 160.552 251.31 160.408C251.246 160.264 251.214 160.091 251.214 159.888C251.214 159.659 251.275 159.453 251.398 159.272C251.526 159.091 251.707 158.949 251.942 158.848C252.177 158.747 252.457 158.696 252.782 158.696C253.251 158.696 253.619 158.803 253.886 159.016C254.158 159.224 254.321 159.52 254.374 159.904H253.598C253.571 159.728 253.486 159.592 253.342 159.496C253.198 159.395 253.009 159.344 252.774 159.344C252.523 159.344 252.331 159.392 252.198 159.488C252.07 159.579 252.006 159.699 252.006 159.848C252.006 159.96 252.035 160.061 252.094 160.152C252.153 160.237 252.251 160.312 252.39 160.376C252.529 160.435 252.718 160.48 252.958 160.512C253.294 160.555 253.574 160.619 253.798 160.704C254.027 160.789 254.198 160.917 254.31 161.088C254.427 161.253 254.483 161.483 254.478 161.776C254.478 162.059 254.409 162.299 254.27 162.496C254.137 162.688 253.95 162.837 253.71 162.944C253.47 163.045 253.19 163.096 252.87 163.096ZM257.25 163.096C256.872 163.096 256.536 163.005 256.242 162.824C255.949 162.643 255.72 162.389 255.554 162.064C255.389 161.733 255.306 161.347 255.306 160.904C255.306 160.467 255.386 160.083 255.546 159.752C255.712 159.416 255.941 159.157 256.234 158.976C256.533 158.789 256.877 158.696 257.266 158.696C257.672 158.696 258.013 158.787 258.29 158.968C258.573 159.149 258.786 159.395 258.93 159.704C259.074 160.008 259.146 160.347 259.146 160.72C259.146 160.773 259.146 160.829 259.146 160.888C259.146 160.947 259.141 161.011 259.13 161.08H255.89V160.52H258.354C258.344 160.147 258.234 159.861 258.026 159.664C257.818 159.461 257.562 159.36 257.258 159.36C257.045 159.36 256.85 159.413 256.674 159.52C256.498 159.621 256.357 159.773 256.25 159.976C256.144 160.179 256.09 160.435 256.09 160.744V160.968C256.09 161.288 256.141 161.557 256.242 161.776C256.349 161.989 256.488 162.152 256.658 162.264C256.834 162.376 257.032 162.432 257.25 162.432C257.522 162.432 257.736 162.381 257.89 162.28C258.045 162.179 258.16 162.035 258.234 161.848H259.034C258.965 162.083 258.848 162.296 258.682 162.488C258.522 162.675 258.322 162.824 258.082 162.936C257.842 163.043 257.565 163.096 257.25 163.096ZM260.076 163V158.792H260.796L260.844 159.44C260.961 159.205 261.134 159.024 261.364 158.896C261.593 158.763 261.862 158.696 262.172 158.696C262.486 158.696 262.758 158.757 262.988 158.88C263.217 158.997 263.393 159.179 263.516 159.424C263.644 159.664 263.708 159.968 263.708 160.336V163H262.908V160.416C262.908 160.075 262.822 159.816 262.652 159.64C262.481 159.464 262.249 159.376 261.956 159.376C261.758 159.376 261.577 159.421 261.412 159.512C261.252 159.603 261.121 159.736 261.02 159.912C260.924 160.088 260.876 160.301 260.876 160.552V163H260.076ZM266.53 163C266.274 163 266.052 162.96 265.866 162.88C265.679 162.8 265.535 162.667 265.434 162.48C265.332 162.293 265.282 162.04 265.282 161.72V159.464H264.554V158.792H265.282L265.386 157.704H266.082V158.792H267.242V159.464H266.082V161.728C266.082 161.957 266.13 162.115 266.226 162.2C266.322 162.28 266.487 162.32 266.722 162.32H267.242V163H266.53ZM269.505 163.096C269.18 163.096 268.911 163.037 268.697 162.92C268.484 162.803 268.324 162.645 268.217 162.448C268.111 162.245 268.057 162.029 268.057 161.8C268.057 161.533 268.127 161.304 268.265 161.112C268.404 160.915 268.599 160.765 268.849 160.664C269.105 160.557 269.409 160.504 269.761 160.504H270.785C270.785 160.248 270.756 160.037 270.697 159.872C270.644 159.701 270.551 159.573 270.417 159.488C270.284 159.403 270.103 159.36 269.873 159.36C269.649 159.36 269.46 159.413 269.305 159.52C269.151 159.627 269.052 159.787 269.009 160H268.209C268.241 159.723 268.335 159.488 268.489 159.296C268.644 159.099 268.841 158.949 269.081 158.848C269.327 158.747 269.591 158.696 269.873 158.696C270.257 158.696 270.575 158.763 270.825 158.896C271.081 159.029 271.271 159.219 271.393 159.464C271.521 159.704 271.585 159.992 271.585 160.328V163H270.889L270.825 162.312C270.772 162.419 270.703 162.52 270.617 162.616C270.537 162.712 270.441 162.797 270.329 162.872C270.223 162.941 270.1 162.995 269.961 163.032C269.823 163.075 269.671 163.096 269.505 163.096ZM269.649 162.448C269.809 162.448 269.956 162.413 270.089 162.344C270.228 162.269 270.348 162.171 270.449 162.048C270.551 161.925 270.628 161.787 270.681 161.632C270.74 161.472 270.772 161.307 270.777 161.136V161.072H269.841C269.617 161.072 269.436 161.101 269.297 161.16C269.159 161.213 269.057 161.293 268.993 161.4C268.929 161.501 268.897 161.619 268.897 161.752C268.897 161.891 268.927 162.013 268.985 162.12C269.044 162.221 269.129 162.301 269.241 162.36C269.359 162.419 269.495 162.448 269.649 162.448ZM274.327 163C274.071 163 273.849 162.96 273.663 162.88C273.476 162.8 273.332 162.667 273.231 162.48C273.129 162.293 273.079 162.04 273.079 161.72V159.464H272.351V158.792H273.079L273.183 157.704H273.879V158.792H275.039V159.464H273.879V161.728C273.879 161.957 273.927 162.115 274.023 162.2C274.119 162.28 274.284 162.32 274.519 162.32H275.039V163H274.327ZM276.03 163V158.792H276.83V163H276.03ZM276.43 158.088C276.275 158.088 276.147 158.04 276.046 157.944C275.95 157.848 275.902 157.725 275.902 157.576C275.902 157.432 275.95 157.315 276.046 157.224C276.147 157.128 276.275 157.08 276.43 157.08C276.579 157.08 276.705 157.128 276.806 157.224C276.907 157.315 276.958 157.432 276.958 157.576C276.958 157.725 276.907 157.848 276.806 157.944C276.705 158.04 276.579 158.088 276.43 158.088ZM279.838 163.096C279.448 163.096 279.102 163.005 278.798 162.824C278.494 162.637 278.259 162.379 278.094 162.048C277.928 161.717 277.846 161.333 277.846 160.896C277.846 160.453 277.928 160.069 278.094 159.744C278.264 159.413 278.502 159.157 278.806 158.976C279.11 158.789 279.459 158.696 279.854 158.696C280.248 158.696 280.595 158.789 280.894 158.976C281.192 159.157 281.424 159.413 281.59 159.744C281.76 160.069 281.845 160.453 281.845 160.896C281.845 161.333 281.76 161.717 281.59 162.048C281.424 162.379 281.19 162.637 280.886 162.824C280.587 163.005 280.238 163.096 279.838 163.096ZM279.838 162.408C280.067 162.408 280.27 162.352 280.446 162.24C280.627 162.128 280.768 161.96 280.87 161.736C280.976 161.507 281.03 161.227 281.03 160.896C281.03 160.56 280.979 160.28 280.878 160.056C280.776 159.832 280.638 159.664 280.462 159.552C280.286 159.44 280.083 159.384 279.854 159.384C279.63 159.384 279.427 159.44 279.246 159.552C279.07 159.664 278.928 159.832 278.822 160.056C278.715 160.28 278.662 160.56 278.662 160.896C278.662 161.227 278.712 161.507 278.814 161.736C278.92 161.96 279.062 162.128 279.238 162.24C279.414 162.352 279.614 162.408 279.838 162.408ZM282.818 163V158.792H283.538L283.586 159.44C283.703 159.205 283.876 159.024 284.106 158.896C284.335 158.763 284.604 158.696 284.914 158.696C285.228 158.696 285.5 158.757 285.73 158.88C285.959 158.997 286.135 159.179 286.258 159.424C286.386 159.664 286.45 159.968 286.45 160.336V163H285.65V160.416C285.65 160.075 285.564 159.816 285.394 159.64C285.223 159.464 284.991 159.376 284.698 159.376C284.5 159.376 284.319 159.421 284.154 159.512C283.994 159.603 283.863 159.736 283.762 159.912C283.666 160.088 283.618 160.301 283.618 160.552V163H282.818ZM221.634 174.096C221.245 174.096 220.898 174.005 220.594 173.824C220.29 173.637 220.056 173.379 219.89 173.048C219.725 172.717 219.642 172.333 219.642 171.896C219.642 171.453 219.725 171.069 219.89 170.744C220.061 170.413 220.298 170.157 220.602 169.976C220.906 169.789 221.256 169.696 221.65 169.696C222.045 169.696 222.392 169.789 222.69 169.976C222.989 170.157 223.221 170.413 223.386 170.744C223.557 171.069 223.642 171.453 223.642 171.896C223.642 172.333 223.557 172.717 223.386 173.048C223.221 173.379 222.986 173.637 222.682 173.824C222.384 174.005 222.034 174.096 221.634 174.096ZM221.634 173.408C221.864 173.408 222.066 173.352 222.242 173.24C222.424 173.128 222.565 172.96 222.666 172.736C222.773 172.507 222.826 172.227 222.826 171.896C222.826 171.56 222.776 171.28 222.674 171.056C222.573 170.832 222.434 170.664 222.258 170.552C222.082 170.44 221.88 170.384 221.65 170.384C221.426 170.384 221.224 170.44 221.042 170.552C220.866 170.664 220.725 170.832 220.618 171.056C220.512 171.28 220.458 171.56 220.458 171.896C220.458 172.227 220.509 172.507 220.61 172.736C220.717 172.96 220.858 173.128 221.034 173.24C221.21 173.352 221.41 173.408 221.634 173.408ZM224.863 174V169.424C224.863 169.147 224.911 168.92 225.007 168.744C225.103 168.568 225.241 168.44 225.423 168.36C225.604 168.28 225.823 168.24 226.079 168.24H226.711V168.92H226.207C226.015 168.92 225.876 168.96 225.791 169.04C225.705 169.12 225.663 169.253 225.663 169.44V174H224.863ZM224.231 170.464V169.792H226.743V170.464H224.231ZM231.374 174C231.118 174 230.896 173.96 230.71 173.88C230.523 173.8 230.379 173.667 230.278 173.48C230.176 173.293 230.126 173.04 230.126 172.72V170.464H229.398V169.792H230.126L230.23 168.704H230.926V169.792H232.086V170.464H230.926V172.728C230.926 172.957 230.974 173.115 231.07 173.2C231.166 173.28 231.331 173.32 231.566 173.32H232.086V174H231.374ZM233.021 174V169.792H233.741L233.805 170.552C233.906 170.36 234.034 170.203 234.189 170.08C234.344 169.952 234.53 169.856 234.749 169.792C234.968 169.728 235.213 169.696 235.485 169.696V170.536H235.013C234.858 170.536 234.709 170.557 234.565 170.6C234.426 170.637 234.301 170.701 234.189 170.792C234.077 170.883 233.986 171.005 233.917 171.16C233.853 171.315 233.821 171.512 233.821 171.752V174H233.021ZM237.576 174.096C237.25 174.096 236.981 174.037 236.768 173.92C236.554 173.803 236.394 173.645 236.288 173.448C236.181 173.245 236.128 173.029 236.128 172.8C236.128 172.533 236.197 172.304 236.336 172.112C236.474 171.915 236.669 171.765 236.92 171.664C237.176 171.557 237.48 171.504 237.832 171.504H238.856C238.856 171.248 238.826 171.037 238.768 170.872C238.714 170.701 238.621 170.573 238.488 170.488C238.354 170.403 238.173 170.36 237.944 170.36C237.72 170.36 237.53 170.413 237.376 170.52C237.221 170.627 237.122 170.787 237.08 171H236.28C236.312 170.723 236.405 170.488 236.56 170.296C236.714 170.099 236.912 169.949 237.152 169.848C237.397 169.747 237.661 169.696 237.944 169.696C238.328 169.696 238.645 169.763 238.896 169.896C239.152 170.029 239.341 170.219 239.464 170.464C239.592 170.704 239.656 170.992 239.656 171.328V174H238.96L238.896 173.312C238.842 173.419 238.773 173.52 238.688 173.616C238.608 173.712 238.512 173.797 238.4 173.872C238.293 173.941 238.17 173.995 238.032 174.032C237.893 174.075 237.741 174.096 237.576 174.096ZM237.72 173.448C237.88 173.448 238.026 173.413 238.16 173.344C238.298 173.269 238.418 173.171 238.52 173.048C238.621 172.925 238.698 172.787 238.752 172.632C238.81 172.472 238.842 172.307 238.848 172.136V172.072H237.912C237.688 172.072 237.506 172.101 237.368 172.16C237.229 172.213 237.128 172.293 237.064 172.4C237 172.501 236.968 172.619 236.968 172.752C236.968 172.891 236.997 173.013 237.056 173.12C237.114 173.221 237.2 173.301 237.312 173.36C237.429 173.419 237.565 173.448 237.72 173.448ZM241.019 174V169.424C241.019 169.147 241.067 168.92 241.163 168.744C241.259 168.568 241.398 168.44 241.579 168.36C241.76 168.28 241.979 168.24 242.235 168.24H242.867V168.92H242.363C242.171 168.92 242.032 168.96 241.947 169.04C241.862 169.12 241.819 169.253 241.819 169.44V174H241.019ZM240.387 170.464V169.792H242.899V170.464H240.387ZM243.988 174V170.464H243.356V169.792H243.988V169.424C243.988 169.147 244.033 168.92 244.124 168.744C244.22 168.568 244.358 168.44 244.54 168.36C244.721 168.28 244.94 168.24 245.196 168.24H245.612V168.92H245.316C245.129 168.92 244.993 168.96 244.908 169.04C244.828 169.115 244.788 169.248 244.788 169.44V169.792H247.116V174H246.316V170.464H244.788V174H243.988ZM246.724 169.064C246.574 169.064 246.449 169.016 246.348 168.92C246.246 168.819 246.196 168.696 246.196 168.552C246.196 168.403 246.246 168.283 246.348 168.192C246.449 168.101 246.574 168.056 246.724 168.056C246.878 168.056 247.004 168.101 247.1 168.192C247.201 168.283 247.252 168.403 247.252 168.552C247.252 168.696 247.201 168.819 247.1 168.92C247.004 169.016 246.878 169.064 246.724 169.064ZM250.15 174.096C249.761 174.096 249.414 174.005 249.11 173.824C248.806 173.637 248.569 173.379 248.398 173.048C248.228 172.717 248.142 172.339 248.142 171.912C248.142 171.469 248.228 171.083 248.398 170.752C248.569 170.421 248.806 170.163 249.11 169.976C249.414 169.789 249.761 169.696 250.15 169.696C250.646 169.696 251.06 169.829 251.39 170.096C251.721 170.357 251.934 170.712 252.03 171.16H251.198C251.14 170.915 251.014 170.725 250.822 170.592C250.63 170.453 250.404 170.384 250.142 170.384C249.913 170.384 249.708 170.443 249.526 170.56C249.35 170.672 249.212 170.84 249.11 171.064C249.009 171.288 248.958 171.565 248.958 171.896C248.958 172.141 248.985 172.36 249.038 172.552C249.097 172.744 249.177 172.904 249.278 173.032C249.385 173.155 249.51 173.251 249.654 173.32C249.804 173.384 249.966 173.416 250.142 173.416C250.318 173.416 250.478 173.387 250.622 173.328C250.772 173.264 250.894 173.173 250.99 173.056C251.092 172.939 251.161 172.797 251.198 172.632H252.03C251.94 173.069 251.726 173.424 251.39 173.696C251.054 173.963 250.641 174.096 250.15 174.096ZM255.132 174V169.792H255.932V174H255.132ZM255.532 169.088C255.377 169.088 255.249 169.04 255.148 168.944C255.052 168.848 255.004 168.725 255.004 168.576C255.004 168.432 255.052 168.315 255.148 168.224C255.249 168.128 255.377 168.08 255.532 168.08C255.681 168.08 255.806 168.128 255.908 168.224C256.009 168.315 256.06 168.432 256.06 168.576C256.06 168.725 256.009 168.848 255.908 168.944C255.806 169.04 255.681 169.088 255.532 169.088ZM257.099 174V169.792H257.819L257.867 170.44C257.984 170.205 258.158 170.024 258.387 169.896C258.616 169.763 258.886 169.696 259.195 169.696C259.51 169.696 259.782 169.757 260.011 169.88C260.24 169.997 260.416 170.179 260.539 170.424C260.667 170.664 260.731 170.968 260.731 171.336V174H259.931V171.416C259.931 171.075 259.846 170.816 259.675 170.64C259.504 170.464 259.272 170.376 258.979 170.376C258.782 170.376 258.6 170.421 258.435 170.512C258.275 170.603 258.144 170.736 258.043 170.912C257.947 171.088 257.899 171.301 257.899 171.552V174H257.099ZM263.697 174.096C263.308 174.096 262.961 174.005 262.657 173.824C262.353 173.637 262.116 173.379 261.945 173.048C261.775 172.717 261.689 172.339 261.689 171.912C261.689 171.469 261.775 171.083 261.945 170.752C262.116 170.421 262.353 170.163 262.657 169.976C262.961 169.789 263.308 169.696 263.697 169.696C264.193 169.696 264.607 169.829 264.937 170.096C265.268 170.357 265.481 170.712 265.577 171.16H264.745C264.687 170.915 264.561 170.725 264.369 170.592C264.177 170.453 263.951 170.384 263.689 170.384C263.46 170.384 263.255 170.443 263.073 170.56C262.897 170.672 262.759 170.84 262.657 171.064C262.556 171.288 262.505 171.565 262.505 171.896C262.505 172.141 262.532 172.36 262.585 172.552C262.644 172.744 262.724 172.904 262.825 173.032C262.932 173.155 263.057 173.251 263.201 173.32C263.351 173.384 263.513 173.416 263.689 173.416C263.865 173.416 264.025 173.387 264.169 173.328C264.319 173.264 264.441 173.173 264.537 173.056C264.639 172.939 264.708 172.797 264.745 172.632H265.577C265.487 173.069 265.273 173.424 264.937 173.696C264.601 173.963 264.188 174.096 263.697 174.096ZM266.544 174V169.792H267.264L267.328 170.552C267.43 170.36 267.558 170.203 267.712 170.08C267.867 169.952 268.054 169.856 268.272 169.792C268.491 169.728 268.736 169.696 269.008 169.696V170.536H268.536C268.382 170.536 268.232 170.557 268.088 170.6C267.95 170.637 267.824 170.701 267.712 170.792C267.6 170.883 267.51 171.005 267.44 171.16C267.376 171.315 267.344 171.512 267.344 171.752V174H266.544ZM271.446 174.096C271.067 174.096 270.731 174.005 270.438 173.824C270.144 173.643 269.915 173.389 269.75 173.064C269.584 172.733 269.502 172.347 269.502 171.904C269.502 171.467 269.582 171.083 269.742 170.752C269.907 170.416 270.136 170.157 270.43 169.976C270.728 169.789 271.072 169.696 271.462 169.696C271.867 169.696 272.208 169.787 272.486 169.968C272.768 170.149 272.982 170.395 273.126 170.704C273.27 171.008 273.342 171.347 273.342 171.72C273.342 171.773 273.342 171.829 273.342 171.888C273.342 171.947 273.336 172.011 273.326 172.08H270.086V171.52H272.55C272.539 171.147 272.43 170.861 272.222 170.664C272.014 170.461 271.758 170.36 271.454 170.36C271.24 170.36 271.046 170.413 270.87 170.52C270.694 170.621 270.552 170.773 270.446 170.976C270.339 171.179 270.286 171.435 270.286 171.744V171.968C270.286 172.288 270.336 172.557 270.438 172.776C270.544 172.989 270.683 173.152 270.854 173.264C271.03 173.376 271.227 173.432 271.446 173.432C271.718 173.432 271.931 173.381 272.086 173.28C272.24 173.179 272.355 173.035 272.43 172.848H273.23C273.16 173.083 273.043 173.296 272.878 173.488C272.718 173.675 272.518 173.824 272.278 173.936C272.038 174.043 271.76 174.096 271.446 174.096ZM275.599 174.096C275.274 174.096 275.004 174.037 274.791 173.92C274.578 173.803 274.418 173.645 274.311 173.448C274.204 173.245 274.151 173.029 274.151 172.8C274.151 172.533 274.22 172.304 274.359 172.112C274.498 171.915 274.692 171.765 274.943 171.664C275.199 171.557 275.503 171.504 275.855 171.504H276.879C276.879 171.248 276.85 171.037 276.791 170.872C276.738 170.701 276.644 170.573 276.511 170.488C276.378 170.403 276.196 170.36 275.967 170.36C275.743 170.36 275.554 170.413 275.399 170.52C275.244 170.627 275.146 170.787 275.103 171H274.303C274.335 170.723 274.428 170.488 274.583 170.296C274.738 170.099 274.935 169.949 275.175 169.848C275.42 169.747 275.684 169.696 275.967 169.696C276.351 169.696 276.668 169.763 276.919 169.896C277.175 170.029 277.364 170.219 277.487 170.464C277.615 170.704 277.679 170.992 277.679 171.328V174H276.983L276.919 173.312C276.866 173.419 276.796 173.52 276.711 173.616C276.631 173.712 276.535 173.797 276.423 173.872C276.316 173.941 276.194 173.995 276.055 174.032C275.916 174.075 275.764 174.096 275.599 174.096ZM275.743 173.448C275.903 173.448 276.05 173.413 276.183 173.344C276.322 173.269 276.442 173.171 276.543 173.048C276.644 172.925 276.722 172.787 276.775 172.632C276.834 172.472 276.866 172.307 276.871 172.136V172.072H275.935C275.711 172.072 275.53 172.101 275.391 172.16C275.252 172.213 275.151 172.293 275.087 172.4C275.023 172.501 274.991 172.619 274.991 172.752C274.991 172.891 275.02 173.013 275.079 173.12C275.138 173.221 275.223 173.301 275.335 173.36C275.452 173.419 275.588 173.448 275.743 173.448ZM280.354 174.096C279.96 174.096 279.634 174.037 279.378 173.92C279.128 173.803 278.938 173.643 278.81 173.44C278.682 173.232 278.605 172.992 278.578 172.72H279.386C279.408 172.853 279.453 172.976 279.522 173.088C279.592 173.195 279.696 173.283 279.834 173.352C279.973 173.416 280.146 173.448 280.354 173.448C280.52 173.448 280.661 173.424 280.778 173.376C280.901 173.323 280.992 173.251 281.05 173.16C281.114 173.064 281.146 172.955 281.146 172.832C281.146 172.672 281.109 172.547 281.034 172.456C280.965 172.365 280.858 172.296 280.714 172.248C280.576 172.2 280.402 172.165 280.194 172.144C279.96 172.107 279.749 172.059 279.562 172C279.376 171.941 279.218 171.864 279.09 171.768C278.962 171.672 278.864 171.552 278.794 171.408C278.73 171.264 278.698 171.091 278.698 170.888C278.698 170.659 278.76 170.453 278.882 170.272C279.01 170.091 279.192 169.949 279.426 169.848C279.661 169.747 279.941 169.696 280.266 169.696C280.736 169.696 281.104 169.803 281.37 170.016C281.642 170.224 281.805 170.52 281.858 170.904H281.082C281.056 170.728 280.97 170.592 280.826 170.496C280.682 170.395 280.493 170.344 280.258 170.344C280.008 170.344 279.816 170.392 279.682 170.488C279.554 170.579 279.49 170.699 279.49 170.848C279.49 170.96 279.52 171.061 279.578 171.152C279.637 171.237 279.736 171.312 279.874 171.376C280.013 171.435 280.202 171.48 280.442 171.512C280.778 171.555 281.058 171.619 281.282 171.704C281.512 171.789 281.682 171.917 281.794 172.088C281.912 172.253 281.968 172.483 281.962 172.776C281.962 173.059 281.893 173.299 281.754 173.496C281.621 173.688 281.434 173.837 281.194 173.944C280.954 174.045 280.674 174.096 280.354 174.096ZM284.735 174.096C284.356 174.096 284.02 174.005 283.727 173.824C283.433 173.643 283.204 173.389 283.039 173.064C282.873 172.733 282.791 172.347 282.791 171.904C282.791 171.467 282.871 171.083 283.031 170.752C283.196 170.416 283.425 170.157 283.719 169.976C284.017 169.789 284.361 169.696 284.751 169.696C285.156 169.696 285.497 169.787 285.775 169.968C286.057 170.149 286.271 170.395 286.415 170.704C286.559 171.008 286.631 171.347 286.631 171.72C286.631 171.773 286.631 171.829 286.631 171.888C286.631 171.947 286.625 172.011 286.615 172.08H283.375V171.52H285.839C285.828 171.147 285.719 170.861 285.511 170.664C285.303 170.461 285.047 170.36 284.743 170.36C284.529 170.36 284.335 170.413 284.159 170.52C283.983 170.621 283.841 170.773 283.735 170.976C283.628 171.179 283.575 171.435 283.575 171.744V171.968C283.575 172.288 283.625 172.557 283.727 172.776C283.833 172.989 283.972 173.152 284.143 173.264C284.319 173.376 284.516 173.432 284.735 173.432C285.007 173.432 285.22 173.381 285.375 173.28C285.529 173.179 285.644 173.035 285.719 172.848H286.519C286.449 173.083 286.332 173.296 286.167 173.488C286.007 173.675 285.807 173.824 285.567 173.936C285.327 174.043 285.049 174.096 284.735 174.096Z" fill="#051A2F"/>
<path opacity="0.2" d="M286.215 29.7835C286.878 28.6178 286.798 27.134 286.014 26.0576L264.116 -4L306.325 -4C307.732 -4 309.062 -3.30953 309.934 -2.12623L328.683 23.3239C330.27 25.4778 330.438 28.4612 329.104 30.8036L310.1 64.1867C309.265 65.6525 307.778 66.5469 306.174 66.5469H294.4L315.326 29.789C315.991 28.6206 315.909 27.1329 315.12 26.0562L302.717 9.125L289.183 9.125L299.586 23.3267C301.163 25.48 301.327 28.4554 299.997 30.7922L278.79 68.0437C278.128 69.2057 278.205 70.6842 278.983 71.7602L300.126 101L257.927 101C256.514 101 255.179 100.304 254.308 99.1124L236.303 74.4922C234.729 72.339 234.566 69.3661 235.896 67.031L254.441 34.454C255.276 32.9882 256.763 32.0937 258.367 32.0937H270.141L249.683 68.0307C249.018 69.1991 249.1 70.6868 249.888 71.7635L261.691 87.875H275.226L265.423 74.493C263.845 72.3397 263.682 69.3643 265.012 67.0275L286.215 29.7835Z" fill="#C8DDF1"/>
</g>
<defs>
<clipPath id="clip0_10729_360">
<rect width="310" height="269" fill="white"/>
</clipPath>
<clipPath id="clip1_10729_360">
<rect x="25" y="194" width="260" height="40" rx="20" fill="white"/>
</clipPath>
</defs>
</svg>
