<svg width="300" height="269" viewBox="0 0 300 269" fill="none" xmlns="http://www.w3.org/2000/svg">
<rect width="300" height="269" fill="white"/>
<path d="M116.6 49.24C115.587 49.24 114.687 49.06 113.9 48.7C113.127 48.34 112.513 47.8267 112.06 47.16C111.62 46.4933 111.393 45.7 111.38 44.78H113.92C113.933 45.2467 114.047 45.6667 114.26 46.04C114.473 46.4 114.773 46.6867 115.16 46.9C115.56 47.1133 116.04 47.22 116.6 47.22C117.08 47.22 117.493 47.1467 117.84 47C118.2 46.84 118.473 46.62 118.66 46.34C118.86 46.0467 118.96 45.7067 118.96 45.32C118.96 44.88 118.853 44.5133 118.64 44.22C118.427 43.9267 118.14 43.6867 117.78 43.5C117.42 43.3 117.007 43.1267 116.54 42.98C116.073 42.82 115.58 42.6533 115.06 42.48C113.967 42.1067 113.14 41.6333 112.58 41.06C112.02 40.4733 111.74 39.6933 111.74 38.72C111.74 37.9067 111.933 37.2067 112.32 36.62C112.707 36.0333 113.253 35.58 113.96 35.26C114.667 34.9267 115.473 34.76 116.38 34.76C117.313 34.76 118.127 34.9267 118.82 35.26C119.527 35.5933 120.08 36.06 120.48 36.66C120.893 37.2467 121.107 37.9533 121.12 38.78H118.56C118.547 38.4333 118.453 38.1133 118.28 37.82C118.107 37.5133 117.853 37.2667 117.52 37.08C117.2 36.88 116.807 36.78 116.34 36.78C115.953 36.7667 115.6 36.8333 115.28 36.98C114.96 37.1133 114.707 37.3133 114.52 37.58C114.347 37.8333 114.26 38.1533 114.26 38.54C114.26 38.9133 114.347 39.2267 114.52 39.48C114.693 39.72 114.933 39.9267 115.24 40.1C115.56 40.26 115.933 40.4133 116.36 40.56C116.787 40.7067 117.253 40.8667 117.76 41.04C118.453 41.2667 119.08 41.5467 119.64 41.88C120.213 42.2 120.667 42.62 121 43.14C121.333 43.66 121.5 44.3333 121.5 45.16C121.5 45.88 121.313 46.5533 120.94 47.18C120.567 47.7933 120.02 48.2933 119.3 48.68C118.58 49.0533 117.68 49.24 116.6 49.24ZM128.415 49.24C127.468 49.24 126.608 49.02 125.835 48.58C125.075 48.14 124.475 47.5267 124.035 46.74C123.595 45.9533 123.375 45.0467 123.375 44.02C123.375 42.98 123.595 42.0667 124.035 41.28C124.488 40.4933 125.095 39.88 125.855 39.44C126.628 39 127.488 38.78 128.435 38.78C129.395 38.78 130.255 39 131.015 39.44C131.788 39.88 132.395 40.4933 132.835 41.28C133.275 42.0533 133.495 42.9667 133.495 44.02C133.495 45.0467 133.268 45.9533 132.815 46.74C132.375 47.5267 131.768 48.14 130.995 48.58C130.235 49.02 129.375 49.24 128.415 49.24ZM128.415 47.18C128.895 47.18 129.328 47.06 129.715 46.82C130.115 46.58 130.435 46.2267 130.675 45.76C130.928 45.2933 131.055 44.7067 131.055 44C131.055 43.3067 130.935 42.7267 130.695 42.26C130.455 41.7933 130.135 41.44 129.735 41.2C129.348 40.96 128.915 40.84 128.435 40.84C127.981 40.84 127.555 40.96 127.155 41.2C126.755 41.44 126.435 41.7933 126.195 42.26C125.955 42.7267 125.835 43.3133 125.835 44.02C125.835 44.7 125.955 45.28 126.195 45.76C126.435 46.2267 126.748 46.58 127.135 46.82C127.535 47.06 127.961 47.18 128.415 47.18ZM135.785 49V34.6H138.185V49H135.785ZM144.563 49.24C143.75 49.24 143.05 49.0733 142.463 48.74C141.89 48.4067 141.45 47.9067 141.143 47.24C140.837 46.5733 140.683 45.7467 140.683 44.76V39.02H143.083V44.52C143.083 45.4 143.263 46.0733 143.623 46.54C143.997 46.9933 144.557 47.22 145.303 47.22C145.783 47.22 146.217 47.1067 146.603 46.88C146.99 46.64 147.29 46.3 147.503 45.86C147.73 45.42 147.843 44.88 147.843 44.24V39.02H150.243V49H148.123L147.943 47.32C147.637 47.9067 147.19 48.3733 146.603 48.72C146.017 49.0667 145.337 49.24 144.563 49.24ZM157.235 49C156.555 49 155.961 48.8933 155.455 48.68C154.961 48.4667 154.575 48.1133 154.295 47.62C154.028 47.1267 153.895 46.46 153.895 45.62V41.02H152.175V39.02H153.895L154.155 36.4H156.275V39.02H159.015V41.02H156.295V45.62C156.295 46.1267 156.401 46.48 156.615 46.68C156.828 46.8667 157.195 46.96 157.715 46.96H158.935V49H157.235ZM161.335 49V39.02H163.735V49H161.335ZM162.535 37.38C162.095 37.38 161.728 37.2467 161.435 36.98C161.155 36.7 161.015 36.36 161.015 35.96C161.015 35.5467 161.155 35.2133 161.435 34.96C161.728 34.6933 162.095 34.56 162.535 34.56C162.975 34.56 163.335 34.6933 163.615 34.96C163.908 35.2133 164.055 35.5467 164.055 35.96C164.055 36.36 163.908 36.7 163.615 36.98C163.335 37.2467 162.975 37.38 162.535 37.38ZM171.168 49.24C170.222 49.24 169.362 49.02 168.588 48.58C167.828 48.14 167.228 47.5267 166.788 46.74C166.348 45.9533 166.128 45.0467 166.128 44.02C166.128 42.98 166.348 42.0667 166.788 41.28C167.242 40.4933 167.848 39.88 168.608 39.44C169.382 39 170.242 38.78 171.188 38.78C172.148 38.78 173.008 39 173.768 39.44C174.542 39.88 175.148 40.4933 175.588 41.28C176.028 42.0533 176.248 42.9667 176.248 44.02C176.248 45.0467 176.022 45.9533 175.568 46.74C175.128 47.5267 174.522 48.14 173.748 48.58C172.988 49.02 172.128 49.24 171.168 49.24ZM171.168 47.18C171.648 47.18 172.082 47.06 172.468 46.82C172.868 46.58 173.188 46.2267 173.428 45.76C173.682 45.2933 173.808 44.7067 173.808 44C173.808 43.3067 173.688 42.7267 173.448 42.26C173.208 41.7933 172.888 41.44 172.488 41.2C172.102 40.96 171.668 40.84 171.188 40.84C170.735 40.84 170.308 40.96 169.908 41.2C169.508 41.44 169.188 41.7933 168.948 42.26C168.708 42.7267 168.588 43.3133 168.588 44.02C168.588 44.7 168.708 45.28 168.948 45.76C169.188 46.2267 169.502 46.58 169.888 46.82C170.288 47.06 170.715 47.18 171.168 47.18ZM178.539 49V39.02H180.679L180.839 40.7C181.159 40.1133 181.605 39.6467 182.179 39.3C182.765 38.9533 183.445 38.78 184.219 38.78C185.045 38.78 185.745 38.9533 186.319 39.3C186.892 39.6333 187.332 40.1333 187.639 40.8C187.945 41.4667 188.099 42.2867 188.099 43.26V49H185.699V43.5C185.699 42.6333 185.512 41.9667 185.139 41.5C184.779 41.0333 184.225 40.8 183.479 40.8C182.999 40.8 182.565 40.92 182.179 41.16C181.792 41.4 181.485 41.74 181.259 42.18C181.045 42.6067 180.939 43.14 180.939 43.78V49H178.539Z" fill="#051A2F"/>
<path opacity="0.6" d="M92.55 75V65.2H95.434C96.582 65.2 97.5247 65.4007 98.262 65.802C99.0087 66.194 99.5593 66.7587 99.914 67.496C100.278 68.224 100.46 69.1013 100.46 70.128C100.46 71.136 100.278 72.004 99.914 72.732C99.5593 73.46 99.0087 74.02 98.262 74.412C97.5247 74.804 96.582 75 95.434 75H92.55ZM93.726 74.02H95.406C96.358 74.02 97.114 73.866 97.674 73.558C98.234 73.2407 98.6353 72.7927 98.878 72.214C99.1207 71.626 99.242 70.9307 99.242 70.128C99.242 69.3067 99.1207 68.602 98.878 68.014C98.6353 67.426 98.234 66.9733 97.674 66.656C97.114 66.3387 96.358 66.18 95.406 66.18H93.726V74.02ZM104.681 75.168C104.139 75.168 103.663 75.0607 103.253 74.846C102.851 74.6313 102.539 74.3 102.315 73.852C102.1 73.404 101.993 72.844 101.993 72.172V67.944H103.169V72.046C103.169 72.746 103.323 73.2733 103.631 73.628C103.939 73.9827 104.373 74.16 104.933 74.16C105.325 74.16 105.679 74.0667 105.997 73.88C106.314 73.684 106.561 73.4087 106.739 73.054C106.925 72.69 107.019 72.2467 107.019 71.724V67.944H108.195V75H107.131L107.061 73.768C106.846 74.2067 106.529 74.552 106.109 74.804C105.689 75.0467 105.213 75.168 104.681 75.168ZM110.144 75V67.944H111.208L111.292 69.288C111.451 68.9707 111.651 68.7 111.894 68.476C112.146 68.252 112.445 68.0793 112.79 67.958C113.145 67.8367 113.546 67.776 113.994 67.776V69.008H113.56C113.261 69.008 112.977 69.05 112.706 69.134C112.435 69.2087 112.193 69.3347 111.978 69.512C111.773 69.6893 111.609 69.932 111.488 70.24C111.376 70.5387 111.32 70.912 111.32 71.36V75H110.144ZM117.622 75.168C117.052 75.168 116.576 75.07 116.194 74.874C115.811 74.6687 115.526 74.4027 115.34 74.076C115.153 73.74 115.06 73.376 115.06 72.984C115.06 72.508 115.181 72.1067 115.424 71.78C115.676 71.444 116.026 71.192 116.474 71.024C116.931 70.8467 117.468 70.758 118.084 70.758H119.946C119.946 70.3193 119.876 69.9553 119.736 69.666C119.605 69.3673 119.409 69.1433 119.148 68.994C118.896 68.8447 118.578 68.77 118.196 68.77C117.748 68.77 117.36 68.882 117.034 69.106C116.707 69.33 116.506 69.6613 116.432 70.1H115.228C115.284 69.596 115.452 69.176 115.732 68.84C116.021 68.4947 116.385 68.2333 116.824 68.056C117.262 67.8693 117.72 67.776 118.196 67.776C118.849 67.776 119.39 67.8973 119.82 68.14C120.258 68.3733 120.585 68.7047 120.8 69.134C121.014 69.554 121.122 70.0533 121.122 70.632V75H120.072L120.002 73.754C119.908 73.95 119.787 74.1367 119.638 74.314C119.498 74.482 119.33 74.6313 119.134 74.762C118.938 74.8833 118.714 74.9813 118.462 75.056C118.219 75.1307 117.939 75.168 117.622 75.168ZM117.804 74.174C118.13 74.174 118.424 74.1087 118.686 73.978C118.956 73.838 119.185 73.6513 119.372 73.418C119.558 73.1753 119.698 72.9093 119.792 72.62C119.894 72.3307 119.946 72.0273 119.946 71.71V71.668H118.182C117.724 71.668 117.356 71.724 117.076 71.836C116.796 71.9387 116.595 72.088 116.474 72.284C116.352 72.4707 116.292 72.6853 116.292 72.928C116.292 73.18 116.348 73.3993 116.46 73.586C116.581 73.7727 116.754 73.9173 116.978 74.02C117.211 74.1227 117.486 74.174 117.804 74.174ZM125.522 75C125.102 75 124.738 74.9347 124.43 74.804C124.122 74.6733 123.884 74.454 123.716 74.146C123.557 73.8287 123.478 73.404 123.478 72.872V68.938H122.246V67.944H123.478L123.632 66.236H124.654V67.944H126.698V68.938H124.654V72.872C124.654 73.3107 124.742 73.6093 124.92 73.768C125.097 73.9173 125.41 73.992 125.858 73.992H126.614V75H125.522ZM128.344 75V67.944H129.52V75H128.344ZM128.932 66.446C128.699 66.446 128.503 66.3713 128.344 66.222C128.195 66.0633 128.12 65.8673 128.12 65.634C128.12 65.4007 128.195 65.214 128.344 65.074C128.503 64.9247 128.699 64.85 128.932 64.85C129.156 64.85 129.347 64.9247 129.506 65.074C129.665 65.214 129.744 65.4007 129.744 65.634C129.744 65.8673 129.665 66.0633 129.506 66.222C129.347 66.3713 129.156 66.446 128.932 66.446ZM134.745 75.168C134.092 75.168 133.504 75.0187 132.981 74.72C132.459 74.412 132.048 73.9827 131.749 73.432C131.451 72.872 131.301 72.2233 131.301 71.486C131.301 70.73 131.451 70.0767 131.749 69.526C132.057 68.966 132.473 68.5367 132.995 68.238C133.527 67.93 134.12 67.776 134.773 67.776C135.445 67.776 136.038 67.93 136.551 68.238C137.074 68.5367 137.485 68.966 137.783 69.526C138.091 70.0767 138.245 70.7253 138.245 71.472C138.245 72.2187 138.091 72.872 137.783 73.432C137.475 73.9827 137.06 74.412 136.537 74.72C136.015 75.0187 135.417 75.168 134.745 75.168ZM134.759 74.16C135.161 74.16 135.534 74.062 135.879 73.866C136.225 73.6607 136.505 73.3573 136.719 72.956C136.934 72.5547 137.041 72.06 137.041 71.472C137.041 70.8747 136.934 70.38 136.719 69.988C136.514 69.5867 136.239 69.288 135.893 69.092C135.557 68.8867 135.184 68.784 134.773 68.784C134.381 68.784 134.008 68.8867 133.653 69.092C133.308 69.288 133.028 69.5867 132.813 69.988C132.608 70.38 132.505 70.8747 132.505 71.472C132.505 72.06 132.608 72.5547 132.813 72.956C133.028 73.3573 133.303 73.6607 133.639 73.866C133.985 74.062 134.358 74.16 134.759 74.16ZM139.894 75V67.944H140.958L141.014 69.176C141.238 68.7373 141.555 68.3967 141.966 68.154C142.386 67.902 142.862 67.776 143.394 67.776C143.945 67.776 144.421 67.888 144.822 68.112C145.223 68.3267 145.536 68.658 145.76 69.106C145.984 69.5447 146.096 70.1047 146.096 70.786V75H144.92V70.912C144.92 70.2027 144.761 69.6707 144.444 69.316C144.136 68.9613 143.697 68.784 143.128 68.784C142.736 68.784 142.386 68.882 142.078 69.078C141.77 69.2647 141.523 69.54 141.336 69.904C141.159 70.2587 141.07 70.702 141.07 71.234V75H139.894ZM148.353 75.07C148.12 75.07 147.924 74.9953 147.765 74.846C147.616 74.6873 147.541 74.496 147.541 74.272C147.541 74.048 147.616 73.8613 147.765 73.712C147.924 73.5533 148.12 73.474 148.353 73.474C148.586 73.474 148.778 73.5533 148.927 73.712C149.076 73.8613 149.151 74.048 149.151 74.272C149.151 74.496 149.076 74.6873 148.927 74.846C148.778 74.9953 148.586 75.07 148.353 75.07ZM148.353 69.372C148.12 69.372 147.924 69.2973 147.765 69.148C147.616 68.9893 147.541 68.798 147.541 68.574C147.541 68.35 147.616 68.1633 147.765 68.014C147.924 67.8553 148.12 67.776 148.353 67.776C148.586 67.776 148.778 67.8553 148.927 68.014C149.076 68.1633 149.151 68.35 149.151 68.574C149.151 68.798 149.076 68.9893 148.927 69.148C148.778 69.2973 148.586 69.372 148.353 69.372ZM158.99 75V72.9H154.02V71.99L158.78 65.2H160.152V71.864H161.608V72.9H160.152V75H158.99ZM155.322 71.864H159.046V66.502L155.322 71.864ZM168.791 75L166.103 65.2H167.363L169.477 73.6L171.871 65.2H173.187L175.525 73.628L177.667 65.2H178.927L176.183 75H174.839L172.501 66.894L170.107 75H168.791ZM182.637 75.168C181.974 75.168 181.386 75.014 180.873 74.706C180.369 74.398 179.972 73.9687 179.683 73.418C179.393 72.858 179.249 72.2093 179.249 71.472C179.249 70.7253 179.389 70.0767 179.669 69.526C179.958 68.9753 180.359 68.546 180.873 68.238C181.395 67.93 181.993 67.776 182.665 67.776C183.355 67.776 183.939 67.93 184.415 68.238C184.9 68.546 185.269 68.952 185.521 69.456C185.782 69.9507 185.913 70.4967 185.913 71.094C185.913 71.1873 185.913 71.2853 185.913 71.388C185.913 71.4907 185.908 71.6073 185.899 71.738H180.131V70.828H184.765C184.737 70.184 184.522 69.68 184.121 69.316C183.729 68.952 183.234 68.77 182.637 68.77C182.235 68.77 181.862 68.8633 181.517 69.05C181.181 69.2273 180.91 69.4933 180.705 69.848C180.499 70.1933 180.397 70.6273 180.397 71.15V71.542C180.397 72.1207 180.499 72.606 180.705 72.998C180.919 73.39 181.195 73.684 181.531 73.88C181.876 74.076 182.245 74.174 182.637 74.174C183.131 74.174 183.537 74.0667 183.855 73.852C184.181 73.628 184.415 73.3293 184.555 72.956H185.717C185.605 73.376 185.409 73.754 185.129 74.09C184.849 74.426 184.499 74.692 184.079 74.888C183.668 75.0747 183.187 75.168 182.637 75.168ZM190.594 75.168C189.931 75.168 189.343 75.014 188.83 74.706C188.326 74.398 187.929 73.9687 187.64 73.418C187.35 72.858 187.206 72.2093 187.206 71.472C187.206 70.7253 187.346 70.0767 187.626 69.526C187.915 68.9753 188.316 68.546 188.83 68.238C189.352 67.93 189.95 67.776 190.622 67.776C191.312 67.776 191.896 67.93 192.372 68.238C192.857 68.546 193.226 68.952 193.478 69.456C193.739 69.9507 193.87 70.4967 193.87 71.094C193.87 71.1873 193.87 71.2853 193.87 71.388C193.87 71.4907 193.865 71.6073 193.856 71.738H188.088V70.828H192.722C192.694 70.184 192.479 69.68 192.078 69.316C191.686 68.952 191.191 68.77 190.594 68.77C190.192 68.77 189.819 68.8633 189.474 69.05C189.138 69.2273 188.867 69.4933 188.662 69.848C188.456 70.1933 188.354 70.6273 188.354 71.15V71.542C188.354 72.1207 188.456 72.606 188.662 72.998C188.876 73.39 189.152 73.684 189.488 73.88C189.833 74.076 190.202 74.174 190.594 74.174C191.088 74.174 191.494 74.0667 191.812 73.852C192.138 73.628 192.372 73.3293 192.512 72.956H193.674C193.562 73.376 193.366 73.754 193.086 74.09C192.806 74.426 192.456 74.692 192.036 74.888C191.625 75.0747 191.144 75.168 190.594 75.168ZM199.797 75L196.437 71.136L199.503 67.944H200.945L197.431 71.556L197.445 70.716L201.295 75H199.797ZM195.457 75V64.92H196.633V75H195.457ZM204.761 75.168C204.173 75.168 203.66 75.07 203.221 74.874C202.792 74.678 202.446 74.4073 202.185 74.062C201.933 73.7073 201.779 73.292 201.723 72.816H202.927C202.974 73.0587 203.072 73.2827 203.221 73.488C203.37 73.6933 203.571 73.8613 203.823 73.992C204.084 74.1133 204.402 74.174 204.775 74.174C205.102 74.174 205.372 74.1273 205.587 74.034C205.802 73.9313 205.96 73.796 206.063 73.628C206.175 73.46 206.231 73.278 206.231 73.082C206.231 72.7927 206.161 72.5733 206.021 72.424C205.89 72.2747 205.694 72.158 205.433 72.074C205.172 71.9807 204.854 71.9013 204.481 71.836C204.173 71.78 203.87 71.7053 203.571 71.612C203.272 71.5187 203.006 71.3973 202.773 71.248C202.54 71.0893 202.353 70.898 202.213 70.674C202.082 70.45 202.017 70.1747 202.017 69.848C202.017 69.4467 202.12 69.092 202.325 68.784C202.53 68.4667 202.824 68.2193 203.207 68.042C203.599 67.8647 204.052 67.776 204.565 67.776C205.321 67.776 205.932 67.958 206.399 68.322C206.866 68.686 207.141 69.2133 207.225 69.904H206.063C206.016 69.5493 205.862 69.274 205.601 69.078C205.349 68.8727 204.999 68.77 204.551 68.77C204.112 68.77 203.776 68.8587 203.543 69.036C203.319 69.2133 203.207 69.4467 203.207 69.736C203.207 69.9227 203.268 70.0907 203.389 70.24C203.52 70.38 203.706 70.5013 203.949 70.604C204.201 70.7067 204.509 70.7907 204.873 70.856C205.34 70.94 205.764 71.052 206.147 71.192C206.53 71.332 206.838 71.542 207.071 71.822C207.314 72.0927 207.435 72.48 207.435 72.984C207.435 73.4227 207.323 73.8053 207.099 74.132C206.884 74.4587 206.576 74.7153 206.175 74.902C205.774 75.0793 205.302 75.168 204.761 75.168Z" fill="#051A2F"/>
<rect x="52" y="117" width="196" height="42" rx="21" fill="#051A2F"/>
<path d="M74.2828 145V131H78.9028C80.5295 131 81.8761 131.287 82.9428 131.86C84.0095 132.433 84.7961 133.247 85.3028 134.3C85.8228 135.34 86.0828 136.58 86.0828 138.02C86.0828 139.433 85.8228 140.667 85.3028 141.72C84.7961 142.76 84.0095 143.567 82.9428 144.14C81.8895 144.713 80.5428 145 78.9028 145H74.2828ZM76.6828 142.96H78.7828C79.9961 142.96 80.9561 142.767 81.6628 142.38C82.3695 141.98 82.8695 141.413 83.1628 140.68C83.4695 139.933 83.6228 139.047 83.6228 138.02C83.6228 136.98 83.4695 136.093 83.1628 135.36C82.8695 134.613 82.3695 134.04 81.6628 133.64C80.9561 133.227 79.9961 133.02 78.7828 133.02H76.6828V142.96ZM93.0639 145.24C92.0772 145.24 91.1972 145.027 90.4239 144.6C89.6639 144.16 89.0639 143.553 88.6239 142.78C88.1972 142.007 87.9839 141.107 87.9839 140.08C87.9839 139.027 88.1972 138.107 88.6239 137.32C89.0506 136.52 89.6439 135.9 90.4039 135.46C91.1772 135.007 92.0706 134.78 93.0839 134.78C94.0706 134.78 94.9306 135 95.6639 135.44C96.3972 135.867 96.9639 136.447 97.3639 137.18C97.7772 137.9 97.9839 138.72 97.9839 139.64C97.9839 139.773 97.9839 139.92 97.9839 140.08C97.9839 140.24 97.9706 140.407 97.9439 140.58H89.7239V139.04H95.5639C95.5239 138.333 95.2706 137.773 94.8039 137.36C94.3506 136.947 93.7772 136.74 93.0839 136.74C92.5906 136.74 92.1306 136.853 91.7039 137.08C91.2906 137.293 90.9572 137.62 90.7039 138.06C90.4639 138.5 90.3439 139.053 90.3439 139.72V140.3C90.3439 140.927 90.4639 141.46 90.7039 141.9C90.9439 142.34 91.2706 142.68 91.6839 142.92C92.0972 143.147 92.5572 143.26 93.0639 143.26C93.6106 143.26 94.0639 143.14 94.4239 142.9C94.7972 142.66 95.0772 142.333 95.2639 141.92H97.7039C97.5172 142.547 97.2106 143.113 96.7839 143.62C96.3572 144.113 95.8306 144.507 95.2039 144.8C94.5772 145.093 93.8639 145.24 93.0639 145.24ZM104.2 145.24C103.333 145.24 102.567 145.1 101.9 144.82C101.233 144.527 100.707 144.127 100.32 143.62C99.9332 143.1 99.6998 142.513 99.6198 141.86H102.04C102.107 142.127 102.227 142.38 102.4 142.62C102.587 142.847 102.827 143.027 103.12 143.16C103.427 143.293 103.78 143.36 104.18 143.36C104.567 143.36 104.887 143.307 105.14 143.2C105.393 143.08 105.58 142.933 105.7 142.76C105.82 142.573 105.88 142.373 105.88 142.16C105.88 141.84 105.793 141.6 105.62 141.44C105.447 141.28 105.193 141.153 104.86 141.06C104.54 140.953 104.153 140.847 103.7 140.74C103.26 140.647 102.813 140.533 102.36 140.4C101.92 140.267 101.52 140.093 101.16 139.88C100.813 139.667 100.527 139.4 100.3 139.08C100.087 138.747 99.9798 138.347 99.9798 137.88C99.9798 137.293 100.133 136.767 100.44 136.3C100.76 135.82 101.213 135.447 101.8 135.18C102.4 134.913 103.107 134.78 103.92 134.78C105.08 134.78 106.007 135.053 106.7 135.6C107.407 136.133 107.82 136.88 107.94 137.84H105.66C105.593 137.467 105.407 137.18 105.1 136.98C104.807 136.767 104.413 136.66 103.92 136.66C103.4 136.66 103.007 136.76 102.74 136.96C102.473 137.16 102.34 137.413 102.34 137.72C102.34 137.92 102.427 138.1 102.6 138.26C102.773 138.42 103.02 138.56 103.34 138.68C103.66 138.787 104.04 138.887 104.48 138.98C105.2 139.127 105.84 139.3 106.4 139.5C106.973 139.7 107.433 139.993 107.78 140.38C108.127 140.753 108.3 141.3 108.3 142.02C108.313 142.647 108.147 143.207 107.8 143.7C107.467 144.18 106.993 144.56 106.38 144.84C105.767 145.107 105.04 145.24 104.2 145.24ZM110.71 145V135.02H113.11V145H110.71ZM111.91 133.38C111.47 133.38 111.103 133.247 110.81 132.98C110.53 132.7 110.39 132.36 110.39 131.96C110.39 131.547 110.53 131.213 110.81 130.96C111.103 130.693 111.47 130.56 111.91 130.56C112.35 130.56 112.71 130.693 112.99 130.96C113.283 131.213 113.43 131.547 113.43 131.96C113.43 132.36 113.283 132.7 112.99 132.98C112.71 133.247 112.35 133.38 111.91 133.38ZM120.063 149.64C119.13 149.64 118.31 149.52 117.603 149.28C116.897 149.053 116.343 148.7 115.943 148.22C115.557 147.753 115.363 147.167 115.363 146.46C115.363 146.047 115.463 145.647 115.663 145.26C115.877 144.873 116.19 144.513 116.603 144.18C117.03 143.833 117.57 143.533 118.223 143.28L119.263 144.44C118.637 144.667 118.197 144.94 117.943 145.26C117.69 145.58 117.563 145.9 117.563 146.22C117.563 146.567 117.67 146.853 117.883 147.08C118.11 147.32 118.41 147.5 118.783 147.62C119.17 147.74 119.597 147.8 120.063 147.8C120.53 147.8 120.93 147.733 121.263 147.6C121.61 147.48 121.877 147.307 122.063 147.08C122.263 146.853 122.363 146.58 122.363 146.26C122.363 145.873 122.223 145.553 121.943 145.3C121.663 145.06 121.117 144.913 120.303 144.86C119.597 144.807 118.977 144.733 118.443 144.64C117.923 144.533 117.47 144.413 117.083 144.28C116.71 144.147 116.39 144 116.123 143.84C115.857 143.667 115.637 143.493 115.463 143.32V142.86L117.543 140.64L119.323 141.24L116.983 143.54L117.603 142.4C117.737 142.493 117.87 142.58 118.003 142.66C118.15 142.727 118.33 142.793 118.543 142.86C118.77 142.913 119.057 142.967 119.403 143.02C119.763 143.073 120.23 143.127 120.803 143.18C121.683 143.247 122.403 143.407 122.963 143.66C123.523 143.913 123.93 144.253 124.183 144.68C124.45 145.107 124.583 145.613 124.583 146.2C124.583 146.787 124.423 147.34 124.103 147.86C123.783 148.38 123.29 148.807 122.623 149.14C121.957 149.473 121.103 149.64 120.063 149.64ZM120.083 142C119.243 142 118.517 141.84 117.903 141.52C117.303 141.187 116.843 140.753 116.523 140.22C116.203 139.673 116.043 139.06 116.043 138.38C116.043 137.713 116.203 137.113 116.523 136.58C116.857 136.033 117.323 135.6 117.923 135.28C118.523 134.947 119.243 134.78 120.083 134.78C120.923 134.78 121.643 134.947 122.243 135.28C122.843 135.6 123.303 136.033 123.623 136.58C123.943 137.113 124.103 137.713 124.103 138.38C124.103 139.06 123.943 139.673 123.623 140.22C123.303 140.753 122.843 141.187 122.243 141.52C121.643 141.84 120.923 142 120.083 142ZM120.083 140.14C120.643 140.14 121.097 139.993 121.443 139.7C121.803 139.393 121.983 138.96 121.983 138.4C121.983 137.84 121.803 137.413 121.443 137.12C121.097 136.813 120.643 136.66 120.083 136.66C119.51 136.66 119.043 136.813 118.683 137.12C118.337 137.413 118.163 137.84 118.163 138.4C118.163 138.96 118.337 139.393 118.683 139.7C119.043 139.993 119.51 140.14 120.083 140.14ZM121.703 136.78L121.243 135.02H125.403V136.52L121.703 136.78ZM127.523 145V135.02H129.663L129.823 136.7C130.143 136.113 130.59 135.647 131.163 135.3C131.75 134.953 132.43 134.78 133.203 134.78C134.03 134.78 134.73 134.953 135.303 135.3C135.876 135.633 136.316 136.133 136.623 136.8C136.93 137.467 137.083 138.287 137.083 139.26V145H134.683V139.5C134.683 138.633 134.496 137.967 134.123 137.5C133.763 137.033 133.21 136.8 132.463 136.8C131.983 136.8 131.55 136.92 131.163 137.16C130.776 137.4 130.47 137.74 130.243 138.18C130.03 138.607 129.923 139.14 129.923 139.78V145H127.523ZM144.517 145V131H147.357L151.877 140.04L156.377 131H159.237V145H156.837V135.12L152.817 143.02H150.937L146.917 135.12V145H144.517ZM165.317 145.24C164.491 145.24 163.804 145.107 163.257 144.84C162.711 144.56 162.304 144.193 162.037 143.74C161.771 143.273 161.637 142.76 161.637 142.2C161.637 141.573 161.797 141.027 162.117 140.56C162.451 140.093 162.937 139.733 163.577 139.48C164.217 139.213 165.004 139.08 165.937 139.08H168.477C168.477 138.56 168.397 138.127 168.237 137.78C168.091 137.433 167.864 137.173 167.557 137C167.251 136.827 166.857 136.74 166.377 136.74C165.831 136.74 165.357 136.873 164.957 137.14C164.571 137.393 164.331 137.767 164.237 138.26H161.877C161.957 137.54 162.197 136.92 162.597 136.4C163.011 135.88 163.551 135.48 164.217 135.2C164.884 134.92 165.611 134.78 166.397 134.78C167.331 134.78 168.131 134.947 168.797 135.28C169.477 135.6 169.991 136.06 170.337 136.66C170.697 137.26 170.877 137.987 170.877 138.84V145H168.837L168.597 143.4C168.464 143.653 168.291 143.893 168.077 144.12C167.877 144.347 167.644 144.547 167.377 144.72C167.111 144.88 166.804 145.007 166.457 145.1C166.124 145.193 165.744 145.24 165.317 145.24ZM165.857 143.34C166.244 143.34 166.591 143.273 166.897 143.14C167.204 142.993 167.464 142.793 167.677 142.54C167.891 142.287 168.057 142 168.177 141.68C168.311 141.36 168.391 141.02 168.417 140.66V140.64H166.197C165.717 140.64 165.324 140.7 165.017 140.82C164.724 140.94 164.504 141.107 164.357 141.32C164.224 141.52 164.157 141.753 164.157 142.02C164.157 142.3 164.224 142.54 164.357 142.74C164.491 142.94 164.684 143.093 164.937 143.2C165.204 143.293 165.511 143.34 165.857 143.34ZM177.586 145C176.906 145 176.313 144.893 175.806 144.68C175.313 144.467 174.926 144.113 174.646 143.62C174.38 143.127 174.246 142.46 174.246 141.62V137.02H172.526V135.02H174.246L174.506 132.4H176.626V135.02H179.366V137.02H176.646V141.62C176.646 142.127 176.753 142.48 176.966 142.68C177.18 142.867 177.546 142.96 178.066 142.96H179.286V145H177.586ZM186.052 145.24C185.066 145.24 184.186 145.027 183.412 144.6C182.652 144.16 182.052 143.553 181.612 142.78C181.186 142.007 180.972 141.107 180.972 140.08C180.972 139.027 181.186 138.107 181.612 137.32C182.039 136.52 182.632 135.9 183.392 135.46C184.166 135.007 185.059 134.78 186.072 134.78C187.059 134.78 187.919 135 188.652 135.44C189.386 135.867 189.952 136.447 190.352 137.18C190.766 137.9 190.972 138.72 190.972 139.64C190.972 139.773 190.972 139.92 190.972 140.08C190.972 140.24 190.959 140.407 190.932 140.58H182.712V139.04H188.552C188.512 138.333 188.259 137.773 187.792 137.36C187.339 136.947 186.766 136.74 186.072 136.74C185.579 136.74 185.119 136.853 184.692 137.08C184.279 137.293 183.946 137.62 183.692 138.06C183.452 138.5 183.332 139.053 183.332 139.72V140.3C183.332 140.927 183.452 141.46 183.692 141.9C183.932 142.34 184.259 142.68 184.672 142.92C185.086 143.147 185.546 143.26 186.052 143.26C186.599 143.26 187.052 143.14 187.412 142.9C187.786 142.66 188.066 142.333 188.252 141.92H190.692C190.506 142.547 190.199 143.113 189.772 143.62C189.346 144.113 188.819 144.507 188.192 144.8C187.566 145.093 186.852 145.24 186.052 145.24ZM193.148 145V135.02H195.308L195.528 136.9C195.755 136.46 196.041 136.087 196.388 135.78C196.748 135.46 197.161 135.213 197.628 135.04C198.108 134.867 198.641 134.78 199.228 134.78V137.3H198.488C198.075 137.3 197.688 137.353 197.328 137.46C196.968 137.553 196.655 137.713 196.388 137.94C196.121 138.167 195.915 138.473 195.768 138.86C195.621 139.247 195.548 139.727 195.548 140.3V145H193.148ZM201.12 145V135.02H203.52V145H201.12ZM202.32 133.38C201.88 133.38 201.513 133.247 201.22 132.98C200.94 132.7 200.8 132.36 200.8 131.96C200.8 131.547 200.94 131.213 201.22 130.96C201.513 130.693 201.88 130.56 202.32 130.56C202.76 130.56 203.12 130.693 203.4 130.96C203.693 131.213 203.84 131.547 203.84 131.96C203.84 132.36 203.693 132.7 203.4 132.98C203.12 133.247 202.76 133.38 202.32 133.38ZM209.634 145.24C208.807 145.24 208.12 145.107 207.574 144.84C207.027 144.56 206.62 144.193 206.354 143.74C206.087 143.273 205.954 142.76 205.954 142.2C205.954 141.573 206.114 141.027 206.434 140.56C206.767 140.093 207.254 139.733 207.894 139.48C208.534 139.213 209.32 139.08 210.254 139.08H212.794C212.794 138.56 212.714 138.127 212.554 137.78C212.407 137.433 212.18 137.173 211.874 137C211.567 136.827 211.174 136.74 210.694 136.74C210.147 136.74 209.674 136.873 209.274 137.14C208.887 137.393 208.647 137.767 208.554 138.26H206.194C206.274 137.54 206.514 136.92 206.914 136.4C207.327 135.88 207.867 135.48 208.534 135.2C209.2 134.92 209.927 134.78 210.714 134.78C211.647 134.78 212.447 134.947 213.114 135.28C213.794 135.6 214.307 136.06 214.654 136.66C215.014 137.26 215.194 137.987 215.194 138.84V145H213.154L212.914 143.4C212.78 143.653 212.607 143.893 212.394 144.12C212.194 144.347 211.96 144.547 211.694 144.72C211.427 144.88 211.12 145.007 210.774 145.1C210.44 145.193 210.06 145.24 209.634 145.24ZM210.174 143.34C210.56 143.34 210.907 143.273 211.214 143.14C211.52 142.993 211.78 142.793 211.994 142.54C212.207 142.287 212.374 142 212.494 141.68C212.627 141.36 212.707 141.02 212.734 140.66V140.64H210.514C210.034 140.64 209.64 140.7 209.334 140.82C209.04 140.94 208.82 141.107 208.674 141.32C208.54 141.52 208.474 141.753 208.474 142.02C208.474 142.3 208.54 142.54 208.674 142.74C208.807 142.94 209 143.093 209.254 143.2C209.52 143.293 209.827 143.34 210.174 143.34ZM217.699 145V130.6H220.099V145H217.699ZM226.798 145.24C225.931 145.24 225.164 145.1 224.498 144.82C223.831 144.527 223.304 144.127 222.918 143.62C222.531 143.1 222.298 142.513 222.218 141.86H224.638C224.704 142.127 224.824 142.38 224.998 142.62C225.184 142.847 225.424 143.027 225.718 143.16C226.024 143.293 226.378 143.36 226.778 143.36C227.164 143.36 227.484 143.307 227.738 143.2C227.991 143.08 228.178 142.933 228.298 142.76C228.418 142.573 228.478 142.373 228.478 142.16C228.478 141.84 228.391 141.6 228.218 141.44C228.044 141.28 227.791 141.153 227.458 141.06C227.138 140.953 226.751 140.847 226.298 140.74C225.858 140.647 225.411 140.533 224.958 140.4C224.518 140.267 224.118 140.093 223.758 139.88C223.411 139.667 223.124 139.4 222.898 139.08C222.684 138.747 222.578 138.347 222.578 137.88C222.578 137.293 222.731 136.767 223.038 136.3C223.358 135.82 223.811 135.447 224.398 135.18C224.998 134.913 225.704 134.78 226.518 134.78C227.678 134.78 228.604 135.053 229.298 135.6C230.004 136.133 230.418 136.88 230.538 137.84H228.258C228.191 137.467 228.004 137.18 227.698 136.98C227.404 136.767 227.011 136.66 226.518 136.66C225.998 136.66 225.604 136.76 225.338 136.96C225.071 137.16 224.938 137.413 224.938 137.72C224.938 137.92 225.024 138.1 225.198 138.26C225.371 138.42 225.618 138.56 225.938 138.68C226.258 138.787 226.638 138.887 227.078 138.98C227.798 139.127 228.438 139.3 228.998 139.5C229.571 139.7 230.031 139.993 230.378 140.38C230.724 140.753 230.898 141.3 230.898 142.02C230.911 142.647 230.744 143.207 230.398 143.7C230.064 144.18 229.591 144.56 228.978 144.84C228.364 145.107 227.638 145.24 226.798 145.24Z" fill="white"/>
<rect x="29" y="159" width="149" height="42" rx="21" fill="#E9FA49"/>
<path d="M52.66 187.24C51.2733 187.24 50.0733 186.94 49.06 186.34C48.0467 185.727 47.2667 184.88 46.72 183.8C46.1867 182.707 45.92 181.447 45.92 180.02C45.92 178.58 46.1867 177.32 46.72 176.24C47.2667 175.147 48.0467 174.293 49.06 173.68C50.0733 173.067 51.2733 172.76 52.66 172.76C54.34 172.76 55.7067 173.173 56.76 174C57.8133 174.813 58.48 175.967 58.76 177.46H56.12C55.9333 176.673 55.5467 176.053 54.96 175.6C54.3867 175.147 53.6133 174.92 52.64 174.92C51.76 174.92 51 175.127 50.36 175.54C49.72 175.94 49.2267 176.527 48.88 177.3C48.5333 178.06 48.36 178.967 48.36 180.02C48.36 181.073 48.5333 181.98 48.88 182.74C49.2267 183.487 49.72 184.067 50.36 184.48C51 184.88 51.76 185.08 52.64 185.08C53.6133 185.08 54.3867 184.873 54.96 184.46C55.5467 184.033 55.9267 183.447 56.1 182.7H58.76C58.48 184.113 57.8133 185.227 56.76 186.04C55.7067 186.84 54.34 187.24 52.66 187.24ZM65.688 187.24C64.7413 187.24 63.8813 187.02 63.108 186.58C62.348 186.14 61.748 185.527 61.308 184.74C60.868 183.953 60.648 183.047 60.648 182.02C60.648 180.98 60.868 180.067 61.308 179.28C61.7613 178.493 62.368 177.88 63.128 177.44C63.9013 177 64.7613 176.78 65.708 176.78C66.668 176.78 67.528 177 68.288 177.44C69.0613 177.88 69.668 178.493 70.108 179.28C70.548 180.053 70.768 180.967 70.768 182.02C70.768 183.047 70.5413 183.953 70.088 184.74C69.648 185.527 69.0413 186.14 68.268 186.58C67.508 187.02 66.648 187.24 65.688 187.24ZM65.688 185.18C66.168 185.18 66.6013 185.06 66.988 184.82C67.388 184.58 67.708 184.227 67.948 183.76C68.2013 183.293 68.328 182.707 68.328 182C68.328 181.307 68.208 180.727 67.968 180.26C67.728 179.793 67.408 179.44 67.008 179.2C66.6213 178.96 66.188 178.84 65.708 178.84C65.2546 178.84 64.828 178.96 64.428 179.2C64.028 179.44 63.708 179.793 63.468 180.26C63.228 180.727 63.108 181.313 63.108 182.02C63.108 182.7 63.228 183.28 63.468 183.76C63.708 184.227 64.0213 184.58 64.408 184.82C64.808 185.06 65.2346 185.18 65.688 185.18ZM73.0583 191.4V177.02H75.2183L75.4583 178.48C75.6716 178.173 75.9316 177.893 76.2383 177.64C76.5449 177.373 76.9116 177.167 77.3383 177.02C77.7649 176.86 78.2649 176.78 78.8383 176.78C79.7849 176.78 80.6183 177.013 81.3383 177.48C82.0716 177.933 82.6449 178.553 83.0583 179.34C83.4849 180.127 83.6983 181.027 83.6983 182.04C83.6983 183.04 83.4849 183.933 83.0583 184.72C82.6449 185.507 82.0716 186.127 81.3383 186.58C80.6049 187.02 79.7716 187.24 78.8383 187.24C78.0783 187.24 77.4116 187.1 76.8383 186.82C76.2649 186.527 75.8049 186.113 75.4583 185.58V191.4H73.0583ZM78.3383 185.16C78.9116 185.16 79.4183 185.027 79.8583 184.76C80.2983 184.493 80.6383 184.127 80.8783 183.66C81.1316 183.18 81.2583 182.633 81.2583 182.02C81.2583 181.407 81.1316 180.867 80.8783 180.4C80.6383 179.92 80.2983 179.547 79.8583 179.28C79.4183 179 78.9116 178.86 78.3383 178.86C77.7649 178.86 77.2583 179 76.8183 179.28C76.3783 179.547 76.0316 179.913 75.7783 180.38C75.5383 180.847 75.4183 181.387 75.4183 182C75.4183 182.627 75.5383 183.18 75.7783 183.66C76.0316 184.127 76.3783 184.493 76.8183 184.76C77.2583 185.027 77.7649 185.16 78.3383 185.16ZM86.3486 191.4L88.8086 185.88H88.2286L84.2086 177.02H86.8086L89.8286 183.78L92.6686 177.02H95.2086L88.8886 191.4H86.3486ZM98.9055 187L95.9655 177.02H98.3455L100.425 185.36H99.8855L102.245 177.02H104.905L107.265 185.36H106.725L108.805 177.02H111.185L108.265 187H105.785L103.285 178.36H103.865L101.385 187H98.9055ZM112.863 187V177.02H115.023L115.243 178.9C115.47 178.46 115.756 178.087 116.103 177.78C116.463 177.46 116.876 177.213 117.343 177.04C117.823 176.867 118.356 176.78 118.943 176.78V179.3H118.203C117.79 179.3 117.403 179.353 117.043 179.46C116.683 179.553 116.37 179.713 116.103 179.94C115.836 180.167 115.63 180.473 115.483 180.86C115.336 181.247 115.263 181.727 115.263 182.3V187H112.863ZM120.835 187V177.02H123.235V187H120.835ZM122.035 175.38C121.595 175.38 121.228 175.247 120.935 174.98C120.655 174.7 120.515 174.36 120.515 173.96C120.515 173.547 120.655 173.213 120.935 172.96C121.228 172.693 121.595 172.56 122.035 172.56C122.475 172.56 122.835 172.693 123.115 172.96C123.408 173.213 123.555 173.547 123.555 173.96C123.555 174.36 123.408 174.7 123.115 174.98C122.835 175.247 122.475 175.38 122.035 175.38ZM130.328 187C129.648 187 129.055 186.893 128.548 186.68C128.055 186.467 127.668 186.113 127.388 185.62C127.122 185.127 126.988 184.46 126.988 183.62V179.02H125.268V177.02H126.988L127.248 174.4H129.368V177.02H132.108V179.02H129.388V183.62C129.388 184.127 129.495 184.48 129.708 184.68C129.922 184.867 130.288 184.96 130.808 184.96H132.028V187H130.328ZM134.428 187V177.02H136.828V187H134.428ZM135.628 175.38C135.188 175.38 134.822 175.247 134.528 174.98C134.248 174.7 134.108 174.36 134.108 173.96C134.108 173.547 134.248 173.213 134.528 172.96C134.822 172.693 135.188 172.56 135.628 172.56C136.068 172.56 136.428 172.693 136.708 172.96C137.002 173.213 137.148 173.547 137.148 173.96C137.148 174.36 137.002 174.7 136.708 174.98C136.428 175.247 136.068 175.38 135.628 175.38ZM139.562 187V177.02H141.702L141.862 178.7C142.182 178.113 142.629 177.647 143.202 177.3C143.789 176.953 144.469 176.78 145.242 176.78C146.069 176.78 146.769 176.953 147.342 177.3C147.916 177.633 148.356 178.133 148.662 178.8C148.969 179.467 149.122 180.287 149.122 181.26V187H146.722V181.5C146.722 180.633 146.536 179.967 146.162 179.5C145.802 179.033 145.249 178.8 144.502 178.8C144.022 178.8 143.589 178.92 143.202 179.16C142.816 179.4 142.509 179.74 142.282 180.18C142.069 180.607 141.962 181.14 141.962 181.78V187H139.562ZM155.813 191.64C154.88 191.64 154.06 191.52 153.353 191.28C152.647 191.053 152.093 190.7 151.693 190.22C151.307 189.753 151.113 189.167 151.113 188.46C151.113 188.047 151.213 187.647 151.413 187.26C151.627 186.873 151.94 186.513 152.353 186.18C152.78 185.833 153.32 185.533 153.973 185.28L155.013 186.44C154.387 186.667 153.947 186.94 153.693 187.26C153.44 187.58 153.313 187.9 153.313 188.22C153.313 188.567 153.42 188.853 153.633 189.08C153.86 189.32 154.16 189.5 154.533 189.62C154.92 189.74 155.347 189.8 155.813 189.8C156.28 189.8 156.68 189.733 157.013 189.6C157.36 189.48 157.627 189.307 157.813 189.08C158.013 188.853 158.113 188.58 158.113 188.26C158.113 187.873 157.973 187.553 157.693 187.3C157.413 187.06 156.867 186.913 156.053 186.86C155.347 186.807 154.727 186.733 154.193 186.64C153.673 186.533 153.22 186.413 152.833 186.28C152.46 186.147 152.14 186 151.873 185.84C151.607 185.667 151.387 185.493 151.213 185.32V184.86L153.293 182.64L155.073 183.24L152.733 185.54L153.353 184.4C153.487 184.493 153.62 184.58 153.753 184.66C153.9 184.727 154.08 184.793 154.293 184.86C154.52 184.913 154.807 184.967 155.153 185.02C155.513 185.073 155.98 185.127 156.553 185.18C157.433 185.247 158.153 185.407 158.713 185.66C159.273 185.913 159.68 186.253 159.933 186.68C160.2 187.107 160.333 187.613 160.333 188.2C160.333 188.787 160.173 189.34 159.853 189.86C159.533 190.38 159.04 190.807 158.373 191.14C157.707 191.473 156.853 191.64 155.813 191.64ZM155.833 184C154.993 184 154.267 183.84 153.653 183.52C153.053 183.187 152.593 182.753 152.273 182.22C151.953 181.673 151.793 181.06 151.793 180.38C151.793 179.713 151.953 179.113 152.273 178.58C152.607 178.033 153.073 177.6 153.673 177.28C154.273 176.947 154.993 176.78 155.833 176.78C156.673 176.78 157.393 176.947 157.993 177.28C158.593 177.6 159.053 178.033 159.373 178.58C159.693 179.113 159.853 179.713 159.853 180.38C159.853 181.06 159.693 181.673 159.373 182.22C159.053 182.753 158.593 183.187 157.993 183.52C157.393 183.84 156.673 184 155.833 184ZM155.833 182.14C156.393 182.14 156.847 181.993 157.193 181.7C157.553 181.393 157.733 180.96 157.733 180.4C157.733 179.84 157.553 179.413 157.193 179.12C156.847 178.813 156.393 178.66 155.833 178.66C155.26 178.66 154.793 178.813 154.433 179.12C154.087 179.413 153.913 179.84 153.913 180.4C153.913 180.96 154.087 181.393 154.433 181.7C154.793 181.993 155.26 182.14 155.833 182.14ZM157.453 178.78L156.993 177.02H161.153V178.52L157.453 178.78Z" fill="#051A2F"/>
<rect x="178" y="159" width="93" height="42" rx="21" fill="#FF8F27"/>
<path d="M198.66 187V174.94H194.54V173H205.18V174.94H201.06V187H198.66ZM208.759 187.24C207.932 187.24 207.245 187.107 206.699 186.84C206.152 186.56 205.745 186.193 205.479 185.74C205.212 185.273 205.079 184.76 205.079 184.2C205.079 183.573 205.239 183.027 205.559 182.56C205.892 182.093 206.379 181.733 207.019 181.48C207.659 181.213 208.445 181.08 209.379 181.08H211.919C211.919 180.56 211.839 180.127 211.679 179.78C211.532 179.433 211.305 179.173 210.999 179C210.692 178.827 210.299 178.74 209.819 178.74C209.272 178.74 208.799 178.873 208.399 179.14C208.012 179.393 207.772 179.767 207.679 180.26H205.319C205.399 179.54 205.639 178.92 206.039 178.4C206.452 177.88 206.992 177.48 207.659 177.2C208.325 176.92 209.052 176.78 209.839 176.78C210.772 176.78 211.572 176.947 212.239 177.28C212.919 177.6 213.432 178.06 213.779 178.66C214.139 179.26 214.319 179.987 214.319 180.84V187H212.279L212.039 185.4C211.905 185.653 211.732 185.893 211.519 186.12C211.319 186.347 211.085 186.547 210.819 186.72C210.552 186.88 210.245 187.007 209.899 187.1C209.565 187.193 209.185 187.24 208.759 187.24ZM209.299 185.34C209.685 185.34 210.032 185.273 210.339 185.14C210.645 184.993 210.905 184.793 211.119 184.54C211.332 184.287 211.499 184 211.619 183.68C211.752 183.36 211.832 183.02 211.859 182.66V182.64H209.639C209.159 182.64 208.765 182.7 208.459 182.82C208.165 182.94 207.945 183.107 207.799 183.32C207.665 183.52 207.599 183.753 207.599 184.02C207.599 184.3 207.665 184.54 207.799 184.74C207.932 184.94 208.125 185.093 208.379 185.2C208.645 185.293 208.952 185.34 209.299 185.34ZM216.824 187V177.02H218.984L219.204 178.9C219.431 178.46 219.717 178.087 220.064 177.78C220.424 177.46 220.837 177.213 221.304 177.04C221.784 176.867 222.317 176.78 222.904 176.78V179.3H222.164C221.751 179.3 221.364 179.353 221.004 179.46C220.644 179.553 220.331 179.713 220.064 179.94C219.797 180.167 219.591 180.473 219.444 180.86C219.297 181.247 219.224 181.727 219.224 182.3V187H216.824ZM228.661 191.64C227.728 191.64 226.908 191.52 226.201 191.28C225.494 191.053 224.941 190.7 224.541 190.22C224.154 189.753 223.961 189.167 223.961 188.46C223.961 188.047 224.061 187.647 224.261 187.26C224.474 186.873 224.788 186.513 225.201 186.18C225.628 185.833 226.168 185.533 226.821 185.28L227.861 186.44C227.234 186.667 226.794 186.94 226.541 187.26C226.288 187.58 226.161 187.9 226.161 188.22C226.161 188.567 226.268 188.853 226.481 189.08C226.708 189.32 227.008 189.5 227.381 189.62C227.768 189.74 228.194 189.8 228.661 189.8C229.128 189.8 229.528 189.733 229.861 189.6C230.208 189.48 230.474 189.307 230.661 189.08C230.861 188.853 230.961 188.58 230.961 188.26C230.961 187.873 230.821 187.553 230.541 187.3C230.261 187.06 229.714 186.913 228.901 186.86C228.194 186.807 227.574 186.733 227.041 186.64C226.521 186.533 226.068 186.413 225.681 186.28C225.308 186.147 224.988 186 224.721 185.84C224.454 185.667 224.234 185.493 224.061 185.32V184.86L226.141 182.64L227.921 183.24L225.581 185.54L226.201 184.4C226.334 184.493 226.468 184.58 226.601 184.66C226.748 184.727 226.928 184.793 227.141 184.86C227.368 184.913 227.654 184.967 228.001 185.02C228.361 185.073 228.828 185.127 229.401 185.18C230.281 185.247 231.001 185.407 231.561 185.66C232.121 185.913 232.528 186.253 232.781 186.68C233.048 187.107 233.181 187.613 233.181 188.2C233.181 188.787 233.021 189.34 232.701 189.86C232.381 190.38 231.888 190.807 231.221 191.14C230.554 191.473 229.701 191.64 228.661 191.64ZM228.681 184C227.841 184 227.114 183.84 226.501 183.52C225.901 183.187 225.441 182.753 225.121 182.22C224.801 181.673 224.641 181.06 224.641 180.38C224.641 179.713 224.801 179.113 225.121 178.58C225.454 178.033 225.921 177.6 226.521 177.28C227.121 176.947 227.841 176.78 228.681 176.78C229.521 176.78 230.241 176.947 230.841 177.28C231.441 177.6 231.901 178.033 232.221 178.58C232.541 179.113 232.701 179.713 232.701 180.38C232.701 181.06 232.541 181.673 232.221 182.22C231.901 182.753 231.441 183.187 230.841 183.52C230.241 183.84 229.521 184 228.681 184ZM228.681 182.14C229.241 182.14 229.694 181.993 230.041 181.7C230.401 181.393 230.581 180.96 230.581 180.4C230.581 179.84 230.401 179.413 230.041 179.12C229.694 178.813 229.241 178.66 228.681 178.66C228.108 178.66 227.641 178.813 227.281 179.12C226.934 179.413 226.761 179.84 226.761 180.4C226.761 180.96 226.934 181.393 227.281 181.7C227.641 181.993 228.108 182.14 228.681 182.14ZM230.301 178.78L229.841 177.02H234.001V178.52L230.301 178.78ZM240.47 187.24C239.483 187.24 238.603 187.027 237.83 186.6C237.07 186.16 236.47 185.553 236.03 184.78C235.603 184.007 235.39 183.107 235.39 182.08C235.39 181.027 235.603 180.107 236.03 179.32C236.457 178.52 237.05 177.9 237.81 177.46C238.583 177.007 239.477 176.78 240.49 176.78C241.477 176.78 242.337 177 243.07 177.44C243.803 177.867 244.37 178.447 244.77 179.18C245.183 179.9 245.39 180.72 245.39 181.64C245.39 181.773 245.39 181.92 245.39 182.08C245.39 182.24 245.377 182.407 245.35 182.58H237.13V181.04H242.97C242.93 180.333 242.677 179.773 242.21 179.36C241.757 178.947 241.183 178.74 240.49 178.74C239.997 178.74 239.537 178.853 239.11 179.08C238.697 179.293 238.363 179.62 238.11 180.06C237.87 180.5 237.75 181.053 237.75 181.72V182.3C237.75 182.927 237.87 183.46 238.11 183.9C238.35 184.34 238.677 184.68 239.09 184.92C239.503 185.147 239.963 185.26 240.47 185.26C241.017 185.26 241.47 185.14 241.83 184.9C242.203 184.66 242.483 184.333 242.67 183.92H245.11C244.923 184.547 244.617 185.113 244.19 185.62C243.763 186.113 243.237 186.507 242.61 186.8C241.983 187.093 241.27 187.24 240.47 187.24ZM251.731 187C251.051 187 250.457 186.893 249.951 186.68C249.457 186.467 249.071 186.113 248.791 185.62C248.524 185.127 248.391 184.46 248.391 183.62V179.02H246.671V177.02H248.391L248.651 174.4H250.771V177.02H253.511V179.02H250.791V183.62C250.791 184.127 250.897 184.48 251.111 184.68C251.324 184.867 251.691 184.96 252.211 184.96H253.431V187H251.731Z" fill="white"/>
<rect x="89" y="201" width="122" height="42" rx="21" fill="#9D89FC"/>
<path d="M112.66 229.24C111.273 229.24 110.073 228.94 109.06 228.34C108.047 227.727 107.267 226.88 106.72 225.8C106.187 224.707 105.92 223.447 105.92 222.02C105.92 220.58 106.187 219.32 106.72 218.24C107.267 217.147 108.047 216.293 109.06 215.68C110.073 215.067 111.273 214.76 112.66 214.76C114.34 214.76 115.707 215.173 116.76 216C117.813 216.813 118.48 217.967 118.76 219.46H116.12C115.933 218.673 115.547 218.053 114.96 217.6C114.387 217.147 113.613 216.92 112.64 216.92C111.76 216.92 111 217.127 110.36 217.54C109.72 217.94 109.227 218.527 108.88 219.3C108.533 220.06 108.36 220.967 108.36 222.02C108.36 223.073 108.533 223.98 108.88 224.74C109.227 225.487 109.72 226.067 110.36 226.48C111 226.88 111.76 227.08 112.64 227.08C113.613 227.08 114.387 226.873 114.96 226.46C115.547 226.033 115.927 225.447 116.1 224.7H118.76C118.48 226.113 117.813 227.227 116.76 228.04C115.707 228.84 114.34 229.24 112.66 229.24ZM125.688 229.24C124.741 229.24 123.881 229.02 123.108 228.58C122.348 228.14 121.748 227.527 121.308 226.74C120.868 225.953 120.648 225.047 120.648 224.02C120.648 222.98 120.868 222.067 121.308 221.28C121.761 220.493 122.368 219.88 123.128 219.44C123.901 219 124.761 218.78 125.708 218.78C126.668 218.78 127.528 219 128.288 219.44C129.061 219.88 129.668 220.493 130.108 221.28C130.548 222.053 130.768 222.967 130.768 224.02C130.768 225.047 130.541 225.953 130.088 226.74C129.648 227.527 129.041 228.14 128.268 228.58C127.508 229.02 126.648 229.24 125.688 229.24ZM125.688 227.18C126.168 227.18 126.601 227.06 126.988 226.82C127.388 226.58 127.708 226.227 127.948 225.76C128.201 225.293 128.328 224.707 128.328 224C128.328 223.307 128.208 222.727 127.968 222.26C127.728 221.793 127.408 221.44 127.008 221.2C126.621 220.96 126.188 220.84 125.708 220.84C125.255 220.84 124.828 220.96 124.428 221.2C124.028 221.44 123.708 221.793 123.468 222.26C123.228 222.727 123.108 223.313 123.108 224.02C123.108 224.7 123.228 225.28 123.468 225.76C123.708 226.227 124.021 226.58 124.408 226.82C124.808 227.06 125.235 227.18 125.688 227.18ZM133.058 229V219.02H135.198L135.358 220.7C135.678 220.113 136.125 219.647 136.698 219.3C137.285 218.953 137.965 218.78 138.738 218.78C139.565 218.78 140.265 218.953 140.838 219.3C141.412 219.633 141.852 220.133 142.158 220.8C142.465 221.467 142.618 222.287 142.618 223.26V229H140.218V223.5C140.218 222.633 140.032 221.967 139.658 221.5C139.298 221.033 138.745 220.8 137.998 220.8C137.518 220.8 137.085 220.92 136.698 221.16C136.312 221.4 136.005 221.74 135.778 222.18C135.565 222.607 135.458 223.14 135.458 223.78V229H133.058ZM149.45 229C148.77 229 148.176 228.893 147.67 228.68C147.176 228.467 146.79 228.113 146.51 227.62C146.243 227.127 146.11 226.46 146.11 225.62V221.02H144.39V219.02H146.11L146.37 216.4H148.49V219.02H151.23V221.02H148.51V225.62C148.51 226.127 148.616 226.48 148.83 226.68C149.043 226.867 149.41 226.96 149.93 226.96H151.15V229H149.45ZM157.915 229.24C156.929 229.24 156.049 229.027 155.275 228.6C154.515 228.16 153.915 227.553 153.475 226.78C153.049 226.007 152.835 225.107 152.835 224.08C152.835 223.027 153.049 222.107 153.475 221.32C153.902 220.52 154.495 219.9 155.255 219.46C156.029 219.007 156.922 218.78 157.935 218.78C158.922 218.78 159.782 219 160.515 219.44C161.249 219.867 161.815 220.447 162.215 221.18C162.629 221.9 162.835 222.72 162.835 223.64C162.835 223.773 162.835 223.92 162.835 224.08C162.835 224.24 162.822 224.407 162.795 224.58H154.575V223.04H160.415C160.375 222.333 160.122 221.773 159.655 221.36C159.202 220.947 158.629 220.74 157.935 220.74C157.442 220.74 156.982 220.853 156.555 221.08C156.142 221.293 155.809 221.62 155.555 222.06C155.315 222.5 155.195 223.053 155.195 223.72V224.3C155.195 224.927 155.315 225.46 155.555 225.9C155.795 226.34 156.122 226.68 156.535 226.92C156.949 227.147 157.409 227.26 157.915 227.26C158.462 227.26 158.915 227.14 159.275 226.9C159.649 226.66 159.929 226.333 160.115 225.92H162.555C162.369 226.547 162.062 227.113 161.635 227.62C161.209 228.113 160.682 228.507 160.055 228.8C159.429 229.093 158.715 229.24 157.915 229.24ZM165.011 229V219.02H167.151L167.311 220.7C167.631 220.113 168.078 219.647 168.651 219.3C169.238 218.953 169.918 218.78 170.691 218.78C171.518 218.78 172.218 218.953 172.791 219.3C173.365 219.633 173.805 220.133 174.111 220.8C174.418 221.467 174.571 222.287 174.571 223.26V229H172.171V223.5C172.171 222.633 171.985 221.967 171.611 221.5C171.251 221.033 170.698 220.8 169.951 220.8C169.471 220.8 169.038 220.92 168.651 221.16C168.265 221.4 167.958 221.74 167.731 222.18C167.518 222.607 167.411 223.14 167.411 223.78V229H165.011ZM181.403 229C180.723 229 180.129 228.893 179.623 228.68C179.129 228.467 178.743 228.113 178.463 227.62C178.196 227.127 178.063 226.46 178.063 225.62V221.02H176.343V219.02H178.063L178.323 216.4H180.443V219.02H183.183V221.02H180.463V225.62C180.463 226.127 180.569 226.48 180.783 226.68C180.996 226.867 181.363 226.96 181.883 226.96H183.103V229H181.403ZM189.423 229.24C188.556 229.24 187.789 229.1 187.123 228.82C186.456 228.527 185.929 228.127 185.543 227.62C185.156 227.1 184.923 226.513 184.843 225.86H187.263C187.329 226.127 187.449 226.38 187.623 226.62C187.809 226.847 188.049 227.027 188.343 227.16C188.649 227.293 189.003 227.36 189.403 227.36C189.789 227.36 190.109 227.307 190.363 227.2C190.616 227.08 190.803 226.933 190.923 226.76C191.043 226.573 191.103 226.373 191.103 226.16C191.103 225.84 191.016 225.6 190.843 225.44C190.669 225.28 190.416 225.153 190.083 225.06C189.763 224.953 189.376 224.847 188.923 224.74C188.483 224.647 188.036 224.533 187.583 224.4C187.143 224.267 186.743 224.093 186.383 223.88C186.036 223.667 185.749 223.4 185.523 223.08C185.309 222.747 185.203 222.347 185.203 221.88C185.203 221.293 185.356 220.767 185.663 220.3C185.983 219.82 186.436 219.447 187.023 219.18C187.623 218.913 188.329 218.78 189.143 218.78C190.303 218.78 191.229 219.053 191.923 219.6C192.629 220.133 193.043 220.88 193.163 221.84H190.883C190.816 221.467 190.629 221.18 190.323 220.98C190.029 220.767 189.636 220.66 189.143 220.66C188.623 220.66 188.229 220.76 187.963 220.96C187.696 221.16 187.563 221.413 187.563 221.72C187.563 221.92 187.649 222.1 187.823 222.26C187.996 222.42 188.243 222.56 188.563 222.68C188.883 222.787 189.263 222.887 189.703 222.98C190.423 223.127 191.063 223.3 191.623 223.5C192.196 223.7 192.656 223.993 193.003 224.38C193.349 224.753 193.523 225.3 193.523 226.02C193.536 226.647 193.369 227.207 193.023 227.7C192.689 228.18 192.216 228.56 191.603 228.84C190.989 229.107 190.263 229.24 189.423 229.24Z" fill="white"/>
</svg>
