<svg width="48" height="28" viewBox="0 0 48 28" fill="none" xmlns="http://www.w3.org/2000/svg">
<path d="M23.8896 1.50293C24.8563 1.46471 25.7671 1.89279 26.3564 2.63477L26.3574 2.63379L35.1504 13.6885L41.8486 9.32422L41.8516 9.32227L42.0449 9.20703C43.0257 8.6705 44.2431 8.71111 45.1895 9.34961H45.1904C46.2077 10.0353 46.7023 11.2736 46.4229 12.4717L46.4219 12.4756L43.3848 25.3447L43.1123 26.5H4.88867L4.61621 25.3447L1.57812 12.4756V12.4746C1.30432 11.3105 1.76328 10.1068 2.72363 9.40918L2.72559 9.4082L2.9082 9.28613C3.83791 8.71107 5.01658 8.68074 5.97754 9.21875H5.97656L14.0615 13.7354L21.5117 2.81055V2.80957L21.6172 2.66504C22.1633 1.95991 22.9978 1.53464 23.8896 1.50195V1.50293Z" fill="#E9FA49" stroke="#051A2F" stroke-width="3"/>
</svg>
