<svg width="565" height="133" viewBox="0 0 565 133" fill="none" xmlns="http://www.w3.org/2000/svg">
<path d="M69.3812 42.7924C70.2541 41.3159 70.1491 39.4364 69.1176 38.0729L40.313 0H95.8341C97.6857 0 99.4352 0.874596 100.582 2.37344L125.244 34.6103C127.331 37.3385 127.552 41.1175 125.798 44.0845L100.8 86.3698C99.7019 88.2265 97.7452 89.3594 95.6362 89.3594H80.1478L107.674 42.7994C108.549 41.3194 108.441 39.435 107.404 38.0712L91.0888 16.625H73.2851L86.9697 34.6138C89.0446 37.3414 89.26 41.1101 87.5101 44.0701L59.6145 91.2554C58.7444 92.7272 58.8457 94.6 59.8691 95.9629L87.6801 133H32.1723C30.3132 133 28.5574 132.118 27.4112 130.609L3.72807 99.4235C1.65683 96.6961 1.44314 92.9303 3.19176 89.9725L27.5868 48.7084C28.6845 46.8517 30.6411 45.7188 32.7502 45.7188H48.2386L21.3274 91.2389C20.4524 92.7189 20.5601 94.6033 21.5976 95.9671L37.1224 116.375H54.9263L42.0316 99.4245C39.9567 96.6969 39.7413 92.9281 41.4912 89.9682L69.3812 42.7924Z" fill="#9D89FC"/>
<path d="M145 126.656V6.34375H181.914C188.066 6.34375 192.715 7.75651 195.859 10.582C199.004 13.362 201.1 17.2812 202.148 22.3398C203.242 27.3529 203.789 33.2546 203.789 40.0449C203.789 46.6074 202.946 51.8483 201.26 55.7676C199.619 59.6868 196.497 62.3984 191.895 63.9023C195.677 64.6771 198.32 66.5684 199.824 69.5762C201.374 72.5384 202.148 76.3893 202.148 81.1289V126.656H178.428V79.5566C178.428 76.0475 177.699 73.8828 176.24 73.0625C174.827 72.1966 172.526 71.7637 169.336 71.7637V126.656H145ZM169.473 50.9141H175.283C178.61 50.9141 180.273 47.291 180.273 40.0449C180.273 35.3509 179.909 32.2747 179.18 30.8164C178.451 29.3581 177.083 28.6289 175.078 28.6289H169.473V50.9141Z" fill="#051A2F"/>
<path d="M209.719 126.656V6.34375H257.844V29.5859H234.191V53.0332H256.887V75.6602H234.191V103.209H259.416V126.656H209.719Z" fill="#051A2F"/>
<path d="M276.488 126.656L261.654 6.27539H284.555L293.373 88.1699L301.234 6.27539H324.135L309.301 126.656H276.488Z" fill="#051A2F"/>
<path d="M329.176 126.656V6.34375H377.301V29.5859H353.648V53.0332H376.344V75.6602H353.648V103.209H378.873V126.656H329.176Z" fill="#051A2F"/>
<path d="M384.871 126.656V6.34375H409.617L420.691 63.9707V6.34375H443.934V126.656H420.418L408.387 66.5V126.656H384.871Z" fill="#051A2F"/>
<path d="M462.92 126.656V29.4492H448.633V6.34375H501.27V29.4492H486.982V126.656H462.92Z" fill="#051A2F"/>
<path d="M534.68 127.75C525.064 127.75 517.704 124.856 512.6 119.068C507.541 113.235 505.012 104.827 505.012 93.8438V36.6953C505.012 26.3958 507.518 18.5801 512.531 13.248C517.59 7.91602 524.973 5.25 534.68 5.25C544.387 5.25 551.747 7.91602 556.76 13.248C561.818 18.5801 564.348 26.3958 564.348 36.6953V93.8438C564.348 104.827 561.796 113.235 556.691 119.068C551.633 124.856 544.296 127.75 534.68 127.75ZM534.885 105.602C538.531 105.602 540.354 102.07 540.354 95.0059V36.2852C540.354 30.3607 538.576 27.3984 535.021 27.3984C531.011 27.3984 529.006 30.429 529.006 36.4902V95.1426C529.006 98.8796 529.462 101.568 530.373 103.209C531.285 104.804 532.788 105.602 534.885 105.602Z" fill="#051A2F"/>
</svg>
