<svg width="300" height="269" viewBox="0 0 300 269" fill="none" xmlns="http://www.w3.org/2000/svg">
<rect width="300" height="269" fill="white"/>
<path d="M114.6 49.24C113.587 49.24 112.687 49.06 111.9 48.7C111.127 48.34 110.513 47.8267 110.06 47.16C109.62 46.4933 109.393 45.7 109.38 44.78H111.92C111.933 45.2467 112.047 45.6667 112.26 46.04C112.473 46.4 112.773 46.6867 113.16 46.9C113.56 47.1133 114.04 47.22 114.6 47.22C115.08 47.22 115.493 47.1467 115.84 47C116.2 46.84 116.473 46.62 116.66 46.34C116.86 46.0467 116.96 45.7067 116.96 45.32C116.96 44.88 116.853 44.5133 116.64 44.22C116.427 43.9267 116.14 43.6867 115.78 43.5C115.42 43.3 115.007 43.1267 114.54 42.98C114.073 42.82 113.58 42.6533 113.06 42.48C111.967 42.1067 111.14 41.6333 110.58 41.06C110.02 40.4733 109.74 39.6933 109.74 38.72C109.74 37.9067 109.933 37.2067 110.32 36.62C110.707 36.0333 111.253 35.58 111.96 35.26C112.667 34.9267 113.473 34.76 114.38 34.76C115.313 34.76 116.127 34.9267 116.82 35.26C117.527 35.5933 118.08 36.06 118.48 36.66C118.893 37.2467 119.107 37.9533 119.12 38.78H116.56C116.547 38.4333 116.453 38.1133 116.28 37.82C116.107 37.5133 115.853 37.2667 115.52 37.08C115.2 36.88 114.807 36.78 114.34 36.78C113.953 36.7667 113.6 36.8333 113.28 36.98C112.96 37.1133 112.707 37.3133 112.52 37.58C112.347 37.8333 112.26 38.1533 112.26 38.54C112.26 38.9133 112.347 39.2267 112.52 39.48C112.693 39.72 112.933 39.9267 113.24 40.1C113.56 40.26 113.933 40.4133 114.36 40.56C114.787 40.7067 115.253 40.8667 115.76 41.04C116.453 41.2667 117.08 41.5467 117.64 41.88C118.213 42.2 118.667 42.62 119 43.14C119.333 43.66 119.5 44.3333 119.5 45.16C119.5 45.88 119.313 46.5533 118.94 47.18C118.567 47.7933 118.02 48.2933 117.3 48.68C116.58 49.0533 115.68 49.24 114.6 49.24ZM126.075 49C125.395 49 124.801 48.8933 124.295 48.68C123.801 48.4667 123.415 48.1133 123.135 47.62C122.868 47.1267 122.735 46.46 122.735 45.62V41.02H121.015V39.02H122.735L122.995 36.4H125.115V39.02H127.855V41.02H125.135V45.62C125.135 46.1267 125.241 46.48 125.455 46.68C125.668 46.8667 126.035 46.96 126.555 46.96H127.775V49H126.075ZM130.054 49V39.02H132.214L132.434 40.9C132.661 40.46 132.948 40.0867 133.294 39.78C133.654 39.46 134.068 39.2133 134.534 39.04C135.014 38.8667 135.548 38.78 136.134 38.78V41.3H135.394C134.981 41.3 134.594 41.3533 134.234 41.46C133.874 41.5533 133.561 41.7133 133.294 41.94C133.028 42.1667 132.821 42.4733 132.674 42.86C132.528 43.2467 132.454 43.7267 132.454 44.3V49H130.054ZM141.286 49.24C140.459 49.24 139.773 49.1067 139.226 48.84C138.679 48.56 138.273 48.1933 138.006 47.74C137.739 47.2733 137.606 46.76 137.606 46.2C137.606 45.5733 137.766 45.0267 138.086 44.56C138.419 44.0933 138.906 43.7333 139.546 43.48C140.186 43.2133 140.973 43.08 141.906 43.08H144.446C144.446 42.56 144.366 42.1267 144.206 41.78C144.059 41.4333 143.833 41.1733 143.526 41C143.219 40.8267 142.826 40.74 142.346 40.74C141.799 40.74 141.326 40.8733 140.926 41.14C140.539 41.3933 140.299 41.7667 140.206 42.26H137.846C137.926 41.54 138.166 40.92 138.566 40.4C138.979 39.88 139.519 39.48 140.186 39.2C140.853 38.92 141.579 38.78 142.366 38.78C143.299 38.78 144.099 38.9467 144.766 39.28C145.446 39.6 145.959 40.06 146.306 40.66C146.666 41.26 146.846 41.9867 146.846 42.84V49H144.806L144.566 47.4C144.433 47.6533 144.259 47.8933 144.046 48.12C143.846 48.3467 143.613 48.5467 143.346 48.72C143.079 48.88 142.773 49.0067 142.426 49.1C142.093 49.1933 141.713 49.24 141.286 49.24ZM141.826 47.34C142.213 47.34 142.559 47.2733 142.866 47.14C143.173 46.9933 143.433 46.7933 143.646 46.54C143.859 46.2867 144.026 46 144.146 45.68C144.279 45.36 144.359 45.02 144.386 44.66V44.64H142.166C141.686 44.64 141.293 44.7 140.986 44.82C140.693 44.94 140.473 45.1067 140.326 45.32C140.193 45.52 140.126 45.7533 140.126 46.02C140.126 46.3 140.193 46.54 140.326 46.74C140.459 46.94 140.653 47.0933 140.906 47.2C141.173 47.2933 141.479 47.34 141.826 47.34ZM153.555 49C152.875 49 152.282 48.8933 151.775 48.68C151.282 48.4667 150.895 48.1133 150.615 47.62C150.348 47.1267 150.215 46.46 150.215 45.62V41.02H148.495V39.02H150.215L150.475 36.4H152.595V39.02H155.335V41.02H152.615V45.62C152.615 46.1267 152.722 46.48 152.935 46.68C153.148 46.8667 153.515 46.96 154.035 46.96H155.255V49H153.555ZM162.021 49.24C161.034 49.24 160.154 49.0267 159.381 48.6C158.621 48.16 158.021 47.5533 157.581 46.78C157.154 46.0067 156.941 45.1067 156.941 44.08C156.941 43.0267 157.154 42.1067 157.581 41.32C158.008 40.52 158.601 39.9 159.361 39.46C160.134 39.0067 161.028 38.78 162.041 38.78C163.028 38.78 163.888 39 164.621 39.44C165.354 39.8667 165.921 40.4467 166.321 41.18C166.734 41.9 166.941 42.72 166.941 43.64C166.941 43.7733 166.941 43.92 166.941 44.08C166.941 44.24 166.928 44.4067 166.901 44.58H158.681V43.04H164.521C164.481 42.3333 164.228 41.7733 163.761 41.36C163.308 40.9467 162.734 40.74 162.041 40.74C161.548 40.74 161.088 40.8533 160.661 41.08C160.248 41.2933 159.914 41.62 159.661 42.06C159.421 42.5 159.301 43.0533 159.301 43.72V44.3C159.301 44.9267 159.421 45.46 159.661 45.9C159.901 46.34 160.228 46.68 160.641 46.92C161.054 47.1467 161.514 47.26 162.021 47.26C162.568 47.26 163.021 47.14 163.381 46.9C163.754 46.66 164.034 46.3333 164.221 45.92H166.661C166.474 46.5467 166.168 47.1133 165.741 47.62C165.314 48.1133 164.788 48.5067 164.161 48.8C163.534 49.0933 162.821 49.24 162.021 49.24ZM173.142 53.64C172.208 53.64 171.388 53.52 170.682 53.28C169.975 53.0533 169.422 52.7 169.022 52.22C168.635 51.7533 168.442 51.1667 168.442 50.46C168.442 50.0467 168.542 49.6467 168.742 49.26C168.955 48.8733 169.268 48.5133 169.682 48.18C170.108 47.8333 170.648 47.5333 171.302 47.28L172.342 48.44C171.715 48.6667 171.275 48.94 171.022 49.26C170.768 49.58 170.642 49.9 170.642 50.22C170.642 50.5667 170.748 50.8533 170.962 51.08C171.188 51.32 171.488 51.5 171.862 51.62C172.248 51.74 172.675 51.8 173.142 51.8C173.608 51.8 174.008 51.7333 174.342 51.6C174.688 51.48 174.955 51.3067 175.142 51.08C175.342 50.8533 175.442 50.58 175.442 50.26C175.442 49.8733 175.302 49.5533 175.022 49.3C174.742 49.06 174.195 48.9133 173.382 48.86C172.675 48.8067 172.055 48.7333 171.522 48.64C171.002 48.5333 170.548 48.4133 170.162 48.28C169.788 48.1467 169.468 48 169.202 47.84C168.935 47.6667 168.715 47.4933 168.542 47.32V46.86L170.622 44.64L172.402 45.24L170.062 47.54L170.682 46.4C170.815 46.4933 170.948 46.58 171.082 46.66C171.228 46.7267 171.408 46.7933 171.622 46.86C171.848 46.9133 172.135 46.9667 172.482 47.02C172.842 47.0733 173.308 47.1267 173.882 47.18C174.762 47.2467 175.482 47.4067 176.042 47.66C176.602 47.9133 177.008 48.2533 177.262 48.68C177.528 49.1067 177.662 49.6133 177.662 50.2C177.662 50.7867 177.502 51.34 177.182 51.86C176.862 52.38 176.368 52.8067 175.702 53.14C175.035 53.4733 174.182 53.64 173.142 53.64ZM173.162 46C172.322 46 171.595 45.84 170.982 45.52C170.382 45.1867 169.922 44.7533 169.602 44.22C169.282 43.6733 169.122 43.06 169.122 42.38C169.122 41.7133 169.282 41.1133 169.602 40.58C169.935 40.0333 170.402 39.6 171.002 39.28C171.602 38.9467 172.322 38.78 173.162 38.78C174.002 38.78 174.722 38.9467 175.322 39.28C175.922 39.6 176.382 40.0333 176.702 40.58C177.022 41.1133 177.182 41.7133 177.182 42.38C177.182 43.06 177.022 43.6733 176.702 44.22C176.382 44.7533 175.922 45.1867 175.322 45.52C174.722 45.84 174.002 46 173.162 46ZM173.162 44.14C173.722 44.14 174.175 43.9933 174.522 43.7C174.882 43.3933 175.062 42.96 175.062 42.4C175.062 41.84 174.882 41.4133 174.522 41.12C174.175 40.8133 173.722 40.66 173.162 40.66C172.588 40.66 172.122 40.8133 171.762 41.12C171.415 41.4133 171.242 41.84 171.242 42.4C171.242 42.96 171.415 43.3933 171.762 43.7C172.122 43.9933 172.588 44.14 173.162 44.14ZM174.782 40.78L174.322 39.02H178.482V40.52L174.782 40.78ZM181.821 53.4L184.281 47.88H183.701L179.681 39.02H182.281L185.301 45.78L188.141 39.02H190.681L184.361 53.4H181.821Z" fill="#051A2F"/>
<path opacity="0.6" d="M92.55 75V65.2H95.434C96.582 65.2 97.5247 65.4007 98.262 65.802C99.0087 66.194 99.5593 66.7587 99.914 67.496C100.278 68.224 100.46 69.1013 100.46 70.128C100.46 71.136 100.278 72.004 99.914 72.732C99.5593 73.46 99.0087 74.02 98.262 74.412C97.5247 74.804 96.582 75 95.434 75H92.55ZM93.726 74.02H95.406C96.358 74.02 97.114 73.866 97.674 73.558C98.234 73.2407 98.6353 72.7927 98.878 72.214C99.1207 71.626 99.242 70.9307 99.242 70.128C99.242 69.3067 99.1207 68.602 98.878 68.014C98.6353 67.426 98.234 66.9733 97.674 66.656C97.114 66.3387 96.358 66.18 95.406 66.18H93.726V74.02ZM104.681 75.168C104.139 75.168 103.663 75.0607 103.253 74.846C102.851 74.6313 102.539 74.3 102.315 73.852C102.1 73.404 101.993 72.844 101.993 72.172V67.944H103.169V72.046C103.169 72.746 103.323 73.2733 103.631 73.628C103.939 73.9827 104.373 74.16 104.933 74.16C105.325 74.16 105.679 74.0667 105.997 73.88C106.314 73.684 106.561 73.4087 106.739 73.054C106.925 72.69 107.019 72.2467 107.019 71.724V67.944H108.195V75H107.131L107.061 73.768C106.846 74.2067 106.529 74.552 106.109 74.804C105.689 75.0467 105.213 75.168 104.681 75.168ZM110.144 75V67.944H111.208L111.292 69.288C111.451 68.9707 111.651 68.7 111.894 68.476C112.146 68.252 112.445 68.0793 112.79 67.958C113.145 67.8367 113.546 67.776 113.994 67.776V69.008H113.56C113.261 69.008 112.977 69.05 112.706 69.134C112.435 69.2087 112.193 69.3347 111.978 69.512C111.773 69.6893 111.609 69.932 111.488 70.24C111.376 70.5387 111.32 70.912 111.32 71.36V75H110.144ZM117.622 75.168C117.052 75.168 116.576 75.07 116.194 74.874C115.811 74.6687 115.526 74.4027 115.34 74.076C115.153 73.74 115.06 73.376 115.06 72.984C115.06 72.508 115.181 72.1067 115.424 71.78C115.676 71.444 116.026 71.192 116.474 71.024C116.931 70.8467 117.468 70.758 118.084 70.758H119.946C119.946 70.3193 119.876 69.9553 119.736 69.666C119.605 69.3673 119.409 69.1433 119.148 68.994C118.896 68.8447 118.578 68.77 118.196 68.77C117.748 68.77 117.36 68.882 117.034 69.106C116.707 69.33 116.506 69.6613 116.432 70.1H115.228C115.284 69.596 115.452 69.176 115.732 68.84C116.021 68.4947 116.385 68.2333 116.824 68.056C117.262 67.8693 117.72 67.776 118.196 67.776C118.849 67.776 119.39 67.8973 119.82 68.14C120.258 68.3733 120.585 68.7047 120.8 69.134C121.014 69.554 121.122 70.0533 121.122 70.632V75H120.072L120.002 73.754C119.908 73.95 119.787 74.1367 119.638 74.314C119.498 74.482 119.33 74.6313 119.134 74.762C118.938 74.8833 118.714 74.9813 118.462 75.056C118.219 75.1307 117.939 75.168 117.622 75.168ZM117.804 74.174C118.13 74.174 118.424 74.1087 118.686 73.978C118.956 73.838 119.185 73.6513 119.372 73.418C119.558 73.1753 119.698 72.9093 119.792 72.62C119.894 72.3307 119.946 72.0273 119.946 71.71V71.668H118.182C117.724 71.668 117.356 71.724 117.076 71.836C116.796 71.9387 116.595 72.088 116.474 72.284C116.352 72.4707 116.292 72.6853 116.292 72.928C116.292 73.18 116.348 73.3993 116.46 73.586C116.581 73.7727 116.754 73.9173 116.978 74.02C117.211 74.1227 117.486 74.174 117.804 74.174ZM125.522 75C125.102 75 124.738 74.9347 124.43 74.804C124.122 74.6733 123.884 74.454 123.716 74.146C123.557 73.8287 123.478 73.404 123.478 72.872V68.938H122.246V67.944H123.478L123.632 66.236H124.654V67.944H126.698V68.938H124.654V72.872C124.654 73.3107 124.742 73.6093 124.92 73.768C125.097 73.9173 125.41 73.992 125.858 73.992H126.614V75H125.522ZM128.344 75V67.944H129.52V75H128.344ZM128.932 66.446C128.699 66.446 128.503 66.3713 128.344 66.222C128.195 66.0633 128.12 65.8673 128.12 65.634C128.12 65.4007 128.195 65.214 128.344 65.074C128.503 64.9247 128.699 64.85 128.932 64.85C129.156 64.85 129.347 64.9247 129.506 65.074C129.665 65.214 129.744 65.4007 129.744 65.634C129.744 65.8673 129.665 66.0633 129.506 66.222C129.347 66.3713 129.156 66.446 128.932 66.446ZM134.745 75.168C134.092 75.168 133.504 75.0187 132.981 74.72C132.459 74.412 132.048 73.9827 131.749 73.432C131.451 72.872 131.301 72.2233 131.301 71.486C131.301 70.73 131.451 70.0767 131.749 69.526C132.057 68.966 132.473 68.5367 132.995 68.238C133.527 67.93 134.12 67.776 134.773 67.776C135.445 67.776 136.038 67.93 136.551 68.238C137.074 68.5367 137.485 68.966 137.783 69.526C138.091 70.0767 138.245 70.7253 138.245 71.472C138.245 72.2187 138.091 72.872 137.783 73.432C137.475 73.9827 137.06 74.412 136.537 74.72C136.015 75.0187 135.417 75.168 134.745 75.168ZM134.759 74.16C135.161 74.16 135.534 74.062 135.879 73.866C136.225 73.6607 136.505 73.3573 136.719 72.956C136.934 72.5547 137.041 72.06 137.041 71.472C137.041 70.8747 136.934 70.38 136.719 69.988C136.514 69.5867 136.239 69.288 135.893 69.092C135.557 68.8867 135.184 68.784 134.773 68.784C134.381 68.784 134.008 68.8867 133.653 69.092C133.308 69.288 133.028 69.5867 132.813 69.988C132.608 70.38 132.505 70.8747 132.505 71.472C132.505 72.06 132.608 72.5547 132.813 72.956C133.028 73.3573 133.303 73.6607 133.639 73.866C133.985 74.062 134.358 74.16 134.759 74.16ZM139.894 75V67.944H140.958L141.014 69.176C141.238 68.7373 141.555 68.3967 141.966 68.154C142.386 67.902 142.862 67.776 143.394 67.776C143.945 67.776 144.421 67.888 144.822 68.112C145.223 68.3267 145.536 68.658 145.76 69.106C145.984 69.5447 146.096 70.1047 146.096 70.786V75H144.92V70.912C144.92 70.2027 144.761 69.6707 144.444 69.316C144.136 68.9613 143.697 68.784 143.128 68.784C142.736 68.784 142.386 68.882 142.078 69.078C141.77 69.2647 141.523 69.54 141.336 69.904C141.159 70.2587 141.07 70.702 141.07 71.234V75H139.894ZM148.353 75.07C148.12 75.07 147.924 74.9953 147.765 74.846C147.616 74.6873 147.541 74.496 147.541 74.272C147.541 74.048 147.616 73.8613 147.765 73.712C147.924 73.5533 148.12 73.474 148.353 73.474C148.586 73.474 148.778 73.5533 148.927 73.712C149.076 73.8613 149.151 74.048 149.151 74.272C149.151 74.496 149.076 74.6873 148.927 74.846C148.778 74.9953 148.586 75.07 148.353 75.07ZM148.353 69.372C148.12 69.372 147.924 69.2973 147.765 69.148C147.616 68.9893 147.541 68.798 147.541 68.574C147.541 68.35 147.616 68.1633 147.765 68.014C147.924 67.8553 148.12 67.776 148.353 67.776C148.586 67.776 148.778 67.8553 148.927 68.014C149.076 68.1633 149.151 68.35 149.151 68.574C149.151 68.798 149.076 68.9893 148.927 69.148C148.778 69.2973 148.586 69.372 148.353 69.372ZM157.604 75.168C156.979 75.168 156.409 75.056 155.896 74.832C155.392 74.5987 154.991 74.2533 154.692 73.796C154.393 73.3387 154.235 72.7693 154.216 72.088H155.406C155.415 72.4613 155.504 72.8067 155.672 73.124C155.849 73.432 156.101 73.6793 156.428 73.866C156.755 74.0527 157.147 74.146 157.604 74.146C158.061 74.146 158.444 74.0573 158.752 73.88C159.06 73.7027 159.293 73.4693 159.452 73.18C159.611 72.8813 159.69 72.55 159.69 72.186C159.69 71.7287 159.578 71.36 159.354 71.08C159.139 70.7907 158.845 70.5807 158.472 70.45C158.108 70.31 157.707 70.24 157.268 70.24H156.54V69.246H157.268C157.912 69.246 158.416 69.0967 158.78 68.798C159.144 68.4993 159.326 68.0887 159.326 67.566C159.326 67.1367 159.181 66.7773 158.892 66.488C158.612 66.1987 158.183 66.054 157.604 66.054C157.053 66.054 156.615 66.2127 156.288 66.53C155.961 66.8473 155.775 67.2533 155.728 67.748H154.538C154.566 67.216 154.711 66.7447 154.972 66.334C155.233 65.9233 155.588 65.606 156.036 65.382C156.484 65.1487 157.011 65.032 157.618 65.032C158.253 65.032 158.785 65.144 159.214 65.368C159.643 65.592 159.965 65.8907 160.18 66.264C160.404 66.6373 160.516 67.048 160.516 67.496C160.516 67.832 160.455 68.1493 160.334 68.448C160.213 68.7373 160.031 68.994 159.788 69.218C159.545 69.442 159.237 69.6007 158.864 69.694C159.247 69.7687 159.587 69.9133 159.886 70.128C160.194 70.3427 160.437 70.6227 160.614 70.968C160.791 71.3133 160.88 71.7193 160.88 72.186C160.88 72.718 160.754 73.2127 160.502 73.67C160.259 74.118 159.895 74.482 159.41 74.762C158.925 75.0327 158.323 75.168 157.604 75.168ZM168.558 75L165.87 65.2H167.13L169.244 73.6L171.638 65.2H172.954L175.292 73.628L177.434 65.2H178.694L175.95 75H174.606L172.268 66.894L169.874 75H168.558ZM182.404 75.168C181.741 75.168 181.153 75.014 180.64 74.706C180.136 74.398 179.739 73.9687 179.45 73.418C179.161 72.858 179.016 72.2093 179.016 71.472C179.016 70.7253 179.156 70.0767 179.436 69.526C179.725 68.9753 180.127 68.546 180.64 68.238C181.163 67.93 181.76 67.776 182.432 67.776C183.123 67.776 183.706 67.93 184.182 68.238C184.667 68.546 185.036 68.952 185.288 69.456C185.549 69.9507 185.68 70.4967 185.68 71.094C185.68 71.1873 185.68 71.2853 185.68 71.388C185.68 71.4907 185.675 71.6073 185.666 71.738H179.898V70.828H184.532C184.504 70.184 184.289 69.68 183.888 69.316C183.496 68.952 183.001 68.77 182.404 68.77C182.003 68.77 181.629 68.8633 181.284 69.05C180.948 69.2273 180.677 69.4933 180.472 69.848C180.267 70.1933 180.164 70.6273 180.164 71.15V71.542C180.164 72.1207 180.267 72.606 180.472 72.998C180.687 73.39 180.962 73.684 181.298 73.88C181.643 74.076 182.012 74.174 182.404 74.174C182.899 74.174 183.305 74.0667 183.622 73.852C183.949 73.628 184.182 73.3293 184.322 72.956H185.484C185.372 73.376 185.176 73.754 184.896 74.09C184.616 74.426 184.266 74.692 183.846 74.888C183.435 75.0747 182.955 75.168 182.404 75.168ZM190.361 75.168C189.698 75.168 189.11 75.014 188.597 74.706C188.093 74.398 187.696 73.9687 187.407 73.418C187.118 72.858 186.973 72.2093 186.973 71.472C186.973 70.7253 187.113 70.0767 187.393 69.526C187.682 68.9753 188.084 68.546 188.597 68.238C189.12 67.93 189.717 67.776 190.389 67.776C191.08 67.776 191.663 67.93 192.139 68.238C192.624 68.546 192.993 68.952 193.245 69.456C193.506 69.9507 193.637 70.4967 193.637 71.094C193.637 71.1873 193.637 71.2853 193.637 71.388C193.637 71.4907 193.632 71.6073 193.623 71.738H187.855V70.828H192.489C192.461 70.184 192.246 69.68 191.845 69.316C191.453 68.952 190.958 68.77 190.361 68.77C189.96 68.77 189.586 68.8633 189.241 69.05C188.905 69.2273 188.634 69.4933 188.429 69.848C188.224 70.1933 188.121 70.6273 188.121 71.15V71.542C188.121 72.1207 188.224 72.606 188.429 72.998C188.644 73.39 188.919 73.684 189.255 73.88C189.6 74.076 189.969 74.174 190.361 74.174C190.856 74.174 191.262 74.0667 191.579 73.852C191.906 73.628 192.139 73.3293 192.279 72.956H193.441C193.329 73.376 193.133 73.754 192.853 74.09C192.573 74.426 192.223 74.692 191.803 74.888C191.392 75.0747 190.912 75.168 190.361 75.168ZM199.564 75L196.204 71.136L199.27 67.944H200.712L197.198 71.556L197.212 70.716L201.062 75H199.564ZM195.224 75V64.92H196.4V75H195.224ZM204.529 75.168C203.941 75.168 203.427 75.07 202.989 74.874C202.559 74.678 202.214 74.4073 201.953 74.062C201.701 73.7073 201.547 73.292 201.491 72.816H202.695C202.741 73.0587 202.839 73.2827 202.989 73.488C203.138 73.6933 203.339 73.8613 203.591 73.992C203.852 74.1133 204.169 74.174 204.543 74.174C204.869 74.174 205.14 74.1273 205.355 74.034C205.569 73.9313 205.728 73.796 205.831 73.628C205.943 73.46 205.999 73.278 205.999 73.082C205.999 72.7927 205.929 72.5733 205.789 72.424C205.658 72.2747 205.462 72.158 205.201 72.074C204.939 71.9807 204.622 71.9013 204.249 71.836C203.941 71.78 203.637 71.7053 203.339 71.612C203.04 71.5187 202.774 71.3973 202.541 71.248C202.307 71.0893 202.121 70.898 201.981 70.674C201.85 70.45 201.785 70.1747 201.785 69.848C201.785 69.4467 201.887 69.092 202.093 68.784C202.298 68.4667 202.592 68.2193 202.975 68.042C203.367 67.8647 203.819 67.776 204.333 67.776C205.089 67.776 205.7 67.958 206.167 68.322C206.633 68.686 206.909 69.2133 206.993 69.904H205.831C205.784 69.5493 205.63 69.274 205.369 69.078C205.117 68.8727 204.767 68.77 204.319 68.77C203.88 68.77 203.544 68.8587 203.311 69.036C203.087 69.2133 202.975 69.4467 202.975 69.736C202.975 69.9227 203.035 70.0907 203.157 70.24C203.287 70.38 203.474 70.5013 203.717 70.604C203.969 70.7067 204.277 70.7907 204.641 70.856C205.107 70.94 205.532 71.052 205.915 71.192C206.297 71.332 206.605 71.542 206.839 71.822C207.081 72.0927 207.203 72.48 207.203 72.984C207.203 73.4227 207.091 73.8053 206.867 74.132C206.652 74.4587 206.344 74.7153 205.943 74.902C205.541 75.0793 205.07 75.168 204.529 75.168Z" fill="#051A2F"/>
<rect x="76.5" y="117" width="147" height="42" rx="21" fill="#E9FA49"/>
<path d="M93.9 145V131H102.84V132.94H96.3V137.04H101.64V138.94H96.3V145H93.9ZM108.517 145.24C107.703 145.24 107.003 145.073 106.417 144.74C105.843 144.407 105.403 143.907 105.097 143.24C104.79 142.573 104.637 141.747 104.637 140.76V135.02H107.037V140.52C107.037 141.4 107.217 142.073 107.577 142.54C107.95 142.993 108.51 143.22 109.257 143.22C109.737 143.22 110.17 143.107 110.557 142.88C110.943 142.64 111.243 142.3 111.457 141.86C111.683 141.42 111.797 140.88 111.797 140.24V135.02H114.197V145H112.077L111.897 143.32C111.59 143.907 111.143 144.373 110.557 144.72C109.97 145.067 109.29 145.24 108.517 145.24ZM116.828 145V135.02H118.968L119.128 136.7C119.448 136.113 119.894 135.647 120.468 135.3C121.054 134.953 121.734 134.78 122.508 134.78C123.334 134.78 124.034 134.953 124.608 135.3C125.181 135.633 125.621 136.133 125.928 136.8C126.234 137.467 126.388 138.287 126.388 139.26V145H123.988V139.5C123.988 138.633 123.801 137.967 123.428 137.5C123.068 137.033 122.514 136.8 121.768 136.8C121.288 136.8 120.854 136.92 120.468 137.16C120.081 137.4 119.774 137.74 119.548 138.18C119.334 138.607 119.228 139.14 119.228 139.78V145H116.828ZM133.219 145C132.539 145 131.946 144.893 131.439 144.68C130.946 144.467 130.559 144.113 130.279 143.62C130.012 143.127 129.879 142.46 129.879 141.62V137.02H128.159V135.02H129.879L130.139 132.4H132.259V135.02H134.999V137.02H132.279V141.62C132.279 142.127 132.386 142.48 132.599 142.68C132.812 142.867 133.179 142.96 133.699 142.96H134.919V145H133.219ZM137.319 145V135.02H139.719V145H137.319ZM138.519 133.38C138.079 133.38 137.712 133.247 137.419 132.98C137.139 132.7 136.999 132.36 136.999 131.96C136.999 131.547 137.139 131.213 137.419 130.96C137.712 130.693 138.079 130.56 138.519 130.56C138.959 130.56 139.319 130.693 139.599 130.96C139.892 131.213 140.039 131.547 140.039 131.96C140.039 132.36 139.892 132.7 139.599 132.98C139.319 133.247 138.959 133.38 138.519 133.38ZM147.153 145.24C146.206 145.24 145.346 145.02 144.573 144.58C143.813 144.14 143.213 143.527 142.773 142.74C142.333 141.953 142.113 141.047 142.113 140.02C142.113 138.98 142.333 138.067 142.773 137.28C143.226 136.493 143.833 135.88 144.593 135.44C145.366 135 146.226 134.78 147.173 134.78C148.133 134.78 148.993 135 149.753 135.44C150.526 135.88 151.133 136.493 151.573 137.28C152.013 138.053 152.233 138.967 152.233 140.02C152.233 141.047 152.006 141.953 151.553 142.74C151.113 143.527 150.506 144.14 149.733 144.58C148.973 145.02 148.113 145.24 147.153 145.24ZM147.153 143.18C147.633 143.18 148.066 143.06 148.453 142.82C148.853 142.58 149.173 142.227 149.413 141.76C149.666 141.293 149.793 140.707 149.793 140C149.793 139.307 149.673 138.727 149.433 138.26C149.193 137.793 148.873 137.44 148.473 137.2C148.086 136.96 147.653 136.84 147.173 136.84C146.719 136.84 146.293 136.96 145.893 137.2C145.493 137.44 145.173 137.793 144.933 138.26C144.693 138.727 144.573 139.313 144.573 140.02C144.573 140.7 144.693 141.28 144.933 141.76C145.173 142.227 145.486 142.58 145.873 142.82C146.273 143.06 146.699 143.18 147.153 143.18ZM154.523 145V135.02H156.663L156.823 136.7C157.143 136.113 157.59 135.647 158.163 135.3C158.75 134.953 159.43 134.78 160.203 134.78C161.03 134.78 161.73 134.953 162.303 135.3C162.876 135.633 163.316 136.133 163.623 136.8C163.93 137.467 164.083 138.287 164.083 139.26V145H161.683V139.5C161.683 138.633 161.496 137.967 161.123 137.5C160.763 137.033 160.21 136.8 159.463 136.8C158.983 136.8 158.55 136.92 158.163 137.16C157.776 137.4 157.47 137.74 157.243 138.18C157.03 138.607 156.923 139.14 156.923 139.78V145H154.523ZM169.934 145.24C169.108 145.24 168.421 145.107 167.874 144.84C167.328 144.56 166.921 144.193 166.654 143.74C166.388 143.273 166.254 142.76 166.254 142.2C166.254 141.573 166.414 141.027 166.734 140.56C167.068 140.093 167.554 139.733 168.194 139.48C168.834 139.213 169.621 139.08 170.554 139.08H173.094C173.094 138.56 173.014 138.127 172.854 137.78C172.708 137.433 172.481 137.173 172.174 137C171.868 136.827 171.474 136.74 170.994 136.74C170.448 136.74 169.974 136.873 169.574 137.14C169.188 137.393 168.948 137.767 168.854 138.26H166.494C166.574 137.54 166.814 136.92 167.214 136.4C167.628 135.88 168.168 135.48 168.834 135.2C169.501 134.92 170.228 134.78 171.014 134.78C171.948 134.78 172.748 134.947 173.414 135.28C174.094 135.6 174.608 136.06 174.954 136.66C175.314 137.26 175.494 137.987 175.494 138.84V145H173.454L173.214 143.4C173.081 143.653 172.908 143.893 172.694 144.12C172.494 144.347 172.261 144.547 171.994 144.72C171.728 144.88 171.421 145.007 171.074 145.1C170.741 145.193 170.361 145.24 169.934 145.24ZM170.474 143.34C170.861 143.34 171.208 143.273 171.514 143.14C171.821 142.993 172.081 142.793 172.294 142.54C172.508 142.287 172.674 142 172.794 141.68C172.928 141.36 173.008 141.02 173.034 140.66V140.64H170.814C170.334 140.64 169.941 140.7 169.634 140.82C169.341 140.94 169.121 141.107 168.974 141.32C168.841 141.52 168.774 141.753 168.774 142.02C168.774 142.3 168.841 142.54 168.974 142.74C169.108 142.94 169.301 143.093 169.554 143.2C169.821 143.293 170.128 143.34 170.474 143.34ZM178 145V130.6H180.4V145H178ZM183.178 145V135.02H185.578V145H183.178ZM184.378 133.38C183.938 133.38 183.572 133.247 183.278 132.98C182.998 132.7 182.858 132.36 182.858 131.96C182.858 131.547 182.998 131.213 183.278 130.96C183.572 130.693 183.938 130.56 184.378 130.56C184.818 130.56 185.178 130.693 185.458 130.96C185.752 131.213 185.898 131.547 185.898 131.96C185.898 132.36 185.752 132.7 185.458 132.98C185.178 133.247 184.818 133.38 184.378 133.38ZM192.672 145C191.992 145 191.399 144.893 190.892 144.68C190.399 144.467 190.012 144.113 189.732 143.62C189.466 143.127 189.332 142.46 189.332 141.62V137.02H187.612V135.02H189.332L189.592 132.4H191.712V135.02H194.452V137.02H191.732V141.62C191.732 142.127 191.839 142.48 192.052 142.68C192.266 142.867 192.632 142.96 193.152 142.96H194.372V145H192.672ZM197.872 149.4L200.332 143.88H199.752L195.732 135.02H198.332L201.352 141.78L204.192 135.02H206.732L200.412 149.4H197.872Z" fill="#051A2F"/>
<rect x="51" y="159" width="87" height="42" rx="21" fill="#FF8F27"/>
<path d="M74.5 187.24C73.18 187.24 72.0267 186.94 71.04 186.34C70.0533 185.74 69.2867 184.907 68.74 183.84C68.1933 182.76 67.92 181.5 67.92 180.06C67.92 178.633 68.2 177.373 68.76 176.28C69.32 175.173 70.12 174.313 71.16 173.7C72.2 173.073 73.44 172.76 74.88 172.76C76.5067 172.76 77.86 173.153 78.94 173.94C80.02 174.713 80.7133 175.793 81.02 177.18H78.32C78.12 176.487 77.7267 175.947 77.14 175.56C76.5533 175.173 75.8 174.98 74.88 174.98C73.9333 174.98 73.12 175.187 72.44 175.6C71.76 176 71.24 176.587 70.88 177.36C70.5333 178.12 70.36 179.027 70.36 180.08C70.36 181.133 70.5333 182.04 70.88 182.8C71.24 183.56 71.7467 184.14 72.4 184.54C73.0667 184.927 73.8333 185.12 74.7 185.12C76.0067 185.12 76.9933 184.753 77.66 184.02C78.34 183.287 78.74 182.333 78.86 181.16H75.24V179.34H81.28V187H79.06L78.88 185.08C78.5733 185.533 78.2133 185.927 77.8 186.26C77.4 186.58 76.9267 186.827 76.38 187C75.8467 187.16 75.22 187.24 74.5 187.24ZM88.4497 187.24C87.503 187.24 86.643 187.02 85.8697 186.58C85.1097 186.14 84.5097 185.527 84.0697 184.74C83.6297 183.953 83.4097 183.047 83.4097 182.02C83.4097 180.98 83.6297 180.067 84.0697 179.28C84.523 178.493 85.1297 177.88 85.8897 177.44C86.663 177 87.523 176.78 88.4697 176.78C89.4297 176.78 90.2897 177 91.0497 177.44C91.823 177.88 92.4297 178.493 92.8697 179.28C93.3097 180.053 93.5297 180.967 93.5297 182.02C93.5297 183.047 93.303 183.953 92.8497 184.74C92.4097 185.527 91.803 186.14 91.0297 186.58C90.2697 187.02 89.4097 187.24 88.4497 187.24ZM88.4497 185.18C88.9297 185.18 89.363 185.06 89.7497 184.82C90.1497 184.58 90.4697 184.227 90.7097 183.76C90.963 183.293 91.0897 182.707 91.0897 182C91.0897 181.307 90.9697 180.727 90.7297 180.26C90.4897 179.793 90.1697 179.44 89.7697 179.2C89.383 178.96 88.9497 178.84 88.4697 178.84C88.0164 178.84 87.5897 178.96 87.1897 179.2C86.7897 179.44 86.4697 179.793 86.2297 180.26C85.9897 180.727 85.8697 181.313 85.8697 182.02C85.8697 182.7 85.9897 183.28 86.2297 183.76C86.4697 184.227 86.783 184.58 87.1697 184.82C87.5697 185.06 87.9964 185.18 88.4497 185.18ZM99.2 187.24C98.3733 187.24 97.6867 187.107 97.14 186.84C96.5933 186.56 96.1867 186.193 95.92 185.74C95.6533 185.273 95.52 184.76 95.52 184.2C95.52 183.573 95.68 183.027 96 182.56C96.3333 182.093 96.82 181.733 97.46 181.48C98.1 181.213 98.8867 181.08 99.82 181.08H102.36C102.36 180.56 102.28 180.127 102.12 179.78C101.973 179.433 101.747 179.173 101.44 179C101.133 178.827 100.74 178.74 100.26 178.74C99.7133 178.74 99.24 178.873 98.84 179.14C98.4533 179.393 98.2133 179.767 98.12 180.26H95.76C95.84 179.54 96.08 178.92 96.48 178.4C96.8933 177.88 97.4333 177.48 98.1 177.2C98.7667 176.92 99.4933 176.78 100.28 176.78C101.213 176.78 102.013 176.947 102.68 177.28C103.36 177.6 103.873 178.06 104.22 178.66C104.58 179.26 104.76 179.987 104.76 180.84V187H102.72L102.48 185.4C102.347 185.653 102.173 185.893 101.96 186.12C101.76 186.347 101.527 186.547 101.26 186.72C100.993 186.88 100.687 187.007 100.34 187.1C100.007 187.193 99.6267 187.24 99.2 187.24ZM99.74 185.34C100.127 185.34 100.473 185.273 100.78 185.14C101.087 184.993 101.347 184.793 101.56 184.54C101.773 184.287 101.94 184 102.06 183.68C102.193 183.36 102.273 183.02 102.3 182.66V182.64H100.08C99.6 182.64 99.2067 182.7 98.9 182.82C98.6067 182.94 98.3867 183.107 98.24 183.32C98.1067 183.52 98.04 183.753 98.04 184.02C98.04 184.3 98.1067 184.54 98.24 184.74C98.3733 184.94 98.5667 185.093 98.82 185.2C99.0867 185.293 99.3933 185.34 99.74 185.34ZM107.265 187V172.6H109.665V187H107.265ZM116.364 187.24C115.497 187.24 114.731 187.1 114.064 186.82C113.397 186.527 112.871 186.127 112.484 185.62C112.097 185.1 111.864 184.513 111.784 183.86H114.204C114.271 184.127 114.391 184.38 114.564 184.62C114.751 184.847 114.991 185.027 115.284 185.16C115.591 185.293 115.944 185.36 116.344 185.36C116.731 185.36 117.051 185.307 117.304 185.2C117.557 185.08 117.744 184.933 117.864 184.76C117.984 184.573 118.044 184.373 118.044 184.16C118.044 183.84 117.957 183.6 117.784 183.44C117.611 183.28 117.357 183.153 117.024 183.06C116.704 182.953 116.317 182.847 115.864 182.74C115.424 182.647 114.977 182.533 114.524 182.4C114.084 182.267 113.684 182.093 113.324 181.88C112.977 181.667 112.691 181.4 112.464 181.08C112.251 180.747 112.144 180.347 112.144 179.88C112.144 179.293 112.297 178.767 112.604 178.3C112.924 177.82 113.377 177.447 113.964 177.18C114.564 176.913 115.271 176.78 116.084 176.78C117.244 176.78 118.171 177.053 118.864 177.6C119.571 178.133 119.984 178.88 120.104 179.84H117.824C117.757 179.467 117.571 179.18 117.264 178.98C116.971 178.767 116.577 178.66 116.084 178.66C115.564 178.66 115.171 178.76 114.904 178.96C114.637 179.16 114.504 179.413 114.504 179.72C114.504 179.92 114.591 180.1 114.764 180.26C114.937 180.42 115.184 180.56 115.504 180.68C115.824 180.787 116.204 180.887 116.644 180.98C117.364 181.127 118.004 181.3 118.564 181.5C119.137 181.7 119.597 181.993 119.944 182.38C120.291 182.753 120.464 183.3 120.464 184.02C120.477 184.647 120.311 185.207 119.964 185.7C119.631 186.18 119.157 186.56 118.544 186.84C117.931 187.107 117.204 187.24 116.364 187.24Z" fill="white"/>
<rect x="138" y="159" width="111" height="42" rx="21" fill="#FF4F3F"/>
<path d="M155.4 187V173H157.8V187H155.4ZM165.016 187.24C164.082 187.24 163.249 187.013 162.516 186.56C161.782 186.107 161.202 185.487 160.776 184.7C160.362 183.9 160.156 183 160.156 182C160.156 180.987 160.362 180.087 160.776 179.3C161.202 178.513 161.782 177.9 162.516 177.46C163.262 177.007 164.109 176.78 165.056 176.78C165.802 176.78 166.462 176.927 167.036 177.22C167.609 177.5 168.062 177.9 168.396 178.42V172.6H170.796V187H168.656L168.396 185.54C168.196 185.833 167.936 186.113 167.616 186.38C167.309 186.633 166.942 186.84 166.516 187C166.089 187.16 165.589 187.24 165.016 187.24ZM165.516 185.16C166.089 185.16 166.596 185.027 167.036 184.76C167.476 184.48 167.816 184.107 168.056 183.64C168.309 183.173 168.436 182.627 168.436 182C168.436 181.387 168.309 180.847 168.056 180.38C167.816 179.9 167.476 179.527 167.036 179.26C166.596 178.993 166.089 178.86 165.516 178.86C164.956 178.86 164.456 178.993 164.016 179.26C163.576 179.527 163.229 179.9 162.976 180.38C162.722 180.847 162.596 181.387 162.596 182C162.596 182.613 162.722 183.16 162.976 183.64C163.229 184.107 163.576 184.48 164.016 184.76C164.456 185.027 164.956 185.16 165.516 185.16ZM178.185 187.24C177.198 187.24 176.318 187.027 175.545 186.6C174.785 186.16 174.185 185.553 173.745 184.78C173.318 184.007 173.105 183.107 173.105 182.08C173.105 181.027 173.318 180.107 173.745 179.32C174.172 178.52 174.765 177.9 175.525 177.46C176.298 177.007 177.192 176.78 178.205 176.78C179.192 176.78 180.052 177 180.785 177.44C181.518 177.867 182.085 178.447 182.485 179.18C182.898 179.9 183.105 180.72 183.105 181.64C183.105 181.773 183.105 181.92 183.105 182.08C183.105 182.24 183.092 182.407 183.065 182.58H174.845V181.04H180.685C180.645 180.333 180.392 179.773 179.925 179.36C179.472 178.947 178.898 178.74 178.205 178.74C177.712 178.74 177.252 178.853 176.825 179.08C176.412 179.293 176.078 179.62 175.825 180.06C175.585 180.5 175.465 181.053 175.465 181.72V182.3C175.465 182.927 175.585 183.46 175.825 183.9C176.065 184.34 176.392 184.68 176.805 184.92C177.218 185.147 177.678 185.26 178.185 185.26C178.732 185.26 179.185 185.14 179.545 184.9C179.918 184.66 180.198 184.333 180.385 183.92H182.825C182.638 184.547 182.332 185.113 181.905 185.62C181.478 186.113 180.952 186.507 180.325 186.8C179.698 187.093 178.985 187.24 178.185 187.24ZM188.661 187.24C187.834 187.24 187.148 187.107 186.601 186.84C186.054 186.56 185.648 186.193 185.381 185.74C185.114 185.273 184.981 184.76 184.981 184.2C184.981 183.573 185.141 183.027 185.461 182.56C185.794 182.093 186.281 181.733 186.921 181.48C187.561 181.213 188.348 181.08 189.281 181.08H191.821C191.821 180.56 191.741 180.127 191.581 179.78C191.434 179.433 191.208 179.173 190.901 179C190.594 178.827 190.201 178.74 189.721 178.74C189.174 178.74 188.701 178.873 188.301 179.14C187.914 179.393 187.674 179.767 187.581 180.26H185.221C185.301 179.54 185.541 178.92 185.941 178.4C186.354 177.88 186.894 177.48 187.561 177.2C188.228 176.92 188.954 176.78 189.741 176.78C190.674 176.78 191.474 176.947 192.141 177.28C192.821 177.6 193.334 178.06 193.681 178.66C194.041 179.26 194.221 179.987 194.221 180.84V187H192.181L191.941 185.4C191.808 185.653 191.634 185.893 191.421 186.12C191.221 186.347 190.988 186.547 190.721 186.72C190.454 186.88 190.148 187.007 189.801 187.1C189.468 187.193 189.088 187.24 188.661 187.24ZM189.201 185.34C189.588 185.34 189.934 185.273 190.241 185.14C190.548 184.993 190.808 184.793 191.021 184.54C191.234 184.287 191.401 184 191.521 183.68C191.654 183.36 191.734 183.02 191.761 182.66V182.64H189.541C189.061 182.64 188.668 182.7 188.361 182.82C188.068 182.94 187.848 183.107 187.701 183.32C187.568 183.52 187.501 183.753 187.501 184.02C187.501 184.3 187.568 184.54 187.701 184.74C187.834 184.94 188.028 185.093 188.281 185.2C188.548 185.293 188.854 185.34 189.201 185.34ZM200.93 187C200.25 187 199.657 186.893 199.15 186.68C198.657 186.467 198.27 186.113 197.99 185.62C197.723 185.127 197.59 184.46 197.59 183.62V179.02H195.87V177.02H197.59L197.85 174.4H199.97V177.02H202.71V179.02H199.99V183.62C199.99 184.127 200.097 184.48 200.31 184.68C200.523 184.867 200.89 184.96 201.41 184.96H202.63V187H200.93ZM205.03 187V177.02H207.43V187H205.03ZM206.23 175.38C205.79 175.38 205.423 175.247 205.13 174.98C204.85 174.7 204.71 174.36 204.71 173.96C204.71 173.547 204.85 173.213 205.13 172.96C205.423 172.693 205.79 172.56 206.23 172.56C206.67 172.56 207.03 172.693 207.31 172.96C207.603 173.213 207.75 173.547 207.75 173.96C207.75 174.36 207.603 174.7 207.31 174.98C207.03 175.247 206.67 175.38 206.23 175.38ZM214.864 187.24C213.917 187.24 213.057 187.02 212.284 186.58C211.524 186.14 210.924 185.527 210.484 184.74C210.044 183.953 209.824 183.047 209.824 182.02C209.824 180.98 210.044 180.067 210.484 179.28C210.937 178.493 211.544 177.88 212.304 177.44C213.077 177 213.937 176.78 214.884 176.78C215.844 176.78 216.704 177 217.464 177.44C218.237 177.88 218.844 178.493 219.284 179.28C219.724 180.053 219.944 180.967 219.944 182.02C219.944 183.047 219.717 183.953 219.264 184.74C218.824 185.527 218.217 186.14 217.444 186.58C216.684 187.02 215.824 187.24 214.864 187.24ZM214.864 185.18C215.344 185.18 215.777 185.06 216.164 184.82C216.564 184.58 216.884 184.227 217.124 183.76C217.377 183.293 217.504 182.707 217.504 182C217.504 181.307 217.384 180.727 217.144 180.26C216.904 179.793 216.584 179.44 216.184 179.2C215.797 178.96 215.364 178.84 214.884 178.84C214.43 178.84 214.004 178.96 213.604 179.2C213.204 179.44 212.884 179.793 212.644 180.26C212.404 180.727 212.284 181.313 212.284 182.02C212.284 182.7 212.404 183.28 212.644 183.76C212.884 184.227 213.197 184.58 213.584 184.82C213.984 185.06 214.41 185.18 214.864 185.18ZM222.234 187V177.02H224.374L224.534 178.7C224.854 178.113 225.301 177.647 225.874 177.3C226.461 176.953 227.141 176.78 227.914 176.78C228.741 176.78 229.441 176.953 230.014 177.3C230.587 177.633 231.027 178.133 231.334 178.8C231.641 179.467 231.794 180.287 231.794 181.26V187H229.394V181.5C229.394 180.633 229.207 179.967 228.834 179.5C228.474 179.033 227.921 178.8 227.174 178.8C226.694 178.8 226.261 178.92 225.874 179.16C225.487 179.4 225.181 179.74 224.954 180.18C224.741 180.607 224.634 181.14 224.634 181.78V187H222.234Z" fill="white"/>
<rect x="89.5" y="201" width="121" height="42" rx="21" fill="#1CB785"/>
<path d="M106.9 229V215H111.92C113.04 215 113.96 215.193 114.68 215.58C115.4 215.953 115.933 216.46 116.28 217.1C116.64 217.727 116.82 218.44 116.82 219.24C116.82 219.987 116.647 220.68 116.3 221.32C115.953 221.96 115.413 222.473 114.68 222.86C113.947 223.247 113.013 223.44 111.88 223.44H109.3V229H106.9ZM114.2 229L111.26 222.82H113.88L116.96 229H114.2ZM109.3 221.66H111.76C112.653 221.66 113.307 221.447 113.72 221.02C114.147 220.58 114.36 220.007 114.36 219.3C114.36 218.607 114.153 218.053 113.74 217.64C113.327 217.213 112.667 217 111.76 217H109.3V221.66ZM123.318 229.24C122.331 229.24 121.451 229.027 120.678 228.6C119.918 228.16 119.318 227.553 118.878 226.78C118.451 226.007 118.238 225.107 118.238 224.08C118.238 223.027 118.451 222.107 118.878 221.32C119.304 220.52 119.898 219.9 120.658 219.46C121.431 219.007 122.324 218.78 123.338 218.78C124.324 218.78 125.184 219 125.918 219.44C126.651 219.867 127.218 220.447 127.618 221.18C128.031 221.9 128.238 222.72 128.238 223.64C128.238 223.773 128.238 223.92 128.238 224.08C128.238 224.24 128.224 224.407 128.198 224.58H119.978V223.04H125.818C125.778 222.333 125.524 221.773 125.058 221.36C124.604 220.947 124.031 220.74 123.338 220.74C122.844 220.74 122.384 220.853 121.958 221.08C121.544 221.293 121.211 221.62 120.958 222.06C120.718 222.5 120.598 223.053 120.598 223.72V224.3C120.598 224.927 120.718 225.46 120.958 225.9C121.198 226.34 121.524 226.68 121.938 226.92C122.351 227.147 122.811 227.26 123.318 227.26C123.864 227.26 124.318 227.14 124.678 226.9C125.051 226.66 125.331 226.333 125.518 225.92H127.958C127.771 226.547 127.464 227.113 127.038 227.62C126.611 228.113 126.084 228.507 125.458 228.8C124.831 229.093 124.118 229.24 123.318 229.24ZM134.454 229.24C133.587 229.24 132.82 229.1 132.154 228.82C131.487 228.527 130.96 228.127 130.574 227.62C130.187 227.1 129.954 226.513 129.874 225.86H132.294C132.36 226.127 132.48 226.38 132.654 226.62C132.84 226.847 133.08 227.027 133.374 227.16C133.68 227.293 134.034 227.36 134.434 227.36C134.82 227.36 135.14 227.307 135.394 227.2C135.647 227.08 135.834 226.933 135.954 226.76C136.074 226.573 136.134 226.373 136.134 226.16C136.134 225.84 136.047 225.6 135.874 225.44C135.7 225.28 135.447 225.153 135.114 225.06C134.794 224.953 134.407 224.847 133.954 224.74C133.514 224.647 133.067 224.533 132.614 224.4C132.174 224.267 131.774 224.093 131.414 223.88C131.067 223.667 130.78 223.4 130.554 223.08C130.34 222.747 130.234 222.347 130.234 221.88C130.234 221.293 130.387 220.767 130.694 220.3C131.014 219.82 131.467 219.447 132.054 219.18C132.654 218.913 133.36 218.78 134.174 218.78C135.334 218.78 136.26 219.053 136.954 219.6C137.66 220.133 138.074 220.88 138.194 221.84H135.914C135.847 221.467 135.66 221.18 135.354 220.98C135.06 220.767 134.667 220.66 134.174 220.66C133.654 220.66 133.26 220.76 132.994 220.96C132.727 221.16 132.594 221.413 132.594 221.72C132.594 221.92 132.68 222.1 132.854 222.26C133.027 222.42 133.274 222.56 133.594 222.68C133.914 222.787 134.294 222.887 134.734 222.98C135.454 223.127 136.094 223.3 136.654 223.5C137.227 223.7 137.687 223.993 138.034 224.38C138.38 224.753 138.554 225.3 138.554 226.02C138.567 226.647 138.4 227.207 138.054 227.7C137.72 228.18 137.247 228.56 136.634 228.84C136.02 229.107 135.294 229.24 134.454 229.24ZM145.583 229.24C144.597 229.24 143.717 229.027 142.943 228.6C142.183 228.16 141.583 227.553 141.143 226.78C140.717 226.007 140.503 225.107 140.503 224.08C140.503 223.027 140.717 222.107 141.143 221.32C141.57 220.52 142.163 219.9 142.923 219.46C143.697 219.007 144.59 218.78 145.603 218.78C146.59 218.78 147.45 219 148.183 219.44C148.917 219.867 149.483 220.447 149.883 221.18C150.297 221.9 150.503 222.72 150.503 223.64C150.503 223.773 150.503 223.92 150.503 224.08C150.503 224.24 150.49 224.407 150.463 224.58H142.243V223.04H148.083C148.043 222.333 147.79 221.773 147.323 221.36C146.87 220.947 146.297 220.74 145.603 220.74C145.11 220.74 144.65 220.853 144.223 221.08C143.81 221.293 143.477 221.62 143.223 222.06C142.983 222.5 142.863 223.053 142.863 223.72V224.3C142.863 224.927 142.983 225.46 143.223 225.9C143.463 226.34 143.79 226.68 144.203 226.92C144.617 227.147 145.077 227.26 145.583 227.26C146.13 227.26 146.583 227.14 146.943 226.9C147.317 226.66 147.597 226.333 147.783 225.92H150.223C150.037 226.547 149.73 227.113 149.303 227.62C148.877 228.113 148.35 228.507 147.723 228.8C147.097 229.093 146.383 229.24 145.583 229.24ZM156.059 229.24C155.233 229.24 154.546 229.107 153.999 228.84C153.453 228.56 153.046 228.193 152.779 227.74C152.513 227.273 152.379 226.76 152.379 226.2C152.379 225.573 152.539 225.027 152.859 224.56C153.193 224.093 153.679 223.733 154.319 223.48C154.959 223.213 155.746 223.08 156.679 223.08H159.219C159.219 222.56 159.139 222.127 158.979 221.78C158.833 221.433 158.606 221.173 158.299 221C157.993 220.827 157.599 220.74 157.119 220.74C156.573 220.74 156.099 220.873 155.699 221.14C155.313 221.393 155.073 221.767 154.979 222.26H152.619C152.699 221.54 152.939 220.92 153.339 220.4C153.753 219.88 154.293 219.48 154.959 219.2C155.626 218.92 156.353 218.78 157.139 218.78C158.073 218.78 158.873 218.947 159.539 219.28C160.219 219.6 160.733 220.06 161.079 220.66C161.439 221.26 161.619 221.987 161.619 222.84V229H159.579L159.339 227.4C159.206 227.653 159.033 227.893 158.819 228.12C158.619 228.347 158.386 228.547 158.119 228.72C157.853 228.88 157.546 229.007 157.199 229.1C156.866 229.193 156.486 229.24 156.059 229.24ZM156.599 227.34C156.986 227.34 157.333 227.273 157.639 227.14C157.946 226.993 158.206 226.793 158.419 226.54C158.633 226.287 158.799 226 158.919 225.68C159.053 225.36 159.133 225.02 159.159 224.66V224.64H156.939C156.459 224.64 156.066 224.7 155.759 224.82C155.466 224.94 155.246 225.107 155.099 225.32C154.966 225.52 154.899 225.753 154.899 226.02C154.899 226.3 154.966 226.54 155.099 226.74C155.233 226.94 155.426 227.093 155.679 227.2C155.946 227.293 156.253 227.34 156.599 227.34ZM164.125 229V219.02H166.285L166.505 220.9C166.731 220.46 167.018 220.087 167.365 219.78C167.725 219.46 168.138 219.213 168.605 219.04C169.085 218.867 169.618 218.78 170.205 218.78V221.3H169.465C169.051 221.3 168.665 221.353 168.305 221.46C167.945 221.553 167.631 221.713 167.365 221.94C167.098 222.167 166.891 222.473 166.745 222.86C166.598 223.247 166.525 223.727 166.525 224.3V229H164.125ZM176.561 229.24C175.561 229.24 174.675 229.02 173.901 228.58C173.128 228.127 172.521 227.513 172.081 226.74C171.641 225.953 171.421 225.047 171.421 224.02C171.421 222.98 171.641 222.073 172.081 221.3C172.521 220.513 173.128 219.9 173.901 219.46C174.675 219.007 175.561 218.78 176.561 218.78C177.828 218.78 178.888 219.107 179.741 219.76C180.595 220.413 181.135 221.307 181.361 222.44H178.841C178.721 221.933 178.448 221.54 178.021 221.26C177.608 220.98 177.115 220.84 176.541 220.84C176.048 220.84 175.601 220.967 175.201 221.22C174.801 221.46 174.481 221.82 174.241 222.3C174.001 222.767 173.881 223.333 173.881 224C173.881 224.507 173.948 224.96 174.081 225.36C174.215 225.747 174.401 226.08 174.641 226.36C174.895 226.64 175.181 226.853 175.501 227C175.835 227.133 176.181 227.2 176.541 227.2C176.928 227.2 177.275 227.14 177.581 227.02C177.901 226.887 178.168 226.7 178.381 226.46C178.608 226.207 178.761 225.913 178.841 225.58H181.361C181.135 226.687 180.588 227.573 179.721 228.24C178.868 228.907 177.815 229.24 176.561 229.24ZM183.656 229V214.6H186.056V220.58C186.389 220.02 186.843 219.58 187.416 219.26C187.989 218.94 188.643 218.78 189.376 218.78C190.189 218.78 190.883 218.953 191.456 219.3C192.029 219.633 192.463 220.133 192.756 220.8C193.063 221.467 193.216 222.293 193.216 223.28V229H190.836V223.52C190.836 222.64 190.656 221.967 190.296 221.5C189.949 221.033 189.396 220.8 188.636 220.8C188.156 220.8 187.716 220.92 187.316 221.16C186.929 221.4 186.623 221.74 186.396 222.18C186.169 222.62 186.056 223.16 186.056 223.8V229H183.656Z" fill="white"/>
</svg>
