<svg width="72" height="72" viewBox="0 0 72 72" fill="none" xmlns="http://www.w3.org/2000/svg">
<path d="M32.6386 4.6385C34.296 2.35143 37.704 2.35143 39.3614 4.6385C40.6348 6.39583 43.047 6.87564 44.896 5.73942C47.3025 4.26068 50.451 5.56487 51.107 8.31209C51.611 10.423 53.656 11.7894 55.7991 11.4472C58.5882 11.002 60.998 13.4118 60.5528 16.2009C60.2106 18.344 61.577 20.389 63.6879 20.893C66.4351 21.549 67.7393 24.6975 66.2606 27.104C65.1244 28.953 65.6042 31.3652 67.3615 32.6386C69.6486 34.296 69.6486 37.704 67.3615 39.3614C65.6042 40.6348 65.1244 43.047 66.2606 44.896C67.7393 47.3025 66.4351 50.451 63.6879 51.107C61.577 51.611 60.2106 53.656 60.5528 55.7991C60.998 58.5882 58.5882 60.998 55.7991 60.5528C53.656 60.2106 51.611 61.577 51.107 63.6879C50.451 66.4351 47.3025 67.7393 44.896 66.2606C43.047 65.1244 40.6348 65.6042 39.3614 67.3615C37.704 69.6486 34.296 69.6486 32.6386 67.3615C31.3652 65.6042 28.953 65.1244 27.104 66.2606C24.6975 67.7393 21.549 66.4351 20.893 63.6879C20.389 61.577 18.344 60.2106 16.2009 60.5528C13.4118 60.998 11.002 58.5882 11.4472 55.7991C11.7894 53.656 10.423 51.611 8.31209 51.107C5.56487 50.451 4.26068 47.3025 5.73942 44.896C6.87564 43.047 6.39583 40.6348 4.6385 39.3614C2.35143 37.704 2.35143 34.296 4.6385 32.6386C6.39583 31.3652 6.87564 28.953 5.73942 27.104C4.26068 24.6975 5.56487 21.549 8.31209 20.893C10.423 20.389 11.7894 18.344 11.4472 16.2009C11.002 13.4118 13.4118 11.002 16.2009 11.4472C18.344 11.7894 20.389 10.423 20.893 8.31209C21.549 5.56487 24.6975 4.26068 27.104 5.73942C28.953 6.87564 31.3652 6.39583 32.6386 4.6385Z" fill="#9D89FC"/>
<path d="M21 28V37.5957L24.3867 45.7305H31.3926L29.2012 37.8945H33.418V28H21ZM36.5723 28V37.5957L39.959 45.7305H46.9648L44.7734 37.8945H48.9902V28H36.5723Z" fill="#E9FA49"/>
</svg>
