<svg width="51" height="29" viewBox="0 0 51 29" fill="none" xmlns="http://www.w3.org/2000/svg">
<path d="M25.3877 1.50293C26.3736 1.46498 27.3149 1.88919 27.9307 2.64551L37.4199 14.2852L44.6953 9.65918L44.6992 9.65723C45.7389 8.99994 47.0896 9.0013 48.1289 9.68555C49.1826 10.3785 49.7158 11.6485 49.418 12.8945L49.417 12.8984L46.1631 26.3525L45.8857 27.5H5.11523L4.83789 26.3525L1.58301 12.8984V12.8975C1.29129 11.6873 1.78523 10.4521 2.78125 9.74609L2.7832 9.74414C3.76663 9.04951 5.0698 8.97885 6.12207 9.55273H6.12305L14.8896 14.333L22.9316 2.82617L22.9326 2.8252C23.4989 2.01637 24.4169 1.53658 25.3877 1.50195V1.50293Z" fill="#E9FA49" stroke="#9D89FC" stroke-width="3"/>
</svg>
