<svg width="39" height="39" viewBox="0 0 39 39" fill="none" xmlns="http://www.w3.org/2000/svg">
<path d="M19.1865 2.23828C20.9368 2.23828 22.6136 2.93889 23.8477 4.18262L24.0723 4.4209C25.1647 5.63677 25.7715 7.21957 25.7715 8.86328V13.2266H30.0889C31.8391 13.2266 33.516 13.9272 34.75 15.1709L34.9746 15.4092C36.067 16.6251 36.6738 18.2078 36.6738 19.8516C36.6738 21.6048 35.9836 23.2889 34.75 24.5322C33.516 25.7759 31.8391 26.4766 30.0889 26.4766H25.7715V30.8398C25.7714 32.4835 25.1647 34.0664 24.0723 35.2822L23.8477 35.5205C22.6136 36.7642 20.9368 37.4648 19.1865 37.4648C17.5457 37.4648 15.97 36.8488 14.7627 35.7471L14.5264 35.5205C13.2928 34.2772 12.6016 32.5931 12.6016 30.8398V26.4766H8.28418C6.64336 26.4765 5.06768 25.8605 3.86035 24.7588L3.62402 24.5322C2.39041 23.2889 1.69924 21.6048 1.69922 19.8516C1.69922 18.0983 2.39039 16.4142 3.62402 15.1709L3.86035 14.9443C5.06769 13.8426 6.64333 13.2266 8.28418 13.2266H12.6016V8.86328C12.6016 7.11 13.2928 5.42593 14.5264 4.18262L14.7627 3.95605C15.97 2.85431 17.5457 2.23833 19.1865 2.23828Z" fill="#1CB785" stroke="#051A2F" stroke-width="3"/>
</svg>
