<svg width="39" height="39" viewBox="0 0 39 39" fill="none" xmlns="http://www.w3.org/2000/svg">
<path d="M19.4639 1.92969C21.2141 1.92969 22.891 2.6303 24.125 3.87402L24.3496 4.1123C25.442 5.32818 26.0488 6.91097 26.0488 8.55469V12.918H30.3662C32.1165 12.918 33.7933 13.6186 35.0273 14.8623L35.252 15.1006C36.3443 16.3165 36.9512 17.8992 36.9512 19.543C36.9512 21.2962 36.2609 22.9803 35.0273 24.2236C33.7933 25.4674 32.1165 26.168 30.3662 26.168H26.0488V30.5312C26.0488 32.175 25.442 33.7578 24.3496 34.9736L24.125 35.2119C22.891 36.4556 21.2142 37.1562 19.4639 37.1562C17.8231 37.1562 16.2473 36.5402 15.04 35.4385L14.8037 35.2119C13.5701 33.9686 12.879 32.2845 12.8789 30.5312V26.168H8.56152C6.92071 26.1679 5.34502 25.5519 4.1377 24.4502L3.90137 24.2236C2.66776 22.9803 1.97658 21.2962 1.97656 19.543C1.97656 17.7897 2.66774 16.1056 3.90137 14.8623L4.1377 14.6357C5.34503 13.534 6.92067 12.918 8.56152 12.918H12.8789V8.55469C12.8789 6.80141 13.5701 5.11734 14.8037 3.87402L15.04 3.64746C16.2474 2.54572 17.8231 1.92974 19.4639 1.92969Z" fill="#E9FA49" stroke="#051A2F" stroke-width="3"/>
</svg>
