<svg width="63" height="36" viewBox="0 0 63 36" fill="none" xmlns="http://www.w3.org/2000/svg">
<path d="M31.3633 1.64941C32.4927 1.60281 33.5682 2.0902 34.2695 2.9541L34.2705 2.95312L46.5137 18.0088L56.0273 11.9453L56.0312 11.9434L56.2578 11.8105C57.4094 11.194 58.835 11.2416 59.9453 11.9746H59.9463C61.1446 12.7647 61.7439 14.2065 61.4082 15.6152L61.4072 15.6191L57.2842 32.7031L57.0078 33.8516H5.99316L5.71582 32.7031L1.59375 15.6191V15.6182C1.26488 14.2502 1.81991 12.8488 2.95215 12.0439L2.9541 12.042L3.16895 11.9014C4.26054 11.2407 5.63905 11.2078 6.76465 11.8232H6.76562L18.1836 18.0645L28.5742 3.15918L28.5752 3.1582L28.7002 2.98926C29.3466 2.17333 30.326 1.68982 31.3633 1.65039V1.64941Z" fill="#FF8F27" stroke="#051A2F" stroke-width="3"/>
</svg>
