<svg width="38" height="37" viewBox="0 0 38 37" fill="none" xmlns="http://www.w3.org/2000/svg">
<path d="M18.9873 1.5C20.627 1.5 22.0877 2.39158 22.8486 3.83887L26.0186 9.8418L26.0205 9.8457L26.0566 9.90039C26.0834 9.93204 26.115 9.95506 26.1504 9.96973L26.207 9.98535L26.2139 9.98633L32.8496 11.167H32.8506C34.3746 11.4348 35.5874 12.447 36.1514 13.8506L36.2559 14.1367L36.3418 14.4375C36.7097 15.9114 36.3058 17.4408 35.2461 18.5479L35.2451 18.5488L30.5596 23.4365L30.5557 23.4404C30.4977 23.5006 30.4666 23.5842 30.4805 23.6865L31.4219 30.418V30.4209L31.4531 30.7246C31.5589 32.2349 30.9009 33.6693 29.665 34.5801L29.6602 34.584C28.3318 35.5545 26.6378 35.6962 25.168 34.9805L25.1621 34.9775L19.1025 31.9932H19.1016C19.0292 31.9576 18.947 31.9544 18.8613 31.9961L12.8076 34.9775L12.8047 34.9795C12.1967 35.2775 11.5388 35.4306 10.875 35.4307C9.96527 35.4307 9.0718 35.1382 8.3125 34.5869L8.30664 34.582L8.30078 34.5781C6.99067 33.6065 6.33034 32.0397 6.55273 30.4209L6.55371 30.418L7.49512 23.6865C7.50897 23.5842 7.47695 23.5006 7.41895 23.4404L7.41602 23.4365L2.72949 18.5488V18.5479C1.59906 17.367 1.21404 15.7056 1.7168 14.1436L1.82031 13.8555C2.34369 12.5388 3.4428 11.5712 4.81836 11.2305L5.11719 11.167L11.7559 9.98633L11.7656 9.98535L11.8242 9.96875C11.8796 9.94628 11.9238 9.90549 11.9551 9.8457L11.9561 9.84277L15.1201 3.83984L15.1221 3.83691L15.2734 3.57324C16.0688 2.28698 17.441 1.50007 18.9873 1.5Z" fill="#9D89FC" stroke="#051A2F" stroke-width="3"/>
</svg>
