<svg width="30" height="29" viewBox="0 0 30 29" fill="none" xmlns="http://www.w3.org/2000/svg">
<path d="M20.0039 2.11523C24.6899 2.11549 28.4997 5.92536 28.5 10.6113C28.5 13.6811 26.9849 16.7343 24.3408 19.6836L23.7979 20.2715C21.6155 22.5651 19.0292 24.5031 17.0332 25.8457L16.2168 26.3838L15.8145 26.6436L15 27.1699L14.1855 26.6436L13.7832 26.3838C11.847 25.1326 9.07024 23.1594 6.67578 20.7578L6.20215 20.2715C3.22349 17.1409 1.5 13.8856 1.5 10.6113C1.50026 5.92535 5.31015 2.11547 9.99609 2.11523C11.3507 2.11523 12.6545 2.42745 13.8574 3.04199L14.1621 3.20508C14.4519 3.36855 14.7315 3.54993 15 3.74609C15.3614 3.48208 15.7437 3.24579 16.1426 3.04199L16.5977 2.82617C17.6717 2.35455 18.8184 2.11523 20.0039 2.11523Z" fill="#FF4F3F" stroke="#051A2F" stroke-width="3"/>
</svg>
