<svg width="143" height="34" viewBox="0 0 143 34" fill="none" xmlns="http://www.w3.org/2000/svg">
<g clip-path="url(#clip0_14806_829)">
<path d="M17.7492 10.9394C17.9725 10.562 17.9456 10.0815 17.6817 9.73293L10.3131 0H24.5162C24.9899 0 25.4374 0.223581 25.7307 0.606744L32.0397 8.84774C32.5736 9.54519 32.6302 10.5112 32.1814 11.2697L25.7864 22.0795C25.5056 22.5541 25.0051 22.8438 24.4656 22.8438H20.5034L27.5449 10.9412C27.7688 10.5629 27.7412 10.0811 27.4758 9.73249L23.3023 4.25H18.7479L22.2486 8.84863C22.7794 9.54591 22.8344 10.5094 22.3868 11.266L15.2507 23.3285C15.0281 23.7047 15.054 24.1835 15.3158 24.5319L22.4303 34H8.23063C7.75504 34 7.30588 33.7746 7.01268 33.3888L0.954192 25.4165C0.424339 24.7193 0.369674 23.7566 0.816996 23.0005L7.0576 12.4518C7.33839 11.9771 7.83893 11.6875 8.37845 11.6875H12.3406L5.45634 23.3242C5.23252 23.7026 5.26007 24.1843 5.52547 24.5329L9.49694 29.75H14.0514L10.7528 25.4168C10.222 24.7195 10.1669 23.7561 10.6145 22.9994L17.7492 10.9394Z" fill="#9D89FC"/>
</g>
<path d="M41 3.38889H47.3341C49.5362 3.38889 51.1424 3.90741 52.1527 4.94444C53.1631 5.95556 53.6683 7.52407 53.6683 9.65V11.3222C53.6683 14.1481 52.7356 15.937 50.8704 16.6889V16.7667C51.9066 17.0778 52.632 17.713 53.0465 18.6722C53.4869 19.6315 53.7071 20.9148 53.7071 22.5222V27.3056C53.7071 28.0833 53.733 28.7185 53.7848 29.2111C53.8366 29.6778 53.9662 30.1444 54.1734 30.6111H49.8211C49.6657 30.1704 49.5621 29.7556 49.5103 29.3667C49.4585 28.9778 49.4326 28.2778 49.4326 27.2667V22.2889C49.4326 21.0444 49.2253 20.1759 48.8108 19.6833C48.4222 19.1907 47.7357 18.9444 46.7512 18.9444H45.2746V30.6111H41V3.38889ZM46.829 15.0556C47.6839 15.0556 48.3186 14.8352 48.7331 14.3944C49.1735 13.9537 49.3937 13.2148 49.3937 12.1778V10.0778C49.3937 9.09259 49.2123 8.37963 48.8497 7.93889C48.5129 7.49815 47.9688 7.27778 47.2175 7.27778H45.2746V15.0556H46.829Z" fill="white"/>
<path d="M56.6729 3.38889H68.3308V7.27778H60.9475V14.4722H66.8153V18.3611H60.9475V26.7222H68.3308V30.6111H56.6729V3.38889Z" fill="white"/>
<path d="M69.663 3.38889H73.9764L76.7743 24.5056H76.852L79.6499 3.38889H83.5747L79.4556 30.6111H73.7821L69.663 3.38889Z" fill="white"/>
<path d="M85.6279 3.38889H97.2858V7.27778H89.9025V14.4722H95.7703V18.3611H89.9025V26.7222H97.2858V30.6111H85.6279V3.38889Z" fill="white"/>
<path d="M99.7449 3.38889H105.108L109.266 19.6833H109.343V3.38889H113.152V30.6111H108.76L103.631 10.7389H103.553V30.6111H99.7449V3.38889Z" fill="white"/>
<path d="M119.671 7.27778H115.202V3.38889H128.414V7.27778H123.945V30.6111H119.671V7.27778Z" fill="white"/>
<path d="M136.51 31C134.412 31 132.806 30.4037 131.692 29.2111C130.578 28.0185 130.021 26.3333 130.021 24.1556V9.84444C130.021 7.66667 130.578 5.98148 131.692 4.78889C132.806 3.5963 134.412 3 136.51 3C138.609 3 140.215 3.5963 141.329 4.78889C142.443 5.98148 143 7.66667 143 9.84444V24.1556C143 26.3333 142.443 28.0185 141.329 29.2111C140.215 30.4037 138.609 31 136.51 31ZM136.51 27.1111C137.987 27.1111 138.725 26.2167 138.725 24.4278V9.57222C138.725 7.78333 137.987 6.88889 136.51 6.88889C135.034 6.88889 134.295 7.78333 134.295 9.57222V24.4278C134.295 26.2167 135.034 27.1111 136.51 27.1111Z" fill="white"/>
<defs>
<clipPath id="clip0_14806_829">
<rect width="33" height="34" fill="white"/>
</clipPath>
</defs>
</svg>
