<svg width="20" height="20" viewBox="0 0 20 20" fill="none" xmlns="http://www.w3.org/2000/svg">
<g clip-path="url(#clip0_16823_7282)">
<path d="M10 0C4.47734 0 0 4.47734 0 10C0 15.5227 4.47734 20 10 20C15.5227 20 20 15.5227 20 10C20 4.47734 15.5227 0 10 0Z" fill="#9D89FC"/>
<path d="M11.094 9.09482L15.3749 4.11865H14.3605L10.6434 8.4394L7.67454 4.11865H4.25035L8.73979 10.6524L4.25035 15.8707H5.26484L9.19019 11.3078L12.3255 15.8707H15.7497L11.0937 9.09482H11.094ZM5.63037 4.88235H7.18856L14.3609 15.1417H12.8027L5.63037 4.88235Z" fill="white"/>
</g>
<defs>
<clipPath id="clip0_16823_7282">
<rect width="20" height="20" fill="white"/>
</clipPath>
</defs>
</svg>
